<?xml version="1.0" standalone="no"?>
<!DOCTYPE svg PUBLIC "-//W3C//DTD SVG 1.1//EN" "http://www.w3.org/Graphics/SVG/1.1/DTD/svg11.dtd" >
<svg xmlns="http://www.w3.org/2000/svg" xmlns:xlink="http://www.w3.org/1999/xlink" version="1.1">
<metadata>
Created by FontForge 20170731 at Wed Mar  8 15:04:41 2017
 By Aleksey,,,
(c)2013-2015 Orkney is a trademark of Samuel Oakes and Alfredo Marco Pradil. All rights reserved.
</metadata>
<defs>
<font id="Orkney-MediumItalic" horiz-adv-x="0" >
  <font-face 
    font-family="Orkney Medium"
    font-weight="500"
    font-style="italic"
    font-stretch="normal"
    units-per-em="1000"
    panose-1="0 0 6 0 0 0 0 0 0 0"
    ascent="750"
    descent="-250"
    x-height="500"
    cap-height="750"
    bbox="-726 -353 1244 1022"
    underline-thickness="43"
    underline-position="-226"
    unicode-range="U+0020-FB02"
  />
<missing-glyph horiz-adv-x="605" 
d="M87 0l92 750h431l-92 -750h-431zM182 85h261l72 580h-261z" />
    <glyph glyph-name="fi" unicode="fi" horiz-adv-x="616" 
d="M452 668q-62 0 -104 -34t-49 -92l-6 -42h308l-61 -500h-111l51 415h-197l-51 -415h-111l51 415h-84l10 85h84l6 48q12 96 84.5 154t178.5 58q96 0 179 -42l-12 -101q-85 51 -166 51z" />
    <glyph glyph-name="fl" unicode="fl" horiz-adv-x="719" 
d="M691 109l52 -75q-48 -44 -124 -44q-80 0 -121.5 47t-31.5 123l61 497q-38 11 -76 11q-40 0 -73 -15t-54 -44t-25 -67l-6 -42h127l-10 -85h-127l-51 -415h-111l51 415h-84l10 85h84l6 48q8 63 44 111.5t92.5 74.5t124.5 26q45 0 94 -10h106l-5 -41l1 -1l-13 -104l-1 1
l-53 -445q-10 -75 55 -75q34 0 58 24z" />
    <glyph glyph-name=".notdef" horiz-adv-x="605" 
d="M87 0l92 750h431l-92 -750h-431zM182 85h261l72 580h-261z" />
    <glyph glyph-name=".null" 
 />
    <glyph glyph-name="nonmarkingreturn" horiz-adv-x="333" 
 />
    <glyph glyph-name="space" unicode=" " horiz-adv-x="260" 
 />
    <glyph glyph-name="exclam" unicode="!" horiz-adv-x="310" 
d="M140 232l51 518h111l-77 -518h-85zM154 -10q-28 0 -45.5 20t-14.5 48q4 28 26.5 48t50 20t45.5 -20t14 -48q-3 -28 -25.5 -48t-50.5 -20z" />
    <glyph glyph-name="quotedbl" unicode="&#x22;" horiz-adv-x="465" 
d="M157 464l22 286h105l-48 -286h-79zM343 464l22 286h105l-48 -286h-79z" />
    <glyph glyph-name="numbersign" unicode="#" horiz-adv-x="802" 
d="M180 0l45 170h-141l21 81h141l58 214h-142l23 80h139l46 172h79l-44 -172h179l45 172h80l-45 -172h142l-23 -80h-140l-56 -214h140l-21 -81h-140l-47 -170h-79l45 170h-181l-44 -170h-80zM327 251h179l57 214h-180z" />
    <glyph glyph-name="dollar" unicode="$" horiz-adv-x="662" 
d="M610 213q-11 -89 -78 -144.5t-155 -68.5l-10 -84h-98l10 84q-68 12 -119 51.5t-72 93.5l87 49q17 -47 61.5 -76.5t106.5 -29.5q66 0 114 32.5t54 86.5q5 35 -13.5 60t-50.5 41t-71.5 29.5t-79 30.5t-71 38.5t-48 59t-10.5 87.5q10 82 68 133.5t136 63.5l11 86h98l-11 -87
q93 -20 147 -87l-72 -56q-21 28 -55.5 45t-75.5 17q-55 0 -97.5 -29.5t-48.5 -79.5q-4 -30 9.5 -53.5t39 -37.5t58.5 -28.5t68 -25.5t67.5 -29t57 -39t37 -55t6.5 -78z" />
    <glyph glyph-name="percent" unicode="%" horiz-adv-x="780" 
d="M250 425q-61 0 -98 49t-28 118q8 70 57 119t110 49t97.5 -49t28.5 -119q-9 -69 -57.5 -118t-109.5 -49zM77 0l602 750h115l-601 -750h-116zM261 510q25 0 46.5 24t25.5 58q2 17 -1.5 32.5t-10.5 26.5t-17.5 17.5t-22.5 6.5q-16 0 -31.5 -11t-26 -30t-13.5 -42
q-5 -34 10.5 -58t40.5 -24zM582 -10q-62 0 -98.5 49t-28.5 119q6 45 30 83.5t61 61t77 22.5q61 0 97.5 -49t27.5 -118q-8 -70 -57 -119t-109 -49zM591 75q25 0 46 24t25 59q5 34 -10.5 58t-40 24t-45.5 -24t-26 -58q-4 -35 11 -59t40 -24z" />
    <glyph glyph-name="ampersand" unicode="&#x26;" horiz-adv-x="728" 
d="M699 62l-80 -71l-86 98l-38 -34q-75 -66 -170 -65.5t-153 65.5q-59 67 -47 161.5t86 160.5l38 34l-16 19q-49 56 -39 137q9 79 72.5 135t143.5 56t129.5 -56t40.5 -135h-99q4 38 -20.5 65.5t-62.5 27.5q-39 0 -70.5 -27.5t-36.5 -67.5q-4 -36 20 -66l239 -270l110 97
l61 -70l-108 -97zM433 126l38 33l-160 182l-38 -34q-43 -38 -49.5 -90.5t26.5 -90.5q35 -38 88 -38t95 38z" />
    <glyph glyph-name="quotesingle" unicode="'" horiz-adv-x="279" 
d="M157 464l22 286h105l-48 -286h-79z" />
    <glyph glyph-name="parenleft" unicode="(" horiz-adv-x="409" 
d="M308 -335q-123 5 -183.5 157.5t-27.5 425.5q34 274 132 428t223 159l-10 -80q-82 -7 -150 -140.5t-97 -366.5q-28 -231 7.5 -363.5t115.5 -139.5z" />
    <glyph glyph-name="parenright" unicode=")" horiz-adv-x="409" 
d="M19 -335l10 80q81 7 149 139.5t96 363.5q29 233 -6.5 366.5t-114.5 140.5l10 80q122 -5 182.5 -159t26.5 -428q-33 -273 -131 -425.5t-222 -157.5z" />
    <glyph glyph-name="asterisk" unicode="*" horiz-adv-x="350" 
d="M197 498l-46 30l64 76l-95 -10l7 59l93 -10l-46 76l54 30l28 -86l50 86l47 -30l-65 -76l95 10l-7 -59l-93 10l47 -76l-55 -30l-28 86z" />
    <glyph glyph-name="plus" unicode="+" horiz-adv-x="794" 
d="M355 0l33 267h-268l10 86h268l33 267h85l-33 -267h267l-10 -86h-267l-33 -267h-85z" />
    <glyph glyph-name="comma" unicode="," horiz-adv-x="224" 
d="M26 -181l6 52q31 0 55 32t28 63q3 25 -11 25q-28 0 -45 19.5t-14 47.5q4 29 26 48.5t50 19.5q40 0 56.5 -32t9.5 -82q-8 -72 -54 -132.5t-107 -60.5z" />
    <glyph glyph-name="hyphen" unicode="-" horiz-adv-x="524" 
d="M114 222l10 76h350l-10 -76h-350z" />
    <glyph glyph-name="period" unicode="." horiz-adv-x="196" 
d="M97 -10q-28 0 -45.5 20t-14.5 48q2 18 13.5 34t28 25t35 9t33 -9t21.5 -25t5 -34t-13 -34t-28 -25t-35 -9z" />
    <glyph glyph-name="slash" unicode="/" horiz-adv-x="607" 
d="M-52 -250l653 1000h105l-652 -1000h-106z" />
    <glyph glyph-name="zero" unicode="0" horiz-adv-x="682" 
d="M340 -10q-79 0 -135.5 49.5t-80.5 137.5t-10.5 198t59 198t114.5 137.5t147 49.5t134.5 -49.5t81 -137.5t10.5 -198q-20 -167 -111 -276t-209 -109zM353 88q69 0 125 81.5t71 205.5t-21 205.5t-105 81.5q-70 0 -126.5 -81.5t-71.5 -205.5t21.5 -205.5t106.5 -81.5z" />
    <glyph glyph-name="one" unicode="1" horiz-adv-x="420" 
d="M191 0l76 617l-166 -120l16 133l175 120h102l-92 -750h-111z" />
    <glyph glyph-name="two" unicode="2" horiz-adv-x="587" 
d="M45 0l10 79q2 3 8 8q285 263 347.5 330t69.5 122q7 60 -24 91t-83 32q-54 1 -94 -34t-45 -94l-107 1q7 99 84.5 162.5t178.5 63.5q95 -1 151.5 -58.5t47.5 -150.5q-8 -83 -69 -153.5t-288 -277.5q-17 -15 -25 -23h347l-12 -98h-497z" />
    <glyph glyph-name="three" unicode="3" horiz-adv-x="603" 
d="M460 423q55 -28 83 -80t20 -116q-12 -99 -90 -168t-178 -69t-162 63.5t-50 154.5l110 1q-6 -48 27.5 -81.5t87.5 -33.5q55 0 97 39t49 95t-25.5 94.5t-88.5 38.5h-59l10 89h53h1q44 0 78.5 31t39.5 76q6 43 -21 71.5t-71 28.5q-42 0 -74 -26.5t-37 -64.5l-106 2
q10 80 76.5 136t152.5 56t139 -56t43 -136q-6 -46 -33.5 -83.5t-71.5 -61.5z" />
    <glyph glyph-name="four" unicode="4" horiz-adv-x="620" 
d="M594 256l-12 -98h-73l-19 -158h-111l19 158h-359l9 71l395 521h139l-61 -494h73zM179 256h231l47 381z" />
    <glyph glyph-name="five" unicode="5" horiz-adv-x="620" 
d="M303 -10q-70 0 -128.5 28t-92.5 77l80 77q15 -25 38 -43t51 -27.5t58 -9.5q44 0 81.5 20t61.5 55t29 79q8 67 -30 112t-105 45q-36 0 -73 -15t-66 -42l-86 42l84 360h403l-12 -98h-316l-50 -199q64 50 158 50q103 0 160.5 -70.5t44.5 -180.5q-14 -115 -95.5 -187.5
t-194.5 -72.5z" />
    <glyph glyph-name="six" unicode="6" horiz-adv-x="653" 
d="M627 256q-11 -108 -97 -184.5t-197 -80.5q-112 -3 -184 70t-61 181q8 91 84 175l295 333h129l-224 -245q12 1 40 1q101 -5 163 -77.5t52 -172.5zM344 86q69 3 119 52t55 117q6 69 -36.5 114t-111.5 42q-68 -2 -117.5 -51.5t-54.5 -117.5q-6 -68 35.5 -113.5t110.5 -42.5z
" />
    <glyph glyph-name="seven" unicode="7" horiz-adv-x="566" 
d="M53 0l449 652h-382l12 98h506l-9 -78l-453 -672h-123z" />
    <glyph glyph-name="eight" unicode="8" horiz-adv-x="585" 
d="M471 417q53 -29 79.5 -80.5t18.5 -115.5t-47 -117t-100 -83.5t-131 -30.5q-106 0 -169.5 66.5t-51.5 164.5q8 64 47 115.5t99 80.5q-33 26 -49 65t-10 86q10 81 75.5 136.5t153.5 55.5t140 -55.5t42 -136.5q-6 -47 -31.5 -86t-65.5 -65zM375 671q-47 0 -83 -32t-42 -79
q-4 -31 7.5 -56.5t35.5 -40.5t55 -15q47 0 83 32.5t42 79.5t-22.5 79t-75.5 32zM303 88q58 0 103 41t52 100q7 58 -27.5 97.5t-93.5 39.5q-58 0 -102.5 -39.5t-51.5 -97.5q-5 -38 9.5 -70.5t43.5 -51.5t67 -19z" />
    <glyph glyph-name="nine" unicode="9" horiz-adv-x="653" 
d="M658 508q-8 -90 -83 -175l-296 -333h-129l228 248q-16 -6 -44 -4q-100 5 -162.5 77.5t-52.5 172.5q10 108 96.5 184.5t197.5 80.5q112 3 184 -70t61 -181zM375 339q68 2 118 51.5t55 117.5q6 68 -36 113.5t-110 42.5q-69 -3 -119.5 -52t-55.5 -117q-4 -45 14 -81.5
t53 -56.5t81 -18z" />
    <glyph glyph-name="colon" unicode=":" horiz-adv-x="310" 
d="M201 374q-28 0 -45.5 20t-14 48t26 48t50.5 20q18 0 32.5 -9t22 -25t4.5 -34q-3 -28 -25.5 -48t-50.5 -20zM154 -10q-28 0 -45.5 20t-14.5 48q2 18 13.5 34t28 25t35 9t33 -9t21.5 -25t5 -34q-3 -28 -25.5 -48t-50.5 -20z" />
    <glyph glyph-name="semicolon" unicode=";" horiz-adv-x="316" 
d="M202 374q-28 0 -45.5 20t-14 48t26 48t50.5 20q18 0 32.5 -9t22 -25t4.5 -34q-3 -28 -25.5 -48t-50.5 -20zM76 -181l6 52q38 1 66 58q22 43 12 59q-2 3 -6 3q-28 0 -45 19.5t-14 47.5q2 14 9 26.5t17 21.5t23 14.5t27 5.5q54 0 63 -65q10 -69 -33 -148q-47 -85 -114 -93z
" />
    <glyph glyph-name="less" unicode="&#x3c;" horiz-adv-x="726" 
d="M723 682l-12 -93l-493 -234l436 -235l-12 -94l-518 279l13 100z" />
    <glyph glyph-name="equal" unicode="=" horiz-adv-x="714" 
d="M97 326l9 72h600l-9 -72h-600zM73 132l9 72h600l-9 -72h-600z" />
    <glyph glyph-name="greater" unicode="&#x3e;" horiz-adv-x="726" 
d="M171 682l518 -277l-13 -100l-586 -279l12 94l494 235l-437 234z" />
    <glyph glyph-name="question" unicode="?" horiz-adv-x="573" 
d="M263 216l6 55q5 40 18.5 68t31.5 43.5t38.5 26.5t41 20.5t38 21.5t30 34.5t16.5 54.5q4 34 -9.5 61.5t-41.5 42.5t-65 15q-58 0 -100 -38t-46 -94h-99q8 98 82 163.5t175 65.5q98 0 156 -62t46 -154q-5 -47 -22.5 -81t-39.5 -51.5t-47 -32.5t-46 -24.5t-36.5 -27.5
t-18.5 -43l-7 -64h-101zM289 -10q-28 0 -45.5 20t-14.5 48q2 18 13.5 34t28 25t35 9t33 -9t21.5 -25t5 -34q-3 -28 -25.5 -48t-50.5 -20z" />
    <glyph glyph-name="at" unicode="@" horiz-adv-x="608" 
d="M539 149h-67l4 29q-19 -18 -47 -29t-52 -11q-53 0 -85 36.5t-26 89.5q5 34 25 63t51 45.5t65 16.5q26 0 50.5 -12t38.5 -31l3 20q6 48 -29 81.5t-91 33.5q-82 0 -146.5 -59.5t-74.5 -145.5q-11 -88 45 -148.5t147 -60.5h179l-8 -67h-179q-120 0 -192.5 80t-58.5 196
q14 114 100 193.5t196 79.5q85 0 136.5 -53t42.5 -130zM410 195q23 0 43 11.5t30 31.5l7 52q-6 19 -23 30.5t-40 11.5q-21 0 -39 -9t-29.5 -24.5t-14.5 -34.5q-1 -15 3 -27.5t12.5 -22t21.5 -14.5t29 -5z" />
    <glyph glyph-name="A" unicode="A" horiz-adv-x="762" 
d="M621 0l-38 151h-366l-77 -151h-125l393 750h129l209 -750h-125zM264 247h293l-98 385z" />
    <glyph glyph-name="B" unicode="B" horiz-adv-x="648" 
d="M501 386q65 -18 98.5 -65.5t25.5 -119.5q-11 -90 -78.5 -145.5t-158.5 -55.5h-318l92 750h261q91 0 145.5 -56.5t43.5 -146.5q-13 -110 -111 -161zM496 536q4 31 -8 57t-36 41t-54 15h-134l-28 -227h134q46 0 83 33.5t43 80.5zM384 101q47 0 84.5 33.5t42.5 80.5
q6 46 -23 79.5t-76 33.5h-188l-28 -227h188z" />
    <glyph glyph-name="C" unicode="C" horiz-adv-x="654" 
d="M414 -10q-105 0 -182.5 51.5t-113.5 139.5t-23 194t70.5 194t148 139.5t194.5 51.5q106 0 185 -62l-17 -137q-69 90 -181 90q-115 0 -196 -79t-95.5 -197t47.5 -197t176 -79t203 90l-17 -137q-93 -62 -199 -62z" />
    <glyph glyph-name="D" unicode="D" horiz-adv-x="716" 
d="M70 0l92 750h222q102 0 182 -50t120 -136.5t27.5 -188.5t-73.5 -188.5t-153.5 -136.5t-194.5 -50h-222zM196 101h107q110 0 195.5 79.5t99.5 194.5t-52 194.5t-175 79.5h-107z" />
    <glyph glyph-name="E" unicode="E" horiz-adv-x="542" 
d="M577 649h-312l-28 -223h270l-12 -102h-270l-28 -223h312l-12 -101h-427l92 750h427z" />
    <glyph glyph-name="F" unicode="F" horiz-adv-x="540" 
d="M577 649h-312l-28 -223h270l-12 -102h-270l-40 -324h-115l92 750h427z" />
    <glyph glyph-name="G" unicode="G" horiz-adv-x="744" 
d="M535 651q-120 0 -209 -75.5t-104.5 -204.5t54.5 -204.5t190 -75.5q61 0 120 25l24 196h-154l13 102h256l-45 -367q-113 -65 -228 -65q-80 0 -146.5 27.5t-113 77t-67.5 123t-10 161.5q14 116 77 206t155.5 136.5t196.5 46.5q118 0 215 -65l-17 -145q-22 31 -54 54
t-71.5 35t-81.5 12z" />
    <glyph glyph-name="H" unicode="H" horiz-adv-x="738" 
d="M645 750h115l-92 -750h-115l40 324h-368l-40 -324h-115l92 750h115l-40 -324h368z" />
    <glyph glyph-name="I" unicode="I" horiz-adv-x="255" 
d="M70 0l92 750h115l-92 -750h-115z" />
    <glyph glyph-name="J" unicode="J" horiz-adv-x="382" 
d="M118 -10q-44 0 -71 10l14 117q33 -12 71 -12q29 0 53 21t28 51l70 573h115l-70 -573q-10 -78 -71.5 -132.5t-138.5 -54.5z" />
    <glyph glyph-name="K" unicode="K" horiz-adv-x="660" 
d="M719 750l-366 -334l288 -306l-19 -150l-390 421l-47 -381h-115l92 750h115l-38 -307l332 307h148z" />
    <glyph glyph-name="L" unicode="L" horiz-adv-x="497" 
d="M70 0l92 750h115l-80 -649h266l-12 -101h-381z" />
    <glyph glyph-name="M" unicode="M" horiz-adv-x="920" 
d="M820 750h122l-92 -750h-114l72 586l-328 -418l-223 418l-72 -586h-115l92 750h123l218 -397z" />
    <glyph glyph-name="N" unicode="N" horiz-adv-x="792" 
d="M700 750h114l-92 -750h-114l-353 571l-70 -571h-115l92 750h114l354 -571z" />
    <glyph glyph-name="O" unicode="O" horiz-adv-x="830" 
d="M414 -10q-105 0 -182.5 51.5t-113.5 139.5t-23 194t70.5 194t148 139.5t194.5 51.5t182 -51.5t114 -139.5t23 -194t-70.5 -194t-148 -139.5t-194.5 -51.5zM427 99q115 0 196 79t95.5 197t-47.5 197t-176 79t-195.5 -79t-96 -197t47.5 -197t176 -79z" />
    <glyph glyph-name="P" unicode="P" horiz-adv-x="601" 
d="M451 750q90 0 145 -63t44 -153t-81 -151.5t-161 -61.5h-174l-39 -321h-115l92 750h289zM403 416q49 0 87 32t44 85q7 51 -23.5 83.5t-78.5 32.5h-167l-29 -233h167z" />
    <glyph glyph-name="Q" unicode="Q" horiz-adv-x="824" 
d="M787 108h28l-13 -108h-36q-56 0 -100 52l-14 18q-108 -80 -238 -80q-105 0 -182.5 51.5t-113.5 139.5t-23 194t70.5 194t148 139.5t194.5 51.5t182 -51.5t114 -139.5t23 -194q-16 -127 -96 -228l18 -22q14 -17 38 -17zM427 99q88 0 159 49l-96 116l81 73l93 -110
q44 67 54 148q15 118 -47 197t-176 79t-195.5 -79t-96 -197t47.5 -197t176 -79z" />
    <glyph glyph-name="R" unicode="R" horiz-adv-x="606" 
d="M451 335l145 -335h-129l-133 328h-109l-40 -328h-115l92 750h289q89 0 144.5 -63t43.5 -154q-9 -74 -62 -129t-126 -69zM237 422h171q31 0 59 15.5t46 41.5t22 57q6 47 -23.5 80t-75.5 33h-171z" />
    <glyph glyph-name="S" unicode="S" horiz-adv-x="637" 
d="M327 -10q-91 0 -164.5 40t-108.5 106l93 83q11 -37 39.5 -64.5t69.5 -41.5t88 -14q66 0 107.5 25t48.5 76q3 26 -4.5 48t-20 37t-37.5 30t-44 23.5t-52 21.5q-1 1 -5 2q-28 11 -42.5 17.5t-39 18.5t-37.5 22t-30 26t-24.5 32t-11.5 38t-1 47q11 91 85 144t178 53
q91 0 157 -29.5t103 -79.5l-87 -77q-47 88 -182 88q-55 0 -92.5 -23.5t-43.5 -66.5q-2 -18 5 -34.5t17.5 -27.5t32.5 -24t38 -20t46 -20t46 -20t43.5 -21.5t42.5 -26t34 -30.5t27.5 -38.5t13.5 -46.5t1 -57q-13 -108 -92.5 -162t-196.5 -54z" />
    <glyph glyph-name="T" unicode="T" horiz-adv-x="587" 
d="M643 750l-12 -101h-200l-80 -649h-114l80 649h-200l12 101h514z" />
    <glyph glyph-name="U" unicode="U" horiz-adv-x="740" 
d="M369 -10q-123 0 -199.5 74t-63.5 180l62 506h115l-60 -486q-8 -72 37.5 -122.5t120.5 -50.5t133.5 50.5t66.5 122.5l60 486h115l-62 -506q-13 -106 -107.5 -180t-217.5 -74z" />
    <glyph glyph-name="V" unicode="V" horiz-adv-x="762" 
d="M709 750h129l-393 -750h-129l-209 750h129l161 -617z" />
    <glyph glyph-name="W" unicode="W" horiz-adv-x="1121" 
d="M1099 750h124l-409 -750h-125l-92 305l-165 -305h-124l-226 750h124l185 -614l166 305l-92 309h118l182 -615z" />
    <glyph glyph-name="X" unicode="X" horiz-adv-x="670" 
d="M654 0h-132l-153 289l-222 -289h-132l304 383l-202 367h131l145 -273l212 273h131l-293 -367z" />
    <glyph glyph-name="Y" unicode="Y" horiz-adv-x="670" 
d="M746 750l-309 -394l-44 -356h-115l43 353l-214 397h129l154 -298l229 298h127z" />
    <glyph glyph-name="Z" unicode="Z" horiz-adv-x="658" 
d="M211 101h414l-12 -101h-570l7 61l479 588h-395l12 101h551l-7 -61z" />
    <glyph glyph-name="bracketleft" unicode="[" horiz-adv-x="281" 
d="M32 -353l148 1206h226l-10 -83h-129l-128 -1040h129l-10 -83h-226z" />
    <glyph glyph-name="backslash" unicode="\" horiz-adv-x="607" 
d="M478 -250l-407 1000h106l406 -1000h-105z" />
    <glyph glyph-name="bracketright" unicode="]" horiz-adv-x="281" 
d="M32 -353l10 83h129l128 1040h-129l10 83h226l-148 -1206h-226z" />
    <glyph glyph-name="asciicircum" unicode="^" horiz-adv-x="711" 
d="M707 198h-94l-177 465l-291 -465h-94l346 552h100z" />
    <glyph glyph-name="underscore" unicode="_" horiz-adv-x="674" 
d="M78 -75l9 75h500l-9 -75h-500z" />
    <glyph glyph-name="grave" unicode="`" horiz-adv-x="46" 
d="M213 590l-94 160h113l67 -160h-86z" />
    <glyph glyph-name="a" unicode="a" horiz-adv-x="539" 
d="M323 510q93 0 147 -50.5t43 -145.5l-39 -314h-98l3 62q-95 -72 -181 -72q-67 0 -105.5 43t-29.5 110q9 74 73.5 117t180.5 27l82 -11l5 45q6 48 -22 71.5t-76 23.5q-73 0 -127 -60l-68 69q79 85 212 85zM176 149q-3 -28 13.5 -44.5t46.5 -16.5q64 0 147 62l6 45l-65 10
q-138 21 -148 -56z" />
    <glyph glyph-name="b" unicode="b" horiz-adv-x="592" 
d="M388 510q104 0 157 -74t39.5 -186t-85 -186t-175.5 -74q-92 0 -143 66l-12 -56h-99l92 750h109l-37 -301q67 61 154 61zM318 88q63 0 106.5 46t52.5 116q5 45 -6.5 81.5t-41 58.5t-71.5 22q-44 0 -82 -28.5t-59 -75.5l-14 -116q9 -47 40 -75.5t75 -28.5z" />
    <glyph glyph-name="c" unicode="c" horiz-adv-x="434" 
d="M274 -10q-111 0 -165.5 72t-40 188t86.5 188t183 72q75 0 119 -35l-13 -110q-17 23 -45.5 37t-60.5 14q-65 0 -108 -46t-52 -120t22.5 -120.5t96.5 -46.5q33 0 64.5 14t53.5 37l-13 -109q-52 -35 -128 -35z" />
    <glyph glyph-name="d" unicode="d" horiz-adv-x="592" 
d="M506 750h108l-92 -750h-98l1 56q-68 -66 -159 -66q-104 0 -157.5 74t-40 186t85 186t176.5 74q88 0 139 -62zM296 88q29 0 56.5 13.5t49.5 37t36 53.5l14 116q-6 30 -22.5 53.5t-40.5 37t-53 13.5q-64 0 -107 -46t-51.5 -116t23 -116t95.5 -46z" />
    <glyph glyph-name="e" unicode="e" horiz-adv-x="541" 
d="M533 246q-2 -21 -6 -31h-354q0 -61 29.5 -95t90.5 -34q21 0 37.5 3.5t33 13t32.5 25t35 39.5l70 -54q-81 -123 -224 -123q-112 0 -167.5 72t-40.5 187q14 115 87.5 188t184.5 73q106 0 156.5 -72.5t35.5 -191.5zM331 415q-54 0 -90.5 -30t-53.5 -85h253q-1 55 -28.5 85
t-80.5 30z" />
    <glyph glyph-name="f" unicode="f" horiz-adv-x="387" 
d="M305 592l-12 -92h127l-10 -85h-127l-51 -415h-111l51 415h-84l10 85h84l13 99q8 67 62.5 114t124.5 47q35 0 64 -10.5t53 -43.5l-71 -68q-18 30 -55 30q-26 0 -45 -21.5t-23 -54.5z" />
    <glyph glyph-name="g" unicode="g" horiz-adv-x="593" 
d="M485 500h99l-61 -496q-9 -73 -43 -130.5t-92 -90.5t-132 -33q-85 0 -147 39l15 119q63 -60 151 -60q57 0 93.5 40.5t45.5 115.5l6 48q-66 -62 -154 -62q-104 0 -157.5 74t-40 186t85 186t176.5 74q91 0 143 -67zM296 88q29 0 56.5 13.5t49.5 37t36 53.5l14 116
q-6 30 -22.5 53.5t-40.5 37t-53 13.5q-64 0 -107 -46t-51.5 -116t23 -116t95.5 -46z" />
    <glyph glyph-name="h" unicode="h" horiz-adv-x="595" 
d="M398 510q85 0 133 -54t38 -140l-39 -316h-112l37 303q4 31 -8 56t-36.5 39t-56.5 14q-51 0 -91 -33.5t-46 -81.5l-36 -297h-111l92 750h111l-37 -305q69 65 162 65z" />
    <glyph glyph-name="i" unicode="i" horiz-adv-x="284" 
d="M214.5 590q-27.5 0 -45.5 19.5t-14 47.5q3 28 25.5 48t50.5 20t45.5 -20t14.5 -48q-4 -28 -26.5 -47.5t-50 -19.5zM86 0l61 500h111l-61 -500h-111z" />
    <glyph glyph-name="j" unicode="j" horiz-adv-x="270" 
d="M224.5 590q-27.5 0 -45.5 19.5t-14 47.5q3 28 25.5 48t50.5 20t45.5 -20t14.5 -48q-4 -28 -26.5 -47.5t-50 -19.5zM8 -260q-45 0 -66 16l12 95q22 -19 52 -19t53 22t27 54l72 592h111l-73 -599q-8 -68 -62.5 -114.5t-125.5 -46.5z" />
    <glyph glyph-name="k" unicode="k" horiz-adv-x="535" 
d="M580 500l-261 -220l206 -203l-16 -134l-299 297l-29 -240h-111l92 750h111l-54 -437l222 187h139z" />
    <glyph glyph-name="l" unicode="l" horiz-adv-x="348" 
d="M248 -10q-80 0 -121.5 47t-31.5 123l72 590h111l-71 -590q-10 -75 55 -75q34 0 58 24l52 -75q-48 -44 -124 -44z" />
    <glyph glyph-name="m" unicode="m" horiz-adv-x="903" 
d="M714 510q83 0 128.5 -53t34.5 -137l-39 -320h-112l38 307q5 45 -21 75t-70 30q-48 0 -84 -32.5t-42 -79.5l-37 -300h-112l38 307q5 45 -21 75t-70 30q-31 0 -59 -15t-46 -40.5t-22 -56.5l-37 -300h-111l61 500h101l-1 -54q67 64 156 64q51 0 89 -22t57 -61q34 39 81 61
t100 22z" />
    <glyph glyph-name="n" unicode="n" horiz-adv-x="595" 
d="M398 510q85 0 133 -54t38 -140l-39 -316h-112l37 303q4 31 -8 56t-36.5 39t-56.5 14q-51 0 -91 -33.5t-46 -81.5l-36 -297h-111l61 500h101l-1 -59q70 69 167 69z" />
    <glyph glyph-name="o" unicode="o" horiz-adv-x="570" 
d="M284 -10q-109 0 -169 74.5t-46.5 185.5t91.5 185.5t187.5 74.5t169 -74.5t46 -185.5t-91.5 -185.5t-187 -74.5zM296 88q63 0 106 46.5t51.5 115.5t-23.5 115.5t-94 46.5q-64 0 -107 -46t-51.5 -116t23 -116t95.5 -46z" />
    <glyph glyph-name="p" unicode="p" horiz-adv-x="592" 
d="M388 510q104 0 157 -74t39.5 -186t-85 -186t-175.5 -74q-87 0 -139 61l-37 -301h-109l92 750h109l-6 -51q67 61 154 61zM318 88q63 0 106.5 46t52.5 116q5 45 -6.5 81.5t-41 58.5t-71.5 22q-44 0 -82 -28.5t-59 -75.5l-14 -116q9 -47 40 -75.5t75 -28.5z" />
    <glyph glyph-name="q" unicode="q" horiz-adv-x="592" 
d="M475 500h108l-92 -750h-108l37 302q-66 -62 -154 -62q-104 0 -157.5 74t-40 186t85 186t176.5 74q88 0 139 -62zM296 88q29 0 56.5 13.5t49.5 37t36 53.5l14 116q-6 30 -22.5 53.5t-40.5 37t-53 13.5q-64 0 -107 -46t-51.5 -116t23 -116t95.5 -46z" />
    <glyph glyph-name="r" unicode="r" horiz-adv-x="420" 
d="M382 510q44 0 70 -8.5t46 -28.5l-63 -79q-27 18 -71 18q-53 0 -97.5 -40.5t-52.5 -103.5l-33 -268h-111l61 500h101l-2 -70q32 37 71.5 58.5t80.5 21.5z" />
    <glyph glyph-name="s" unicode="s" horiz-adv-x="480" 
d="M243 -10q-59 0 -116 20t-85 51l65 77q17 -23 58.5 -39.5t82.5 -18.5q27 -1 49.5 5.5t36.5 19.5t16 31q1 12 -3.5 22t-12 17t-22.5 14.5t-27 11.5t-32 11q-24 8 -32.5 11t-30.5 12t-31 15.5t-24 18t-21 23.5t-10 29t-1 36q8 66 68.5 109.5t141.5 43.5q32 0 65.5 -7
t62 -19.5t49.5 -28.5l-70 -77q-11 11 -27.5 20.5t-34.5 15.5t-36 8q-36 4 -68.5 -10.5t-35.5 -40.5q-2 -10 0.5 -18t11 -15.5t15 -12t22.5 -10.5t23.5 -8.5t27.5 -9.5q29 -9 45.5 -15t40 -19t35.5 -27t20 -37t4 -51q-8 -69 -70.5 -113.5t-149.5 -44.5z" />
    <glyph glyph-name="t" unicode="t" horiz-adv-x="376" 
d="M328 109l52 -75q-48 -44 -124 -44q-80 0 -121.5 47t-31.5 123l31 255h-61l10 85h61l21 170h111l-21 -170h142l-10 -85h-141l-31 -255q-10 -75 55 -75q34 0 58 24z" />
    <glyph glyph-name="u" unicode="u" horiz-adv-x="602" 
d="M482 500h111l-61 -500h-101l1 60q-68 -70 -162 -70q-85 0 -135 58t-40 142l38 310h111l-36 -297q-4 -32 8 -58t37 -41.5t58 -15.5q50 0 89.5 33.5t45.5 81.5z" />
    <glyph glyph-name="v" unicode="v" horiz-adv-x="517" 
d="M454 500h119l-262 -500h-106l-139 500h119l90 -368z" />
    <glyph glyph-name="w" unicode="w" horiz-adv-x="732" 
d="M664 500h124l-232 -500h-120l-47 203l-93 -203h-119l-111 500h126l68 -367l97 214l-36 153h108l76 -369z" />
    <glyph glyph-name="x" unicode="x" horiz-adv-x="533" 
d="M604 500l-239 -251l178 -249h-135l-120 169l-163 -169h-135l240 250l-179 250h133l123 -170l163 170h134z" />
    <glyph glyph-name="y" unicode="y" horiz-adv-x="603" 
d="M593 500l-60 -500q-14 -113 -91 -183.5t-198 -70.5q-100 0 -168 39l14 119q70 -60 175 -60q65 0 106 40.5t50 115.5l7 55q-70 -65 -158 -65q-85 0 -135 58t-40 142l38 310h111l-36 -297q-4 -32 8 -58t37 -41.5t58 -15.5q50 0 89.5 33.5t45.5 81.5l36 297h111z" />
    <glyph glyph-name="z" unicode="z" horiz-adv-x="542" 
d="M54 0l10 80l325 328h-281l11 92h425l-9 -78l-327 -330h291l-11 -92h-434z" />
    <glyph glyph-name="braceleft" unicode="{" horiz-adv-x="340" 
d="M194 -336q-49 0 -76 41.5t-20 102.5l31 247q9 75 -1 106t-55 53l9 70q35 16 53 35t26.5 45.5t14.5 78.5l30 242q8 61 45 102.5t86 41.5h55l-10 -76q-49 0 -67 -13t-24 -60l-30 -252q-8 -64 -26.5 -106.5t-58.5 -72.5q32 -30 41 -76.5t0 -102.5l-32 -257q-5 -38 10 -52.5
t64 -14.5l-10 -82h-55z" />
    <glyph glyph-name="bar" unicode="|" horiz-adv-x="294" 
d="M93 -150l110 900h71l-110 -900h-71z" />
    <glyph glyph-name="braceright" unicode="}" horiz-adv-x="340" 
d="M9 -336l10 82q49 0 67 14.5t23 52.5l32 257q7 64 25.5 106.5t59.5 72.5q-33 30 -42 76.5t1 102.5l30 252q6 47 -8.5 60t-64.5 13l10 81h56q48 0 75 -41.5t20 -102.5l-31 -247q-9 -75 1 -105.5t55 -53.5l-9 -70q-50 -22 -67.5 -52.5t-26.5 -106.5l-31 -247
q-7 -61 -44 -102.5t-85 -41.5h-56z" />
    <glyph glyph-name="asciitilde" unicode="~" horiz-adv-x="561" 
d="M408 174q-23 0 -42.5 6.5t-36 21t-23.5 22t-20 25.5q-12 15 -21 24.5t-22 15.5t-28 6q-38 0 -64.5 -32t-28.5 -78h-59q2 74 48 121.5t111 47.5q39 0 66 -18t52 -55q15 -24 31 -36.5t39 -12.5q38 0 65 30.5t28 78.5h59q-1 -71 -46 -119t-108 -48z" />
    <glyph glyph-name="exclamdown" unicode="&#xa1;" horiz-adv-x="310" 
d="M200 364q-28 0 -45.5 20t-14.5 48t26 48t50.5 20t45 -20t14.5 -48t-25.5 -48t-50.5 -20zM68 -250l77 518h85l-51 -518h-111z" />
    <glyph glyph-name="cent" unicode="&#xa2;" horiz-adv-x="513" 
d="M385 512q-68 0 -121 -47.5t-61 -114.5q-5 -44 12 -81.5t51.5 -59t78.5 -21.5q78 0 129 42l-13 -109q-55 -28 -117 -31l-11 -91h-67l12 96q-93 19 -145.5 90t-40.5 165t81.5 165t166.5 90l12 96h67l-11 -91q60 -3 109 -31l-13 -109q-41 42 -119 42z" />
    <glyph glyph-name="sterling" unicode="&#xa3;" horiz-adv-x="619" 
d="M208 79h380l-10 -79h-465l40 329h-80l9 74h80l15 119q13 104 86 171t175 67q76 0 133.5 -48.5t66.5 -121.5l-86 -36q0 51 -36.5 85.5t-87.5 34.5q-67 0 -112 -41.5t-54 -110.5l-15 -119h186l-9 -74h-186z" />
    <glyph glyph-name="currency" unicode="&#xa4;" horiz-adv-x="621" 
d="M145 121l-52 63l58 51q-33 57 -24.5 128t55.5 128l-45 50l68 63l46 -53q62 41 132.5 41t123.5 -41l58 52l53 -60l-58 -51q34 -58 25 -129t-56 -129l45 -50l-67 -63l-47 53q-40 -27 -87 -36t-91 0t-79 36zM239 261q38 -43 98 -43t108 43q47 42 54.5 102t-29.5 102t-97 42
t-108 -43q-47 -42 -54.5 -102t28.5 -101z" />
    <glyph glyph-name="yen" unicode="&#xa5;" horiz-adv-x="684" 
d="M738 750l-302 -386h192l-9 -72h-192l-11 -88h192l-8 -67h-192l-17 -137h-98l17 137h-190l8 67h190l11 88h-190l9 72h190l-209 386h105l162 -310l238 310h104z" />
    <glyph glyph-name="brokenbar" unicode="&#xa6;" horiz-adv-x="294" 
d="M159 390l44 360h71l-44 -360h-71zM93 -150l44 360h71l-44 -360h-71z" />
    <glyph glyph-name="section" unicode="&#xa7;" horiz-adv-x="628" 
d="M560 254q35 -37 28 -90q-9 -71 -88 -116.5t-181 -45.5q-85 0 -151.5 33t-89.5 84l75 42q15 -36 62.5 -59t117.5 -23q32 0 62 5.5t53.5 16t39 27.5t17.5 37q3 25 -16 43t-52 29t-73.5 21t-80 23t-72 30t-50 46.5t-13.5 69.5q7 54 52 91q-35 36 -29 87q5 37 27 67t55.5 49
t73.5 29t82 10q62 0 115.5 -20.5t83.5 -53.5l-63 -47q-21 23 -58 36t-82 13q-37 0 -69.5 -9t-55 -27t-25.5 -43t16 -43t52 -29t73.5 -21t80 -23.5t72 -31t50 -47.5t12.5 -70q-6 -50 -51 -90zM233 430q-3 -23 12.5 -40.5t45.5 -29t62.5 -20t74 -20.5t68.5 -25q28 21 31 50
q3 23 -12.5 39.5t-45.5 28t-62.5 20t-74.5 20.5t-69 24q-27 -19 -30 -47z" />
    <glyph glyph-name="dieresis" unicode="&#xa8;" horiz-adv-x="46" 
d="M199 590q-27 0 -45 19.5t-14 47.5q3 28 25.5 48t50.5 20t45.5 -20t14.5 -48q-2 -14 -9 -26t-17.5 -21t-23.5 -14.5t-27 -5.5zM399.5 590q-27.5 0 -45.5 19.5t-14 47.5q3 28 25.5 48t50.5 20t45 -20t14 -48q-4 -28 -26 -47.5t-49.5 -19.5z" />
    <glyph glyph-name="copyright" unicode="&#xa9;" horiz-adv-x="868" 
d="M433 -10q-104 0 -186.5 51.5t-123.5 140.5t-28 193t75.5 193t157.5 140.5t199.5 51.5t186.5 -51.5t123 -140.5t28 -193q-10 -78 -49 -149.5t-97 -123t-133 -82t-153 -30.5zM440 52q136 0 241.5 94t122.5 229q11 89 -23 163t-103 117t-158 43q-135 0 -240.5 -94
t-122.5 -229q-8 -66 10 -126t56 -103t94.5 -68.5t122.5 -25.5zM473 180q-83 0 -134.5 55.5t-41.5 135.5q9 80 74.5 136t148.5 56q52 0 92 -25l-9 -70l-4 -1q-33 31 -84 31q-36 0 -67 -15t-52.5 -44.5t-25.5 -67.5q-7 -56 26.5 -91t87.5 -35q52 0 91 29h5l-9 -69
q-47 -25 -98 -25z" />
    <glyph glyph-name="ordfeminine" unicode="&#xaa;" horiz-adv-x="412" 
d="M393 750h56l-37 -300h-56l7 58q-49 -64 -125 -64q-63 0 -101.5 45.5t-30.5 110.5q5 42 29.5 78t62 57t78.5 21q37 0 65.5 -17.5t44.5 -47.5zM254.5 493q44.5 0 79.5 31.5t41 75.5q5 44 -22.5 75t-71.5 31q-22 0 -42.5 -8.5t-36.5 -22.5t-27 -34t-13 -41q-6 -44 21 -75.5
t71.5 -31.5z" />
    <glyph glyph-name="guillemotleft" unicode="&#xab;" horiz-adv-x="664" 
d="M272 95l-130 184l175 184h91l-175 -184l130 -184h-91zM477 95l-130 184l175 184h92l-175 -184l130 -184h-92z" />
    <glyph glyph-name="logicalnot" unicode="&#xac;" horiz-adv-x="789" 
d="M644 110l31 256h-543l9 72h615l-40 -328h-72z" />
    <glyph glyph-name="uni00AD" unicode="&#xad;" horiz-adv-x="600" 
d="M114 222l10 76h350l-10 -76h-350z" />
    <glyph glyph-name="registered" unicode="&#xae;" horiz-adv-x="868" 
d="M527.5 760q104.5 0 186.5 -51.5t123 -140.5t28 -193q-10 -78 -49 -149.5t-97 -123t-133 -82t-153 -30.5q-104 0 -186.5 51.5t-123.5 140.5t-28 193t75.5 193t157.5 140.5t199.5 51.5zM440 52q136 0 241.5 94t122.5 229q11 89 -23 163t-103 117t-158 43q-135 0 -240.5 -94
t-122.5 -229q-8 -66 10 -126t56 -103t94.5 -68.5t122.5 -25.5zM630 456q-4 -35 -27.5 -64t-57.5 -42l71 -169h-64l-70 161h-53l-20 -161h-57l48 388h129q48 0 77.5 -33t23.5 -80zM450 512l-14 -113h72q24 0 42.5 16.5t21.5 40.5q3 23 -11.5 39.5t-38.5 16.5h-72z" />
    <glyph glyph-name="macron" unicode="&#xaf;" horiz-adv-x="54" 
d="M100 594l9 72h310l-9 -72h-310z" />
    <glyph glyph-name="degree" unicode="&#xb0;" horiz-adv-x="482" 
d="M301.5 492q-55.5 0 -90 39t-27.5 95q4 36 26 67t55 49t69 18q56 0 90.5 -39t27.5 -94.5t-51 -95t-99.5 -39.5zM308 548q22 0 41 10.5t31.5 28t15.5 39.5q4 33 -16 55.5t-53 22.5q-21 0 -40.5 -10.5t-31.5 -28t-15 -39.5q-4 -33 15.5 -55.5t52.5 -22.5z" />
    <glyph glyph-name="plusminus" unicode="&#xb1;" horiz-adv-x="787" 
d="M484 439h310l-9 -72h-310l-22 -180h-72l22 180h-311l9 72h311l22 180h72zM47 0l8 66h693l-8 -66h-693z" />
    <glyph glyph-name="uni00B2" unicode="&#xb2;" horiz-adv-x="339" 
d="M92 380l5 40q145 134 176.5 168t35.5 61q2 20 -5 34.5t-19.5 20.5t-29.5 7q-27 0 -47 -17.5t-23 -46.5h-54q5 50 43.5 81.5t89.5 31.5q47 0 75.5 -28.5t24.5 -74.5q-5 -43 -37 -80t-154 -148h174l-6 -49h-249z" />
    <glyph glyph-name="uni00B3" unicode="&#xb3;" horiz-adv-x="364" 
d="M306 592q27 -15 41 -40.5t10 -57.5q-3 -24 -15 -46t-30 -38t-41 -25.5t-48 -9.5q-50 0 -81 31.5t-26 77.5l56 1q-3 -24 13.5 -41t43.5 -17q18 0 34 9t26 24.5t13 33.5q3 28 -13 47t-43 19h-30l5 45h26q23 0 39.5 15.5t19.5 38.5q2 21 -11 35t-35 14q-8 0 -16 -2.5
t-14.5 -6.5t-11.5 -9.5t-8.5 -12.5t-4.5 -14l-53 1q4 40 37.5 68t76.5 28t69.5 -28t22.5 -68q-6 -48 -52 -72z" />
    <glyph glyph-name="acute" unicode="&#xb4;" horiz-adv-x="46" 
d="M99 590l107 160h113l-133 -160h-87z" />
    <glyph glyph-name="uni00B5" unicode="&#xb5;" horiz-adv-x="600" 
d="M487 500h111l-61 -500h-111l8 66q-69 -76 -162 -76q-63 0 -109 36l-34 -276h-83l92 750h111l-36 -297q-4 -31 8.5 -57.5t37 -42t56.5 -15.5q51 0 90.5 33.5t45.5 81.5z" />
    <glyph glyph-name="paragraph" unicode="&#xb6;" horiz-adv-x="629" 
d="M283 -150l69 565h-26q-55 0 -92.5 19t-54.5 57t-10 92q9 81 61.5 124t136.5 43h84l-110 -900h-58zM435 -150l110 900h59l-110 -900h-59z" />
    <glyph glyph-name="periodcentered" unicode="&#xb7;" horiz-adv-x="279" 
d="M176.5 308q-21.5 0 -35 15t-10.5 37q2 14 10.5 26t21.5 19t27 7q21 0 35 -15.5t11 -36.5q-3 -22 -20.5 -37t-39 -15z" />
    <glyph glyph-name="cedilla" unicode="&#xb8;" horiz-adv-x="46" 
d="M111 -260q-35 0 -66.5 19.5t-41.5 48.5l53 19q8 -14 26 -24t36 -10q21 0 37.5 15t19.5 37q4 32 -21.5 43.5t-66.5 -4.5l-40 27l58 89h54l-41 -64q52 10 84.5 -17t26.5 -74q-5 -44 -39.5 -74.5t-78.5 -30.5z" />
    <glyph glyph-name="uni00B9" unicode="&#xb9;" horiz-adv-x="269" 
d="M141 375l40 326h-55l6 49h111l-46 -375h-56z" />
    <glyph glyph-name="ordmasculine" unicode="&#xba;" horiz-adv-x="389" 
d="M249 444q-68 0 -109.5 45.5t-33.5 110.5t60.5 110.5t120.5 45.5q45 0 80 -21t52 -57t12 -78q-8 -65 -61 -110.5t-121 -45.5zM254.5 493q44.5 0 79.5 31.5t41 75.5q5 44 -22.5 75t-71.5 31q-22 0 -42.5 -8.5t-36.5 -22.5t-27 -34t-13 -41q-6 -44 21 -75.5t71.5 -31.5z" />
    <glyph glyph-name="guillemotright" unicode="&#xbb;" horiz-adv-x="664" 
d="M119 95l174 184l-129 184h91l129 -184l-174 -184h-91zM324 95l174 184l-129 184h92l129 -184l-174 -184h-92z" />
    <glyph glyph-name="questiondown" unicode="&#xbf;" horiz-adv-x="568" 
d="M343 517q19 0 33.5 -9t21.5 -24.5t5 -34.5q-3 -28 -25.5 -48t-50.5 -20t-45.5 20t-14.5 48q4 28 26.5 48t49.5 20zM370 291l-7 -55q-5 -40 -18.5 -68t-31 -43.5t-38.5 -26.5t-41.5 -20.5t-38 -21.5t-30 -34.5t-16.5 -54.5q-6 -52 27 -85.5t89 -33.5q59 0 100.5 38
t46.5 94h99q-6 -64 -41.5 -116.5t-92.5 -82.5t-124 -30q-98 0 -155.5 62t-46.5 154q6 47 23 81t39 51.5t47 32.5t46 24.5t36.5 27.5t18.5 43l8 64h101z" />
    <glyph glyph-name="Agrave" unicode="&#xc0;" horiz-adv-x="762" 
d="M522 840h-86l-94 160h113zM621 0l-38 151h-366l-77 -151h-125l393 750h129l209 -750h-125zM264 247h293l-98 385z" />
    <glyph glyph-name="Aacute" unicode="&#xc1;" horiz-adv-x="762" 
d="M662 1000l-133 -160h-87l107 160h113zM621 0l-38 151h-366l-77 -151h-125l393 750h129l209 -750h-125zM264 247h293l-98 385z" />
    <glyph glyph-name="Acircumflex" unicode="&#xc2;" horiz-adv-x="762" 
d="M498 949l-90 -120h-87l124 171h117l83 -171h-88zM621 0l-38 151h-366l-77 -151h-125l393 750h129l209 -750h-125zM264 247h293l-98 385z" />
    <glyph glyph-name="Atilde" unicode="&#xc3;" horiz-adv-x="762" 
d="M387 837h-68q-3 60 30 99t83 39q59 0 90 -56q11 -25 35 -25q21 0 32 20t8 52h67q4 -59 -28.5 -98.5t-84.5 -39.5q-59 0 -89 56q-14 25 -35 25q-22 0 -33.5 -20.5t-6.5 -51.5zM621 0l-38 151h-366l-77 -151h-125l393 750h129l209 -750h-125zM264 247h293l-98 385z" />
    <glyph glyph-name="Adieresis" unicode="&#xc4;" horiz-adv-x="762" 
d="M384 840q-28 0 -45.5 19.5t-14.5 47.5q3 19 14 34.5t27.5 24.5t35.5 9q28 0 45.5 -20t13.5 -48q-3 -28 -25.5 -47.5t-50.5 -19.5zM584 840q-28 0 -45.5 19.5t-14.5 47.5q3 19 14 34.5t27.5 24.5t35 9t33 -9t21.5 -24.5t4 -34.5q-3 -28 -25 -47.5t-50 -19.5zM621 0
l-38 151h-366l-77 -151h-125l393 750h129l209 -750h-125zM264 247h293l-98 385z" />
    <glyph glyph-name="Aring" unicode="&#xc5;" horiz-adv-x="762" 
d="M621 0l-38 151h-366l-77 -151h-125l384 732q-32 33 -26 80q2 22 13.5 42t27.5 34.5t37.5 23t43.5 8.5q44 0 71.5 -32t22.5 -76q-6 -48 -46 -81l203 -731h-125zM489.5 873q-24.5 0 -44 -18t-22.5 -43q-2 -13 1.5 -24t10 -19t17 -12.5t22.5 -4.5q17 0 31.5 7.5t24 21.5
t11.5 31q3 25 -12 43t-39.5 18zM264 247h293l-98 385z" />
    <glyph glyph-name="AE" unicode="&#xc6;" horiz-adv-x="915" 
d="M15 0l393 750h554l-12 -98h-314l-29 -233h272l-10 -88h-272l-29 -233h314l-12 -98h-426l20 161h-242l-78 -161h-129zM271 249h205l49 403h-49z" />
    <glyph glyph-name="Ccedilla" unicode="&#xc7;" horiz-adv-x="654" 
d="M495 651q-115 0 -196 -79t-95.5 -197t47.5 -197t176 -79t203 90l-17 -137q-82 -55 -177 -61l-35 -55q52 10 84.5 -17t26.5 -74q-4 -29 -20.5 -53t-42.5 -38t-55 -14q-35 0 -66.5 19.5t-41.5 48.5l53 19q5 -9 15 -17t22.5 -12.5t24.5 -4.5q21 0 37.5 15t19.5 37
q4 32 -21.5 43.5t-66.5 -4.5l-40 27l52 80q-95 8 -165.5 61t-102 138t-19.5 185q13 106 70.5 194t148 139.5t194.5 51.5q106 0 185 -62l-17 -137q-69 90 -181 90z" />
    <glyph glyph-name="Egrave" unicode="&#xc8;" horiz-adv-x="542" 
d="M424 840h-86l-94 160h113zM577 649h-312l-28 -223h270l-12 -102h-270l-28 -223h312l-12 -101h-427l92 750h427z" />
    <glyph glyph-name="Eacute" unicode="&#xc9;" horiz-adv-x="542" 
d="M564 1000l-133 -160h-87l107 160h113zM577 649h-312l-28 -223h270l-12 -102h-270l-28 -223h312l-12 -101h-427l92 750h427z" />
    <glyph glyph-name="Ecircumflex" unicode="&#xca;" horiz-adv-x="542" 
d="M400 949l-90 -120h-87l124 171h117l83 -171h-88zM577 649h-312l-28 -223h270l-12 -102h-270l-28 -223h312l-12 -101h-427l92 750h427z" />
    <glyph glyph-name="Edieresis" unicode="&#xcb;" horiz-adv-x="542" 
d="M286 840q-28 0 -45.5 19.5t-14.5 47.5q3 19 14 34.5t27.5 24.5t35.5 9q28 0 45.5 -20t13.5 -48q-3 -28 -25.5 -47.5t-50.5 -19.5zM486 840q-28 0 -45.5 19.5t-14.5 47.5q3 19 14 34.5t27.5 24.5t35 9t33 -9t21.5 -24.5t4 -34.5q-3 -28 -25 -47.5t-50 -19.5zM577 649h-312
l-28 -223h270l-12 -102h-270l-28 -223h312l-12 -101h-427l92 750h427z" />
    <glyph glyph-name="Igrave" unicode="&#xcc;" horiz-adv-x="255" 
d="M182 840l-94 160h113l67 -160h-86zM70 0l92 750h115l-92 -750h-115z" />
    <glyph glyph-name="Iacute" unicode="&#xcd;" horiz-adv-x="255" 
d="M188 840l107 160h113l-133 -160h-87zM70 0l92 750h115l-92 -750h-115z" />
    <glyph glyph-name="Icircumflex" unicode="&#xce;" horiz-adv-x="255" 
d="M67 829l124 171h117l83 -171h-88l-59 120l-90 -120h-87zM70 0l92 750h115l-92 -750h-115z" />
    <glyph glyph-name="Idieresis" unicode="&#xcf;" horiz-adv-x="255" 
d="M130 840q-28 0 -45.5 19.5t-14.5 47.5q3 19 14 34.5t27.5 24.5t35.5 9q28 0 45.5 -20t13.5 -48q-3 -28 -25.5 -47.5t-50.5 -19.5zM330 840q-28 0 -45.5 19.5t-14.5 47.5q3 19 14 34.5t27.5 24.5t35 9t33 -9t21.5 -24.5t4 -34.5q-3 -28 -25 -47.5t-50 -19.5zM70 0l92 750
h115l-92 -750h-115z" />
    <glyph glyph-name="Eth" unicode="&#xd0;" horiz-adv-x="716" 
d="M384 750q102 0 182 -50t120 -136.5t27.5 -188.5t-73.5 -188.5t-153.5 -136.5t-194.5 -50h-222l41 336h-75l10 78h75l41 336h222zM303 101q110 0 195.5 79.5t99.5 194.5t-52 194.5t-175 79.5h-107l-29 -235h126l-10 -78h-126l-29 -235h107z" />
    <glyph glyph-name="Ntilde" unicode="&#xd1;" horiz-adv-x="792" 
d="M402 837h-68q-3 60 30 99t83 39q59 0 90 -56q11 -25 35 -25q21 0 32 20t8 52h67q4 -59 -28.5 -98.5t-84.5 -39.5q-59 0 -89 56q-14 25 -35 25q-22 0 -33.5 -20.5t-6.5 -51.5zM700 750h114l-92 -750h-114l-353 571l-70 -571h-115l92 750h114l354 -571z" />
    <glyph glyph-name="Ograve" unicode="&#xd2;" horiz-adv-x="830" 
d="M470 840l-94 160h113l67 -160h-86zM414 -10q-105 0 -182.5 51.5t-113.5 139.5t-23 194t70.5 194t148 139.5t194.5 51.5t182 -51.5t114 -139.5t23 -194t-70.5 -194t-148 -139.5t-194.5 -51.5zM427 99q115 0 196 79t95.5 197t-47.5 197t-176 79t-195.5 -79t-96 -197
t47.5 -197t176 -79z" />
    <glyph glyph-name="Oacute" unicode="&#xd3;" horiz-adv-x="830" 
d="M476 840l107 160h113l-133 -160h-87zM414 -10q-105 0 -182.5 51.5t-113.5 139.5t-23 194t70.5 194t148 139.5t194.5 51.5t182 -51.5t114 -139.5t23 -194t-70.5 -194t-148 -139.5t-194.5 -51.5zM427 99q115 0 196 79t95.5 197t-47.5 197t-176 79t-195.5 -79t-96 -197
t47.5 -197t176 -79z" />
    <glyph glyph-name="Ocircumflex" unicode="&#xd4;" horiz-adv-x="830" 
d="M355 829l124 171h117l83 -171h-88l-59 120l-90 -120h-87zM414 -10q-105 0 -182.5 51.5t-113.5 139.5t-23 194t70.5 194t148 139.5t194.5 51.5t182 -51.5t114 -139.5t23 -194t-70.5 -194t-148 -139.5t-194.5 -51.5zM427 99q115 0 196 79t95.5 197t-47.5 197t-176 79
t-195.5 -79t-96 -197t47.5 -197t176 -79z" />
    <glyph glyph-name="Otilde" unicode="&#xd5;" horiz-adv-x="830" 
d="M585 828q-59 0 -89 56q-14 25 -35 25q-22 0 -33.5 -20.5t-6.5 -51.5h-68q-3 60 30 99t83 39q59 0 90 -56q11 -25 35 -25q21 0 32 20t8 52h67q4 -59 -28.5 -98.5t-84.5 -39.5zM414 -10q-105 0 -182.5 51.5t-113.5 139.5t-23 194t70.5 194t148 139.5t194.5 51.5t182 -51.5
t114 -139.5t23 -194t-70.5 -194t-148 -139.5t-194.5 -51.5zM427 99q115 0 196 79t95.5 197t-47.5 197t-176 79t-195.5 -79t-96 -197t47.5 -197t176 -79z" />
    <glyph glyph-name="Odieresis" unicode="&#xd6;" horiz-adv-x="830" 
d="M418 840q-28 0 -45.5 19.5t-14.5 47.5q3 19 14 34.5t27.5 24.5t35.5 9q28 0 45.5 -20t13.5 -48q-3 -28 -25.5 -47.5t-50.5 -19.5zM618 840q-28 0 -45.5 19.5t-14.5 47.5q3 19 14 34.5t27.5 24.5t35 9t33 -9t21.5 -24.5t4 -34.5q-2 -18 -13 -33.5t-27.5 -24.5t-34.5 -9z
M414 -10q-105 0 -182.5 51.5t-113.5 139.5t-23 194t70.5 194t148 139.5t194.5 51.5t182 -51.5t114 -139.5t23 -194t-70.5 -194t-148 -139.5t-194.5 -51.5zM427 99q115 0 196 79t95.5 197t-47.5 197t-176 79t-195.5 -79t-96 -197t47.5 -197t176 -79z" />
    <glyph glyph-name="multiply" unicode="&#xd7;" horiz-adv-x="741" 
d="M695 499l-212 -189l166 -189l-68 -60l-165 189l-214 -189l-52 60l212 189l-166 189l68 60l166 -189l213 189z" />
    <glyph glyph-name="Oslash" unicode="&#xd8;" horiz-adv-x="830" 
d="M735 673q54 -54 78.5 -131.5t13.5 -166.5q-13 -106 -70.5 -194t-148 -139.5t-194.5 -51.5q-100 0 -178 49l-49 -61h-77l78 99q-54 53 -79 131t-14 167q13 106 70.5 194t148 139.5t194.5 51.5q101 0 179 -50l48 61h77zM203 375q-16 -128 57 -207l356 452q-52 31 -121 31
q-114 0 -195.5 -79t-96.5 -197zM427 99q76 0 139.5 36.5t103 99.5t48.5 140q16 129 -56 207l-355 -452q52 -31 120 -31z" />
    <glyph glyph-name="Ugrave" unicode="&#xd9;" horiz-adv-x="740" 
d="M425 840l-94 160h113l67 -160h-86zM369 -10q-123 0 -199.5 74t-63.5 180l62 506h115l-60 -486q-8 -72 37.5 -122.5t120.5 -50.5q49 0 93 23t73 63t34 87l60 486h115l-62 -506q-13 -106 -107.5 -180t-217.5 -74z" />
    <glyph glyph-name="Uacute" unicode="&#xda;" horiz-adv-x="740" 
d="M431 840l107 160h113l-133 -160h-87zM369 -10q-123 0 -199.5 74t-63.5 180l62 506h115l-60 -486q-8 -72 37.5 -122.5t120.5 -50.5q49 0 93 23t73 63t34 87l60 486h115l-62 -506q-13 -106 -107.5 -180t-217.5 -74z" />
    <glyph glyph-name="Ucircumflex" unicode="&#xdb;" horiz-adv-x="740" 
d="M310 829l124 171h117l83 -171h-88l-59 120l-90 -120h-87zM369 -10q-123 0 -199.5 74t-63.5 180l62 506h115l-60 -486q-8 -72 37.5 -122.5t120.5 -50.5t133.5 50.5t66.5 122.5l60 486h115l-62 -506q-13 -106 -107.5 -180t-217.5 -74z" />
    <glyph glyph-name="Udieresis" unicode="&#xdc;" horiz-adv-x="740" 
d="M373 840q-28 0 -45.5 19.5t-14.5 47.5q3 19 14 34.5t27.5 24.5t35.5 9q28 0 45.5 -20t13.5 -48q-3 -28 -25.5 -47.5t-50.5 -19.5zM573 840q-28 0 -45.5 19.5t-14.5 47.5q3 19 14 34.5t27.5 24.5t35 9t33 -9t21.5 -24.5t4 -34.5q-3 -28 -25 -47.5t-50 -19.5zM369 -10
q-123 0 -199.5 74t-63.5 180l62 506h115l-60 -486q-8 -72 37.5 -122.5t120.5 -50.5q49 0 93 23t73 63t34 87l60 486h115l-62 -506q-13 -106 -107.5 -180t-217.5 -74z" />
    <glyph glyph-name="Yacute" unicode="&#xdd;" horiz-adv-x="670" 
d="M617 1000l-133 -160h-87l107 160h113zM746 750l-309 -394l-44 -356h-115l43 353l-214 397h129l154 -298l229 298h127z" />
    <glyph glyph-name="Thorn" unicode="&#xde;" horiz-adv-x="600" 
d="M436 644q89 0 144 -63t43 -154q-10 -88 -80 -149.5t-159 -61.5h-176l-27 -216h-111l79 644l13 104h111l-13 -104h176zM392 314q48 0 86.5 34t44.5 82t-24 81.5t-79 33.5h-172l-28 -231h172z" />
    <glyph glyph-name="germandbls" unicode="&#xdf;" horiz-adv-x="683" 
d="M553 388q47 -30 71 -79t17 -109q-11 -88 -77 -149t-149 -61q-42 0 -88.5 15.5t-71.5 40.5l55 85q16 -16 43 -27t53 -11q45 2 81.5 34t41.5 79q7 51 -26 87t-87 36h-49l12 92h20q50 0 89.5 35t45.5 84q4 32 -9.5 57.5t-41 40t-65.5 14.5q-60 0 -104.5 -35.5t-50.5 -89.5
l-65 -527h-111l65 527q7 63 46 114.5t100 80t131 28.5q102 0 162 -59t49 -149q-12 -92 -87 -154z" />
    <glyph glyph-name="agrave" unicode="&#xe0;" horiz-adv-x="539" 
d="M386 590h-86l-94 160h113zM323 510q93 0 147 -50.5t43 -145.5l-39 -314h-98l3 62q-95 -72 -181 -72q-67 0 -105.5 43t-29.5 110q9 74 73.5 117t180.5 27l82 -11l5 45q6 48 -22 71.5t-76 23.5q-73 0 -127 -60l-68 69q79 85 212 85zM176 149q-3 -28 13.5 -44.5t46.5 -16.5
q64 0 147 62l6 45l-65 10q-138 21 -148 -56z" />
    <glyph glyph-name="aacute" unicode="&#xe1;" horiz-adv-x="539" 
d="M526 750l-133 -160h-87l107 160h113zM323 510q93 0 147 -50.5t43 -145.5l-39 -314h-98l3 62q-95 -72 -181 -72q-67 0 -105.5 43t-29.5 110q9 74 73.5 117t180.5 27l82 -11l5 45q6 48 -22 71.5t-76 23.5q-73 0 -127 -60l-68 69q79 85 212 85zM176 149q-3 -28 13.5 -44.5
t46.5 -16.5q64 0 147 62l6 45l-65 10q-138 21 -148 -56z" />
    <glyph glyph-name="acircumflex" unicode="&#xe2;" horiz-adv-x="539" 
d="M362 699l-90 -120h-87l124 171h117l83 -171h-88zM323 510q93 0 147 -50.5t43 -145.5l-39 -314h-98l3 62q-95 -72 -181 -72q-67 0 -105.5 43t-29.5 110q9 74 73.5 117t180.5 27l82 -11l5 45q6 48 -22 71.5t-76 23.5q-73 0 -127 -60l-68 69q79 85 212 85zM176 149
q-3 -28 13.5 -44.5t46.5 -16.5q64 0 147 62l6 45l-65 10q-138 21 -148 -56z" />
    <glyph glyph-name="atilde" unicode="&#xe3;" horiz-adv-x="539" 
d="M251 587h-68q-3 60 30 99t83 39q60 0 90 -56q12 -25 35 -25q21 0 32 20t8 52h67q4 -59 -28.5 -98.5t-84.5 -39.5q-59 0 -89 56q-13 25 -35 25q-21 0 -32.5 -20.5t-7.5 -51.5zM323 510q93 0 147 -50.5t43 -145.5l-39 -314h-98l3 62q-95 -72 -181 -72q-67 0 -105.5 43
t-29.5 110q9 74 73.5 117t180.5 27l82 -11l5 45q6 48 -22 71.5t-76 23.5q-73 0 -127 -60l-68 69q79 85 212 85zM176 149q-3 -28 13.5 -44.5t46.5 -16.5q64 0 147 62l6 45l-65 10q-138 21 -148 -56z" />
    <glyph glyph-name="adieresis" unicode="&#xe4;" horiz-adv-x="539" 
d="M248 590q-27 0 -45 19.5t-14 47.5q3 28 25.5 48t50.5 20t45.5 -20t14.5 -48q-2 -14 -9 -26t-17.5 -21t-23.5 -14.5t-27 -5.5zM448.5 590q-27.5 0 -45.5 19.5t-14 47.5q3 28 25.5 48t50.5 20t45 -20t14 -48q-4 -28 -26 -47.5t-49.5 -19.5zM323 510q93 0 147 -50.5
t43 -145.5l-39 -314h-98l3 62q-95 -72 -181 -72q-67 0 -105.5 43t-29.5 110q9 74 73.5 117t180.5 27l82 -11l5 45q6 48 -22 71.5t-76 23.5q-73 0 -127 -60l-68 69q79 85 212 85zM176 149q-3 -28 13.5 -44.5t46.5 -16.5q64 0 147 62l6 45l-65 10q-138 21 -148 -56z" />
    <glyph glyph-name="aring" unicode="&#xe5;" horiz-adv-x="539" 
d="M344 556q-29 0 -52.5 14.5t-35 39.5t-8 54t21 54t44.5 39.5t57 14.5q44 0 71.5 -32t22 -76t-41 -76t-79.5 -32zM365 725q-25 0 -44 -18t-22 -43q-4 -26 11 -43t40 -17t44 17t23 43q3 25 -12 43t-40 18zM323 510q93 0 147 -50.5t43 -145.5l-39 -314h-98l3 62
q-95 -72 -181 -72q-67 0 -105.5 43t-29.5 110q9 74 73.5 117t180.5 27l82 -11l5 45q6 48 -22 71.5t-76 23.5q-73 0 -127 -60l-68 69q79 85 212 85zM176 149q-3 -28 13.5 -44.5t46.5 -16.5q64 0 147 62l6 45l-65 10q-138 21 -148 -56z" />
    <glyph glyph-name="ae" unicode="&#xe6;" horiz-adv-x="839" 
d="M831 246q-2 -21 -6 -31h-354q0 -61 29.5 -95t90.5 -34q28 0 49.5 7t42.5 24.5t46 49.5l70 -54q-81 -123 -224 -123q-125 0 -180 90q-47 -40 -101 -65t-103 -25q-67 0 -105.5 43t-29.5 110q9 74 73.5 117t180.5 27l61 -8q7 36 26 76q-7 30 -33.5 45.5t-64.5 15.5
q-73 0 -127 -60l-68 69q79 85 212 85q120 0 158 -56q71 56 165 56q106 0 156.5 -72.5t35.5 -191.5zM629 415q-54 0 -90.5 -30t-53.5 -85h253q-1 36 -13 61.5t-36.5 39.5t-59.5 14zM169 149q-3 -28 13.5 -44.5t46.5 -16.5q62 0 141 57q-6 26 -6 53l-47 7q-138 21 -148 -56z
" />
    <glyph glyph-name="ccedilla" unicode="&#xe7;" horiz-adv-x="434" 
d="M338 416q-65 0 -108 -46t-52 -120t22.5 -120.5t96.5 -46.5q33 0 64.5 14t53.5 37l-13 -109q-46 -31 -115 -35l-35 -54q52 10 84.5 -17t26.5 -74q-4 -29 -20.5 -53t-42.5 -38t-55 -14q-35 0 -66.5 19.5t-41.5 48.5l53 19q8 -14 26 -24t36 -10q14 0 26.5 7t20.5 19t10 26
q4 32 -21.5 43.5t-66.5 -4.5l-40 27l53 82q-91 13 -134.5 83t-30.5 174q14 116 86 188t183 72q75 0 119 -35l-13 -110q-17 23 -45.5 37t-60.5 14z" />
    <glyph glyph-name="egrave" unicode="&#xe8;" horiz-adv-x="541" 
d="M390 591h-86l-95 160h113zM533 246q-2 -21 -6 -31h-354q0 -61 29.5 -95t90.5 -34q21 0 37.5 3.5t33 13t32.5 25t35 39.5l70 -54q-81 -123 -224 -123q-112 0 -167.5 72t-40.5 187q14 115 87.5 188t184.5 73q106 0 156.5 -72.5t35.5 -191.5zM331 415q-36 0 -65 -14
t-48.5 -39.5t-30.5 -61.5h253q-1 36 -13 61.5t-36.5 39.5t-59.5 14z" />
    <glyph glyph-name="eacute" unicode="&#xe9;" horiz-adv-x="541" 
d="M529 751l-132 -160h-87l106 160h113zM533 246q-2 -21 -6 -31h-354q0 -61 29.5 -95t90.5 -34q21 0 37.5 3.5t33 13t32.5 25t35 39.5l70 -54q-81 -123 -224 -123q-112 0 -167.5 72t-40.5 187q14 115 87.5 188t184.5 73q106 0 156.5 -72.5t35.5 -191.5zM331 415
q-36 0 -65 -14t-48.5 -39.5t-30.5 -61.5h253q-1 36 -13 61.5t-36.5 39.5t-59.5 14z" />
    <glyph glyph-name="ecircumflex" unicode="&#xea;" horiz-adv-x="541" 
d="M365 700l-90 -120h-87l124 171h117l83 -171h-88zM533 246q-2 -21 -6 -31h-354q0 -61 29.5 -95t90.5 -34q21 0 37.5 3.5t33 13t32.5 25t35 39.5l70 -54q-81 -123 -224 -123q-112 0 -167.5 72t-40.5 187q14 115 87.5 188t184.5 73q106 0 156.5 -72.5t35.5 -191.5zM331 415
q-54 0 -90.5 -30t-53.5 -85h253q-1 55 -28.5 85t-80.5 30z" />
    <glyph glyph-name="edieresis" unicode="&#xeb;" horiz-adv-x="541" 
d="M251.5 591q-27.5 0 -45.5 19.5t-14 47.5q2 14 9 26.5t17 21.5t23 14.5t27 5.5q28 0 45.5 -20t14.5 -48q-4 -28 -26.5 -47.5t-50 -19.5zM452 591q-28 0 -46 19.5t-14 47.5q2 14 9 26.5t17 21.5t23 14.5t27 5.5q18 0 32.5 -9t21.5 -24.5t5 -34.5q-2 -18 -13 -33.5
t-27.5 -24.5t-34.5 -9zM533 246q-2 -21 -6 -31h-354q0 -61 29.5 -95t90.5 -34q21 0 37.5 3.5t33 13t32.5 25t35 39.5l70 -54q-81 -123 -224 -123q-112 0 -167.5 72t-40.5 187q14 115 87.5 188t184.5 73q106 0 156.5 -72.5t35.5 -191.5zM331 415q-54 0 -90.5 -30t-53.5 -85
h253q-1 55 -28.5 85t-80.5 30z" />
    <glyph glyph-name="igrave" unicode="&#xec;" horiz-adv-x="251" 
d="M150 590l-94 160h113l67 -160h-86zM70 0l61 500h111l-61 -500h-111z" />
    <glyph glyph-name="iacute" unicode="&#xed;" horiz-adv-x="251" 
d="M156 590l107 160h113l-133 -160h-87zM70 0l61 500h111l-61 -500h-111z" />
    <glyph glyph-name="icircumflex" unicode="&#xee;" horiz-adv-x="251" 
d="M35 579l124 171h117l83 -171h-88l-59 120l-90 -120h-87zM70 0l61 500h111l-61 -500h-111z" />
    <glyph glyph-name="idieresis" unicode="&#xef;" horiz-adv-x="251" 
d="M98.5 590q-27.5 0 -45.5 19.5t-14 47.5q3 28 25.5 48t50.5 20t45.5 -20t14.5 -48q-4 -28 -26.5 -47.5t-50 -19.5zM298.5 590q-27.5 0 -45.5 19.5t-14 47.5q3 28 25.5 48t50.5 20t45 -20t14 -48q-4 -28 -26 -47.5t-49.5 -19.5zM70 0l61 500h111l-61 -500h-111z" />
    <glyph glyph-name="eth" unicode="&#xf0;" horiz-adv-x="621" 
d="M479 686q79 -68 116 -183t20 -253q-14 -109 -102.5 -184.5t-202.5 -75.5t-184.5 75.5t-57 184.5t102.5 184.5t203 75.5q63 0 118 -27q-24 82 -80 130l-56 -63l-33 28l54 60q-59 33 -135 35l33 89q94 0 170 -50l50 55l33 -27zM322 88q67 0 119.5 47.5t61.5 114.5
q5 44 -12 81.5t-51.5 59t-77.5 21.5q-68 0 -121 -47t-61.5 -115t33 -115t109.5 -47z" />
    <glyph glyph-name="ntilde" unicode="&#xf1;" horiz-adv-x="595" 
d="M275 587h-68q-1 30 7 56t23.5 43.5t37 28t45.5 10.5q60 0 90 -56q12 -25 35 -25q21 0 32 20t8 52h67q4 -59 -28.5 -98.5t-84.5 -39.5q-59 0 -89 56q-13 25 -35 25q-21 0 -32.5 -20.5t-7.5 -51.5zM398 510q85 0 133 -54t38 -140l-39 -316h-112l37 303q4 31 -8 56t-36.5 39
t-56.5 14q-51 0 -91 -33.5t-46 -81.5l-36 -297h-111l61 500h101l-1 -59q70 69 167 69z" />
    <glyph glyph-name="ograve" unicode="&#xf2;" horiz-adv-x="570" 
d="M309 590l-94 160h113l67 -160h-86zM284 -10q-109 0 -169 74.5t-46.5 185.5t91.5 185.5t187.5 74.5t169 -74.5t46 -185.5t-91.5 -185.5t-187 -74.5zM296 88q63 0 106 46.5t51.5 115.5t-23.5 115.5t-94 46.5q-64 0 -107 -46t-51.5 -116t23 -116t95.5 -46z" />
    <glyph glyph-name="oacute" unicode="&#xf3;" horiz-adv-x="570" 
d="M315 590l107 160h113l-133 -160h-87zM284 -10q-109 0 -169 74.5t-46.5 185.5t91.5 185.5t187.5 74.5t169 -74.5t46 -185.5t-91.5 -185.5t-187 -74.5zM296 88q63 0 106 46.5t51.5 115.5t-23.5 115.5t-94 46.5q-64 0 -107 -46t-51.5 -116t23 -116t95.5 -46z" />
    <glyph glyph-name="ocircumflex" unicode="&#xf4;" horiz-adv-x="570" 
d="M194 579l124 171h117l83 -171h-88l-59 120l-90 -120h-87zM284 -10q-109 0 -169 74.5t-46.5 185.5t91.5 185.5t187.5 74.5t169 -74.5t46 -185.5t-91.5 -185.5t-187 -74.5zM296 88q63 0 106 46.5t52 115.5q5 45 -6.5 81.5t-41 58.5t-70.5 22q-64 0 -107 -46t-51.5 -116
t23 -116t95.5 -46z" />
    <glyph glyph-name="otilde" unicode="&#xf5;" horiz-adv-x="570" 
d="M424 578q-59 0 -89 56q-13 25 -35 25q-21 0 -32.5 -20.5t-7.5 -51.5h-68q-2 40 13 71.5t41.5 49t58.5 17.5q60 0 90 -56q12 -25 35 -25q21 0 32 20t8 52h67q4 -59 -28.5 -98.5t-84.5 -39.5zM284 -10q-109 0 -169 74.5t-46.5 185.5t91.5 185.5t187.5 74.5t169 -74.5
t46 -185.5t-91.5 -185.5t-187 -74.5zM296 88q63 0 106 46.5t52 115.5q5 45 -6.5 81.5t-41 58.5t-70.5 22q-64 0 -107 -46t-51.5 -116t23 -116t95.5 -46z" />
    <glyph glyph-name="odieresis" unicode="&#xf6;" horiz-adv-x="570" 
d="M257 590q-27 0 -45 19.5t-14 47.5q3 28 25.5 48t50.5 20t45.5 -20t14.5 -48q-2 -14 -9 -26t-17.5 -21t-23.5 -14.5t-27 -5.5zM457.5 590q-27.5 0 -45.5 19.5t-14 47.5q3 28 25.5 48t50.5 20t45 -20t14 -48q-4 -28 -26 -47.5t-49.5 -19.5zM284 -10q-109 0 -169 74.5
t-46.5 185.5t91.5 185.5t187.5 74.5t169 -74.5t46 -185.5t-91.5 -185.5t-187 -74.5zM296 88q63 0 106 46.5t51.5 115.5t-23.5 115.5t-94 46.5q-64 0 -107 -46t-51.5 -116t23 -116t95.5 -46z" />
    <glyph glyph-name="divide" unicode="&#xf7;" horiz-adv-x="714" 
d="M404 384q-24 0 -40.5 17.5t-12.5 43.5q3 25 23.5 43t44.5 18q25 0 41.5 -18t13.5 -43q-4 -26 -24.5 -43.5t-45.5 -17.5zM87 246l7 58h600l-7 -58h-600zM362 44q-24 0 -40 17.5t-13 43.5q3 25 23.5 43t44.5 18q25 0 41.5 -18t13.5 -43q-3 -26 -23.5 -43.5t-46.5 -17.5z
" />
    <glyph glyph-name="oslash" unicode="&#xf8;" horiz-adv-x="570" 
d="M502 451q24 -23 39.5 -54.5t21 -68.5t0.5 -78q-14 -111 -92 -185.5t-187 -74.5q-69 0 -120 32l-43 -55h-55l64 81q-37 36 -53 88.5t-8 113.5q13 111 91 185.5t188 74.5q67 0 121 -32l42 54h54zM178 250q-9 -70 22 -114l202 257q-29 19 -66 19q-64 0 -107 -46t-51 -116z
M296 88q63 0 106 46.5t52 115.5q8 69 -21 113l-203 -257q26 -18 66 -18z" />
    <glyph glyph-name="ugrave" unicode="&#xf9;" horiz-adv-x="602" 
d="M412 590h-86l-94 160h113zM482 500h111l-61 -500h-101l1 60q-68 -70 -162 -70q-85 0 -135 58t-40 142l38 310h111l-36 -297q-4 -32 8 -58t37 -41.5t58 -15.5q50 0 89.5 33.5t45.5 81.5z" />
    <glyph glyph-name="uacute" unicode="&#xfa;" horiz-adv-x="602" 
d="M552 750l-133 -160h-87l107 160h113zM482 500h111l-61 -500h-101l1 60q-68 -70 -162 -70q-85 0 -135 58t-40 142l38 310h111l-36 -297q-4 -32 8 -58t37 -41.5t58 -15.5q50 0 89.5 33.5t45.5 81.5z" />
    <glyph glyph-name="ucircumflex" unicode="&#xfb;" horiz-adv-x="602" 
d="M388 699l-90 -120h-87l124 171h117l83 -171h-88zM482 500h111l-61 -500h-101l1 60q-68 -70 -162 -70q-85 0 -135 58t-40 142l38 310h111l-36 -297q-4 -32 8 -58t37 -41.5t58 -15.5q50 0 89.5 33.5t45.5 81.5z" />
    <glyph glyph-name="udieresis" unicode="&#xfc;" horiz-adv-x="602" 
d="M274.5 590q-27.5 0 -45.5 19.5t-14 47.5q3 28 25.5 48t50.5 20t45.5 -20t14.5 -48q-4 -28 -26.5 -47.5t-50 -19.5zM474.5 590q-27.5 0 -45.5 19.5t-14 47.5q3 28 25.5 48t50.5 20t45 -20t14 -48q-4 -28 -26 -47.5t-49.5 -19.5zM482 500h111l-61 -500h-101l1 60
q-68 -70 -162 -70q-85 0 -135 58t-40 142l38 310h111l-36 -297q-4 -32 8 -58t37 -41.5t58 -15.5q50 0 89.5 33.5t45.5 81.5z" />
    <glyph glyph-name="yacute" unicode="&#xfd;" horiz-adv-x="603" 
d="M552 750l-133 -160h-87l107 160h113zM593 500l-60 -500q-14 -113 -91 -183.5t-198 -70.5q-100 0 -168 39l14 119q70 -60 175 -60q65 0 106 40.5t50 115.5l7 55q-70 -65 -158 -65q-85 0 -135 58t-40 142l38 310h111l-36 -297q-4 -32 8 -58t37 -41.5t58 -15.5
q50 0 89.5 33.5t45.5 81.5l36 297h111z" />
    <glyph glyph-name="thorn" unicode="&#xfe;" horiz-adv-x="647" 
d="M422 510q105 0 168 -75.5t49.5 -184.5t-95 -184.5t-186.5 -75.5q-110 0 -168 86l-40 -325h-111l123 999h111l-40 -326q79 86 189 86zM354 88q67 0 120 47.5t61.5 114.5t-33 114.5t-108.5 47.5t-120 -47.5t-61.5 -114.5t33 -114.5t108.5 -47.5z" />
    <glyph glyph-name="ydieresis" unicode="&#xff;" horiz-adv-x="603" 
d="M274.5 590q-27.5 0 -45.5 19.5t-14 47.5q3 28 25.5 48t50.5 20t45.5 -20t14.5 -48q-4 -28 -26.5 -47.5t-50 -19.5zM474.5 590q-27.5 0 -45.5 19.5t-14 47.5q3 28 25.5 48t50.5 20t45 -20t14 -48q-4 -28 -26 -47.5t-49.5 -19.5zM593 500l-60 -500q-14 -113 -91 -183.5
t-198 -70.5q-100 0 -168 39l14 119q70 -60 175 -60q65 0 106 40.5t50 115.5l7 55q-70 -65 -158 -65q-85 0 -135 58t-40 142l38 310h111l-36 -297q-4 -32 8 -58t37 -41.5t58 -15.5q50 0 89.5 33.5t45.5 81.5l36 297h111z" />
    <glyph glyph-name="Amacron" unicode="&#x100;" horiz-adv-x="762" 
d="M648 916l-8 -72h-310l8 72h310zM621 0l-38 151h-366l-77 -151h-125l393 750h129l209 -750h-125zM264 247h293l-98 385z" />
    <glyph glyph-name="amacron" unicode="&#x101;" horiz-adv-x="539" 
d="M513 666l-9 -72h-310l9 72h310zM323 510q93 0 147 -50.5t43 -145.5l-39 -314h-98l3 62q-95 -72 -181 -72q-67 0 -105.5 43t-29.5 110q9 74 73.5 117t180.5 27l82 -11l5 45q6 48 -22 71.5t-76 23.5q-73 0 -127 -60l-68 69q79 85 212 85zM176 149q-3 -28 13.5 -44.5
t46.5 -16.5q64 0 147 62l6 45l-65 10q-138 21 -148 -56z" />
    <glyph glyph-name="Abreve" unicode="&#x102;" horiz-adv-x="762" 
d="M480 812q-77 0 -119 43t-32 119h66q-5 -39 21 -67.5t72 -28.5q47 0 80.5 28.5t38.5 67.5h65q-10 -76 -62.5 -119t-129.5 -43zM621 0l-38 151h-366l-77 -151h-125l393 750h129l209 -750h-125zM264 247h293l-98 385z" />
    <glyph glyph-name="abreve" unicode="&#x103;" horiz-adv-x="539" 
d="M344 562q-76 0 -118 43t-33 119h66q-5 -39 21.5 -67.5t71.5 -28.5q47 0 80.5 28.5t38.5 67.5h65q-9 -76 -62 -119t-130 -43zM323 510q93 0 147 -50.5t43 -145.5l-39 -314h-98l3 62q-95 -72 -181 -72q-67 0 -105.5 43t-29.5 110q9 74 73.5 117t180.5 27l82 -11l5 45
q6 48 -22 71.5t-76 23.5q-73 0 -127 -60l-68 69q79 85 212 85zM176 149q-3 -28 13.5 -44.5t46.5 -16.5q64 0 147 62l6 45l-65 10q-138 21 -148 -56z" />
    <glyph glyph-name="Aogonek" unicode="&#x104;" horiz-adv-x="762" 
d="M744 -153l30 -51q-67 -60 -154 -55q-53 3 -83 31t-24 77q6 47 41.5 85.5t94.5 65.5h-28l-38 151h-366l-77 -151h-125l393 750h129l209 -750q-52 0 -100.5 -45t-54.5 -97q-4 -26 10.5 -43t44.5 -17q27 0 53.5 13.5t44.5 35.5zM264 247h293l-98 385z" />
    <glyph glyph-name="aogonek" unicode="&#x105;" horiz-adv-x="539" 
d="M472 -153l30 -51q-67 -60 -154 -55q-53 3 -83 31t-24 77q6 47 41.5 85.5t94.5 65.5h-1l3 62q-95 -72 -181 -72q-67 0 -105.5 43t-29.5 110q9 74 73.5 117t180.5 27l82 -11l5 45q6 48 -22 71.5t-76 23.5q-73 0 -127 -60l-68 69q79 85 212 85q93 0 147 -50.5t43 -145.5
l-39 -314q-52 0 -100.5 -45t-54.5 -97q-4 -26 10.5 -43t44.5 -17q27 0 53.5 13.5t44.5 35.5zM176 149q-3 -28 13.5 -44.5t46.5 -16.5q64 0 147 62l6 45l-65 10q-138 21 -148 -56z" />
    <glyph glyph-name="Cacute" unicode="&#x106;" horiz-adv-x="654" 
d="M476 840l107 160h113l-133 -160h-87zM414 -10q-105 0 -182.5 51.5t-113.5 139.5t-23 194t70.5 194t148 139.5t194.5 51.5q106 0 185 -62l-17 -137q-69 90 -181 90q-115 0 -196 -79t-95.5 -197t47.5 -197t176 -79t203 90l-17 -137q-93 -62 -199 -62z" />
    <glyph glyph-name="cacute" unicode="&#x107;" horiz-adv-x="434" 
d="M296 590l107 160h113l-133 -160h-87zM274 -10q-111 0 -165.5 72t-40 188t86.5 188t183 72q75 0 119 -35l-13 -110q-17 23 -45.5 37t-60.5 14q-65 0 -108 -46t-52 -120t22.5 -120.5t96.5 -46.5q33 0 64.5 14t53.5 37l-13 -109q-52 -35 -128 -35z" />
    <glyph glyph-name="Cdotaccent" unicode="&#x10a;" horiz-adv-x="654" 
d="M518 840q-28 0 -45.5 19.5t-14.5 47.5q2 14 9 26.5t17.5 21.5t23.5 14.5t27 5.5q28 0 45.5 -20t13.5 -48q-3 -28 -25.5 -47.5t-50.5 -19.5zM414 -10q-105 0 -182.5 51.5t-113.5 139.5t-23 194t70.5 194t148 139.5t194.5 51.5q106 0 185 -62l-17 -137q-69 90 -181 90
q-115 0 -196 -79t-95.5 -197t47.5 -197t176 -79t203 90l-17 -137q-93 -62 -199 -62z" />
    <glyph glyph-name="cdotaccent" unicode="&#x10b;" horiz-adv-x="434" 
d="M338.5 590q-27.5 0 -45.5 19.5t-14 47.5q3 28 25.5 48t50.5 20t45.5 -20t14.5 -48q-4 -28 -26.5 -47.5t-50 -19.5zM274 -10q-111 0 -165.5 72t-40 188t86.5 188t183 72q75 0 119 -35l-13 -110q-17 23 -45.5 37t-60.5 14q-65 0 -108 -46t-52 -120t22.5 -120.5t96.5 -46.5
q33 0 64.5 14t53.5 37l-13 -109q-52 -35 -128 -35z" />
    <glyph glyph-name="Ccaron" unicode="&#x10c;" horiz-adv-x="654" 
d="M458 829l-82 171h84l63 -119l93 119h84l-125 -171h-117zM414 -10q-105 0 -182.5 51.5t-113.5 139.5t-23 194t70.5 194t148 139.5t194.5 51.5q106 0 185 -62l-17 -137q-69 90 -181 90q-115 0 -196 -79t-95.5 -197t47.5 -197t176 -79t203 90l-17 -137q-93 -62 -199 -62z
" />
    <glyph glyph-name="ccaron" unicode="&#x10d;" horiz-adv-x="434" 
d="M278 579l-82 171h84l63 -119l93 119h84l-125 -171h-117zM274 -10q-111 0 -165.5 72t-40 188t86.5 188t183 72q75 0 119 -35l-13 -110q-17 23 -45.5 37t-60.5 14q-65 0 -108 -46t-52 -120t22.5 -120.5t96.5 -46.5q33 0 64.5 14t53.5 37l-13 -109q-52 -35 -128 -35z" />
    <glyph glyph-name="Dcaron" unicode="&#x10e;" horiz-adv-x="716" 
d="M334 829l-82 171h84l63 -119l93 119h84l-125 -171h-117zM70 0l92 750h222q102 0 182 -50t120 -136.5t27.5 -188.5t-73.5 -188.5t-153.5 -136.5t-194.5 -50h-222zM196 101h107q110 0 195.5 79.5t99.5 194.5t-52 194.5t-175 79.5h-107z" />
    <glyph glyph-name="dcaron" unicode="&#x10f;" horiz-adv-x="787" 
d="M804 756q37 0 52.5 -31.5t9.5 -79.5q-9 -72 -53.5 -133.5t-104.5 -62.5l7 52q28 1 51.5 35t27.5 64q2 21 -8 21q-18 0 -32.5 9t-21.5 24.5t-4 34.5q3 28 25 47.5t51 19.5zM469 448l37 302h108l-92 -750h-98l1 56q-68 -66 -159 -66q-104 0 -157.5 74t-40 186t85 186
t176.5 74q88 0 139 -62zM296 88q29 0 56.5 13.5t49.5 37t36 53.5l14 116q-6 30 -22.5 53.5t-40.5 37t-53 13.5q-64 0 -107 -46t-51.5 -116t23 -116t95.5 -46z" />
    <glyph glyph-name="Dcroat" unicode="&#x110;" horiz-adv-x="716" 
d="M384 750q102 0 182 -50t120 -136.5t27.5 -188.5t-73.5 -188.5t-153.5 -136.5t-194.5 -50h-222l41 336h-75l10 78h75l41 336h222zM303 101q110 0 195.5 79.5t99.5 194.5t-52 194.5t-175 79.5h-107l-29 -235h126l-10 -78h-126l-29 -235h107z" />
    <glyph glyph-name="dcroat" unicode="&#x111;" horiz-adv-x="592" 
d="M681 655l-9 -78h-79l-71 -577h-98l1 56q-68 -66 -159 -66q-104 0 -157.5 74t-40 186t85 186t176.5 74q88 0 139 -62l16 129h-128l9 78h128l12 95h108l-12 -95h79zM296 88q29 0 56.5 13.5t49.5 37t36 53.5l14 116q-6 30 -22.5 53.5t-40.5 37t-53 13.5q-64 0 -107 -46
t-51.5 -116t23 -116t95.5 -46z" />
    <glyph glyph-name="Emacron" unicode="&#x112;" horiz-adv-x="542" 
d="M550 916l-8 -72h-310l8 72h310zM577 649h-312l-28 -223h270l-12 -102h-270l-28 -223h312l-12 -101h-427l92 750h427z" />
    <glyph glyph-name="emacron" unicode="&#x113;" horiz-adv-x="541" 
d="M516 667l-9 -72h-310l9 72h310zM533 246q-2 -21 -6 -31h-354q0 -61 29.5 -95t90.5 -34q21 0 37.5 3.5t33 13t32.5 25t35 39.5l70 -54q-81 -123 -224 -123q-112 0 -167.5 72t-40.5 187q14 115 87.5 188t184.5 73q106 0 156.5 -72.5t35.5 -191.5zM331 415q-54 0 -90.5 -30
t-53.5 -85h253q-1 55 -28.5 85t-80.5 30z" />
    <glyph glyph-name="Edotaccent" unicode="&#x116;" horiz-adv-x="542" 
d="M386 840q-28 0 -45.5 19.5t-14.5 47.5q3 19 14 34.5t27.5 24.5t35.5 9q28 0 45.5 -20t13.5 -48q-3 -28 -25.5 -47.5t-50.5 -19.5zM577 649h-312l-28 -223h270l-12 -102h-270l-28 -223h312l-12 -101h-427l92 750h427z" />
    <glyph glyph-name="edotaccent" unicode="&#x117;" horiz-adv-x="541" 
d="M352 591q-28 0 -46 19.5t-14 47.5q2 14 9 26.5t17 21.5t23 14.5t27 5.5q28 0 45.5 -20t14.5 -48q-2 -18 -13.5 -33.5t-28 -24.5t-34.5 -9zM533 246q-2 -21 -6 -31h-354q0 -61 29.5 -95t90.5 -34q21 0 37.5 3.5t33 13t32.5 25t35 39.5l70 -54q-81 -123 -224 -123
q-112 0 -167.5 72t-40.5 187q14 115 87.5 188t184.5 73q106 0 156.5 -72.5t35.5 -191.5zM331 415q-54 0 -90.5 -30t-53.5 -85h253q-1 55 -28.5 85t-80.5 30z" />
    <glyph glyph-name="Eogonek" unicode="&#x118;" horiz-adv-x="542" 
d="M495 -153l30 -51q-67 -60 -154 -55q-53 3 -83 31t-24 77q6 47 41.5 85.5t94.5 65.5h-330l92 750h427l-12 -101h-312l-28 -223h270l-12 -102h-270l-28 -223h312l-12 -101q-52 0 -100.5 -45t-54.5 -97q-4 -26 10.5 -43t44.5 -17q27 0 53.5 13.5t44.5 35.5z" />
    <glyph glyph-name="eogonek" unicode="&#x119;" horiz-adv-x="541" 
d="M533 246q-2 -21 -6 -31h-354q0 -61 29.5 -95t90.5 -34q21 0 37.5 3.5t33 13t32.5 25t35 39.5l70 -54q-64 -99 -173 -118q-30 -39 -35 -77q-3 -26 11.5 -43t44.5 -17q26 0 53 13.5t45 35.5l29 -51q-67 -60 -153 -55q-54 3 -83.5 31t-23.5 77q5 43 38 82q-100 7 -149.5 78
t-35.5 180q14 115 87.5 188t184.5 73q106 0 156.5 -72.5t35.5 -191.5zM331 415q-54 0 -90.5 -30t-53.5 -85h253q-1 55 -28.5 85t-80.5 30z" />
    <glyph glyph-name="Ecaron" unicode="&#x11a;" horiz-adv-x="542" 
d="M443 829h-117l-82 171h84l63 -119l93 119h84zM577 649h-312l-28 -223h270l-12 -102h-270l-28 -223h312l-12 -101h-427l92 750h427z" />
    <glyph glyph-name="ecaron" unicode="&#x11b;" horiz-adv-x="541" 
d="M408 580h-117l-82 171h84l64 -119l92 119h84zM533 246q-2 -21 -6 -31h-354q0 -61 29.5 -95t90.5 -34q21 0 37.5 3.5t33 13t32.5 25t35 39.5l70 -54q-81 -123 -224 -123q-112 0 -167.5 72t-40.5 187q14 115 87.5 188t184.5 73q106 0 156.5 -72.5t35.5 -191.5zM331 415
q-54 0 -90.5 -30t-53.5 -85h253q-1 55 -28.5 85t-80.5 30z" />
    <glyph glyph-name="Gbreve" unicode="&#x11e;" horiz-adv-x="744" 
d="M557 812q-77 0 -119 43t-32 119h66q-5 -39 21 -67.5t72 -28.5q47 0 80.5 28.5t38.5 67.5h65q-10 -76 -62.5 -119t-129.5 -43zM535 651q-78 0 -144.5 -32.5t-112.5 -97t-56 -150.5q-16 -129 54 -204.5t190 -75.5q61 0 120 25l24 196h-154l13 102h256l-45 -367
q-113 -65 -228 -65q-80 0 -146.5 27.5t-113 77t-67.5 123t-10 161.5q14 116 77 206t155.5 136.5t196.5 46.5q118 0 215 -65l-17 -145q-22 31 -54 54t-71.5 35t-81.5 12z" />
    <glyph glyph-name="gbreve" unicode="&#x11f;" horiz-adv-x="593" 
d="M348 562q-76 0 -118 43t-33 119h66q-5 -39 21.5 -67.5t71.5 -28.5q47 0 80.5 28.5t38.5 67.5h65q-9 -76 -62 -119t-130 -43zM485 500h99l-61 -496q-9 -73 -43 -130.5t-92 -90.5t-132 -33q-85 0 -147 39l15 119q63 -60 151 -60q57 0 93.5 40.5t45.5 115.5l6 48
q-66 -62 -154 -62q-104 0 -157.5 74t-40 186t85 186t176.5 74q91 0 143 -67zM296 88q29 0 56.5 13.5t49.5 37t36 53.5l14 116q-6 30 -22.5 53.5t-40.5 37t-53 13.5q-64 0 -107 -46t-51.5 -116t23 -116t95.5 -46z" />
    <glyph glyph-name="Gdotaccent" unicode="&#x120;" horiz-adv-x="744" 
d="M561 840q-28 0 -45.5 19.5t-14.5 47.5q3 19 14 34.5t27.5 24.5t35.5 9q28 0 45.5 -20t13.5 -48q-3 -28 -25.5 -47.5t-50.5 -19.5zM535 651q-120 0 -209 -75.5t-104.5 -204.5t54.5 -204.5t190 -75.5q61 0 120 25l24 196h-154l13 102h256l-45 -367q-113 -65 -228 -65
q-80 0 -146.5 27.5t-113 77t-67.5 123t-10 161.5q14 116 77 206t155.5 136.5t196.5 46.5q118 0 215 -65l-17 -145q-22 31 -54 54t-71.5 35t-81.5 12z" />
    <glyph glyph-name="gdotaccent" unicode="&#x121;" horiz-adv-x="593" 
d="M352 590q-27 0 -45 19.5t-14 47.5q3 28 25.5 48t50.5 20t45.5 -20t14.5 -48q-2 -14 -9 -26t-17.5 -21t-23.5 -14.5t-27 -5.5zM485 500h99l-61 -496q-9 -73 -43 -130.5t-92 -90.5t-132 -33q-85 0 -147 39l15 119q63 -60 151 -60q57 0 93.5 40.5t45.5 115.5l6 48
q-66 -62 -154 -62q-104 0 -157.5 74t-40 186t85 186t176.5 74q91 0 143 -67zM296 88q43 0 82 29t60 75l14 116q-6 30 -22.5 53.5t-40.5 37t-53 13.5q-64 0 -107 -46t-51.5 -116t23 -116t95.5 -46z" />
    <glyph glyph-name="Gcommaaccent" unicode="&#x122;" horiz-adv-x="744" 
d="M535 651q-120 0 -209 -75.5t-104.5 -204.5t54.5 -204.5t190 -75.5q61 0 120 25l24 196h-154l13 102h256l-45 -367q-113 -65 -228 -65q-80 0 -146.5 27.5t-113 77t-67.5 123t-10 161.5q14 116 77 206t155.5 136.5t196.5 46.5q118 0 215 -65l-17 -145q-22 31 -54 54
t-71.5 35t-81.5 12zM444 -40q29 0 46 -21t13 -54q-10 -80 -51 -134.5t-98 -51.5l5 40q42 1 64 50q12 30 3 35q-29 0 -45.5 19t-12.5 49q2 19 12.5 34.5t27 24.5t36.5 9z" />
    <glyph glyph-name="gcommaaccent" unicode="&#x123;" horiz-adv-x="593" 
d="M349.5 567q-28.5 0 -45.5 22t-13 53q8 71 59.5 128.5t89.5 57.5l-5 -39q-23 -9 -42 -30t-26 -38.5t-1 -17.5q29 0 46.5 -19.5t14 -48t-26 -48.5t-51 -20zM485 500h99l-61 -496q-9 -73 -43 -130.5t-92 -90.5t-132 -33q-85 0 -147 39l15 119q63 -60 151 -60q57 0 93.5 40.5
t45.5 115.5l6 48q-66 -62 -154 -62q-104 0 -157.5 74t-40 186t85 186t176.5 74q91 0 143 -67zM296 88q43 0 82 29t60 75l14 116q-6 30 -22.5 53.5t-40.5 37t-53 13.5q-64 0 -107 -46t-51.5 -116t23 -116t95.5 -46z" />
    <glyph glyph-name="Hbar" unicode="&#x126;" horiz-adv-x="738" 
d="M807 610l-6 -46h-64l-69 -564h-115l40 324h-368l-40 -324h-115l69 564h-65l6 46h65l17 140h115l-17 -140h368l17 140h115l-17 -140h64zM605 426l17 138h-368l-17 -138h368z" />
    <glyph glyph-name="hbar" unicode="&#x127;" horiz-adv-x="595" 
d="M398 510q85 0 133 -54t38 -140l-39 -316h-112l37 303q4 31 -8 56t-36.5 39t-56.5 14q-51 0 -91 -33.5t-46 -81.5l-36 -297h-111l72 583h-57l9 78h57l11 89h111l-11 -89h147l-9 -78h-147l-17 -138q69 65 162 65z" />
    <glyph glyph-name="Itilde" unicode="&#x128;" horiz-adv-x="255" 
d="M297 828q-59 0 -89 56q-14 25 -35 25q-22 0 -33.5 -20.5t-6.5 -51.5h-68q-3 60 30 99t83 39q59 0 90 -56q11 -25 35 -25q21 0 32 20t8 52h67q4 -59 -28.5 -98.5t-84.5 -39.5zM70 0l92 750h115l-92 -750h-115z" />
    <glyph glyph-name="itilde" unicode="&#x129;" horiz-adv-x="251" 
d="M265 578q-59 0 -89 56q-13 25 -35 25q-21 0 -32.5 -20.5t-7.5 -51.5h-68q-3 60 30 99t83 39q60 0 90 -56q12 -25 35 -25q21 0 32 20t8 52h67q4 -59 -28.5 -98.5t-84.5 -39.5zM70 0l61 500h111l-61 -500h-111z" />
    <glyph glyph-name="Imacron" unicode="&#x12a;" horiz-adv-x="255" 
d="M76 844l8 72h310l-8 -72h-310zM70 0l92 750h115l-92 -750h-115z" />
    <glyph glyph-name="imacron" unicode="&#x12b;" horiz-adv-x="251" 
d="M44 594l9 72h310l-9 -72h-310zM70 0l61 500h111l-61 -500h-111z" />
    <glyph glyph-name="Iogonek" unicode="&#x12e;" horiz-adv-x="255" 
d="M171 -153l30 -51q-67 -60 -154 -55q-53 3 -83 31t-24 77q6 47 41.5 85.5t94.5 65.5h-6l92 750h115l-92 -750h-12q-52 0 -100.5 -45t-54.5 -97q-4 -26 10.5 -43t44.5 -17q27 0 53.5 13.5t44.5 35.5z" />
    <glyph glyph-name="iogonek" unicode="&#x12f;" horiz-adv-x="251" 
d="M198.5 590q-27.5 0 -45.5 19.5t-14 47.5q3 28 25.5 48t50.5 20t45.5 -20t14.5 -48q-4 -28 -26.5 -47.5t-50 -19.5zM170 -153l30 -51q-67 -60 -154 -55q-53 3 -83 31t-24 77q6 47 41.5 85.5t94.5 65.5h-5l61 500h111l-61 -500h-9q-52 0 -100.5 -45t-54.5 -97
q-4 -26 10.5 -43t44.5 -17q27 0 53.5 13.5t44.5 35.5z" />
    <glyph glyph-name="Idotaccent" unicode="&#x130;" horiz-adv-x="255" 
d="M230 840q-28 0 -45.5 19.5t-14.5 47.5q3 19 14 34.5t27.5 24.5t35.5 9q28 0 45.5 -20t13.5 -48q-3 -28 -25.5 -47.5t-50.5 -19.5zM70 0l92 750h115l-92 -750h-115z" />
    <glyph glyph-name="dotlessi" unicode="&#x131;" horiz-adv-x="251" 
d="M70 0l61 500h111l-61 -500h-111z" />
    <glyph glyph-name="IJ" unicode="&#x132;" horiz-adv-x="637" 
d="M70 0l92 750h115l-92 -750h-115zM373 -10q-44 0 -71 10l14 117q33 -12 71 -12q29 0 53 21t28 51l70 573h115l-70 -573q-10 -78 -71.5 -132.5t-138.5 -54.5z" />
    <glyph glyph-name="ij" unicode="&#x133;" horiz-adv-x="554" 
d="M214.5 590q-27.5 0 -45.5 19.5t-14 47.5q3 28 25.5 48t50.5 20t45.5 -20t14.5 -48q-4 -28 -26.5 -47.5t-50 -19.5zM508.5 590q-27.5 0 -45.5 19.5t-14 47.5q3 28 25.5 48t50.5 20t45.5 -20t14.5 -48q-4 -28 -26.5 -47.5t-50 -19.5zM86 0l61 500h111l-61 -500h-111z
M292 -260q-45 0 -66 16l12 95q22 -19 52 -19t53 22t27 54l72 592h111l-73 -599q-8 -68 -62.5 -114.5t-125.5 -46.5z" />
    <glyph glyph-name="Kcommaaccent" unicode="&#x136;" horiz-adv-x="660" 
d="M719 750l-366 -334l288 -306l-19 -150l-390 421l-47 -381h-115l92 750h115l-38 -307l332 307h148zM326 -40q29 0 46 -21t13 -54q-10 -80 -51 -134.5t-98 -51.5l5 40q42 1 64 50q12 30 3 35q-29 0 -45.5 19t-12.5 49q3 29 24.5 48.5t51.5 19.5z" />
    <glyph glyph-name="kcommaaccent" unicode="&#x137;" horiz-adv-x="535" 
d="M580 500l-261 -220l206 -203l-16 -134l-299 297l-29 -240h-111l92 750h111l-54 -437l222 187h139zM265 -40q29 0 46 -21t13 -54q-10 -80 -51 -134.5t-98 -51.5l5 40q42 1 64 50q12 30 3 35q-29 0 -45.5 19t-12.5 49q3 29 24.5 48.5t51.5 19.5z" />
    <glyph glyph-name="Lacute" unicode="&#x139;" horiz-adv-x="497" 
d="M188 840l107 160h113l-133 -160h-87zM70 0l92 750h115l-80 -649h266l-12 -101h-381z" />
    <glyph glyph-name="lacute" unicode="&#x13a;" horiz-adv-x="348" 
d="M186 840l107 160h113l-133 -160h-87zM248 -10q-80 0 -121.5 47t-31.5 123l72 590h111l-71 -590q-10 -75 55 -75q34 0 58 24l52 -75q-48 -44 -124 -44z" />
    <glyph glyph-name="Lcommaaccent" unicode="&#x13b;" horiz-adv-x="497" 
d="M70 0l92 750h115l-80 -649h266l-12 -101h-381zM167 -301l5 40q42 1 64 50q12 30 3 35q-29 0 -45.5 19t-12.5 49q3 29 24.5 48.5t51.5 19.5q29 0 46 -21t13 -54q-10 -80 -51 -134.5t-98 -51.5z" />
    <glyph glyph-name="lcommaaccent" unicode="&#x13c;" horiz-adv-x="348" 
d="M248 -10q-80 0 -121.5 47t-31.5 123l72 590h111l-71 -590q-10 -75 55 -75q34 0 58 24l52 -75q-48 -44 -124 -44zM133 -301l5 40q42 1 64 50q12 30 3 35q-29 0 -45.5 19t-12.5 49q3 29 24.5 48.5t51.5 19.5q29 0 46 -21t13 -54q-10 -80 -51 -134.5t-98 -51.5z" />
    <glyph glyph-name="Lcaron" unicode="&#x13d;" horiz-adv-x="513" 
d="M388 449l7 52q19 0 37.5 18t28.5 40.5t13 40.5q2 21 -8 21q-18 0 -32.5 9t-21.5 24.5t-4 34.5q3 28 25 47.5t51 19.5q37 0 52.5 -31.5t9.5 -79.5q-9 -72 -53.5 -133.5t-104.5 -62.5zM70 0l92 750h115l-80 -649h266l-12 -101h-381z" />
    <glyph glyph-name="lcaron" unicode="&#x13e;" horiz-adv-x="384" 
d="M315 449l7 52q28 1 51.5 35t27.5 64q2 21 -8 21q-18 0 -32.5 9t-21.5 24.5t-4 34.5q3 28 25 47.5t51 19.5q37 0 52.5 -31.5t9.5 -79.5q-9 -72 -53.5 -133.5t-104.5 -62.5zM248 -10q-80 0 -121.5 47t-31.5 123l72 590h111l-71 -590q-10 -75 55 -75q34 0 58 24l52 -75
q-48 -44 -124 -44z" />
    <glyph glyph-name="ldot" unicode="&#x140;" horiz-adv-x="348" 
d="M248 -10q-80 0 -121.5 47t-31.5 123l72 590h111l-71 -590q-10 -75 55 -75q34 0 58 24l52 -75q-48 -44 -124 -44zM306.5 308q-21.5 0 -35 15t-10.5 37q2 14 10.5 26t21.5 19t27 7q21 0 35 -15.5t11 -36.5q-3 -22 -20.5 -37t-39 -15z" />
    <glyph glyph-name="Lslash" unicode="&#x141;" horiz-adv-x="497" 
d="M197 101h266l-12 -101h-381l34 276l-51 -47h-78l139 131l48 390h115l-33 -268l42 39h85l-137 -126z" />
    <glyph glyph-name="lslash" unicode="&#x142;" horiz-adv-x="348" 
d="M320 109l52 -75q-48 -44 -124 -44q-80 0 -121.5 47t-31.5 123l14 115l-59 -54h-78l147 138l48 391h111l-33 -273l38 36h85l-133 -123l-28 -230q-10 -75 55 -75q34 0 58 24z" />
    <glyph glyph-name="Nacute" unicode="&#x143;" horiz-adv-x="792" 
d="M677 1000l-133 -160h-87l107 160h113zM700 750h114l-92 -750h-114l-353 571l-70 -571h-115l92 750h114l354 -571z" />
    <glyph glyph-name="nacute" unicode="&#x144;" horiz-adv-x="595" 
d="M550 750l-133 -160h-87l107 160h113zM398 510q85 0 133 -54t38 -140l-39 -316h-112l37 303q4 31 -8 56t-36.5 39t-56.5 14q-51 0 -91 -33.5t-46 -81.5l-36 -297h-111l61 500h101l-1 -59q70 69 167 69z" />
    <glyph glyph-name="Ncommaaccent" unicode="&#x145;" horiz-adv-x="792" 
d="M700 750h114l-92 -750h-114l-353 571l-70 -571h-115l92 750h114l354 -571zM393 -40q29 0 46 -21t13 -54q-5 -38 -18 -72.5t-32 -60.5t-44.5 -40t-54.5 -13l5 40q42 1 64 50q12 30 3 35q-29 0 -45.5 19t-12.5 49q3 29 24.5 48.5t51.5 19.5z" />
    <glyph glyph-name="ncommaaccent" unicode="&#x146;" horiz-adv-x="595" 
d="M398 510q85 0 133 -54t38 -140l-39 -316h-112l37 303q4 31 -8 56t-36.5 39t-56.5 14q-51 0 -91 -33.5t-46 -81.5l-36 -297h-111l61 500h101l-1 -59q70 69 167 69zM296 -40q29 0 46 -21t13 -54q-10 -80 -51 -134.5t-98 -51.5l5 40q42 1 64 50q12 30 3 35q-29 0 -45.5 19
t-12.5 49q3 29 24.5 48.5t51.5 19.5z" />
    <glyph glyph-name="Ncaron" unicode="&#x147;" horiz-adv-x="792" 
d="M556 829h-117l-82 171h84l63 -119l93 119h84zM700 750h114l-92 -750h-114l-353 571l-70 -571h-115l92 750h114l354 -571z" />
    <glyph glyph-name="ncaron" unicode="&#x148;" horiz-adv-x="595" 
d="M429 579h-117l-82 171h84l63 -119l93 119h84zM398 510q85 0 133 -54t38 -140l-39 -316h-112l37 303q4 31 -8 56t-36.5 39t-56.5 14q-51 0 -91 -33.5t-46 -81.5l-36 -297h-111l61 500h101l-1 -59q70 69 167 69z" />
    <glyph glyph-name="Eng" unicode="&#x14a;" horiz-adv-x="823" 
d="M716 750h111l-100 -815q-9 -77 -65 -113.5t-139 -35.5l9 75q34 -1 55 14t26 60l9 72l-355 558l-69 -565h-111l92 750h110l358 -564z" />
    <glyph glyph-name="eng" unicode="&#x14b;" horiz-adv-x="624" 
d="M413 510q82 0 132 -58.5t40 -141.5l-47 -382q-9 -76 -65.5 -113t-139.5 -36l9 75q35 -1 57 14t27 60l45 369q6 48 -23 81.5t-77 33.5q-34 0 -64 -15.5t-49.5 -41.5t-23.5 -58l-36 -297h-111l61 500h111l-8 -65q70 75 162 75z" />
    <glyph glyph-name="Omacron" unicode="&#x14c;" horiz-adv-x="830" 
d="M364 844l8 72h310l-8 -72h-310zM414 -10q-105 0 -182.5 51.5t-113.5 139.5t-23 194t70.5 194t148 139.5t194.5 51.5t182 -51.5t114 -139.5t23 -194t-70.5 -194t-148 -139.5t-194.5 -51.5zM427 99q115 0 196 79t95.5 197t-47.5 197t-176 79t-195.5 -79t-96 -197t47.5 -197
t176 -79z" />
    <glyph glyph-name="omacron" unicode="&#x14d;" horiz-adv-x="570" 
d="M203 594l9 72h310l-9 -72h-310zM284 -10q-109 0 -169 74.5t-46.5 185.5t91.5 185.5t187.5 74.5t169 -74.5t46 -185.5t-91.5 -185.5t-187 -74.5zM296 88q63 0 106 46.5t52 115.5q5 45 -6.5 81.5t-41 58.5t-70.5 22q-64 0 -107 -46t-51.5 -116t23 -116t95.5 -46z" />
    <glyph glyph-name="Ohungarumlaut" unicode="&#x150;" horiz-adv-x="830" 
d="M383 824l166 176h106l-192 -176h-80zM569 824l166 176h106l-192 -176h-80zM414 -10q-105 0 -182.5 51.5t-113.5 139.5t-23 194t70.5 194t148 139.5t194.5 51.5t182 -51.5t114 -139.5t23 -194t-70.5 -194t-148 -139.5t-194.5 -51.5zM427 99q115 0 196 79t95.5 197
t-47.5 197t-176 79t-195.5 -79t-96 -197t47.5 -197t176 -79z" />
    <glyph glyph-name="ohungarumlaut" unicode="&#x151;" horiz-adv-x="570" 
d="M222 574l166 176h106l-192 -176h-80zM408 574l166 176h106l-192 -176h-80zM284 -10q-109 0 -169 74.5t-46.5 185.5t91.5 185.5t187.5 74.5t169 -74.5t46 -185.5t-91.5 -185.5t-187 -74.5zM296 88q63 0 106 46.5t52 115.5q5 45 -6.5 81.5t-41 58.5t-70.5 22
q-64 0 -107 -46t-51.5 -116t23 -116t95.5 -46z" />
    <glyph glyph-name="OE" unicode="&#x152;" horiz-adv-x="1239" 
d="M1232 653h-315l-28 -229h272l-12 -98h-272l-28 -229h315l-12 -97h-408l15 124q-62 -63 -142 -98.5t-166 -35.5q-105 0 -187.5 51.5t-123 140t-27.5 193.5t75.5 193.5t157.5 140t199 51.5q86 0 157.5 -35.5t118.5 -98.5l15 124h408zM465 100q114 0 204 80t104 195
q9 75 -19.5 138.5t-87 100t-133.5 36.5q-116 0 -205.5 -80t-103.5 -195t56 -195t185 -80z" />
    <glyph glyph-name="oe" unicode="&#x153;" horiz-adv-x="927" 
d="M919 246q-2 -21 -6 -31h-354q0 -61 29.5 -95t90.5 -34q28 0 49.5 7t42.5 24.5t46 49.5l70 -54q-81 -123 -224 -123q-124 0 -178 88q-83 -88 -201 -88q-109 0 -169 74.5t-46.5 185.5t91.5 185.5t188 74.5q119 0 180 -89q77 89 199 89q106 0 156.5 -72.5t35.5 -191.5z
M717 415q-54 0 -90.5 -30t-53.5 -85h253q-1 36 -13 61.5t-36.5 39.5t-59.5 14zM296 88q63 0 106 46.5t51.5 115.5t-23.5 115.5t-94 46.5q-64 0 -107 -46t-51.5 -116t23 -116t95.5 -46z" />
    <glyph glyph-name="Racute" unicode="&#x154;" horiz-adv-x="606" 
d="M591 1000l-133 -160h-87l107 160h113zM451 335l145 -335h-129l-133 328h-109l-40 -328h-115l92 750h289q89 0 144.5 -63t43.5 -154q-9 -74 -62 -129t-126 -69zM237 422h171q31 0 59 15.5t46 41.5t22 57q6 47 -23.5 80t-75.5 33h-171z" />
    <glyph glyph-name="racute" unicode="&#x155;" horiz-adv-x="420" 
d="M474 750l-133 -160h-87l107 160h113zM382 510q44 0 70 -8.5t46 -28.5l-63 -79q-27 18 -71 18q-53 0 -97.5 -40.5t-52.5 -103.5l-33 -268h-111l61 500h101l-2 -70q32 37 71.5 58.5t80.5 21.5z" />
    <glyph glyph-name="Rcommaaccent" unicode="&#x156;" horiz-adv-x="606" 
d="M451 335l145 -335h-129l-133 328h-109l-40 -328h-115l92 750h289q89 0 144.5 -63t43.5 -154q-9 -74 -62 -129t-126 -69zM237 422h171q31 0 59 15.5t46 41.5t22 57q6 47 -23.5 80t-75.5 33h-171zM306 -40q29 0 46 -21t13 -54q-10 -80 -51 -134.5t-98 -51.5l5 40
q42 1 64 50q12 30 3 35q-29 0 -45.5 19t-12.5 49q3 29 24.5 48.5t51.5 19.5z" />
    <glyph glyph-name="rcommaaccent" unicode="&#x157;" horiz-adv-x="420" 
d="M382 510q44 0 70 -8.5t46 -28.5l-63 -79q-27 18 -71 18q-53 0 -97.5 -40.5t-52.5 -103.5l-33 -268h-111l61 500h101l-2 -70q32 37 71.5 58.5t80.5 21.5zM122 -40q29 0 46 -21t13 -54q-10 -80 -51 -134.5t-98 -51.5l5 40q42 1 64 50q12 30 3 35q-29 0 -45.5 19t-12.5 49
q3 29 24.5 48.5t51.5 19.5z" />
    <glyph glyph-name="Rcaron" unicode="&#x158;" horiz-adv-x="606" 
d="M470 829h-117l-82 171h84l63 -119l93 119h84zM451 335l145 -335h-129l-133 328h-109l-40 -328h-115l92 750h289q89 0 144.5 -63t43.5 -154q-9 -74 -62 -129t-126 -69zM237 422h171q31 0 59 15.5t46 41.5t22 57q6 47 -23.5 80t-75.5 33h-171z" />
    <glyph glyph-name="rcaron" unicode="&#x159;" horiz-adv-x="420" 
d="M353 579h-117l-82 171h84l63 -119l93 119h84zM382 510q44 0 70 -8.5t46 -28.5l-63 -79q-27 18 -71 18q-53 0 -97.5 -40.5t-52.5 -103.5l-33 -268h-111l61 500h101l-2 -70q32 37 71.5 58.5t80.5 21.5z" />
    <glyph glyph-name="Sacute" unicode="&#x15a;" horiz-adv-x="637" 
d="M402 840l107 160h113l-133 -160h-87zM327 -10q-91 0 -164.5 40t-108.5 106l93 83q11 -37 39.5 -64.5t69.5 -41.5t88 -14q66 0 107.5 25t48.5 76q3 26 -4.5 48t-20 37t-37.5 30t-44 23.5t-52 21.5q-1 1 -5 2q-28 11 -42.5 17.5t-39 18.5t-37.5 22t-30 26t-24.5 32
t-11.5 38t-1 47q11 91 85 144t178 53q91 0 157 -29.5t103 -79.5l-87 -77q-47 88 -182 88q-55 0 -92.5 -23.5t-43.5 -66.5q-2 -18 5 -34.5t17.5 -27.5t32.5 -24t38 -20t46 -20t46 -20t43.5 -21.5t42.5 -26t34 -30.5t27.5 -38.5t13.5 -46.5t1 -57q-13 -108 -92.5 -162
t-196.5 -54z" />
    <glyph glyph-name="sacute" unicode="&#x15b;" horiz-adv-x="480" 
d="M272 590l107 160h113l-133 -160h-87zM243 -10q-59 0 -116 20t-85 51l65 77q17 -23 58.5 -39.5t82.5 -18.5q27 -1 49.5 5.5t36.5 19.5t16 31q1 12 -3.5 22t-12 17t-22.5 14.5t-27 11.5t-32 11q-24 8 -32.5 11t-30.5 12t-31 15.5t-24 18t-21 23.5t-10 29t-1 36
q8 66 68.5 109.5t141.5 43.5q32 0 65.5 -7t62 -19.5t49.5 -28.5l-70 -77q-11 11 -27.5 20.5t-34.5 15.5t-36 8q-36 4 -68.5 -10.5t-35.5 -40.5q-2 -10 0.5 -18t11 -15.5t15 -12t22.5 -10.5t23.5 -8.5t27.5 -9.5q29 -9 45.5 -15t40 -19t35.5 -27t20 -37t4 -51
q-8 -69 -70.5 -113.5t-149.5 -44.5z" />
    <glyph glyph-name="Scedilla" unicode="&#x15e;" horiz-adv-x="637" 
d="M408 446q30 -13 46 -20t43.5 -21.5t42.5 -26t34 -30.5t27.5 -38.5t13.5 -46.5t1 -57q-6 -53 -29.5 -93.5t-60 -66.5t-82 -40t-98.5 -16l-35 -54q52 10 84.5 -17t26.5 -74q-4 -29 -20.5 -53t-42.5 -38t-55 -14q-14 0 -28 3.5t-26.5 9.5t-23 14.5t-18.5 19t-12 21.5l53 19
q5 -9 15 -17t22.5 -12.5t24.5 -4.5q14 0 26.5 7t20.5 19t10 26q4 32 -21.5 43.5t-66.5 -4.5l-40 27l53 81q-80 7 -143.5 45.5t-95.5 98.5l93 83q11 -37 39.5 -64.5t69.5 -41.5t88 -14q66 0 107.5 25t48.5 76q2 22 -1.5 40.5t-15.5 33.5t-24.5 26.5t-34.5 23t-38 18.5t-44 18
q-1 1 -5 2q-28 11 -42.5 17.5t-39 18.5t-37.5 22t-30 26t-24.5 32t-11.5 38t-1 47q11 91 85 144t178 53q91 0 157 -29.5t103 -79.5l-87 -77q-47 88 -182 88q-55 0 -92.5 -23.5t-43.5 -66.5q-2 -18 5 -34.5t17.5 -27.5t32.5 -24t38 -20t46 -20z" />
    <glyph glyph-name="scedilla" unicode="&#x15f;" horiz-adv-x="480" 
d="M463 148q-7 -62 -60 -105.5t-130 -51.5l-36 -55q52 10 84.5 -17t26.5 -74q-5 -44 -39.5 -74.5t-78.5 -30.5q-35 0 -66.5 19.5t-41.5 48.5l53 19q8 -14 26 -24t36 -10q21 0 37.5 15t19.5 37q4 32 -21.5 43.5t-66.5 -4.5l-40 27l52 80q-54 4 -102 23t-74 47l65 77
q17 -23 58.5 -39.5t82.5 -18.5q27 -1 49.5 5.5t36.5 19.5t16 31q1 12 -3.5 22t-12 17t-22.5 14.5t-27 11.5t-32 11q-24 8 -32.5 11t-30.5 12t-31 15.5t-24 18t-21 23.5t-10 29t-1 36q8 66 68.5 109.5t141.5 43.5q32 0 65.5 -7t62 -19.5t49.5 -28.5l-70 -77
q-11 11 -27.5 20.5t-34.5 15.5t-36 8q-36 4 -68.5 -10.5t-35.5 -40.5q-2 -10 0.5 -18t11 -15.5t15 -12t22.5 -10.5t23.5 -8.5t27.5 -9.5q29 -9 45.5 -15t40 -19t35.5 -27t20 -37t4 -51z" />
    <glyph glyph-name="Scaron" unicode="&#x160;" horiz-adv-x="637" 
d="M384 829l-82 171h84l63 -119l93 119h84l-125 -171h-117zM327 -10q-91 0 -164.5 40t-108.5 106l93 83q11 -37 39.5 -64.5t69.5 -41.5t88 -14q66 0 107.5 25t48.5 76q3 26 -4.5 48t-20 37t-37.5 30t-44 23.5t-52 21.5q-1 1 -5 2q-28 11 -42.5 17.5t-39 18.5t-37.5 22
t-30 26t-24.5 32t-11.5 38t-1 47q11 91 85 144t178 53q91 0 157 -29.5t103 -79.5l-87 -77q-47 88 -182 88q-55 0 -92.5 -23.5t-43.5 -66.5q-2 -18 5 -34.5t17.5 -27.5t32.5 -24t38 -20t46 -20t46 -20t43.5 -21.5t42.5 -26t34 -30.5t27.5 -38.5t13.5 -46.5t1 -57
q-13 -108 -92.5 -162t-196.5 -54z" />
    <glyph glyph-name="scaron" unicode="&#x161;" horiz-adv-x="480" 
d="M254 579l-82 171h84l63 -119l93 119h84l-125 -171h-117zM243 -10q-59 0 -116 20t-85 51l65 77q17 -23 58.5 -39.5t82.5 -18.5q27 -1 49.5 5.5t36.5 19.5t16 31q1 12 -3.5 22t-12 17t-22.5 14.5t-27 11.5t-32 11q-24 8 -32.5 11t-30.5 12t-31 15.5t-24 18t-21 23.5t-10 29
t-1 36q8 66 68.5 109.5t141.5 43.5q32 0 65.5 -7t62 -19.5t49.5 -28.5l-70 -77q-11 11 -27.5 20.5t-34.5 15.5t-36 8q-36 4 -68.5 -10.5t-35.5 -40.5q-2 -10 0.5 -18t11 -15.5t15 -12t22.5 -10.5t23.5 -8.5t27.5 -9.5q29 -9 45.5 -15t40 -19t35.5 -27t20 -37t4 -51
q-8 -69 -70.5 -113.5t-149.5 -44.5z" />
    <glyph glyph-name="uni0162" unicode="&#x162;" horiz-adv-x="587" 
d="M351 0h-31l-41 -64q52 10 84.5 -17t26.5 -74q-5 -44 -39.5 -74.5t-78.5 -30.5q-35 0 -66.5 19.5t-41.5 48.5l53 19q8 -14 26 -24t36 -10q14 0 26.5 7t20.5 19t10 26q4 32 -21.5 43.5t-66.5 -4.5l-40 27l58 89h-29l80 649h-200l12 101h514l-12 -101h-200z" />
    <glyph glyph-name="uni0163" unicode="&#x163;" horiz-adv-x="376" 
d="M256 -10l-35 -54q52 10 84.5 -17t26.5 -74q-5 -44 -39.5 -74.5t-78.5 -30.5q-35 0 -66.5 19.5t-41.5 48.5l53 19q8 -14 26 -24t36 -10q14 0 26.5 7t20.5 19t10 26q4 32 -21.5 43.5t-66.5 -4.5l-40 27l56 85q-57 14 -84 57.5t-19 106.5l31 255h-61l10 85h61l21 170h111
l-21 -170h142l-10 -85h-141l-31 -255q-10 -75 55 -75q34 0 58 24l52 -75q-48 -44 -124 -44z" />
    <glyph glyph-name="Tcaron" unicode="&#x164;" horiz-adv-x="587" 
d="M453 829h-117l-82 171h84l63 -119l93 119h84zM643 750l-12 -101h-200l-80 -649h-114l80 649h-200l12 101h514z" />
    <glyph glyph-name="tcaron" unicode="&#x165;" horiz-adv-x="402" 
d="M421 697q-19 0 -33 9t-21 24.5t-5 34.5q3 28 25.5 47.5t50.5 19.5q37 0 52.5 -31.5t10.5 -79.5q-9 -72 -54 -133.5t-105 -62.5l7 52q29 1 52 35t27 64q3 21 -7 21zM270 85q34 0 58 24l52 -75q-48 -44 -124 -44q-80 0 -121.5 47t-31.5 123l31 255h-61l10 85h61l21 170h111
l-21 -170h142l-10 -85h-141l-31 -255q-10 -75 55 -75z" />
    <glyph glyph-name="Tbar" unicode="&#x166;" horiz-adv-x="587" 
d="M631 649h-200l-29 -235h99l-10 -78h-99l-41 -336h-114l41 336h-102l10 78h102l29 235h-200l12 101h514z" />
    <glyph glyph-name="tbar" unicode="&#x167;" horiz-adv-x="376" 
d="M328 109l52 -75q-48 -44 -124 -44q-80 0 -121.5 47t-31.5 123l6 51h-60l9 78h60l16 126h-61l10 85h61l21 170h111l-21 -170h142l-10 -85h-141l-16 -126h143l-9 -78h-143l-6 -51q-10 -75 55 -75q34 0 58 24z" />
    <glyph glyph-name="Utilde" unicode="&#x168;" horiz-adv-x="740" 
d="M540 828q-59 0 -89 56q-14 25 -35 25q-22 0 -33.5 -20.5t-6.5 -51.5h-68q-3 60 30 99t83 39q59 0 90 -56q11 -25 35 -25q21 0 32 20t8 52h67q4 -59 -28.5 -98.5t-84.5 -39.5zM369 -10q-123 0 -199.5 74t-63.5 180l62 506h115l-60 -486q-8 -72 37.5 -122.5t120.5 -50.5
t133.5 50.5t66.5 122.5l60 486h115l-62 -506q-13 -106 -107.5 -180t-217.5 -74z" />
    <glyph glyph-name="Umacron" unicode="&#x16a;" horiz-adv-x="740" 
d="M319 844l8 72h310l-8 -72h-310zM369 -10q-123 0 -199.5 74t-63.5 180l62 506h115l-60 -486q-8 -72 37.5 -122.5t120.5 -50.5q49 0 93 23t73 63t34 87l60 486h115l-62 -506q-13 -106 -107.5 -180t-217.5 -74z" />
    <glyph glyph-name="umacron" unicode="&#x16b;" horiz-adv-x="602" 
d="M539 666l-9 -72h-310l9 72h310zM482 500h111l-61 -500h-101l1 60q-68 -70 -162 -70q-85 0 -135 58t-40 142l38 310h111l-36 -297q-4 -32 8 -58t37 -41.5t58 -15.5q50 0 89.5 33.5t45.5 81.5z" />
    <glyph glyph-name="Uring" unicode="&#x16e;" horiz-adv-x="740" 
d="M469 806q-45 0 -73 32t-22.5 76t41.5 76t80 32q45 0 72.5 -32t22 -76t-41 -76t-79.5 -32zM475 854q25 0 44 17t22 43q3 25 -12 43t-39.5 18t-44 -18t-22.5 -43q-3 -26 12 -43t40 -17zM369 -10q-123 0 -199.5 74t-63.5 180l62 506h115l-60 -486q-8 -72 37.5 -122.5
t120.5 -50.5q49 0 93 23t73 63t34 87l60 486h115l-62 -506q-13 -106 -107.5 -180t-217.5 -74z" />
    <glyph glyph-name="uring" unicode="&#x16f;" horiz-adv-x="602" 
d="M370 556q-29 0 -52.5 14.5t-35 39.5t-7.5 54q2 22 13 42t27.5 34.5t38 23t43.5 8.5q44 0 71.5 -32t22 -76t-41 -76t-79.5 -32zM391 725q-25 0 -44 -18t-22 -43q-2 -13 1 -24t10 -19t17.5 -12.5t22.5 -4.5q25 0 44 17t23 43q3 25 -12 43t-40 18zM482 500h111l-61 -500
h-101l1 60q-68 -70 -162 -70q-85 0 -135 58t-40 142l38 310h111l-36 -297q-4 -32 8 -58t37 -41.5t58 -15.5q50 0 89.5 33.5t45.5 81.5z" />
    <glyph glyph-name="Uhungarumlaut" unicode="&#x170;" horiz-adv-x="740" 
d="M338 824l166 176h106l-192 -176h-80zM524 824l166 176h106l-192 -176h-80zM369 -10q-123 0 -199.5 74t-63.5 180l62 506h115l-60 -486q-8 -72 37.5 -122.5t120.5 -50.5t133.5 50.5t66.5 122.5l60 486h115l-62 -506q-13 -106 -107.5 -180t-217.5 -74z" />
    <glyph glyph-name="uhungarumlaut" unicode="&#x171;" horiz-adv-x="602" 
d="M511 750l-192 -176h-80l166 176h106zM505 574h-80l166 176h106zM446 203l36 297h111l-61 -500h-101l1 60q-68 -70 -162 -70q-85 0 -135 58t-40 142l38 310h111l-36 -297q-4 -32 8 -58t37 -41.5t58 -15.5q50 0 89.5 33.5t45.5 81.5z" />
    <glyph glyph-name="Uogonek" unicode="&#x172;" horiz-adv-x="740" 
d="M641 750h115l-62 -506q-12 -98 -93.5 -169t-193.5 -83q-39 -17 -69 -54t-35 -76q-3 -26 11.5 -43t44.5 -17q26 0 53 13.5t45 35.5l29 -51q-67 -60 -153 -55q-54 3 -83.5 31t-23.5 77q10 85 111 138q-111 11 -177 82.5t-54 170.5l62 506h115l-60 -486q-8 -72 37.5 -122.5
t120.5 -50.5t133.5 50.5t66.5 122.5z" />
    <glyph glyph-name="uogonek" unicode="&#x173;" horiz-adv-x="602" 
d="M530 -153l30 -51q-67 -60 -154 -55q-53 3 -83 31t-24 77q6 47 41.5 85.5t94.5 65.5h-4l1 60q-68 -70 -162 -70q-85 0 -135 58t-40 142l38 310h111l-36 -297q-4 -32 8 -58t37 -41.5t58 -15.5q50 0 89.5 33.5t45.5 81.5l36 297h111l-61 -500q-52 0 -100.5 -45t-54.5 -97
q-4 -26 10.5 -43t44.5 -17q27 0 53.5 13.5t44.5 35.5z" />
    <glyph glyph-name="Wcircumflex" unicode="&#x174;" horiz-adv-x="1121" 
d="M678 949l-90 -120h-87l124 171h117l83 -171h-88zM1099 750h124l-409 -750h-125l-92 305l-165 -305h-124l-226 750h124l185 -614l166 305l-92 309h118l182 -615z" />
    <glyph glyph-name="wcircumflex" unicode="&#x175;" horiz-adv-x="732" 
d="M406 699l-90 -120h-87l124 171h117l83 -171h-88zM664 500h124l-232 -500h-120l-47 203l-93 -203h-119l-111 500h126l68 -367l97 214l-36 153h108l76 -369z" />
    <glyph glyph-name="Ycircumflex" unicode="&#x176;" horiz-adv-x="670" 
d="M453 949l-90 -120h-87l124 171h117l83 -171h-88zM746 750l-309 -394l-44 -356h-115l43 353l-214 397h129l154 -298l229 298h127z" />
    <glyph glyph-name="ycircumflex" unicode="&#x177;" horiz-adv-x="603" 
d="M388 699l-90 -120h-87l124 171h117l83 -171h-88zM593 500l-60 -500q-14 -113 -91 -183.5t-198 -70.5q-100 0 -168 39l14 119q70 -60 175 -60q65 0 106 40.5t50 115.5l7 55q-70 -65 -158 -65q-85 0 -135 58t-40 142l38 310h111l-36 -297q-4 -32 8 -58t37 -41.5t58 -15.5
q50 0 89.5 33.5t45.5 81.5l36 297h111z" />
    <glyph glyph-name="Ydieresis" unicode="&#x178;" horiz-adv-x="670" 
d="M339 840q-28 0 -45.5 19.5t-14.5 47.5q3 19 14 34.5t27.5 24.5t35.5 9q28 0 45.5 -20t13.5 -48q-3 -28 -25.5 -47.5t-50.5 -19.5zM539 840q-28 0 -45.5 19.5t-14.5 47.5q3 19 14 34.5t27.5 24.5t35 9t33 -9t21.5 -24.5t4 -34.5q-2 -18 -13 -33.5t-27.5 -24.5t-34.5 -9z
M746 750l-309 -394l-44 -356h-115l43 353l-214 397h129l154 -298l229 298h127z" />
    <glyph glyph-name="Zacute" unicode="&#x179;" horiz-adv-x="658" 
d="M618 1000l-133 -160h-87l107 160h113zM211 101h414l-12 -101h-570l7 61l479 588h-395l12 101h551l-7 -61z" />
    <glyph glyph-name="zacute" unicode="&#x17a;" horiz-adv-x="542" 
d="M314 590l107 160h113l-133 -160h-87zM54 0l10 80l325 328h-281l11 92h425l-9 -78l-327 -330h291l-11 -92h-434z" />
    <glyph glyph-name="Zdotaccent" unicode="&#x17b;" horiz-adv-x="658" 
d="M440 840q-28 0 -45.5 19.5t-14.5 47.5q3 19 14 34.5t27.5 24.5t35.5 9q28 0 45.5 -20t13.5 -48q-3 -28 -25.5 -47.5t-50.5 -19.5zM211 101h414l-12 -101h-570l7 61l479 588h-395l12 101h551l-7 -61z" />
    <glyph glyph-name="zdotaccent" unicode="&#x17c;" horiz-adv-x="542" 
d="M356.5 590q-27.5 0 -45.5 19.5t-14 47.5q3 28 25.5 48t50.5 20t45.5 -20t14.5 -48q-4 -28 -26.5 -47.5t-50 -19.5zM54 0l10 80l325 328h-281l11 92h425l-9 -78l-327 -330h291l-11 -92h-434z" />
    <glyph glyph-name="Zcaron" unicode="&#x17d;" horiz-adv-x="658" 
d="M497 829h-117l-82 171h84l63 -119l93 119h84zM211 101h414l-12 -101h-570l7 61l479 588h-395l12 101h551l-7 -61z" />
    <glyph glyph-name="zcaron" unicode="&#x17e;" horiz-adv-x="542" 
d="M296 579l-82 171h84l63 -119l93 119h84l-125 -171h-117zM54 0l10 80l325 328h-281l11 92h425l-9 -78l-327 -330h291l-11 -92h-434z" />
    <glyph glyph-name="florin" unicode="&#x192;" horiz-adv-x="463" 
d="M461 679q-38 0 -67.5 -25t-41.5 -66l-25 -88h138l-23 -85h-138l-188 -665h-100l187 665h-83l23 85h84l29 103q19 67 78.5 112t126.5 45q46 0 68 -18l-20 -79q-15 16 -48 16z" />
    <glyph glyph-name="uni01CD" unicode="&#x1cd;" horiz-adv-x="762" 
d="M541 829h-117l-82 171h84l63 -119l93 119h84zM621 0l-38 151h-366l-77 -151h-125l393 750h129l209 -750h-125zM264 247h293l-98 385z" />
    <glyph glyph-name="uni01CE" unicode="&#x1ce;" horiz-adv-x="539" 
d="M405 579h-117l-82 171h84l63 -119l93 119h84zM323 510q93 0 147 -50.5t43 -145.5l-39 -314h-98l3 62q-95 -72 -181 -72q-67 0 -105.5 43t-29.5 110q9 74 73.5 117t180.5 27l82 -11l5 45q6 48 -22 71.5t-76 23.5q-73 0 -127 -60l-68 69q79 85 212 85zM176 149
q-3 -28 13.5 -44.5t46.5 -16.5q64 0 147 62l6 45l-65 10q-138 21 -148 -56z" />
    <glyph glyph-name="uni01CF" unicode="&#x1cf;" horiz-adv-x="255" 
d="M170 829l-82 171h84l63 -119l93 119h84l-125 -171h-117zM70 0l92 750h115l-92 -750h-115z" />
    <glyph glyph-name="uni01D0" unicode="&#x1d0;" horiz-adv-x="251" 
d="M138 579l-82 171h84l63 -119l93 119h84l-125 -171h-117zM70 0l61 500h111l-61 -500h-111z" />
    <glyph glyph-name="uni01D1" unicode="&#x1d1;" horiz-adv-x="830" 
d="M458 829l-82 171h84l63 -119l93 119h84l-125 -171h-117zM414 -10q-105 0 -182.5 51.5t-113.5 139.5t-23 194t70.5 194t148 139.5t194.5 51.5t182 -51.5t114 -139.5t23 -194t-70.5 -194t-148 -139.5t-194.5 -51.5zM427 99q115 0 196 79t95.5 197t-47.5 197t-176 79
t-195.5 -79t-96 -197t47.5 -197t176 -79z" />
    <glyph glyph-name="uni01D2" unicode="&#x1d2;" horiz-adv-x="570" 
d="M297 579l-82 171h84l63 -119l93 119h84l-125 -171h-117zM284 -10q-109 0 -169 74.5t-46.5 185.5t91.5 185.5t187.5 74.5t169 -74.5t46 -185.5t-91.5 -185.5t-187 -74.5zM296 88q63 0 106 46.5t52 115.5q5 45 -6.5 81.5t-41 58.5t-70.5 22q-64 0 -107 -46t-51.5 -116
t23 -116t95.5 -46z" />
    <glyph glyph-name="uni01D3" unicode="&#x1d3;" horiz-adv-x="740" 
d="M413 829l-82 171h84l63 -119l93 119h84l-125 -171h-117zM369 -10q-123 0 -199.5 74t-63.5 180l62 506h115l-60 -486q-8 -72 37.5 -122.5t120.5 -50.5t133.5 50.5t66.5 122.5l60 486h115l-62 -506q-13 -106 -107.5 -180t-217.5 -74z" />
    <glyph glyph-name="uni01D4" unicode="&#x1d4;" horiz-adv-x="602" 
d="M431 579h-117l-82 171h84l63 -119l93 119h84zM482 500h111l-61 -500h-101l1 60q-68 -70 -162 -70q-85 0 -135 58t-40 142l38 310h111l-36 -297q-4 -32 8 -58t37 -41.5t58 -15.5q50 0 89.5 33.5t45.5 81.5z" />
    <glyph glyph-name="Gcaron" unicode="&#x1e6;" horiz-adv-x="744" 
d="M618 829h-117l-82 171h84l63 -119l93 119h84zM535 651q-120 0 -209 -75.5t-104.5 -204.5t54.5 -204.5t190 -75.5q61 0 120 25l24 196h-154l13 102h256l-45 -367q-113 -65 -228 -65q-80 0 -146.5 27.5t-113 77t-67.5 123t-10 161.5q14 116 77 206t155.5 136.5t196.5 46.5
q118 0 215 -65l-17 -145q-22 31 -54 54t-71.5 35t-81.5 12z" />
    <glyph glyph-name="gcaron" unicode="&#x1e7;" horiz-adv-x="593" 
d="M409 579h-117l-82 171h84l63 -119l93 119h84zM485 500h99l-61 -496q-9 -73 -43 -130.5t-92 -90.5t-132 -33q-85 0 -147 39l15 119q63 -60 151 -60q57 0 93.5 40.5t45.5 115.5l6 48q-66 -62 -154 -62q-104 0 -157.5 74t-40 186t85 186t176.5 74q91 0 143 -67zM296 88
q29 0 56.5 13.5t49.5 37t36 53.5l14 116q-6 30 -22.5 53.5t-40.5 37t-53 13.5q-64 0 -107 -46t-51.5 -116t23 -116t95.5 -46z" />
    <glyph glyph-name="Oslashacute" unicode="&#x1fe;" horiz-adv-x="830" 
d="M696 1000l-133 -160h-87l107 160h113zM735 673q54 -54 78.5 -131.5t13.5 -166.5q-13 -106 -70.5 -194t-148 -139.5t-194.5 -51.5q-100 0 -178 49l-49 -61h-77l78 99q-54 53 -79 131t-14 167q13 106 70.5 194t148 139.5t194.5 51.5q101 0 179 -50l48 61h77zM203 375
q-16 -128 57 -207l356 452q-52 31 -121 31q-114 0 -195.5 -79t-96.5 -197zM427 99q76 0 139.5 36.5t103 99.5t48.5 140q16 129 -56 207l-355 -452q52 -31 120 -31z" />
    <glyph glyph-name="oslashacute" unicode="&#x1ff;" horiz-adv-x="570" 
d="M535 750l-133 -160h-87l107 160h113zM502 451q24 -23 39.5 -54.5t21 -68.5t0.5 -78q-14 -111 -92 -185.5t-187 -74.5q-69 0 -120 32l-43 -55h-55l64 81q-37 36 -53 88.5t-8 113.5q13 111 91 185.5t188 74.5q67 0 121 -32l42 54h54zM178 250q-9 -70 22 -114l202 257
q-29 19 -66 19q-64 0 -107 -46t-51 -116zM296 88q63 0 106 46.5t52 115.5q8 69 -21 113l-203 -257q26 -18 66 -18z" />
    <glyph glyph-name="Scommaaccent" unicode="&#x218;" horiz-adv-x="637" 
d="M327 -10q-91 0 -164.5 40t-108.5 106l93 83q11 -37 39.5 -64.5t69.5 -41.5t88 -14q66 0 107.5 25t48.5 76q3 26 -4.5 48t-20 37t-37.5 30t-44 23.5t-52 21.5q-1 1 -5 2q-28 11 -42.5 17.5t-39 18.5t-37.5 22t-30 26t-24.5 32t-11.5 38t-1 47q11 91 85 144t178 53
q91 0 157 -29.5t103 -79.5l-87 -77q-47 88 -182 88q-55 0 -92.5 -23.5t-43.5 -66.5q-2 -18 5 -34.5t17.5 -27.5t32.5 -24t38 -20t46 -20t46 -20t43.5 -21.5t42.5 -26t34 -30.5t27.5 -38.5t13.5 -46.5t1 -57q-13 -108 -92.5 -162t-196.5 -54zM231 -301l5 40q42 1 64 50
q12 30 3 35q-29 0 -45.5 19t-12.5 49q3 29 24.5 48.5t51.5 19.5q29 0 46 -21t13 -54q-10 -80 -51 -134.5t-98 -51.5z" />
    <glyph glyph-name="scommaaccent" unicode="&#x219;" horiz-adv-x="480" 
d="M243 -10q-59 0 -116 20t-85 51l65 77q17 -23 58.5 -39.5t82.5 -18.5q27 -1 49.5 5.5t36.5 19.5t16 31q1 12 -3.5 22t-12 17t-22.5 14.5t-27 11.5t-32 11q-24 8 -32.5 11t-30.5 12t-31 15.5t-24 18t-21 23.5t-10 29t-1 36q8 66 68.5 109.5t141.5 43.5q32 0 65.5 -7
t62 -19.5t49.5 -28.5l-70 -77q-11 11 -27.5 20.5t-34.5 15.5t-36 8q-36 4 -68.5 -10.5t-35.5 -40.5q-2 -10 0.5 -18t11 -15.5t15 -12t22.5 -10.5t23.5 -8.5t27.5 -9.5q29 -9 45.5 -15t40 -19t35.5 -27t20 -37t4 -51q-8 -69 -70.5 -113.5t-149.5 -44.5zM157 -301l5 40
q42 1 64 50q12 30 3 35q-29 0 -45.5 19t-12.5 49q2 19 12.5 34.5t27 24.5t36.5 9q29 0 46 -21t13 -54q-10 -80 -51 -134.5t-98 -51.5z" />
    <glyph glyph-name="uni021A" unicode="&#x21a;" horiz-adv-x="587" 
d="M129 750h514l-12 -101h-200l-80 -649h-114l80 649h-200zM289 -40q29 0 46 -21t13 -54q-10 -80 -51 -134.5t-98 -51.5l5 40q42 1 64 50q12 30 3 35q-29 0 -45.5 19t-12.5 49q3 29 24.5 48.5t51.5 19.5z" />
    <glyph glyph-name="uni021B" unicode="&#x21b;" horiz-adv-x="376" 
d="M328 109l52 -75q-48 -44 -124 -44q-80 0 -121.5 47t-31.5 123l31 255h-61l10 85h61l21 170h111l-21 -170h142l-10 -85h-141l-31 -255q-10 -75 55 -75q34 0 58 24zM231 -40q29 0 46 -21t13 -54q-10 -80 -51 -134.5t-98 -51.5l5 40q42 1 64 50q12 30 3 35q-29 0 -45.5 19
t-12.5 49q2 19 12.5 34.5t27 24.5t36.5 9z" />
    <glyph glyph-name="uni0228" unicode="&#x228;" horiz-adv-x="542" 
d="M577 649h-312l-28 -223h270l-12 -102h-270l-28 -223h312l-12 -101h-187l-41 -64q52 10 84.5 -17t26.5 -74q-4 -29 -20.5 -53t-42.5 -38t-55 -14q-35 0 -66.5 19.5t-41.5 48.5l53 19q8 -14 26 -24t36 -10q14 0 26.5 7t20.5 19t10 26q4 32 -21.5 43.5t-66.5 -4.5l-40 27
l58 89h-186l92 750h427z" />
    <glyph glyph-name="uni0229" unicode="&#x229;" horiz-adv-x="541" 
d="M533 246q-2 -21 -6 -31h-354q0 -61 29.5 -95t90.5 -34q21 0 37.5 3.5t33 13t32.5 25t35 39.5l70 -54q-35 -54 -85.5 -85.5t-113.5 -36.5l-35 -55q52 10 84.5 -17t26.5 -74q-5 -44 -39.5 -74.5t-78.5 -30.5q-23 0 -45.5 9t-39 24.5t-23.5 34.5l53 19q8 -14 26 -24t36 -10
q21 0 37.5 15t19.5 37q4 32 -21.5 43.5t-66.5 -4.5l-40 27l52 80q-97 10 -145 80.5t-34 177.5q14 115 87.5 188t184.5 73q106 0 156.5 -72.5t35.5 -191.5zM331 415q-54 0 -90.5 -30t-53.5 -85h253q-1 55 -28.5 85t-80.5 30z" />
    <glyph glyph-name="uni0237" unicode="&#x237;" horiz-adv-x="302" 
d="M12 -260q-45 0 -66 16l12 95q22 -19 52 -19t53 22t27 54l72 592h111l-73 -599q-8 -68 -62.5 -114.5t-125.5 -46.5z" />
    <glyph glyph-name="circumflex" unicode="&#x2c6;" horiz-adv-x="46" 
d="M98 579l124 171h117l83 -171h-88l-59 120l-90 -120h-87z" />
    <glyph glyph-name="caron" unicode="&#x2c7;" horiz-adv-x="46" 
d="M201 579l-82 171h84l63 -119l93 119h84l-125 -171h-117z" />
    <glyph glyph-name="breve" unicode="&#x2d8;" horiz-adv-x="46" 
d="M361 562q-76 0 -118 43t-33 119h66q-5 -39 21.5 -67.5t71.5 -28.5q47 0 80.5 28.5t38.5 67.5h65q-9 -76 -62 -119t-130 -43z" />
    <glyph glyph-name="dotaccent" unicode="&#x2d9;" horiz-adv-x="46" 
d="M227.5 590q-27.5 0 -45.5 19.5t-14 47.5q3 28 25.5 48t50.5 20t45.5 -20t14.5 -48q-4 -28 -26.5 -47.5t-50 -19.5z" />
    <glyph glyph-name="ring" unicode="&#x2da;" horiz-adv-x="46" 
d="M162 556q-29 0 -52.5 14.5t-35 39.5t-8 54t21 54t44.5 39.5t57 14.5q44 0 71.5 -32t22 -76t-41 -76t-79.5 -32zM168 604q25 0 44 17t23 43q3 25 -12 43t-40 18t-44 -18t-22 -43q-4 -26 11 -43t40 -17z" />
    <glyph glyph-name="ogonek" unicode="&#x2db;" horiz-adv-x="46" 
d="M99 -259q-53 3 -83 31t-24 77q7 55 54.5 98.5t126.5 69.5l52 -17q-52 0 -100.5 -45t-54.5 -97q-4 -26 10.5 -43t44.5 -17q27 0 53.5 13.5t44.5 35.5l30 -51q-67 -60 -154 -55z" />
    <glyph glyph-name="tilde" unicode="&#x2dc;" horiz-adv-x="47" 
d="M337 608q-59 0 -89 56q-14 25 -35 25q-22 0 -33.5 -20.5t-6.5 -51.5h-68q-3 60 30 99t83 39q59 0 90 -56q11 -25 35 -25q21 0 32 20t8 52h67q4 -59 -28.5 -98.5t-84.5 -39.5z" />
    <glyph glyph-name="hungarumlaut" unicode="&#x2dd;" horiz-adv-x="46" 
d="M97 574l166 176h106l-192 -176h-80zM283 574l166 176h106l-192 -176h-80z" />
    <glyph glyph-name="gravecomb" unicode="&#x300;" 
d="M-42 590l-94 160h113l67 -160h-86z" />
    <glyph glyph-name="acutecomb" unicode="&#x301;" 
d="M-156 590l107 160h113l-133 -160h-87z" />
    <glyph glyph-name="uni0302" unicode="&#x302;" 
d="M-280 579l124 171h117l83 -171h-88l-59 120l-90 -120h-87z" />
    <glyph glyph-name="tildecomb" unicode="&#x303;" 
d="M-52 608q-59 0 -89 56q-14 25 -35 25q-22 0 -33.5 -20.5t-6.5 -51.5h-68q-3 60 30 99t83 39q59 0 90 -56q11 -25 35 -25q21 0 32 20t8 52h67q4 -59 -28.5 -98.5t-84.5 -39.5z" />
    <glyph glyph-name="uni0304" unicode="&#x304;" 
d="M-264 594l9 72h310l-9 -72h-310z" />
    <glyph glyph-name="uni0306" unicode="&#x306;" 
d="M-273 562q-76 0 -118 43t-33 119h66q-5 -39 21.5 -67.5t71.5 -28.5q47 0 80.5 28.5t38.5 67.5h65q-9 -76 -62 -119t-130 -43z" />
    <glyph glyph-name="uni0307" unicode="&#x307;" 
d="M-82.5 590q-27.5 0 -45.5 19.5t-14 47.5q3 28 25.5 48t50.5 20t45.5 -20t14.5 -48q-4 -28 -26.5 -47.5t-50 -19.5z" />
    <glyph glyph-name="uni0308" unicode="&#x308;" 
d="M-253.5 590q-27.5 0 -45.5 19.5t-14 47.5q3 28 25.5 48t50.5 20t45.5 -20t14.5 -48q-4 -28 -26.5 -47.5t-50 -19.5zM-53.5 590q-27.5 0 -45.5 19.5t-14 47.5q3 28 25.5 48t50.5 20t45 -20t14 -48q-4 -28 -26 -47.5t-49.5 -19.5z" />
    <glyph glyph-name="uni030A" unicode="&#x30a;" 
d="M-24 556q-45 0 -73 32t-22 76q3 29 20.5 54t44.5 39.5t57 14.5q44 0 71.5 -32t22 -76t-41 -76t-79.5 -32zM-18 604q25 0 44 17t23 43q3 25 -12 43t-40 18t-44 -18t-22 -43q-4 -26 11 -43t40 -17z" />
    <glyph glyph-name="uni030B" unicode="&#x30b;" 
d="M-393 574l166 176h106l-192 -176h-80zM-207 574l166 176h106l-192 -176h-80z" />
    <glyph glyph-name="uni030C" unicode="&#x30c;" 
d="M-177 579l-82 171h84l63 -119l93 119h84l-125 -171h-117z" />
    <glyph glyph-name="uni0312" unicode="&#x312;" 
d="M-34.5 498q-28.5 0 -46 22t-13.5 53q6 48 34 92.5t60 69t55 24.5l-5 -39q-22 -9 -41.5 -30t-26.5 -38.5t0 -17.5q28 0 45.5 -19.5t14 -48t-25.5 -48.5t-50.5 -20z" />
    <glyph glyph-name="dotbelowcomb" unicode="&#x323;" 
d="M-125.5 -250q-27.5 0 -45.5 20t-14 48q2 18 13 34t28 25t35 9q28 0 45.5 -20t14 -48t-26 -48t-50 -20z" />
    <glyph glyph-name="uni0326" unicode="&#x326;" 
d="M-170 -135l5 40q27 0 47 22.5t22 41t-1 21.5q-30 0 -46.5 19t-12.5 49q4 29 25.5 48.5t50.5 19.5q30 0 46.5 -21t12.5 -54q-10 -80 -51 -134.5t-98 -51.5z" />
    <glyph glyph-name="uni0327" unicode="&#x327;" 
d="M-164 -260q-35 0 -66.5 19.5t-41.5 48.5l53 19q8 -14 26 -24t36 -10q21 0 37.5 15t19.5 37q4 32 -21.5 43.5t-66.5 -4.5l-40 27l58 89h54l-41 -64q52 10 84.5 -17t26.5 -74q-5 -44 -39.5 -74.5t-78.5 -30.5z" />
    <glyph glyph-name="uni0328" unicode="&#x328;" 
d="M-206 -259q-53 3 -83 31t-24 77q7 55 54.5 98.5t126.5 69.5l52 -17q-52 0 -100.5 -45t-54.5 -97q-4 -26 10.5 -43t44.5 -17q27 0 53.5 13.5t44.5 35.5l30 -51q-67 -60 -154 -55z" />
    <glyph glyph-name="uni0335" unicode="&#x335;" 
d="M-455 218l9 78h315l-9 -78h-315z" />
    <glyph glyph-name="uni0336" unicode="&#x336;" 
d="M-726 237l6 46h727l-6 -46h-727z" />
    <glyph glyph-name="uni0337" unicode="&#x337;" 
d="M-445 108l311 292h85l-318 -292h-78z" />
    <glyph glyph-name="uni0338" unicode="&#x338;" 
d="M-624 -21l625 793h77l-625 -793h-77z" />
    <glyph glyph-name="uni0394" unicode="&#x394;" horiz-adv-x="789" 
d="M36 0l8 63l382 695h127l207 -694l-8 -64h-716zM160 91h484l-114 372q-3 9 -25.5 90t-27.5 108h-9q-6 -14 -21.5 -45.5t-37.5 -73t-32 -60.5z" />
    <glyph glyph-name="Lambda" unicode="&#x39b;" horiz-adv-x="762" 
d="M746 0h-125l-164 621l-317 -621h-125l393 750h129z" />
    <glyph glyph-name="Xi" unicode="&#x39e;" horiz-adv-x="600" 
d="M154 649l12 101h437l-12 -101h-437zM169 324l12 102h328l-12 -102h-328zM74 0l12 101h437l-12 -101h-437z" />
    <glyph glyph-name="uni03A9" unicode="&#x3a9;" horiz-adv-x="881" 
d="M57 0l10 81h155l1 6q-52 48 -82 130t-18 179q18 152 134.5 254t277.5 102q82 0 148 -29.5t105.5 -78.5t57 -113t9.5 -133q-12 -95 -63 -179.5t-115 -131.5l-1 -6h157l-10 -81h-302l7 60q81 40 142.5 124t75.5 196q9 75 -12 140t-75 107.5t-133 42.5q-117 0 -200 -83
t-98 -208q-14 -110 28 -196t110 -123l-7 -60h-302z" />
    <glyph glyph-name="uni03BC" unicode="&#x3bc;" horiz-adv-x="633" 
d="M487 500h111l-61 -500h-111l8 66q-69 -76 -162 -76q-63 0 -109 36l-34 -276h-83l92 750h111l-36 -297q-4 -31 8.5 -57.5t37 -42t56.5 -15.5q51 0 90.5 33.5t45.5 81.5z" />
    <glyph glyph-name="pi" unicode="&#x3c0;" horiz-adv-x="702" 
d="M75 0q41 84 81.5 220.5t57.5 244.5q-95 0 -136 -13l-4 65q54 31 181 31h491l-19 -83h-95l-37 -301q-13 -110 -4 -164h-102q-15 30 0 154l38 311l-209 1q-6 -40 -17.5 -89.5t-26 -103.5t-30.5 -104.5t-33.5 -95.5t-33.5 -73h-102z" />
    <glyph glyph-name="uni1E04" unicode="&#x1e04;" horiz-adv-x="648" 
d="M501 386q65 -18 98.5 -65.5t25.5 -119.5q-11 -90 -78.5 -145.5t-158.5 -55.5h-318l92 750h261q91 0 145.5 -56.5t43.5 -146.5q-13 -110 -111 -161zM496 536q4 31 -8 57t-36 41t-54 15h-134l-28 -227h134q46 0 83 33.5t43 80.5zM384 101q47 0 84.5 33.5t42.5 80.5
q6 46 -23 79.5t-76 33.5h-188l-28 -227h188zM310 -60q27 0 45 -20t14.5 -48t-26 -48t-50.5 -20t-45.5 20t-14.5 48q3 18 14 34t27.5 25t35.5 9z" />
    <glyph glyph-name="uni1E05" unicode="&#x1e05;" horiz-adv-x="592" 
d="M388 510q104 0 157 -74t39.5 -186t-85 -186t-175.5 -74q-92 0 -143 66l-12 -56h-99l92 750h109l-37 -301q67 61 154 61zM318 88q63 0 106.5 46t52.5 116q5 45 -6.5 81.5t-41 58.5t-71.5 22q-44 0 -82 -28.5t-59 -75.5l-14 -116q9 -47 40 -75.5t75 -28.5zM311.5 -60
q27.5 0 45.5 -20t14.5 -48t-26 -48t-50.5 -20t-45.5 20t-14 48t26 48t50 20z" />
    <glyph glyph-name="uni1E24" unicode="&#x1e24;" horiz-adv-x="738" 
d="M645 750h115l-92 -750h-115l40 324h-368l-40 -324h-115l92 750h115l-40 -324h368zM363.5 -60q27.5 0 45.5 -20t14.5 -48t-26 -48t-50.5 -20t-45.5 20t-14 48t26 48t50 20z" />
    <glyph glyph-name="uni1E25" unicode="&#x1e25;" horiz-adv-x="595" 
d="M398 510q85 0 133 -54t38 -140l-39 -316h-112l37 303q4 31 -8 56t-36.5 39t-56.5 14q-51 0 -91 -33.5t-46 -81.5l-36 -297h-111l92 750h111l-37 -305q69 65 162 65zM286.5 -60q27.5 0 45.5 -20t14.5 -48t-26 -48t-50.5 -20t-45.5 20t-14 48t26 48t50 20z" />
    <glyph glyph-name="uni1E36" unicode="&#x1e36;" horiz-adv-x="497" 
d="M70 0l92 750h115l-80 -649h266l-12 -101h-381zM237 -196q-28 0 -45.5 20t-14 48t26 48t50 20t45.5 -20t14.5 -48t-26 -48t-50.5 -20z" />
    <glyph glyph-name="uni1E37" unicode="&#x1e37;" horiz-adv-x="348" 
d="M248 -10q-80 0 -121.5 47t-31.5 123l72 590h111l-71 -590q-10 -75 55 -75q34 0 58 24l52 -75q-48 -44 -124 -44zM203 -196q-28 0 -45.5 20t-14 48t26 48t50 20t45.5 -20t14.5 -48t-26 -48t-50.5 -20z" />
    <glyph glyph-name="uni1E44" unicode="&#x1e44;" horiz-adv-x="792" 
d="M499 840q-28 0 -45.5 19.5t-14.5 47.5q3 19 14 34.5t27.5 24.5t35.5 9q28 0 45.5 -20t13.5 -48q-3 -28 -25.5 -47.5t-50.5 -19.5zM700 750h114l-92 -750h-114l-353 571l-70 -571h-115l92 750h114l354 -571z" />
    <glyph glyph-name="uni1E45" unicode="&#x1e45;" horiz-adv-x="595" 
d="M372.5 590q-27.5 0 -45.5 19.5t-14 47.5q3 28 25.5 48t50.5 20t45.5 -20t14.5 -48q-4 -28 -26.5 -47.5t-50 -19.5zM398 510q85 0 133 -54t38 -140l-39 -316h-112l37 303q4 31 -8 56t-36.5 39t-56.5 14q-51 0 -91 -33.5t-46 -81.5l-36 -297h-111l61 500h101l-1 -59
q70 69 167 69z" />
    <glyph glyph-name="uni1E46" unicode="&#x1e46;" horiz-adv-x="792" 
d="M700 750h114l-92 -750h-114l-353 571l-70 -571h-115l92 750h114l354 -571zM389.5 -60q27.5 0 45.5 -20t14.5 -48t-26 -48t-50.5 -20t-45.5 20t-14 48t26 48t50 20z" />
    <glyph glyph-name="uni1E47" unicode="&#x1e47;" horiz-adv-x="595" 
d="M398 510q85 0 133 -54t38 -140l-39 -316h-112l37 303q4 31 -8 56t-36.5 39t-56.5 14q-51 0 -91 -33.5t-46 -81.5l-36 -297h-111l61 500h101l-1 -59q70 69 167 69zM292.5 -60q27.5 0 45.5 -20t14.5 -48t-26 -48t-50.5 -20t-45.5 20t-14 48t26 48t50 20z" />
    <glyph glyph-name="uni1E62" unicode="&#x1e62;" horiz-adv-x="637" 
d="M327 -10q-91 0 -164.5 40t-108.5 106l93 83q11 -37 39.5 -64.5t69.5 -41.5t88 -14q66 0 107.5 25t48.5 76q3 26 -4.5 48t-20 37t-37.5 30t-44 23.5t-52 21.5q-1 1 -5 2q-28 11 -42.5 17.5t-39 18.5t-37.5 22t-30 26t-24.5 32t-11.5 38t-1 47q11 91 85 144t178 53
q91 0 157 -29.5t103 -79.5l-87 -77q-47 88 -182 88q-55 0 -92.5 -23.5t-43.5 -66.5q-2 -18 5 -34.5t17.5 -27.5t32.5 -24t38 -20t46 -20t46 -20t43.5 -21.5t42.5 -26t34 -30.5t27.5 -38.5t13.5 -46.5t1 -57q-13 -108 -92.5 -162t-196.5 -54zM301 -196q-28 0 -45.5 20t-14 48
t26 48t50 20t45.5 -20t14.5 -48t-26 -48t-50.5 -20z" />
    <glyph glyph-name="uni1E63" unicode="&#x1e63;" horiz-adv-x="480" 
d="M243 -10q-59 0 -116 20t-85 51l65 77q17 -23 58.5 -39.5t82.5 -18.5q27 -1 49.5 5.5t36.5 19.5t16 31q1 12 -3.5 22t-12 17t-22.5 14.5t-27 11.5t-32 11q-24 8 -32.5 11t-30.5 12t-31 15.5t-24 18t-21 23.5t-10 29t-1 36q8 66 68.5 109.5t141.5 43.5q32 0 65.5 -7
t62 -19.5t49.5 -28.5l-70 -77q-11 11 -27.5 20.5t-34.5 15.5t-36 8q-36 4 -68.5 -10.5t-35.5 -40.5q-2 -10 0.5 -18t11 -15.5t15 -12t22.5 -10.5t23.5 -8.5t27.5 -9.5q29 -9 45.5 -15t40 -19t35.5 -27t20 -37t4 -51q-8 -69 -70.5 -113.5t-149.5 -44.5zM227 -196
q-28 0 -45.5 20t-14 48t26 48t50 20t45.5 -20t14.5 -48t-26 -48t-50.5 -20z" />
    <glyph glyph-name="uni1E6C" unicode="&#x1e6c;" horiz-adv-x="587" 
d="M129 750h514l-12 -101h-200l-80 -649h-114l80 649h-200zM285.5 -60q27.5 0 45.5 -20t14.5 -48t-26 -48t-50.5 -20t-45.5 20t-14 48t26 48t50 20z" />
    <glyph glyph-name="uni1E6D" unicode="&#x1e6d;" horiz-adv-x="376" 
d="M328 109l52 -75q-48 -44 -124 -44q-80 0 -121.5 47t-31.5 123l31 255h-61l10 85h61l21 170h111l-21 -170h142l-10 -85h-141l-31 -255q-10 -75 55 -75q34 0 58 24zM228 -60q27 0 45 -20t14.5 -48t-26 -48t-50.5 -20t-45.5 20t-14.5 48q3 18 14 34t27.5 25t35.5 9z" />
    <glyph glyph-name="Wgrave" unicode="&#x1e80;" horiz-adv-x="1121" 
d="M702 840h-86l-94 160h113zM1099 750h124l-409 -750h-125l-92 305l-165 -305h-124l-226 750h124l185 -614l166 305l-92 309h118l182 -615z" />
    <glyph glyph-name="wgrave" unicode="&#x1e81;" horiz-adv-x="732" 
d="M430 590h-86l-94 160h113zM664 500h124l-232 -500h-120l-47 203l-93 -203h-119l-111 500h126l68 -367l97 214l-36 153h108l76 -369z" />
    <glyph glyph-name="Wacute" unicode="&#x1e82;" horiz-adv-x="1121" 
d="M842 1000l-133 -160h-87l107 160h113zM1099 750h124l-409 -750h-125l-92 305l-165 -305h-124l-226 750h124l185 -614l166 305l-92 309h118l182 -615z" />
    <glyph glyph-name="wacute" unicode="&#x1e83;" horiz-adv-x="732" 
d="M570 750l-133 -160h-87l107 160h113zM664 500h124l-232 -500h-120l-47 203l-93 -203h-119l-111 500h126l68 -367l97 214l-36 153h108l76 -369z" />
    <glyph glyph-name="Wdieresis" unicode="&#x1e84;" horiz-adv-x="1121" 
d="M564 840q-28 0 -45.5 19.5t-14.5 47.5q3 19 14 34.5t27.5 24.5t35.5 9q28 0 45.5 -20t13.5 -48q-3 -28 -25.5 -47.5t-50.5 -19.5zM764 840q-28 0 -45.5 19.5t-14.5 47.5q3 19 14 34.5t27.5 24.5t35 9t33 -9t21.5 -24.5t4 -34.5q-3 -28 -25 -47.5t-50 -19.5zM1099 750h124
l-409 -750h-125l-92 305l-165 -305h-124l-226 750h124l185 -614l166 305l-92 309h118l182 -615z" />
    <glyph glyph-name="wdieresis" unicode="&#x1e85;" horiz-adv-x="732" 
d="M292.5 590q-27.5 0 -45.5 19.5t-14 47.5q3 28 25.5 48t50.5 20t45.5 -20t14.5 -48q-4 -28 -26.5 -47.5t-50 -19.5zM492.5 590q-27.5 0 -45.5 19.5t-14 47.5q3 28 25.5 48t50.5 20t45 -20t14 -48q-4 -28 -26 -47.5t-49.5 -19.5zM664 500h124l-232 -500h-120l-47 203
l-93 -203h-119l-111 500h126l68 -367l97 214l-36 153h108l76 -369z" />
    <glyph glyph-name="uni1E92" unicode="&#x1e92;" horiz-adv-x="658" 
d="M211 101h414l-12 -101h-570l7 61l479 588h-395l12 101h551l-7 -61zM319 -60q27 0 45 -20t14.5 -48t-26 -48t-50.5 -20t-45.5 20t-14.5 48q3 18 14 34t27.5 25t35.5 9z" />
    <glyph glyph-name="uni1E93" unicode="&#x1e93;" horiz-adv-x="542" 
d="M54 0l10 80l325 328h-281l11 92h425l-9 -78l-327 -330h291l-11 -92h-434zM247 -196q-28 0 -45.5 20t-14 48t26 48t50 20t45.5 -20t14.5 -48t-26 -48t-50.5 -20z" />
    <glyph glyph-name="uni1EA0" unicode="&#x1ea0;" horiz-adv-x="762" 
d="M746 0h-125l-38 151h-366l-77 -151h-125l393 750h129zM264 247h293l-98 385zM373.5 -60q27.5 0 45.5 -20t14.5 -48t-26 -48t-50.5 -20t-45.5 20t-14 48t26 48t50 20z" />
    <glyph glyph-name="uni1EA1" unicode="&#x1ea1;" horiz-adv-x="539" 
d="M323 510q93 0 147 -50.5t43 -145.5l-39 -314h-98l3 62q-95 -72 -181 -72q-67 0 -105.5 43t-29.5 110q9 74 73.5 117t180.5 27l82 -11l5 45q6 48 -22 71.5t-76 23.5q-73 0 -127 -60l-68 69q79 85 212 85zM176 149q-3 -28 13.5 -44.5t46.5 -16.5q64 0 147 62l6 45l-65 10
q-138 21 -148 -56zM252.5 -60q27.5 0 45.5 -20t14.5 -48t-26 -48t-50.5 -20t-45.5 20t-14 48t26 48t50 20z" />
    <glyph glyph-name="uni1EB8" unicode="&#x1eb8;" horiz-adv-x="542" 
d="M577 649h-312l-28 -223h270l-12 -102h-270l-28 -223h312l-12 -101h-427l92 750h427zM275.5 -60q27.5 0 45.5 -20t14.5 -48t-26 -48t-50.5 -20t-45.5 20t-14 48t26 48t50 20z" />
    <glyph glyph-name="uni1EB9" unicode="&#x1eb9;" horiz-adv-x="541" 
d="M533 246q-2 -21 -6 -31h-354q0 -61 29.5 -95t90.5 -34q21 0 37.5 3.5t33 13t32.5 25t35 39.5l70 -54q-81 -123 -224 -123q-112 0 -167.5 72t-40.5 187q14 115 87.5 188t184.5 73q106 0 156.5 -72.5t35.5 -191.5zM331 415q-54 0 -90.5 -30t-53.5 -85h253q-1 55 -28.5 85
t-80.5 30zM273.5 -60q27.5 0 45.5 -20t14.5 -48t-26 -48t-50.5 -20t-45.5 20t-14 48t26 48t50 20z" />
    <glyph glyph-name="uni1EBC" unicode="&#x1ebc;" horiz-adv-x="542" 
d="M289 837h-68q-3 60 30 99t83 39q59 0 90 -56q11 -25 35 -25q21 0 32 20t8 52h67q4 -59 -28.5 -98.5t-84.5 -39.5q-59 0 -89 56q-14 25 -35 25q-22 0 -33.5 -20.5t-6.5 -51.5zM577 649h-312l-28 -223h270l-12 -102h-270l-28 -223h312l-12 -101h-427l92 750h427z" />
    <glyph glyph-name="uni1EBD" unicode="&#x1ebd;" horiz-adv-x="541" 
d="M254 588h-68q-3 60 30 99t83 39q60 0 90 -56q12 -25 35 -25q21 0 32.5 20t7.5 52h67q4 -59 -28.5 -98.5t-84.5 -39.5q-59 0 -89 56q-13 25 -35 25q-21 0 -32.5 -20.5t-7.5 -51.5zM533 246q-2 -21 -6 -31h-354q0 -61 29.5 -95t90.5 -34q21 0 37.5 3.5t33 13t32.5 25
t35 39.5l70 -54q-81 -123 -224 -123q-112 0 -167.5 72t-40.5 187q14 115 87.5 188t184.5 73q106 0 156.5 -72.5t35.5 -191.5zM331 415q-54 0 -90.5 -30t-53.5 -85h253q-1 55 -28.5 85t-80.5 30z" />
    <glyph glyph-name="uni1ECA" unicode="&#x1eca;" horiz-adv-x="255" 
d="M70 0l92 750h115l-92 -750h-115zM103 -196q-28 0 -45.5 20t-14 48t26 48t50 20t45.5 -20t14.5 -48t-26 -48t-50.5 -20z" />
    <glyph glyph-name="uni1ECB" unicode="&#x1ecb;" horiz-adv-x="284" 
d="M214.5 590q-27.5 0 -45.5 19.5t-14 47.5q3 28 25.5 48t50.5 20t45.5 -20t14.5 -48q-4 -28 -26.5 -47.5t-50 -19.5zM86 0l61 500h111l-61 -500h-111zM122 -211q-28 0 -45.5 20t-14 48t26 48t50.5 20t45.5 -20t14 -48t-26 -48t-50.5 -20z" />
    <glyph glyph-name="uni1ECC" unicode="&#x1ecc;" horiz-adv-x="830" 
d="M414 -10q-105 0 -182.5 51.5t-113.5 139.5t-23 194t70.5 194t148 139.5t194.5 51.5t182 -51.5t114 -139.5t23 -194t-70.5 -194t-148 -139.5t-194.5 -51.5zM427 99q115 0 196 79t95.5 197t-47.5 197t-176 79t-195.5 -79t-96 -197t47.5 -197t176 -79zM391 -196
q-28 0 -45.5 20t-14 48t26 48t50 20t45.5 -20t14.5 -48t-26 -48t-50.5 -20z" />
    <glyph glyph-name="uni1ECD" unicode="&#x1ecd;" horiz-adv-x="570" 
d="M284 -10q-109 0 -169 74.5t-46.5 185.5t91.5 185.5t187.5 74.5t169 -74.5t46 -185.5t-91.5 -185.5t-187 -74.5zM296 88q63 0 106 46.5t51.5 115.5t-23.5 115.5t-94 46.5q-64 0 -107 -46t-51.5 -116t23 -116t95.5 -46zM261 -196q-28 0 -45.5 20t-14 48t26 48t50 20
t45.5 -20t14.5 -48t-26 -48t-50.5 -20z" />
    <glyph glyph-name="uni1EE4" unicode="&#x1ee4;" horiz-adv-x="740" 
d="M369 -10q-123 0 -199.5 74t-63.5 180l62 506h115l-60 -486q-8 -72 37.5 -122.5t120.5 -50.5t133.5 50.5t66.5 122.5l60 486h115l-62 -506q-13 -106 -107.5 -180t-217.5 -74zM346 -196q-28 0 -45.5 20t-14 48t26 48t50 20t45.5 -20t14.5 -48t-26 -48t-50.5 -20z" />
    <glyph glyph-name="Ygrave" unicode="&#x1ef2;" horiz-adv-x="670" 
d="M477 840h-86l-94 160h113zM746 750l-309 -394l-44 -356h-115l43 353l-214 397h129l154 -298l229 298h127z" />
    <glyph glyph-name="ygrave" unicode="&#x1ef3;" horiz-adv-x="603" 
d="M412 590h-86l-94 160h113zM593 500l-60 -500q-14 -113 -91 -183.5t-198 -70.5q-100 0 -168 39l14 119q70 -60 175 -60q65 0 106 40.5t50 115.5l7 55q-70 -65 -158 -65q-85 0 -135 58t-40 142l38 310h111l-36 -297q-4 -32 8 -58t37 -41.5t58 -15.5q50 0 89.5 33.5
t45.5 81.5l36 297h111z" />
    <glyph glyph-name="uni1EF4" unicode="&#x1ef4;" horiz-adv-x="670" 
d="M278 0l43 353l-214 397h129l154 -298l229 298h127l-309 -394l-44 -356h-115zM328.5 -60q27.5 0 45.5 -20t14.5 -48t-26 -48t-50.5 -20t-45.5 20t-14 48t26 48t50 20z" />
    <glyph glyph-name="uni1EF8" unicode="&#x1ef8;" horiz-adv-x="670" 
d="M342 837h-68q-3 60 30 99t83 39q59 0 90 -56q11 -25 35 -25q21 0 32 20t8 52h67q4 -59 -28.5 -98.5t-84.5 -39.5q-59 0 -89 56q-14 25 -35 25q-22 0 -33.5 -20.5t-6.5 -51.5zM746 750l-309 -394l-44 -356h-115l43 353l-214 397h129l154 -298l229 298h127z" />
    <glyph glyph-name="endash" unicode="&#x2013;" horiz-adv-x="674" 
d="M114 222l10 76h500l-10 -76h-500z" />
    <glyph glyph-name="emdash" unicode="&#x2014;" horiz-adv-x="1017" 
d="M36 222l10 76h1000l-10 -76h-1000z" />
    <glyph glyph-name="quoteleft" unicode="&#x2018;" horiz-adv-x="259" 
d="M158 449q-54 0 -63 65q-9 69 34 148q46 85 114 93q5 1 11 1l-7 -52q-38 -1 -66 -58q-21 -43 -11 -59q2 -3 6 -3q28 0 45 -20t13.5 -48t-25.5 -47.5t-51 -19.5z" />
    <glyph glyph-name="quoteright" unicode="&#x2019;" horiz-adv-x="207" 
d="M101 449l7 52q28 1 51.5 35t27.5 64q2 21 -8 21q-18 0 -32.5 9t-21.5 24.5t-4 34.5q3 28 25 47.5t51 19.5q37 0 52.5 -31.5t9.5 -79.5q-9 -72 -53.5 -133.5t-104.5 -62.5z" />
    <glyph glyph-name="quotesinglbase" unicode="&#x201a;" horiz-adv-x="254" 
d="M26 -181l6 52q31 0 55 32t28 63q3 25 -11 25q-28 0 -45 19.5t-14 47.5q4 29 26 48.5t50 19.5q40 0 56.5 -32t9.5 -82q-8 -72 -54 -132.5t-107 -60.5z" />
    <glyph glyph-name="quotedblleft" unicode="&#x201c;" horiz-adv-x="453" 
d="M343 766l-6 -52q-29 -1 -52.5 -35t-26.5 -64q-3 -21 7 -21q28 0 45 -20t13.5 -48t-25.5 -47.5t-51 -19.5q-37 0 -52.5 31.5t-9.5 79.5q6 46 26.5 89.5t56 75t75.5 31.5zM513 766l-6 -52q-29 -1 -52.5 -35t-26.5 -64q-3 -21 7 -21q28 0 45 -20t13.5 -48t-25.5 -47.5
t-51 -19.5q-37 0 -52.5 31.5t-9.5 79.5q6 46 26.5 89.5t56 75t75.5 31.5z" />
    <glyph glyph-name="quotedblright" unicode="&#x201d;" horiz-adv-x="422" 
d="M103 449l7 52q28 1 51.5 35t27.5 64q2 21 -8 21q-18 0 -32.5 9t-21.5 24.5t-4 34.5q3 28 25 47.5t51 19.5q37 0 52.5 -31.5t9.5 -79.5q-9 -72 -53.5 -133.5t-104.5 -62.5zM273 449l7 52q28 1 51.5 35t27.5 64q2 21 -8 21q-18 0 -32.5 9t-21.5 24.5t-4 34.5q3 28 25 47.5
t51 19.5q37 0 52.5 -31.5t9.5 -79.5q-9 -72 -53.5 -133.5t-104.5 -62.5z" />
    <glyph glyph-name="quotedblbase" unicode="&#x201e;" horiz-adv-x="437" 
d="M26 -181l6 52q31 0 55 32t28 63q3 25 -11 25q-28 0 -45 19.5t-14 47.5q4 29 26 48.5t50 19.5q40 0 56.5 -32t9.5 -82q-8 -72 -54 -132.5t-107 -60.5zM219 -181l6 52q31 0 55 32t28 63q3 25 -11 25q-28 0 -45 19.5t-14 47.5q2 14 9 26.5t17 21.5t23 14.5t27 5.5
q40 0 56.5 -32t9.5 -82q-8 -72 -54 -132.5t-107 -60.5z" />
    <glyph glyph-name="dagger" unicode="&#x2020;" horiz-adv-x="665" 
d="M596 483l-9 -72h-170l-71 -581h-73l71 581h-167l9 72h167l23 187h73l-23 -187h170z" />
    <glyph glyph-name="daggerdbl" unicode="&#x2021;" horiz-adv-x="665" 
d="M587 411h-170l-38 -316h170l-9 -72h-170l-24 -193h-73l24 193h-167l9 72h167l38 316h-167l9 72h167l23 187h73l-23 -187h170z" />
    <glyph glyph-name="bullet" unicode="&#x2022;" horiz-adv-x="493" 
d="M270 187q-57 0 -93.5 40.5t-29.5 98.5q7 56 54 98t103 42t92.5 -42t29.5 -98q-7 -58 -53.5 -98.5t-102.5 -40.5z" />
    <glyph glyph-name="ellipsis" unicode="&#x2026;" horiz-adv-x="723" 
d="M97 -10q-28 0 -45.5 20t-14.5 48q2 18 13.5 34t28 25t35 9t33 -9t21.5 -25t5 -34t-13 -34t-28 -25t-35 -9zM310 -10q-28 0 -45.5 20t-14.5 48q2 18 13.5 34t28 25t35 9t33 -9t21.5 -25t5 -34q-3 -28 -25.5 -48t-50.5 -20zM510 -10q-28 0 -45.5 20t-14.5 48q2 18 13.5 34
t28 25t34.5 9q28 0 46 -20t14.5 -48t-26 -48t-50.5 -20z" />
    <glyph glyph-name="perthousand" unicode="&#x2030;" horiz-adv-x="1119" 
d="M250 425q-61 0 -98 49t-28 118q8 70 57 119t110 49t97.5 -49t28.5 -119q-9 -69 -57.5 -118t-109.5 -49zM77 0l602 750h115l-601 -750h-116zM261 510q25 0 46.5 24t25.5 58q2 17 -1.5 32.5t-10.5 26.5t-17.5 17.5t-22.5 6.5q-16 0 -31.5 -11t-26 -30t-13.5 -42
q-5 -34 10.5 -58t40.5 -24zM582 -10q-62 0 -98.5 49t-28.5 119q6 45 30 83.5t61 61t77 22.5q61 0 97.5 -49t27.5 -118q-8 -70 -57 -119t-109 -49zM925 -10q-62 0 -98.5 49t-28.5 119q6 45 30 83.5t61 61t77 22.5q61 0 97.5 -49t27.5 -118q-8 -70 -57 -119t-109 -49zM591 75
q25 0 46 24t25 59q5 34 -10.5 58t-40 24t-45.5 -24t-26 -58q-4 -35 11 -59t40 -24zM934 75q25 0 46 24t25 59q5 34 -10.5 58t-40 24t-45.5 -24t-26 -58q-2 -23 4 -42t18.5 -30t28.5 -11z" />
    <glyph glyph-name="guilsinglleft" unicode="&#x2039;" horiz-adv-x="358" 
d="M212 95l-130 184l175 184h91l-175 -184l130 -184h-91z" />
    <glyph glyph-name="guilsinglright" unicode="&#x203a;" horiz-adv-x="358" 
d="M79 95l174 184l-129 184h91l129 -184l-174 -184h-91z" />
    <glyph glyph-name="fraction" unicode="&#x2044;" horiz-adv-x="608" 
d="M-21 0l615 750h113l-615 -750h-113z" />
    <glyph glyph-name="Euro" unicode="&#x20ac;" horiz-adv-x="672" 
d="M373 75q51 0 96.5 35t56.5 85l79 -35q-28 -73 -97.5 -121.5t-144.5 -48.5q-102 0 -159 66.5t-44 171.5l3 28h-95l45 72h59l11 86h-95l45 72h59l4 36q13 105 86 171.5t175 66.5q76 0 133.5 -48.5t66.5 -121.5l-87 -35q1 50 -35.5 85t-87.5 35q-67 0 -112 -41.5t-54 -111.5
l-4 -36h211l-45 -72h-175l-11 -86h211l-45 -72h-175l-3 -28q-9 -70 26 -111.5t102 -41.5z" />
    <glyph glyph-name="uni2113" unicode="&#x2113;" horiz-adv-x="609" 
d="M333 -6q-48 0 -83.5 15t-56.5 41t-31 58t-10 70l1 11q-12 -7 -36 -24t-36 -24l-23 59q12 9 48.5 34t55.5 39l34 279q9 71 31.5 124.5t54 84t67 45t75.5 14.5q78 0 111.5 -52t23.5 -130q-11 -95 -86 -188.5t-209 -199.5l-3 -31q-5 -45 9.5 -77.5t39.5 -47t58 -14.5
q50 0 97.5 32.5t79.5 77.5l44 -47q-103 -149 -256 -149zM276 347q90 81 144 152t62 137q13 109 -66 109q-13 0 -26 -5.5t-26.5 -18.5t-25.5 -32.5t-21.5 -51t-14.5 -71.5z" />
    <glyph glyph-name="trademark" unicode="&#x2122;" horiz-adv-x="725" 
d="M96 701l6 49h243l-6 -49h-94l-37 -302h-56l37 302h-93zM698 750h59l-43 -351h-55l32 263l-151 -189l-104 189l-32 -263h-56l43 351h60l100 -184z" />
    <glyph glyph-name="estimated" unicode="&#x212e;" horiz-adv-x="928" 
d="M462 -9q-116 0 -208 51.5t-138.5 139.5t-33.5 192q13 105 81 194t172.5 140.5t220.5 51.5q117 0 209 -51.5t138.5 -140.5t33.5 -194l-1 -10h-692q-6 0 -7 -4l-26 -210q-1 -11 6 -24q46 -53 110 -83.5t138 -30.5q82 0 157.5 34t134.5 94h61q-66 -69 -160 -109t-196 -40z
M246 385h531q4 0 5 7l26 210q2 16 -7 25q-46 51 -109 80.5t-138 29.5q-73 0 -144 -30t-130 -83q-12 -12 -14 -26l-25 -206q-1 -7 5 -7z" />
    <glyph glyph-name="arrowleft" unicode="&#x2190;" horiz-adv-x="850" 
d="M811 413l-15 -121h-537l14 -127l-220 188l266 188l-45 -128h537z" />
    <glyph glyph-name="arrowup" unicode="&#x2191;" horiz-adv-x="513" 
d="M188 0l66 537l-132 -30l218 243l158 -243l-123 30l-66 -537h-121z" />
    <glyph glyph-name="arrowright" unicode="&#x2192;" horiz-adv-x="850" 
d="M141 413h537l-15 128l220 -188l-266 -188l46 127h-537z" />
    <glyph glyph-name="arrowdown" unicode="&#x2193;" horiz-adv-x="496" 
d="M280 750h121l-66 -537l131 30l-218 -243l-158 243l124 -30z" />
    <glyph glyph-name="arrowboth" unicode="&#x2194;" horiz-adv-x="866" 
d="M199 144l-218 189l266 188l-47 -127l561 -1l-14 127l220 -188l-265 -188l45 128l-561 1z" />
    <glyph glyph-name="arrowupdn" unicode="&#x2195;" horiz-adv-x="496" 
d="M239 -71l-158 242l124 -30l48 390l-131 -30l217 242l158 -243l-123 30l-48 -388l131 30z" />
    <glyph glyph-name="uni2196" unicode="&#x2196;" horiz-adv-x="545" 
d="M624 152l-96 -85l-333 379l-83 -111l-1 305l300 -39l-121 -69z" />
    <glyph glyph-name="uni2197" unicode="&#x2197;" horiz-adv-x="545" 
d="M-41 152l426 380l-103 69l310 39l-77 -305l-55 111l-427 -379z" />
    <glyph glyph-name="uni2198" unicode="&#x2198;" horiz-adv-x="546" 
d="M14 598l96 85l333 -379l83 111l2 -305l-301 39l121 69z" />
    <glyph glyph-name="uni2199" unicode="&#x2199;" horiz-adv-x="546" 
d="M678 598l-426 -380l103 -69l-309 -39l76 305l55 -111l427 379z" />
    <glyph glyph-name="partialdiff" unicode="&#x2202;" horiz-adv-x="549" 
d="M254 708q94 17 166 -28.5t105 -138.5t17 -213q-17 -137 -101 -230.5t-190 -93.5q-81 0 -128.5 40t-50 106.5t37.5 153.5q56 112 149.5 158t182.5 11q-16 93 -69.5 137t-128.5 19zM443 328q3 21 6 59q-68 45 -135.5 16t-115.5 -124q-26 -53 -27 -100t23 -74.5t66 -27.5
q62 0 116 74t67 177z" />
    <glyph glyph-name="emptyset" unicode="&#x2205;" horiz-adv-x="812" 
d="M693 486q61 -85 48 -195q-15 -124 -113.5 -211.5t-222.5 -87.5q-110 0 -186 72l-48 -43l-28 32l48 43q-62 85 -48 195q10 81 58.5 150t122 109t154.5 40q111 0 187 -72l48 43l28 -32zM232 291q-9 -75 30 -132l332 296q-52 46 -126 46q-88 0 -156.5 -61t-79.5 -149z
M416 81q88 0 156.5 61t79.5 149q9 75 -30 132l-332 -296q51 -46 126 -46z" />
    <glyph glyph-name="product" unicode="&#x220f;" horiz-adv-x="750" 
d="M789 703l-9 -79h-60l-92 -744h-78l92 744h-379l-92 -744h-79l92 744h-60l9 79h656z" />
    <glyph glyph-name="summation" unicode="&#x2211;" horiz-adv-x="753" 
d="M73 -118l7 65l399 345l-314 345l8 66h579l-10 -85h-439l290 -326l-370 -326h439l-11 -85z" />
    <glyph glyph-name="minus" unicode="&#x2212;" horiz-adv-x="714" 
d="M89 262l9 74h600l-9 -74h-600z" />
    <glyph glyph-name="radical" unicode="&#x221a;" horiz-adv-x="737" 
d="M238 -78l-70 346h-68l9 72h120l62 -300l436 725l62 -28l-490 -815h-61z" />
    <glyph glyph-name="infinity" unicode="&#x221e;" horiz-adv-x="772" 
d="M220 138q-62 0 -97.5 43t-29.5 110q10 67 56.5 110t108.5 43q88 0 170 -99q107 99 197 99q63 0 97.5 -41.5t28.5 -111.5q-11 -70 -55.5 -111.5t-108.5 -41.5q-90 0 -172 99q-106 -99 -195 -99zM229 210q60 0 145 81q-65 81 -125 81q-31 0 -55 -23.5t-29 -57.5
q-4 -34 15 -57.5t49 -23.5zM595 210q31 0 55 22.5t29 58.5q2 24 -5.5 42.5t-23 28.5t-35.5 10q-61 0 -145 -81q65 -81 125 -81z" />
    <glyph glyph-name="integral" unicode="&#x222b;" horiz-adv-x="459" 
d="M151 -189q-42 0 -63.5 31t-7.5 77h56q-3 -27 2 -38t20 -11q11 0 19.5 8t10.5 21l92 754q3 25 17.5 45.5t35.5 31.5t45 11q41 0 62 -31t8 -77h-57q1 13 1 22.5t-2.5 15.5t-7.5 8.5t-12 2.5q-11 0 -20 -8t-11 -21l-92 -754q-5 -38 -32.5 -63t-63.5 -25z" />
    <glyph glyph-name="approxequal" unicode="&#x2248;" horiz-adv-x="584" 
d="M438 318q-24 0 -43 6.5t-35.5 21.5t-23 22t-21.5 26q-17 23 -33 34t-37 11q-39 0 -65.5 -31.5t-27.5 -77.5h-59q2 74 48 121t112 47q39 0 64.5 -18t51.5 -55q16 -23 31.5 -35.5t39.5 -12.5q38 0 65 30t28 78h59q-1 -71 -46 -119t-108 -48zM414 119q-20 0 -37 5.5
t-28 11.5t-24.5 19t-17.5 18.5t-16 20.5q-18 23 -33.5 34t-37.5 11q-38 0 -64.5 -31.5t-28.5 -77.5h-59q2 49 23.5 88t57.5 60t80 21q38 0 63.5 -18t52.5 -55q15 -24 30.5 -36.5t40 -12.5t45.5 13.5t34 38.5t13 57h59q0 -71 -45 -119t-108 -48z" />
    <glyph glyph-name="notequal" unicode="&#x2260;" horiz-adv-x="714" 
d="M697 326h-207l-120 -122h312l-9 -72h-373l-123 -126h-66l123 126h-161l9 72h222l120 122h-327l9 72h389l105 108h66l-105 -108h145z" />
    <glyph glyph-name="lessequal" unicode="&#x2264;" horiz-adv-x="786" 
d="M756 709l-11 -93l-487 -208l435 -209l-11 -94l-521 253l12 100zM117 0l8 66h552l-8 -66h-552z" />
    <glyph glyph-name="greaterequal" unicode="&#x2265;" horiz-adv-x="786" 
d="M204 709l521 -251l-12 -100l-583 -253l11 94l487 209l-435 208zM117 0l8 66h552l-8 -66h-552z" />
    <glyph glyph-name="lozenge" unicode="&#x25ca;" horiz-adv-x="778" 
d="M395 52l-265 301l339 302l264 -301zM411 175l199 179l-155 178l-201 -179z" />
    <glyph glyph-name="uniF8FF" unicode="&#xf8ff;" horiz-adv-x="980" 
d="M490 0q-103 0 -184 51t-121.5 138.5t-27.5 190.5q12 103 74 190.5t155.5 138.5t196.5 51q104 0 185 -51t121 -138.5t28 -190.5q-13 -103 -74.5 -190.5t-155.5 -138.5t-197 -51zM494 36q94 0 179 46.5t140.5 125.5t67.5 172q11 93 -25 172.5t-110 125.5t-167 46t-178 -46
t-141 -125.5t-67 -172.5q-12 -93 24.5 -172.5t110 -125.5t166.5 -46zM716 217q-8 0 -12 6l-127 144q-10 14 3 26l163 145q6 5 13 5t12 -5t4 -13t-7 -13l-148 -132l115 -132q10 -11 -3 -25q-5 -6 -13 -6zM317.5 217q-7.5 0 -12 5t-3.5 13l35 290q1 7 7 12.5t13.5 5.5t12 -5
t3.5 -13l-35 -290q-1 -7 -7 -12.5t-13.5 -5.5zM516.5 217q-7.5 0 -12 5t-3.5 13l35 290q1 7 7 12.5t13.5 5.5t12 -5t3.5 -13l-35 -290q-1 -7 -7 -12.5t-13.5 -5.5zM389 362q-7 0 -11.5 5t-3.5 12.5t6.5 13t13.5 5.5h91q7 0 12 -5t4 -12.5t-7 -13t-14 -5.5h-91z" />
    <glyph glyph-name="i.loclTRK" horiz-adv-x="251" 
d="M198.5 590q-27.5 0 -45.5 19.5t-14 47.5q3 28 25.5 48t50.5 20t45.5 -20t14.5 -48q-4 -28 -26.5 -47.5t-50 -19.5zM70 0l61 500h111l-61 -500h-111z" />
    <glyph glyph-name="arrow" horiz-adv-x="496" 
d="M188 0l66 537l-132 -30l218 243l158 -243l-123 30l-66 -537h-121z" />
    </font>
</defs>
</svg>
