<?xml version="1.0" standalone="no"?>
<!DOCTYPE svg PUBLIC "-//W3C//DTD SVG 1.1//EN" "http://www.w3.org/Graphics/SVG/1.1/DTD/svg11.dtd" >
<svg xmlns="http://www.w3.org/2000/svg" version="1.1">
   <metadata>
      Created by FontForge 20170731 at Wed Mar 8 15:05:23 2017
      By Aleksey,,,
      (c)2013-2015 Orkney is a trademark of Samuel Oakes and Alfredo Marco Pradil. All rights reserved.
   </metadata>
   <defs>
      <font id="Orkney-BoldItalic" horiz-adv-x="0">
         <font-face
                 font-family="Orkney"
                 font-weight="700"
                 font-style="italic"
                 font-stretch="normal"
                 units-per-em="1000"
                 panose-1="0 0 8 0 0 0 0 0 0 0"
                 ascent="750"
                 descent="-250"
                 x-height="500"
                 cap-height="750"
                 bbox="-728 -363 1273 1036"
                 underline-thickness="52"
                 underline-position="-256"
                 unicode-range="U+0020-FB02"
         />
         <missing-glyph horiz-adv-x="603"
                        d="M74 0l92 750h455l-92 -750h-455zM197 110h237l65 531h-237z"/>
         <glyph glyph-name="fi" unicode="fi" horiz-adv-x="630"
                d="M465 641q-60 0 -100.5 -31t-46.5 -83l-4 -27h313l-61 -500h-146l48 391h-167l-48 -391h-145l48 391h-84l13 109h84l5 36q12 100 92 162t196 62q52 0 104.5 -11t89.5 -29l-16 -131q-38 24 -85 38t-90 14z"/>
         <glyph glyph-name="fl" unicode="fl" horiz-adv-x="745"
                d="M706 131l57 -104q-46 -37 -118 -37q-99 0 -142.5 49.5t-33.5 135.5l57 459q-29 7 -61 7q-60 0 -100.5 -31t-46.5 -83l-4 -27h120l-13 -109h-120l-48 -391h-145l48 391h-84l13 109h84l5 36q12 100 92 162t195 62q48 0 102 -10h122l-5 -44h1l-17 -135h-1l-48 -397
q-3 -30 8.5 -45.5t35.5 -15.5q30 0 47 18z"/>
         <glyph glyph-name=".notdef" horiz-adv-x="603"
                d="M74 0l92 750h455l-92 -750h-455zM197 110h237l65 531h-237z"/>
         <glyph glyph-name=".null"
         />
         <glyph glyph-name="nonmarkingreturn" horiz-adv-x="333"
         />
         <glyph glyph-name="space" unicode=" " horiz-adv-x="245"
         />
         <glyph glyph-name="exclam" unicode="!" horiz-adv-x="312"
                d="M132 252l43 498h145l-79 -498h-109zM155 -10q-34 0 -55 24t-17 58t31 58.5t61 24.5t55 -24.5t17 -58.5t-31 -58t-61 -24z"/>
         <glyph glyph-name="quotedbl" unicode="&#x22;" horiz-adv-x="492"
                d="M149 462l17 288h137l-53 -288h-101zM357 462l17 288h136l-52 -288h-101z"/>
         <glyph glyph-name="numbersign" unicode="#" horiz-adv-x="824"
                d="M174 0l43 165h-141l27 103h141l52 192h-143l30 102h139l45 167h102l-44 -167h168l44 167h103l-45 -167h143l-30 -102h-140l-50 -192h140l-27 -103h-140l-45 -165h-101l43 165h-170l-42 -165h-102zM347 268h168l51 192h-169z"/>
         <glyph glyph-name="dollar" unicode="$" horiz-adv-x="659"
                d="M623 226q-8 -61 -45 -109.5t-86 -75t-107 -37.5l-10 -85h-127l11 87q-64 15 -113 54.5t-70 90.5l111 64q18 -43 60 -70t98 -27q39 0 71.5 12t53 35t24.5 53q4 31 -14.5 53t-51 35.5t-72 25.5t-78.5 27.5t-70 36.5t-48 58.5t-10 87.5q10 81 66 134t133 69l11 87h127
l-11 -88q93 -24 147 -87l-93 -72q-48 56 -123 56q-50 0 -86.5 -25t-41.5 -66q-4 -30 14.5 -51.5t50.5 -35t71.5 -25.5t78.5 -28t70.5 -37.5t48 -59t10.5 -87.5z"/>
         <glyph glyph-name="percent" unicode="%" horiz-adv-x="806"
                d="M244 401q-43 0 -77 24t-50 65t-10 90t32 90.5t66 65.5t83 24q66 0 105.5 -52.5t30.5 -127.5q-9 -74 -61.5 -126.5t-118.5 -52.5zM75 0l597 750h150l-597 -750h-150zM258 510q19 0 36.5 20.5t20.5 49.5q3 19 -2 35.5t-15.5 26t-22.5 9.5q-20 0 -37 -20.5t-21 -50.5
q-3 -29 9 -49.5t32 -20.5zM611 -10q-67 0 -106.5 52.5t-30.5 127.5t61.5 127.5t119.5 52.5q66 0 105.5 -53t30.5 -127q-6 -49 -32 -90.5t-65.5 -65.5t-82.5 -24zM623 100q20 0 37 20t21 50q2 19 -2.5 35.5t-15 25.5t-23 9t-25 -9t-21.5 -25.5t-11 -35.5q-4 -30 8 -50t32 -20
z"/>
         <glyph glyph-name="ampersand" unicode="&#x26;" horiz-adv-x="700"
                d="M685 77l-102 -92l-80 90l-21 -19q-75 -67 -170 -66.5t-153 66.5q-58 67 -46.5 161.5t85.5 160.5l23 19l-7 8q-25 28 -36 67t-6 80q7 56 40.5 103.5t85 75t107.5 27.5t100.5 -27.5t67 -75t15.5 -103.5h-129q4 32 -16.5 55.5t-53.5 23.5t-59 -23.5t-30 -57.5q-4 -31 17 -55
l210 -238l99 88l80 -90l-100 -89zM403 147l20 19l-123 140l-22 -19q-33 -30 -38 -70.5t21 -69.5q27 -29 67.5 -29t74.5 29z"/>
         <glyph glyph-name="quotesingle" unicode="'" horiz-adv-x="284"
                d="M149 462l17 288h137l-53 -288h-101z"/>
         <glyph glyph-name="parenleft" unicode="(" horiz-adv-x="405"
                d="M311 -356q-86 1 -144.5 66.5t-83 199.5t0.5 338q19 150 56.5 267.5t87.5 190.5t109 111t123 39l-13 -104q-77 -2 -141.5 -131.5t-94.5 -372.5q-29 -241 4 -369.5t109 -130.5z"/>
         <glyph glyph-name="parenright" unicode=")" horiz-adv-x="405"
                d="M6 -356l13 104q78 2 142 130.5t93 369.5q30 243 -2.5 372.5t-109.5 131.5l13 104q87 -1 145.5 -67t83 -201t-1.5 -340q-18 -150 -55.5 -266.5t-88 -189t-109 -110t-123.5 -38.5z"/>
         <glyph glyph-name="asterisk" unicode="*" horiz-adv-x="344"
                d="M193 481l-57 37l67 77l-97 -12l8 72l95 -12l-49 77l67 37l27 -90l50 90l57 -37l-68 -77l98 12l-8 -72l-96 12l50 -77l-67 -37l-28 90z"/>
         <glyph glyph-name="plus" unicode="+" horiz-adv-x="767"
                d="M329 0l31 255h-255l14 110h255l31 255h110l-31 -255h255l-14 -110h-255l-31 -255h-110z"/>
         <glyph glyph-name="comma" unicode="," horiz-adv-x="234"
                d="M24 -174l7 64q31 0 53 23.5t30 50.5q6 27 -3 27q-34 0 -54.5 24t-16.5 58q4 35 31 58.5t61 23.5q44 0 63.5 -34.5t12.5 -87.5q-6 -49 -29.5 -95.5t-65 -79t-89.5 -32.5z"/>
         <glyph glyph-name="hyphen" unicode="-" horiz-adv-x="497"
                d="M100 212l12 97h350l-12 -97h-350z"/>
         <glyph glyph-name="period" unicode="." horiz-adv-x="225"
                d="M111 -10q-33 0 -54.5 24.5t-17.5 57.5q4 34 31.5 58.5t60.5 24.5q34 0 55.5 -24.5t17.5 -58.5q-4 -33 -32 -57.5t-61 -24.5z"/>
         <glyph glyph-name="slash" unicode="/" horiz-adv-x="613"
                d="M-66 -250l656 1000h136l-655 -1000h-137z"/>
         <glyph glyph-name="zero" unicode="0" horiz-adv-x="665"
                d="M332 -10q-124 0 -188.5 107.5t-43.5 277.5t112 277.5t214 107.5t187.5 -107.5t43.5 -277.5t-112 -277.5t-213 -107.5zM347 118q58 0 104 72t60 185q14 114 -14 186t-86 72q-59 0 -105 -72t-60 -186q-9 -75 0.5 -133.5t36 -91t64.5 -32.5z"/>
         <glyph glyph-name="one" unicode="1" horiz-adv-x="431"
                d="M181 0l72 585l-171 -120l20 160l180 125h137l-92 -750h-146z"/>
         <glyph glyph-name="two" unicode="2" horiz-adv-x="570"
                d="M45 0l13 107q183 173 258.5 249.5t100 111t28.5 67.5q6 50 -19.5 73.5t-64.5 24.5q-44 0 -75 -29t-32 -77l-140 1q4 101 84.5 167t184.5 66q64 0 113 -26.5t73 -75.5t17 -110q-3 -30 -9.5 -53.5t-25.5 -53.5t-37.5 -54t-62.5 -68.5t-84 -82.5t-117 -109h301l-16 -128
h-490z"/>
         <glyph glyph-name="three" unicode="3" horiz-adv-x="592"
                d="M472 426q51 -30 76.5 -79.5t18.5 -111.5q-13 -103 -93 -174t-184 -71t-168 63.5t-52 154.5l143 2q-5 -35 22.5 -59.5t70.5 -24.5q30 0 55.5 14.5t42 39.5t20.5 56q6 47 -20 77.5t-71 30.5h-59l13 115h50h1q37 0 64.5 25.5t31.5 63.5q4 34 -17 56t-58 22q-32 0 -57 -19
t-28 -47l-140 3q5 41 26.5 77.5t53.5 62.5t74 41.5t87 15.5q91 0 146.5 -57t45.5 -140q-11 -87 -95 -137z"/>
         <glyph glyph-name="four" unicode="4" horiz-adv-x="625"
                d="M617 286l-16 -128h-66l-19 -158h-145l19 158h-356l12 92l379 500h183l-57 -464h66zM216 286h190l40 321z"/>
         <glyph glyph-name="five" unicode="5" horiz-adv-x="616"
                d="M310 -10q-71 0 -135 29t-99 77l104 101q13 -22 34.5 -39t48 -26t53.5 -9q55 0 94.5 35.5t46.5 90.5q6 56 -25 93t-84 37q-22 0 -45 -6.5t-45 -19t-39 -28.5l-111 53l82 370h425l-16 -127h-312l-37 -161q28 21 69 33.5t83 12.5q101 0 158 -71t43 -180
q-14 -116 -96.5 -190.5t-196.5 -74.5z"/>
         <glyph glyph-name="six" unicode="6" horiz-adv-x="641"
                d="M629 254q-13 -110 -103 -186t-204 -78q-116 -1 -188 74.5t-59 185.5q10 83 81 168l284 332h166l-211 -236q5 0 14.5 -0.5t13.5 -0.5q100 -11 159 -85.5t47 -173.5zM337 114q39 0 72 19t53.5 51t24.5 70q6 59 -28 98t-92 38q-59 -1 -100.5 -41.5t-47.5 -98.5
q-5 -38 8 -69.5t42 -49.5t68 -17z"/>
         <glyph glyph-name="seven" unicode="7" horiz-adv-x="564"
                d="M45 0l422 623h-356l16 127h514l-13 -106l-425 -644h-158z"/>
         <glyph glyph-name="eight" unicode="8" horiz-adv-x="586"
                d="M493 418q33 -20 54.5 -49t31 -65.5t4.5 -77.5q-13 -101 -95.5 -168.5t-195.5 -67.5q-112 0 -178.5 67.5t-53.5 168.5q7 61 43 111t92 80q-60 56 -49 145q10 84 78.5 141t162 57t147.5 -57t44 -141q-11 -90 -85 -144zM373 646q-40 0 -70.5 -27.5t-35.5 -68t18.5 -67.5
t64.5 -27q40 0 70.5 27.5t35.5 67.5t-19 67.5t-64 27.5zM307 118q33 0 61.5 16t46.5 43t22 60q6 49 -22.5 81.5t-78.5 32.5q-49 0 -86 -32.5t-43 -81.5q-2 -16 0 -31.5t8 -28.5t15 -24t20.5 -18.5t26 -12t30.5 -4.5z"/>
         <glyph glyph-name="nine" unicode="9" horiz-adv-x="641"
                d="M659 500q-10 -82 -80 -168l-285 -332h-166l213 237q-11 -1 -30 1q-99 10 -158 84.5t-48 173.5q13 110 103.5 186t203.5 78q116 1 188 -74.5t59 -185.5zM367 361q59 0 101 40.5t49 99.5q5 58 -28.5 97.5t-91.5 38.5q-59 -1 -101.5 -41.5t-48.5 -98.5q-6 -59 27.5 -98
t92.5 -38z"/>
         <glyph glyph-name="colon" unicode=":" horiz-adv-x="312"
                d="M198.5 346q-33.5 0 -55 24t-16.5 58q2 22 15.5 41t33.5 30t43 11q33 0 54.5 -24t17 -58t-31.5 -58t-60.5 -24zM154.5 -10q-33.5 0 -54.5 24.5t-17 57.5q4 34 31 58.5t61 24.5t55 -24.5t17 -58.5q-4 -33 -31.5 -57.5t-61 -24.5z"/>
         <glyph glyph-name="semicolon" unicode=";" horiz-adv-x="315"
                d="M198 346q-33 0 -54.5 24t-17 58t31.5 58t61 24q33 0 55 -24t17.5 -58t-32 -58t-61.5 -24zM68 -174l7 64q45 1 72 55q18 34 10 45q-1 1 -3 1q-34 0 -54.5 24t-16.5 58t31 58t61 24q62 0 74 -68q12 -70 -32 -152q-47 -89 -122 -106q-13 -3 -27 -3z"/>
         <glyph glyph-name="less" unicode="&#x3c;" horiz-adv-x="699"
                d="M713 712l-14 -120l-469 -222l414 -223l-15 -121l-518 279l16 130z"/>
         <glyph glyph-name="equal" unicode="=" horiz-adv-x="687"
                d="M83 319l11 91h600l-11 -91h-600zM59 120l11 92h600l-11 -92h-600z"/>
         <glyph glyph-name="greater" unicode="&#x3e;" horiz-adv-x="699"
                d="M161 712l518 -277l-16 -130l-586 -279l15 121l467 223l-412 222z"/>
         <glyph glyph-name="question" unicode="?" horiz-adv-x="576"
                d="M251 224l5 45q5 42 18.5 71.5t31.5 44.5t38.5 25t41 18.5t37.5 19t29.5 31t16.5 51.5q5 43 -24.5 72.5t-78.5 29.5q-57 0 -94.5 -37.5t-36.5 -91.5h-129q4 108 83.5 182t191.5 74q104 0 166 -66t50 -163q-6 -49 -23.5 -84t-39.5 -52t-46.5 -31t-45.5 -22.5t-36 -24.5
t-18 -38l-6 -54h-131zM291 -10q-34 0 -55 24t-17 58t31 58.5t61 24.5t55 -24.5t17 -58.5q-3 -22 -16.5 -41t-33.5 -30t-42 -11z"/>
         <glyph glyph-name="at" unicode="@" horiz-adv-x="593"
                d="M538 149h-84l3 22q-42 -33 -93 -33t-83 36.5t-26 89.5q7 52 47.5 88.5t91.5 36.5q52 0 85 -36l2 13q3 27 -10.5 49.5t-41 35.5t-61.5 13q-76 0 -136 -54.5t-70 -133.5q-10 -81 41.5 -136.5t135.5 -55.5h191l-10 -84h-191q-120 0 -192.5 80t-58.5 196q14 114 101.5 193.5
t198.5 79.5q89 0 142.5 -53t44.5 -130zM408 208q37 0 57 30l7 52q-14 29 -51 29q-26 0 -45.5 -15.5t-22.5 -39.5t13 -40t42 -16z"/>
         <glyph glyph-name="A" unicode="A" horiz-adv-x="774"
                d="M609 0l-36 142h-339l-70 -142h-163l393 750h169l209 -750h-163zM296 266h247l-83 331z"/>
         <glyph glyph-name="B" unicode="B" horiz-adv-x="654"
                d="M526 387q62 -20 94 -66t23 -117q-12 -94 -81 -149t-164 -55h-338l92 750h280q96 0 152 -56t45 -151q-14 -108 -103 -156zM477 528q2 18 -3 35t-15.5 29t-26.5 19.5t-34 7.5h-112l-22 -183h112q37 0 66.5 27.5t34.5 64.5zM392 132q38 0 68 27t34 64q3 24 -6 45t-28.5 33.5
t-44.5 12.5h-166l-23 -182h166z"/>
         <glyph glyph-name="C" unicode="C" horiz-adv-x="625"
                d="M403 -10q-107 0 -185 52t-112.5 139.5t-21.5 193.5t69.5 193.5t147 139.5t196.5 52q96 0 168 -49l-20 -168q-62 73 -165 73q-69 0 -124 -32.5t-88 -86.5t-41 -122t11 -122.5t66.5 -87t115.5 -32.5q106 0 183 74l-20 -168q-87 -49 -180 -49z"/>
         <glyph glyph-name="D" unicode="D" horiz-adv-x="712"
                d="M60 0l92 750h240q102 0 182 -50t120 -136.5t27.5 -188.5t-73.5 -188.5t-153.5 -136.5t-194.5 -50h-240zM226 132h89q95 0 169.5 70.5t86.5 172.5q13 103 -44 173.5t-152 70.5h-89z"/>
         <glyph glyph-name="E" unicode="E" horiz-adv-x="540"
                d="M581 619h-294l-22 -178h252l-16 -132h-252l-22 -177h294l-16 -132h-445l92 750h445z"/>
         <glyph glyph-name="F" unicode="F" horiz-adv-x="536"
                d="M581 619h-294l-22 -178h252l-16 -132h-252l-38 -309h-151l92 750h445z"/>
         <glyph glyph-name="G" unicode="G" horiz-adv-x="737"
                d="M530 621q-114 0 -194 -67t-94 -183q-14 -112 48.5 -178.5t169.5 -66.5q50 0 98 14l19 157h-143l16 129h279l-46 -376q-121 -69 -234 -69q-177 0 -274.5 107.5t-75.5 282.5q14 114 77 203.5t156.5 137.5t199.5 48q140 0 230 -69l-21 -172q-80 102 -211 102z"/>
         <glyph glyph-name="H" unicode="H" horiz-adv-x="744"
                d="M625 750h151l-92 -750h-151l38 309h-322l-38 -309h-151l92 750h151l-38 -308h322z"/>
         <glyph glyph-name="I" unicode="I" horiz-adv-x="271"
                d="M60 0l92 750h151l-92 -750h-151z"/>
         <glyph glyph-name="J" unicode="J" horiz-adv-x="373"
                d="M115 -10q-52 0 -79 10l19 153q31 -12 68 -12q22 0 40 16t21 38l68 555h150l-70 -570q-10 -85 -71 -137.5t-146 -52.5z"/>
         <glyph glyph-name="K" unicode="K" horiz-adv-x="702"
                d="M769 750l-351 -327l260 -271l-25 -202l-396 425l-46 -375h-151l92 750h151l-36 -293l309 293h193z"/>
         <glyph glyph-name="L" unicode="L" horiz-adv-x="496"
                d="M60 0l92 750h151l-76 -618h253l-16 -132h-404z"/>
         <glyph glyph-name="M" unicode="M" horiz-adv-x="936"
                d="M807 750h161l-92 -750h-150l66 538l-307 -394l-208 394l-66 -538h-151l92 750h163l200 -365z"/>
         <glyph glyph-name="N" unicode="N" horiz-adv-x="808"
                d="M690 750h150l-92 -750h-154l-319 522l-64 -522h-151l92 750h154l320 -521z"/>
         <glyph glyph-name="O" unicode="O" horiz-adv-x="807"
                d="M403 -10q-107 0 -185 52t-112.5 139.5t-21.5 193.5t69.5 193.5t147 139.5t196.5 52t184 -52t113 -139.5t22 -193.5t-69.5 -193.5t-147 -139.5t-196.5 -52zM420.5 136q102.5 0 169.5 67.5t80 171.5q13 105 -37.5 172.5t-153 67.5t-170.5 -67.5t-81 -172.5
q-13 -104 38.5 -171.5t154 -67.5z"/>
         <glyph glyph-name="P" unicode="P" horiz-adv-x="610"
                d="M462 750q93 0 149.5 -65t45 -158t-83 -155.5t-165.5 -62.5h-159l-38 -309h-151l92 750h310zM409 432q42 0 73.5 26t37.5 68q5 41 -20.5 67t-67.5 26h-145l-23 -187h145z"/>
         <glyph glyph-name="Q" unicode="Q" horiz-adv-x="803"
                d="M785 114h19l-14 -114h-42q-69 0 -115 56l-5 4q-102 -70 -225 -70q-107 0 -185 52t-112.5 139.5t-21.5 193.5t69.5 193.5t147 139.5t196.5 52t184 -52t113 -139.5t22 -193.5q-16 -127 -94 -226l11 -12q20 -23 52 -23zM421 136q67 0 120 30l-90 110l93 85l88 -104
q30 52 38 118q13 105 -37.5 172.5t-153 67.5t-170.5 -67.5t-81 -172.5q-13 -104 38.5 -171.5t154.5 -67.5z"/>
         <glyph glyph-name="R" unicode="R" horiz-adv-x="613"
                d="M476 328l142 -328h-169l-125 318h-74l-39 -318h-151l92 750h310q93 0 149.5 -65t45.5 -159q-9 -73 -59 -126.5t-122 -71.5zM417 435q39 0 68.5 26.5t34 65.5t-18.5 65.5t-61 26.5h-153l-23 -184h153z"/>
         <glyph glyph-name="S" unicode="S" horiz-adv-x="647"
                d="M331 -10q-90 0 -164.5 38t-114.5 101l116 103q27 -49 74.5 -75.5t110.5 -26.5q35 0 62 8t45.5 26.5t22.5 46.5q2 15 -2 28t-9.5 23t-20 21t-24 17.5t-31 16.5t-32 14.5t-36.5 14.5q-36 15 -58 25.5t-51.5 29.5t-45 38.5t-24.5 49t-5 64.5q11 93 90 150t188 57
q86 0 153.5 -29t108.5 -80l-110 -95q-59 78 -163 78q-46 0 -76.5 -20.5t-34.5 -54.5q-2 -15 4.5 -28t16 -22.5t30 -21t34.5 -17.5l42 -18q31 -13 46 -19.5t43 -21t43 -26t34.5 -30.5t28 -38.5t13.5 -46.5t1 -57q-9 -73 -53.5 -124.5t-108.5 -75t-143 -23.5z"/>
         <glyph glyph-name="T" unicode="T" horiz-adv-x="580"
                d="M649 750l-16 -131h-192l-76 -619h-149l76 619h-193l16 131h534z"/>
         <glyph glyph-name="U" unicode="U" horiz-adv-x="738"
                d="M368 -10q-129 0 -209 73t-67 179l62 508h151l-59 -481q-8 -61 32.5 -104t105.5 -43t115.5 43t58.5 104l59 481h151l-62 -508q-13 -106 -111 -179t-227 -73z"/>
         <glyph glyph-name="V" unicode="V" horiz-adv-x="774"
                d="M695 750h169l-393 -750h-169l-209 750h169l146 -575z"/>
         <glyph glyph-name="W" unicode="W" horiz-adv-x="1170"
                d="M1111 750h162l-409 -750h-164l-81 274l-149 -274h-163l-227 750h163l171 -585l153 281l-90 304h149l170 -586z"/>
         <glyph glyph-name="X" unicode="X" horiz-adv-x="683"
                d="M681 0h-172l-136 262l-200 -262h-172l306 385l-200 365h171l125 -241l186 241h171l-291 -364z"/>
         <glyph glyph-name="Y" unicode="Y" horiz-adv-x="678"
                d="M769 750l-310 -395l-44 -355h-150l43 352l-215 398h168l137 -269l205 269h166z"/>
         <glyph glyph-name="Z" unicode="Z" horiz-adv-x="639"
                d="M249 132h372l-16 -132h-573l10 81l435 538h-359l16 131h561l-10 -81z"/>
         <glyph glyph-name="bracketleft" unicode="[" horiz-adv-x="306"
                d="M20 -363l151 1226h256l-11 -88h-129l-129 -1050h129l-11 -88h-256z"/>
         <glyph glyph-name="backslash" unicode="\" horiz-adv-x="613"
                d="M467 -250l-410 1000h137l409 -1000h-136z"/>
         <glyph glyph-name="bracketright" unicode="]" horiz-adv-x="306"
                d="M20 -363l11 88h129l129 1050h-129l11 88h256l-151 -1226h-256z"/>
         <glyph glyph-name="asciicircum" unicode="^" horiz-adv-x="713"
                d="M723 198h-121l-168 440l-275 -440h-121l346 552h129z"/>
         <glyph glyph-name="underscore" unicode="_" horiz-adv-x="647"
                d="M62 -96l12 96h500l-12 -96h-500z"/>
         <glyph glyph-name="grave" unicode="`" horiz-adv-x="23"
                d="M206 583l-100 167h146l63 -167h-109z"/>
         <glyph glyph-name="a" unicode="a" horiz-adv-x="559"
                d="M338 510q103 0 159 -48t44 -144l-39 -318h-123l-1 49q-83 -59 -172 -59q-72 0 -112 41.5t-31 111.5q9 75 79 118.5t182 25.5l70 -11l5 43q5 41 -21 61t-68 20q-73 0 -130 -60l-77 83q47 46 102 66.5t133 20.5zM216 151q-3 -25 12 -39.5t42 -14.5q51 0 107 45l7 51l-39 8
q-65 13 -95.5 -3t-33.5 -47z"/>
         <glyph glyph-name="b" unicode="b" horiz-adv-x="603"
                d="M404 510q101 0 157 -74.5t42.5 -185.5t-88 -185.5t-175.5 -74.5q-88 0 -138 63l-13 -54l-129 1l92 750h144l-36 -294q62 54 144 54zM326 118q52 0 89.5 38t44.5 94t-21 94.5t-80 38.5q-24 0 -47 -10t-41.5 -28.5t-29.5 -42.5l-13 -104q6 -24 19.5 -42t34 -28t44.5 -10z
"/>
         <glyph glyph-name="c" unicode="c" horiz-adv-x="434"
                d="M274 -10q-110 0 -168 73t-44 187q7 56 30 104t59 82.5t84 54t103 19.5q72 0 120 -26l-16 -135q-14 18 -40 28.5t-56 10.5q-57 0 -95 -38.5t-45 -99.5q-8 -60 21 -99t85 -39q65 0 106 39l-17 -133q-49 -28 -127 -28z"/>
         <glyph glyph-name="d" unicode="d" horiz-adv-x="603"
                d="M491 750h144l-92 -750l-129 -1l-2 52q-65 -61 -150 -61q-102 0 -158 74.5t-42.5 185.5t88 185.5t176.5 74.5q80 0 129 -54zM306 118q36 0 67.5 21.5t49.5 57.5l13 106q-9 36 -35.5 58t-61.5 22q-52 0 -89 -38t-44 -95q-5 -37 5.5 -67t35.5 -47.5t59 -17.5z"/>
         <glyph glyph-name="e" unicode="e" horiz-adv-x="548"
                d="M549 251q-3 -21 -8 -43h-339q-1 -106 97 -106q37 0 65 15.5t59 53.5l97 -51q-36 -61 -97 -95.5t-135 -34.5q-127 0 -184 71.5t-42 188.5q9 74 45.5 133t99 93.5t140.5 34.5q108 0 162 -70.5t40 -189.5zM331 397q-83 0 -114 -91h201q-5 91 -87 91z"/>
         <glyph glyph-name="f" unicode="f" horiz-adv-x="393"
                d="M323 570l-9 -70h120l-13 -109h-120l-48 -391h-145l48 391h-84l13 109h84l10 80q10 76 71.5 128t140.5 52q49 0 81 -14.5t55 -47.5l-87 -87q-17 30 -52 30q-26 0 -43.5 -20t-21.5 -51z"/>
         <glyph glyph-name="g" unicode="g" horiz-adv-x="604"
                d="M475 500h130l-61 -498q-14 -114 -93 -183t-195 -69q-78 0 -141 30l17 139q59 -49 140 -49q48 0 83.5 34t43.5 98l5 42q-62 -54 -142 -54q-102 0 -158 74.5t-42.5 185.5t88 185.5t176.5 74.5q86 0 136 -62zM306 118q36 0 67.5 21.5t49.5 57.5l13 106q-9 36 -35.5 58
t-61.5 22q-52 0 -89 -38t-44 -95q-5 -37 5.5 -67t35.5 -47.5t59 -17.5z"/>
         <glyph glyph-name="h" unicode="h" horiz-adv-x="605"
                d="M414 510q88 0 135.5 -53t36.5 -141l-39 -316h-146l37 298q4 38 -19 61.5t-64 23.5q-43 0 -76 -27t-37 -66l-36 -290h-146l92 750h146l-37 -301q67 61 153 61z"/>
         <glyph glyph-name="i" unicode="i" horiz-adv-x="289"
                d="M216 586q-33 0 -54.5 24t-17.5 58t31.5 58t60.5 24q34 0 55.5 -24t17.5 -58t-31.5 -58t-61.5 -24zM71 0l61 500h146l-61 -500h-146z"/>
         <glyph glyph-name="j" unicode="j" horiz-adv-x="276"
                d="M221 586q-34 0 -55.5 24t-17.5 58t31.5 58t61.5 24q33 0 54.5 -24t17.5 -58q-3 -22 -16.5 -41t-33.5 -30t-42 -11zM0 -260q-51 0 -72 16l15 122q22 -19 54 -19q26 0 46.5 20t23.5 51l70 570h146l-71 -580q-9 -76 -70.5 -128t-141.5 -52z"/>
         <glyph glyph-name="k" unicode="k" horiz-adv-x="566"
                d="M613 500l-249 -215l192 -191l-23 -181l-300 310l-27 -223h-146l92 750h146l-51 -414l189 164h177z"/>
         <glyph glyph-name="l" unicode="l" horiz-adv-x="363"
                d="M263 -10q-99 0 -143 49.5t-34 135.5l71 575h146l-71 -576q-3 -30 9 -45.5t36 -15.5q28 0 47 18l57 -104q-47 -37 -118 -37z"/>
         <glyph glyph-name="m" unicode="m" horiz-adv-x="905"
                d="M724 510q84 0 129 -52.5t34 -139.5l-39 -318h-146l37 300q2 18 -2 33.5t-13.5 26.5t-24 17t-33.5 6q-39 0 -69 -27t-34 -66l-36 -290h-146l37 300q4 37 -15.5 60t-56.5 23q-26 0 -48.5 -12.5t-37.5 -33.5t-18 -47l-36 -290h-146l61 500h131l1 -53q64 63 150 63
q51 0 88.5 -20.5t57.5 -57.5q73 78 175 78z"/>
         <glyph glyph-name="n" unicode="n" horiz-adv-x="605"
                d="M414 510q88 0 135.5 -53t36.5 -141l-39 -316h-146l37 298q4 38 -19 61.5t-64 23.5q-43 0 -76 -27t-37 -66l-36 -290h-146l61 500h131l1 -58q70 68 161 68z"/>
         <glyph glyph-name="o" unicode="o" horiz-adv-x="583"
                d="M291 -10q-113 0 -178 75t-51 185q13 110 96.5 185t196.5 75q112 0 177 -75t52 -185q-14 -110 -97.5 -185t-195.5 -75zM306 118q52 0 89.5 38t44.5 94t-21.5 94.5t-79.5 38.5q-52 0 -89 -38t-44 -95q-5 -37 5.5 -67t35.5 -47.5t59 -17.5z"/>
         <glyph glyph-name="p" unicode="p" horiz-adv-x="603"
                d="M404 510q101 0 157 -74.5t42.5 -185.5t-88 -185.5t-175.5 -74.5q-82 0 -131 54l-36 -295l-144 1l92 750h144l-5 -44q62 54 144 54zM326 118q52 0 89.5 38t44.5 94t-21 94.5t-80 38.5q-24 0 -47 -10t-41.5 -28.5t-29.5 -42.5l-13 -104q6 -24 19.5 -42t34 -28t44.5 -10z
"/>
         <glyph glyph-name="q" unicode="q" horiz-adv-x="603"
                d="M460 500h144l-92 -750l-144 -1l36 295q-62 -54 -142 -54q-102 0 -158 74.5t-42.5 185.5t88 185.5t176.5 74.5q80 0 129 -54zM306 118q36 0 67.5 21.5t49.5 57.5l13 106q-9 36 -35.5 58t-61.5 22q-52 0 -89 -38t-44 -95q-5 -37 5.5 -67t35.5 -47.5t59 -17.5z"/>
         <glyph glyph-name="r" unicode="r" horiz-adv-x="443"
                d="M405 510q42 0 68.5 -10.5t46.5 -32.5l-74 -107q-29 23 -75 23q-47 0 -87 -36.5t-47 -96.5l-31 -250h-146l61 500h131l-1 -77q20 27 44.5 46t52.5 30t57 11z"/>
         <glyph glyph-name="s" unicode="s" horiz-adv-x="498"
                d="M268 -10q-71 0 -133.5 16t-98.5 46l77 103q22 -20 63.5 -35.5t79.5 -17.5q35 -2 59.5 8t26.5 31q2 10 -3 18.5t-12.5 14t-22.5 12t-26 10t-32 9.5q-29 9 -46 14.5t-41.5 18.5t-37.5 26.5t-21 35.5t-5 49q6 48 36 84.5t80 56.5t113 20q52 0 105.5 -13.5t92.5 -40.5
l-80 -94q-18 15 -49.5 27t-59.5 15q-22 3 -41 0t-33 -12t-16 -23q0 -6 1 -10.5t4.5 -9t7 -8t11 -7.5t13 -6.5t15 -6t16 -5.5t18.5 -6l18 -6q26 -8 44 -15.5t39.5 -20.5t34 -28t19.5 -38.5t3 -51.5q-9 -74 -68 -117t-151 -43z"/>
         <glyph glyph-name="t" unicode="t" horiz-adv-x="389"
                d="M340 131l57 -104q-47 -37 -118 -37q-99 0 -143 49.5t-34 135.5l27 216h-60l13 109h60l21 170h146l-21 -170h125l-13 -109h-125l-27 -217q-3 -30 9 -45.5t36 -15.5q28 0 47 18z"/>
         <glyph glyph-name="u" unicode="u" horiz-adv-x="608"
                d="M464 500h145l-61 -500h-130l-1 59q-69 -69 -159 -69q-83 0 -133.5 59t-39.5 144l37 307h146l-35 -289q-3 -26 6.5 -47t29.5 -33.5t46 -12.5q43 0 76 27t38 66z"/>
         <glyph glyph-name="v" unicode="v" horiz-adv-x="529"
                d="M439 500h156l-262 -500h-138l-139 500h156l72 -340z"/>
         <glyph glyph-name="w" unicode="w" horiz-adv-x="787"
                d="M677 500h163l-232 -500h-154l-38 181l-82 -181h-154l-111 500h165l52 -339l92 207l-27 132h132l59 -340z"/>
         <glyph glyph-name="x" unicode="x" horiz-adv-x="576"
                d="M647 500l-241 -251l180 -249h-175l-105 146l-140 -146h-176l241 250l-180 250h174l106 -147l142 147h174z"/>
         <glyph glyph-name="y" unicode="y" horiz-adv-x="609"
                d="M609 500l-60 -500q-14 -114 -96 -183t-206 -69q-89 0 -155 31l17 139q63 -50 155 -50q54 0 92.5 34t46.5 98l6 51q-68 -61 -151 -61t-133.5 59t-39.5 144l37 307h146l-35 -289q-3 -26 6.5 -47t29.5 -33.5t46 -12.5q43 0 76 27t38 66l35 289h145z"/>
         <glyph glyph-name="z" unicode="z" horiz-adv-x="523"
                d="M43 0l13 107l285 274h-250l14 119h434l-13 -105l-285 -276h254l-15 -119h-437z"/>
         <glyph glyph-name="braceleft" unicode="{" horiz-adv-x="336"
                d="M192 -343q-54 0 -84 45t-22 111l30 242q3 40 4.5 64t-6 40.5t-19.5 26t-36 20.5l11 86q35 15 51.5 29.5t26 41t15.5 80.5l30 240q8 66 49 111t95 45h67l-11 -88h-5q-27 0 -38 -1t-23 -7t-16.5 -18.5t-7.5 -36.5l-31 -260q-6 -42 -14.5 -73t-24.5 -58t-39 -48
q27 -30 34.5 -74.5t-0.5 -104.5l-33 -266q-4 -34 9.5 -44.5t65.5 -10.5l-11 -92h-67z"/>
         <glyph glyph-name="bar" unicode="|" horiz-adv-x="282"
                d="M78 -150l110 900h90l-110 -900h-90z"/>
         <glyph glyph-name="braceright" unicode="}" horiz-adv-x="336"
                d="M-7 -343l11 92q52 0 68.5 10.5t20.5 44.5l33 266q7 63 25 105.5t53 73.5q-27 30 -35 75t1 104l31 260q2 14 2 23.5t-1 16.5t-5.5 11.5t-8.5 7t-14 3.5t-17.5 1h-23.5h-6l11 91h68q53 0 83.5 -45.5t22.5 -111.5l-30 -242q-3 -40 -5 -64t6 -40.5t20 -26t36 -20.5l-11 -86
q-50 -21 -67 -47t-26 -104l-30 -242q-8 -66 -49.5 -111t-94.5 -45h-68z"/>
         <glyph glyph-name="asciitilde" unicode="~" horiz-adv-x="543"
                d="M398 167q-66 0 -117 63q-3 3 -7 8l-4 5q-30 39 -61 39q-37 0 -60.5 -31t-22.5 -74h-74q0 51 21.5 92t59.5 64t85 23q39 0 67 -18t52 -55q9 -14 16 -22t19.5 -14.5t27.5 -6.5q35 0 59 28.5t22 74.5h73q3 -74 -43.5 -125t-112.5 -51z"/>
         <glyph glyph-name="exclamdown" unicode="&#xa1;" horiz-adv-x="312"
                d="M197 336q-22 0 -39.5 11t-26 29.5t-6.5 41.5q4 34 31.5 58t61 24t54.5 -24t17 -58t-31 -58t-61 -24zM52 -250l80 499h109l-44 -499h-145z"/>
         <glyph glyph-name="cent" unicode="&#xa2;" horiz-adv-x="479"
                d="M375 483q-55 0 -98.5 -39t-50.5 -94t27 -93.5t90 -38.5q70 0 114 34l-17 -140q-48 -19 -102 -22l-11 -91h-84l12 100q-88 22 -136.5 91t-37.5 160t76.5 160t159.5 91l12 100h84l-11 -91q52 -3 96 -21l-17 -140q-35 34 -106 34z"/>
         <glyph glyph-name="sterling" unicode="&#xa3;" horiz-adv-x="617"
                d="M222 102h380l-13 -102h-489l39 317h-80l11 94h80l13 99q13 110 90 180t184 70q54 0 101 -24.5t77 -68t35 -96.5l-112 -46q4 34 -11 63.5t-42.5 45.5t-60.5 16q-62 0 -103 -38t-49 -102l-13 -99h186l-11 -94h-186z"/>
         <glyph glyph-name="currency" unicode="&#xa4;" horiz-adv-x="628"
                d="M146 104l-67 80l59 53q-29 57 -20.5 126t51.5 127l-46 51l87 81l48 -55q61 37 130 37t123 -37l59 54l69 -78l-60 -52q30 -59 21.5 -128t-52.5 -127l46 -52l-86 -80l-48 54q-62 -36 -131.5 -36t-122.5 36zM252 270q35 -39 90 -39.5t99 39.5q43 38 50 93.5t-27 93.5t-89 38
t-99 -39q-42 -39 -49.5 -93.5t25.5 -92.5z"/>
         <glyph glyph-name="yen" unicode="&#xa5;" horiz-adv-x="682"
                d="M750 750l-290 -371h169l-12 -92h-177l-9 -75h177l-10 -85h-177l-16 -127h-127l16 127h-176l10 85h176l9 75h-176l12 92h167l-200 371h135l147 -286l218 286h134z"/>
         <glyph glyph-name="brokenbar" unicode="&#xa6;" horiz-adv-x="282"
                d="M144 390l44 360h90l-44 -360h-90zM78 -150l44 360h90l-44 -360h-90z"/>
         <glyph glyph-name="section" unicode="&#xa7;" horiz-adv-x="624"
                d="M571 263q35 -37 28 -92q-9 -72 -92 -120.5t-189 -48.5q-87 0 -155.5 34t-95.5 87l96 55q16 -34 62 -55t112 -21q62 0 106.5 19t48.5 52q3 21 -16.5 36t-52.5 24.5t-73.5 18t-80 20.5t-71.5 29t-50 47t-13 70q7 54 50 92q-34 36 -28 88q5 38 28.5 69.5t58.5 51.5
t76.5 30.5t85.5 10.5q64 0 121 -21t88 -56l-80 -60q-45 45 -134 45q-34 0 -64 -7.5t-49.5 -22.5t-22.5 -34q-2 -21 17 -36.5t52 -24.5t73.5 -18t80 -21.5t71.5 -29.5t50 -48t12 -72q-6 -50 -50 -91zM243 422q-2 -16 8 -28.5t27 -20.5t43.5 -16t52 -13.5t58 -13.5t55.5 -17
q25 19 28 42q2 18 -12 31.5t-41.5 23t-56.5 16t-68.5 16t-66.5 19.5q-24 -16 -27 -39z"/>
         <glyph glyph-name="dieresis" unicode="&#xa8;" horiz-adv-x="23"
                d="M198.5 576q-33.5 0 -54.5 24t-17 58t31 58t61 24t55 -24t17 -58t-31.5 -58t-61 -24zM417 576q-33 0 -54.5 24t-17.5 58t31.5 58t60.5 24q34 0 55 -24t17 -58t-31.5 -58t-60.5 -24z"/>
         <glyph glyph-name="copyright" unicode="&#xa9;" horiz-adv-x="845"
                d="M422 -10q-104 0 -186.5 51.5t-123.5 140.5t-28 193t75.5 193t157.5 140.5t199.5 51.5t186.5 -51.5t123 -140.5t28 -193q-10 -78 -49 -149.5t-97 -123t-133 -82t-153 -30.5zM431 68q129 0 229.5 89t116.5 218t-62.5 218.5t-207.5 89.5t-229.5 -89.5t-116.5 -218.5
t62.5 -218t207.5 -89zM469 190q-81 0 -131 52.5t-40 128.5q9 76 72 129t144 53q43 0 77 -16l-11 -88h-4q-28 24 -69 24q-44 0 -78 -27t-39 -75q-4 -31 7.5 -54t34 -34.5t50.5 -11.5q44 0 74 21l5 1l-11 -87q-42 -16 -81 -16z"/>
         <glyph glyph-name="ordfeminine" unicode="&#xaa;" horiz-adv-x="400"
                d="M375 750h70l-37 -300h-70l6 49q-47 -55 -115 -55q-63 0 -101 45.5t-30 110.5t57 110.5t112 45.5q67 0 102 -55zM250 505q40 0 71 28t35.5 67t-19.5 67t-64 28q-39 0 -70 -28t-35.5 -67t19.5 -67t63 -28z"/>
         <glyph glyph-name="guillemotleft" unicode="&#xab;" horiz-adv-x="686"
                d="M258 95l-130 184l175 184h116l-175 -184l130 -184h-116zM488 95l-130 184l175 184h116l-175 -184l130 -184h-116z"/>
         <glyph glyph-name="logicalnot" unicode="&#xac;" horiz-adv-x="782"
                d="M629 100l32 256h-543l11 92h634l-43 -348h-91z"/>
         <glyph glyph-name="uni00AD" unicode="&#xad;" horiz-adv-x="590"
                d="M100 212l12 97h350l-12 -97h-350z"/>
         <glyph glyph-name="registered" unicode="&#xae;" horiz-adv-x="845"
                d="M516.5 760q104.5 0 186.5 -51.5t123 -140.5t28 -193q-10 -78 -49 -149.5t-97 -123t-133 -82t-153 -30.5q-104 0 -186.5 51.5t-123.5 140.5t-28 193t75.5 193t157.5 140.5t199.5 51.5zM431 68q85 0 161 40.5t125.5 111t59.5 155.5q16 129 -62.5 218.5t-207.5 89.5
t-229.5 -89.5t-116.5 -218.5t62.5 -218t207.5 -89zM622 452q-5 -34 -26.5 -62.5t-52.5 -42.5l69 -165h-80l-67 154h-37l-19 -154h-70l48 386h131q49 0 79 -33.5t25 -82.5zM448 497l-11 -91h61q19 0 34 13.5t18 32.5q2 19 -10 32t-31 13h-61z"/>
         <glyph glyph-name="macron" unicode="&#xaf;" horiz-adv-x="27"
                d="M86 584l11 92h310l-11 -92h-310z"/>
         <glyph glyph-name="degree" unicode="&#xb0;" horiz-adv-x="455"
                d="M288 492q-56 0 -90 39t-27 95q4 37 25.5 68t54.5 48.5t70 17.5q56 0 90.5 -39t27.5 -95q-7 -55 -51 -94.5t-100 -39.5zM297 562q27 0 48 18.5t24 45.5q3 28 -13 46.5t-43 18.5q-18 0 -34 -8.5t-26.5 -23.5t-12.5 -33q-3 -27 13 -45.5t44 -18.5z"/>
         <glyph glyph-name="plusminus" unicode="&#xb1;" horiz-adv-x="765"
                d="M485 454h303l-12 -92h-303l-22 -180h-92l22 180h-303l12 92h303l22 180h92zM34 0l10 83h698l-10 -83h-698z"/>
         <glyph glyph-name="uni00B2" unicode="&#xb2;" horiz-adv-x="322"
                d="M88 380l6 51q72 68 106.5 101t57 58t27.5 35t7 23q3 26 -10.5 38.5t-34.5 12.5q-15 0 -27.5 -6.5t-20.5 -19t-9 -29.5h-67q3 51 42.5 83.5t91.5 32.5q49 0 77.5 -29t24.5 -75q-5 -43 -35 -79t-138 -136h155l-7 -61h-246z"/>
         <glyph glyph-name="uni00B3" unicode="&#xb3;" horiz-adv-x="343"
                d="M302 592q26 -14 39 -39t9 -56q-6 -51 -45.5 -86.5t-91.5 -35.5t-83.5 31.5t-26.5 77.5l69 1q-3 -19 11.5 -32t37.5 -13t40.5 16.5t20.5 40.5q3 25 -10.5 41t-36.5 16h-30l7 55h25q13 0 23.5 6t17.5 16.5t8 23.5q3 18 -8 29.5t-31 11.5q-16 0 -29 -10.5t-15 -24.5l-67 1
q5 41 39.5 69.5t79.5 28.5t72.5 -28.5t22.5 -69.5q-5 -44 -48 -70z"/>
         <glyph glyph-name="acute" unicode="&#xb4;" horiz-adv-x="23"
                d="M86 583l103 167h146l-139 -167h-110z"/>
         <glyph glyph-name="uni00B5" unicode="&#xb5;" horiz-adv-x="590"
                d="M466 500h146l-61 -500h-146l7 56q-68 -66 -153 -66q-48 0 -88 22l-32 -262h-106l92 750h145l-35 -289q-5 -39 19 -66t63 -27q29 0 53.5 12.5t41 33.5t19.5 47z"/>
         <glyph glyph-name="paragraph" unicode="&#xb6;" horiz-adv-x="624"
                d="M262 -150l69 565h-18q-55 0 -92.5 19t-54.5 57t-10 92q9 81 61.5 124t136.5 43h91l-110 -900h-73zM429 -150l110 900h74l-110 -900h-74z"/>
         <glyph glyph-name="periodcentered" unicode="&#xb7;" horiz-adv-x="269"
                d="M170.5 300q-24.5 0 -40 17.5t-12.5 42.5t23.5 43t44.5 18t40 -18t13 -43t-23.5 -42.5t-45 -17.5z"/>
         <glyph glyph-name="cedilla" unicode="&#xb8;" horiz-adv-x="23"
                d="M99 -260q-37 0 -68.5 21.5t-39.5 52.5l66 22q6 -13 20.5 -22t29.5 -9q18 0 31.5 13t15.5 31q4 28 -18.5 36.5t-59.5 -7.5l-48 30l61 92h67l-41 -60q50 9 81 -17.5t25 -73.5q-5 -46 -40.5 -77.5t-81.5 -31.5z"/>
         <glyph glyph-name="uni00B9" unicode="&#xb9;" horiz-adv-x="252"
                d="M124 375l39 314h-53l7 61h123l-46 -375h-70z"/>
         <glyph glyph-name="ordmasculine" unicode="&#xba;" horiz-adv-x="377"
                d="M243 444q-69 0 -111 45.5t-34 110.5t61 110.5t122 45.5q45 0 80.5 -20.5t53 -56.5t12.5 -79q-8 -65 -61.5 -110.5t-122.5 -45.5zM250 505q40 0 71 28t35.5 67t-19.5 67t-64 28q-39 0 -70 -28t-35 -67q-3 -26 6.5 -47.5t29.5 -34.5t46 -13z"/>
         <glyph glyph-name="guillemotright" unicode="&#xbb;" horiz-adv-x="686"
                d="M106 95l174 184l-129 184h115l129 -184l-174 -184h-115zM335 95l174 184l-129 184h117l129 -184l-174 -184h-117z"/>
         <glyph glyph-name="questiondown" unicode="&#xbf;" horiz-adv-x="574"
                d="M345 517q23 0 41 -11t26.5 -29.5t5.5 -41.5q-4 -34 -31 -58t-62 -24q-33 0 -54.5 24t-17.5 58q5 34 32 58t60 24zM386 284l-6 -45q-5 -42 -18.5 -71.5t-31.5 -45t-38.5 -25.5t-40.5 -18.5t-37.5 -19t-30 -31t-16.5 -51.5q-5 -43 25 -72.5t79 -29.5q57 0 94.5 37.5
t37.5 92.5h128q-5 -109 -84.5 -183t-191.5 -74q-103 0 -165 66t-50 163q6 49 23.5 84t39.5 52t46.5 31.5t45 23t35.5 24.5t18 38l7 54h131z"/>
         <glyph glyph-name="Agrave" unicode="&#xc0;" horiz-adv-x="774"
                d="M538 833h-109l-99 167h146zM609 0l-36 142h-339l-70 -142h-163l393 750h169l209 -750h-163zM296 266h247l-83 331z"/>
         <glyph glyph-name="Aacute" unicode="&#xc1;" horiz-adv-x="774"
                d="M686 1000l-140 -167h-110l104 167h146zM609 0l-36 142h-339l-70 -142h-163l393 750h169l209 -750h-163zM296 266h247l-83 331z"/>
         <glyph glyph-name="Acircumflex" unicode="&#xc2;" horiz-adv-x="774"
                d="M502 937l-84 -108h-110l126 171h151l86 -171h-111zM609 0l-36 142h-339l-70 -142h-163l393 750h169l209 -750h-163zM296 266h247l-83 331z"/>
         <glyph glyph-name="Atilde" unicode="&#xc3;" horiz-adv-x="774"
                d="M408 825h-85q-6 65 28.5 108.5t89.5 43.5q63 0 95 -58q8 -19 25 -19q18 0 25.5 19t0.5 49h85q7 -64 -27.5 -107.5t-91.5 -43.5q-60 0 -94 58q-9 19 -24 19q-18 0 -25.5 -19.5t-1.5 -49.5zM609 0l-36 142h-339l-70 -142h-163l393 750h169l209 -750h-163zM296 266h247
l-83 331z"/>
         <glyph glyph-name="Adieresis" unicode="&#xc4;" horiz-adv-x="774"
                d="M379.5 826q-33.5 0 -55 24t-17 58t31.5 58t60.5 24t55 -24t17 -58t-31.5 -58t-60.5 -24zM597 826q-33 0 -54.5 24t-17 58t31.5 58t61 24q33 0 54.5 -24t17 -58t-31.5 -58t-61 -24zM609 0l-36 142h-339l-70 -142h-163l393 750h169l209 -750h-163zM296 266h247l-83 331z
"/>
         <glyph glyph-name="Aring" unicode="&#xc5;" horiz-adv-x="774"
                d="M609 0l-36 142h-339l-70 -142h-163l385 736q-22 32 -17 74q6 47 45 81.5t88 34.5q48 0 77.5 -34.5t23.5 -81.5q-5 -43 -36 -75l205 -735h-163zM494.5 868q-23.5 0 -42.5 -17t-22 -41q-3 -26 11.5 -42t39 -16t42.5 16t21 42q3 24 -11.5 41t-38 17zM296 266h247l-83 331z
"/>
         <glyph glyph-name="AE" unicode="&#xc6;" horiz-adv-x="936"
                d="M1 0l393 750h599l-16 -127h-297l-23 -191h255l-14 -113h-255l-23 -191h297l-16 -128h-443l19 156h-234l-73 -156h-169zM305 270h187l43 353h-53z"/>
         <glyph glyph-name="Ccedilla" unicode="&#xc7;" horiz-adv-x="625"
                d="M480 616q-69 0 -124 -32.5t-88 -86.5t-41 -122t11 -122.5t66.5 -87t115.5 -32.5q106 0 183 74l-20 -168q-69 -40 -151 -48l-35 -51q50 9 81 -17.5t25 -73.5q-5 -46 -40.5 -77.5t-81.5 -31.5q-37 0 -68.5 21.5t-39.5 52.5l66 22q6 -13 20.5 -22t29.5 -9q12 0 22.5 6t17 16
t7.5 22q4 28 -18.5 36.5t-59.5 -7.5l-48 30l55 84q-96 9 -164.5 62t-98.5 137t-18 184q13 106 69.5 193.5t147 139.5t196.5 52q96 0 168 -49l-20 -168q-62 73 -165 73z"/>
         <glyph glyph-name="Egrave" unicode="&#xc8;" horiz-adv-x="540"
                d="M433 833h-109l-99 167h146zM581 619h-294l-22 -178h252l-16 -132h-252l-22 -177h294l-16 -132h-445l92 750h445z"/>
         <glyph glyph-name="Eacute" unicode="&#xc9;" horiz-adv-x="540"
                d="M581 1000l-140 -167h-110l104 167h146zM581 619h-294l-22 -178h252l-16 -132h-252l-22 -177h294l-16 -132h-445l92 750h445z"/>
         <glyph glyph-name="Ecircumflex" unicode="&#xca;" horiz-adv-x="540"
                d="M397 937l-84 -108h-110l126 171h151l86 -171h-111zM581 619h-294l-22 -178h252l-16 -132h-252l-22 -177h294l-16 -132h-445l92 750h445z"/>
         <glyph glyph-name="Edieresis" unicode="&#xcb;" horiz-adv-x="540"
                d="M274.5 826q-33.5 0 -55 24t-17.5 58q3 22 16.5 41t33.5 30t43 11q33 0 54.5 -24t17 -58t-31.5 -58t-60.5 -24zM492 826q-33 0 -54.5 24t-17 58t31.5 58t61 24q33 0 54.5 -24t17 -58t-31.5 -58t-61 -24zM581 619h-294l-22 -178h252l-16 -132h-252l-22 -177h294l-16 -132
h-445l92 750h445z"/>
         <glyph glyph-name="Igrave" unicode="&#xcc;" horiz-adv-x="271"
                d="M176 833l-100 167h147l62 -167h-109zM60 0l92 750h151l-92 -750h-151z"/>
         <glyph glyph-name="Iacute" unicode="&#xcd;" horiz-adv-x="271"
                d="M183 833l104 167h146l-140 -167h-110zM60 0l92 750h151l-92 -750h-151z"/>
         <glyph glyph-name="Icircumflex" unicode="&#xce;" horiz-adv-x="271"
                d="M54 829l127 171h151l86 -171h-111l-58 108l-84 -108h-111zM60 0l92 750h151l-92 -750h-151z"/>
         <glyph glyph-name="Idieresis" unicode="&#xcf;" horiz-adv-x="271"
                d="M126.5 826q-33.5 0 -55.5 24t-17.5 58t32 58t61 24t55 -24t17 -58t-31.5 -58t-60.5 -24zM344 826q-33 0 -54.5 24t-17 58t31.5 58t61 24q33 0 54.5 -24t17 -58t-31.5 -58t-61 -24zM60 0l92 750h151l-92 -750h-151z"/>
         <glyph glyph-name="Eth" unicode="&#xd0;" horiz-adv-x="712"
                d="M392 750q102 0 182 -50t120 -136.5t27.5 -188.5t-73.5 -188.5t-153.5 -136.5t-194.5 -50h-240l41 334h-73l10 82h73l41 334h240zM315 132q95 0 169.5 70.5t86.5 172.5q13 103 -44 173.5t-152 70.5h-89l-25 -203h117l-10 -82h-117l-25 -202h89z"/>
         <glyph glyph-name="Ntilde" unicode="&#xd1;" horiz-adv-x="808"
                d="M427 825h-85q-6 65 28.5 108.5t89.5 43.5q63 0 95 -58q8 -19 25 -19q18 0 25.5 19t0.5 49h85q7 -64 -27.5 -107.5t-91.5 -43.5q-60 0 -94 58q-9 19 -24 19q-18 0 -25.5 -19.5t-1.5 -49.5zM690 750h150l-92 -750h-154l-319 522l-64 -522h-151l92 750h154l320 -521z"/>
         <glyph glyph-name="Ograve" unicode="&#xd2;" horiz-adv-x="807"
                d="M445 833l-99 167h146l62 -167h-109zM403 -10q-107 0 -185 52t-112.5 139.5t-21.5 193.5t69.5 193.5t147 139.5t196.5 52t184 -52t113 -139.5t22 -193.5t-69.5 -193.5t-147 -139.5t-196.5 -52zM420.5 136q102.5 0 169.5 67.5t80 171.5q13 105 -37.5 172.5t-153 67.5
t-170.5 -67.5t-81 -172.5q-13 -104 38.5 -171.5t154 -67.5z"/>
         <glyph glyph-name="Oacute" unicode="&#xd3;" horiz-adv-x="807"
                d="M452 833l104 167h146l-140 -167h-110zM403 -10q-107 0 -185 52t-112.5 139.5t-21.5 193.5t69.5 193.5t147 139.5t196.5 52t184 -52t113 -139.5t22 -193.5t-69.5 -193.5t-147 -139.5t-196.5 -52zM420.5 136q102.5 0 169.5 67.5t80 171.5q13 105 -37.5 172.5t-153 67.5
t-170.5 -67.5t-81 -172.5q-13 -104 38.5 -171.5t154 -67.5z"/>
         <glyph glyph-name="Ocircumflex" unicode="&#xd4;" horiz-adv-x="807"
                d="M325 829l126 171h151l86 -171h-111l-58 108l-84 -108h-110zM403 -10q-107 0 -185 52t-112.5 139.5t-21.5 193.5t69.5 193.5t147 139.5t196.5 52t184 -52t113 -139.5t22 -193.5t-69.5 -193.5t-147 -139.5t-196.5 -52zM420.5 136q102.5 0 169.5 67.5t80 171.5
q13 105 -37.5 172.5t-153 67.5t-170.5 -67.5t-81 -172.5q-13 -104 38.5 -171.5t154 -67.5z"/>
         <glyph glyph-name="Otilde" unicode="&#xd5;" horiz-adv-x="807"
                d="M569 817q-60 0 -94 58q-9 19 -24 19q-18 0 -25.5 -19.5t-1.5 -49.5h-85q-6 65 28.5 108.5t89.5 43.5q63 0 95 -58q8 -19 25 -19q18 0 25.5 19t0.5 49h85q7 -64 -27.5 -107.5t-91.5 -43.5zM403 -10q-107 0 -185 52t-112.5 139.5t-21.5 193.5t69.5 193.5t147 139.5
t196.5 52t184 -52t113 -139.5t22 -193.5t-69.5 -193.5t-147 -139.5t-196.5 -52zM420.5 136q102.5 0 169.5 67.5t80 171.5q13 105 -37.5 172.5t-153 67.5t-170.5 -67.5t-81 -172.5q-13 -104 38.5 -171.5t154 -67.5z"/>
         <glyph glyph-name="Odieresis" unicode="&#xd6;" horiz-adv-x="807"
                d="M396.5 826q-33.5 0 -55 24t-17.5 58q3 22 16.5 41t33.5 30t43 11q33 0 54.5 -24t17 -58t-31.5 -58t-60.5 -24zM614 826q-33 0 -54.5 24t-17 58t31.5 58t61 24q33 0 54.5 -24t17 -58t-31.5 -58t-61 -24zM403 -10q-107 0 -185 52t-112.5 139.5t-21.5 193.5t69.5 193.5
t147 139.5t196.5 52t184 -52t113 -139.5t22 -193.5t-69.5 -193.5t-147 -139.5t-196.5 -52zM420.5 136q102.5 0 169.5 67.5t80 171.5q13 105 -37.5 172.5t-153 67.5t-170.5 -67.5t-81 -172.5q-13 -104 38.5 -171.5t154 -67.5z"/>
         <glyph glyph-name="multiply" unicode="&#xd7;" horiz-adv-x="732"
                d="M698 491l-203 -181l159 -180l-87 -78l-158 181l-204 -181l-67 78l202 180l-158 181l87 77l159 -181l203 181z"/>
         <glyph glyph-name="Oslash" unicode="&#xd8;" horiz-adv-x="807"
                d="M726 671q54 -54 77.5 -131t12.5 -165q-13 -106 -69.5 -193.5t-147 -139.5t-196.5 -52q-101 0 -176 46l-53 -69h-89l88 112q-53 53 -76.5 130t-12.5 166q13 106 69.5 193.5t147 139.5t196.5 52q98 0 175 -46l53 68h89zM228 375q-13 -107 41 -174l308 392q-43 22 -97 22
q-103 0 -171 -67.5t-81 -172.5zM421 136q102 0 169 67.5t80 171.5q13 108 -39 174l-308 -392q40 -21 98 -21z"/>
         <glyph glyph-name="Ugrave" unicode="&#xd9;" horiz-adv-x="738"
                d="M410 833l-99 167h146l62 -167h-109zM368 -10q-129 0 -209 73t-67 179l62 508h151l-59 -481q-8 -61 32.5 -104t105.5 -43t115.5 43t58.5 104l59 481h151l-62 -508q-13 -106 -111 -179t-227 -73z"/>
         <glyph glyph-name="Uacute" unicode="&#xda;" horiz-adv-x="738"
                d="M417 833l104 167h146l-140 -167h-110zM368 -10q-129 0 -209 73t-67 179l62 508h151l-59 -481q-8 -61 32.5 -104t105.5 -43t115.5 43t58.5 104l59 481h151l-62 -508q-13 -106 -111 -179t-227 -73z"/>
         <glyph glyph-name="Ucircumflex" unicode="&#xdb;" horiz-adv-x="738"
                d="M290 829l126 171h151l86 -171h-111l-58 108l-84 -108h-110zM368 -10q-129 0 -209 73t-67 179l62 508h151l-59 -481q-8 -61 32.5 -104t105.5 -43t115.5 43t58.5 104l59 481h151l-62 -508q-13 -106 -111 -179t-227 -73z"/>
         <glyph glyph-name="Udieresis" unicode="&#xdc;" horiz-adv-x="738"
                d="M361.5 826q-33.5 0 -55 24t-17 58t31.5 58t60.5 24t55 -24t17 -58t-31.5 -58t-60.5 -24zM579 826q-33 0 -54.5 24t-17 58t31.5 58t61 24q33 0 54.5 -24t17 -58t-31.5 -58t-61 -24zM368 -10q-129 0 -209 73t-67 179l62 508h151l-59 -481q-8 -61 32.5 -104t105.5 -43
t115.5 43t58.5 104l59 481h151l-62 -508q-13 -106 -111 -179t-227 -73z"/>
         <glyph glyph-name="Yacute" unicode="&#xdd;" horiz-adv-x="678"
                d="M639 1000l-140 -167h-110l104 167h146zM769 750l-310 -395l-44 -355h-150l43 352l-215 398h168l137 -269l205 269h166z"/>
         <glyph glyph-name="Thorn" unicode="&#xde;" horiz-adv-x="603"
                d="M447 642q92 0 148 -65.5t44 -159.5q-11 -91 -82.5 -153.5t-163.5 -62.5h-162l-25 -201h-146l79 642l13 108h146l-13 -108h162zM403 329q20 0 38 7.5t32 20t23.5 29.5t11.5 36q3 25 -7 46t-29.5 33t-45.5 12h-157l-23 -184h157z"/>
         <glyph glyph-name="germandbls" unicode="&#xdf;" horiz-adv-x="683"
                d="M576 392q44 -31 65 -80t14 -106q-11 -90 -78 -153t-153 -63q-42 0 -90.5 13.5t-73.5 35.5l70 113q15 -12 38.5 -20t43.5 -7q35 2 64.5 27t33.5 63q6 43 -23 73.5t-75 30.5h-40l15 119h16q41 0 74.5 28.5t38.5 68.5q4 38 -23.5 63t-75.5 25q-52 0 -90.5 -30t-44.5 -76
l-63 -517h-145l63 517q13 101 97 167t197 66q53 0 97.5 -16t73.5 -44.5t42.5 -68t8.5 -84.5q-10 -84 -77 -145z"/>
         <glyph glyph-name="agrave" unicode="&#xe0;" horiz-adv-x="559"
                d="M414 583h-109l-100 167h146zM338 510q103 0 159 -48t44 -144l-39 -318h-123l-1 49q-83 -59 -172 -59q-72 0 -112 41.5t-31 111.5q9 75 79 118.5t182 25.5l70 -11l5 43q5 41 -21 61t-68 20q-73 0 -130 -60l-77 83q47 46 102 66.5t133 20.5zM216 151q-3 -25 12 -39.5
t42 -14.5q51 0 107 45l7 51l-39 8q-65 13 -95.5 -3t-33.5 -47z"/>
         <glyph glyph-name="aacute" unicode="&#xe1;" horiz-adv-x="559"
                d="M561 750l-139 -167h-110l103 167h146zM338 510q103 0 159 -48t44 -144l-39 -318h-123l-1 49q-83 -59 -172 -59q-72 0 -112 41.5t-31 111.5q9 75 79 118.5t182 25.5l70 -11l5 43q5 41 -21 61t-68 20q-73 0 -130 -60l-77 83q47 46 102 66.5t133 20.5zM216 151
q-3 -25 12 -39.5t42 -14.5q51 0 107 45l7 51l-39 8q-65 13 -95.5 -3t-33.5 -47z"/>
         <glyph glyph-name="acircumflex" unicode="&#xe2;" horiz-adv-x="559"
                d="M378 687l-84 -108h-110l126 171h151l86 -171h-111zM338 510q103 0 159 -48t44 -144l-39 -318h-123l-1 49q-83 -59 -172 -59q-72 0 -112 41.5t-31 111.5q9 75 79 118.5t182 25.5l70 -11l5 43q5 41 -21 61t-68 20q-73 0 -130 -60l-77 83q47 46 102 66.5t133 20.5zM216 151
q-3 -25 12 -39.5t42 -14.5q51 0 107 45l7 51l-39 8q-65 13 -95.5 -3t-33.5 -47z"/>
         <glyph glyph-name="atilde" unicode="&#xe3;" horiz-adv-x="559"
                d="M284 575h-85q-5 43 10 78.5t43.5 54.5t63.5 19q64 0 95 -58q8 -19 25 -19q18 0 25.5 19t0.5 49h85q7 -64 -27 -107.5t-91 -43.5q-60 0 -94 58q-10 19 -25 19q-17 0 -25 -19.5t-1 -49.5zM338 510q103 0 159 -48t44 -144l-39 -318h-123l-1 49q-83 -59 -172 -59
q-72 0 -112 41.5t-31 111.5q9 75 79 118.5t182 25.5l70 -11l5 43q5 41 -21 61t-68 20q-73 0 -130 -60l-77 83q47 46 102 66.5t133 20.5zM216 151q-3 -25 12 -39.5t42 -14.5q51 0 107 45l7 51l-39 8q-65 13 -95.5 -3t-33.5 -47z"/>
         <glyph glyph-name="adieresis" unicode="&#xe4;" horiz-adv-x="559"
                d="M255.5 576q-33.5 0 -54.5 24t-17 58t31 58t61 24t55 -24t17 -58t-31.5 -58t-61 -24zM474 576q-33 0 -54.5 24t-17.5 58t31.5 58t60.5 24q34 0 55 -24t17 -58t-31.5 -58t-60.5 -24zM338 510q103 0 159 -48t44 -144l-39 -318h-123l-1 49q-83 -59 -172 -59q-72 0 -112 41.5
t-31 111.5q9 75 79 118.5t182 25.5l70 -11l5 43q5 41 -21 61t-68 20q-73 0 -130 -60l-77 83q47 46 102 66.5t133 20.5zM216 151q-3 -25 12 -39.5t42 -14.5q51 0 107 45l7 51l-39 8q-65 13 -95.5 -3t-33.5 -47z"/>
         <glyph glyph-name="aring" unicode="&#xe5;" horiz-adv-x="559"
                d="M362 552q-49 0 -79.5 34.5t-24.5 83.5q4 31 23 57.5t48.5 42.5t61.5 16q47 0 77 -34.5t24 -81.5q-6 -49 -44 -83.5t-86 -34.5zM383.5 728q-23.5 0 -42 -17t-21.5 -41q-3 -26 11 -42t38.5 -16t42.5 16t21 42q3 24 -11.5 41t-38 17zM338 510q103 0 159 -48t44 -144
l-39 -318h-123l-1 49q-83 -59 -172 -59q-72 0 -112 41.5t-31 111.5q9 75 79 118.5t182 25.5l70 -11l5 43q5 41 -21 61t-68 20q-73 0 -130 -60l-77 83q47 46 102 66.5t133 20.5zM216 151q-3 -25 12 -39.5t42 -14.5q51 0 107 45l7 51l-39 8q-65 13 -95.5 -3t-33.5 -47z"/>
         <glyph glyph-name="ae" unicode="&#xe6;" horiz-adv-x="846"
                d="M847 251q-3 -21 -8 -43h-339q1 -106 97 -106q18 0 33.5 3.5t31 11.5t29.5 21t30 33l97 -51q-36 -61 -97 -95.5t-135 -34.5q-135 0 -193 83q-95 -83 -202 -83q-72 0 -111.5 41.5t-30.5 111.5q9 75 78.5 118.5t181.5 25.5l55 -8q7 34 20 62q-5 30 -29.5 44.5t-58.5 14.5
q-69 0 -125 -60l-77 83q47 46 101.5 66.5t133.5 20.5q108 0 151 -49q70 50 165 50q108 0 162 -70.5t40 -189.5zM629 397q-83 0 -114 -91h201q-5 91 -87 91zM201 151q-3 -24 12.5 -39t42.5 -15q49 0 107 45q-5 23 -6 54l-26 5q-47 10 -75.5 3t-40.5 -20.5t-14 -32.5z"/>
         <glyph glyph-name="ccedilla" unicode="&#xe7;" horiz-adv-x="434"
                d="M346 388q-57 0 -95 -38.5t-45 -99.5q-8 -60 21 -99t85 -39q65 0 106 39l-17 -133q-23 -13 -51 -19.5t-56 -7.5l-35 -51q50 9 81 -17.5t25 -73.5q-5 -46 -40.5 -77.5t-81.5 -31.5q-25 0 -48 10t-39 27t-21 37l66 22q6 -13 20.5 -22t29.5 -9q12 0 22.5 6t17 16t7.5 22
q4 28 -18.5 36.5t-59.5 -7.5l-48 30l57 86q-89 15 -134.5 84.5t-32.5 171.5q7 56 30 104t59 82.5t84 54t103 19.5q72 0 120 -26l-16 -135q-14 18 -40 28.5t-56 10.5z"/>
         <glyph glyph-name="egrave" unicode="&#xe8;" horiz-adv-x="548"
                d="M405 584h-109l-100 167h146zM549 251q-3 -21 -8 -43h-339q-1 -106 97 -106q37 0 65 15.5t59 53.5l97 -51q-36 -61 -97 -95.5t-135 -34.5q-127 0 -184 71.5t-42 188.5q9 74 45.5 133t99 93.5t140.5 34.5q108 0 162 -70.5t40 -189.5zM331 397q-83 0 -114 -91h201
q-5 91 -87 91z"/>
         <glyph glyph-name="eacute" unicode="&#xe9;" horiz-adv-x="548"
                d="M552 751l-139 -167h-110l103 167h146zM549 251q-3 -21 -8 -43h-339q-1 -106 97 -106q37 0 65 15.5t59 53.5l97 -51q-36 -61 -97 -95.5t-135 -34.5q-127 0 -184 71.5t-42 188.5q9 74 45.5 133t99 93.5t140.5 34.5q108 0 162 -70.5t40 -189.5zM331 397q-83 0 -114 -91h201
q-5 91 -87 91z"/>
         <glyph glyph-name="ecircumflex" unicode="&#xea;" horiz-adv-x="548"
                d="M368 688l-84 -108h-110l126 171h151l86 -171h-111zM549 251q-3 -20 -8 -43h-339q-1 -106 97 -106q37 0 65 15.5t59 53.5l97 -51q-36 -61 -97 -95.5t-135 -34.5q-127 0 -184 71.5t-42 188.5q9 74 45.5 133t99 93.5t140.5 34.5q108 0 162 -70.5t40 -189.5zM331 397
q-83 0 -114 -91h201q-5 91 -87 91z"/>
         <glyph glyph-name="edieresis" unicode="&#xeb;" horiz-adv-x="548"
                d="M246 577q-34 0 -55 24t-17 58t31 58t61 24t55 -24t17 -58t-31 -58t-61 -24zM464 577q-33 0 -54.5 24t-17.5 58q3 22 16.5 41t33.5 30t42 11q34 0 55 -24t17 -58t-31 -58t-61 -24zM549 251q-3 -20 -8 -43h-339q-1 -106 97 -106q37 0 65 15.5t59 53.5l97 -51
q-36 -61 -97 -95.5t-135 -34.5q-127 0 -184 71.5t-42 188.5q9 74 45.5 133t99 93.5t140.5 34.5q108 0 162 -70.5t40 -189.5zM331 397q-83 0 -114 -91h201q-5 91 -87 91z"/>
         <glyph glyph-name="igrave" unicode="&#xec;" horiz-adv-x="266"
                d="M144 583l-101 167h147l63 -167h-109zM60 0l61 500h146l-61 -500h-146z"/>
         <glyph glyph-name="iacute" unicode="&#xed;" horiz-adv-x="266"
                d="M152 583l103 167h146l-139 -167h-110zM60 0l61 500h146l-61 -500h-146z"/>
         <glyph glyph-name="icircumflex" unicode="&#xee;" horiz-adv-x="266"
                d="M22 579l127 171h151l86 -171h-111l-58 108l-84 -108h-111zM60 0l61 500h146l-61 -500h-146z"/>
         <glyph glyph-name="idieresis" unicode="&#xef;" horiz-adv-x="266"
                d="M94.5 576q-33.5 0 -55 24t-17.5 58t31.5 58t61.5 24t55 -24t17 -58t-31.5 -58t-61 -24zM313 576q-33 0 -54.5 24t-17.5 58q2 22 16 41t34 30t42 11q34 0 55 -24t17 -58t-31.5 -58t-60.5 -24zM60 0l61 500h146l-61 -500h-146z"/>
         <glyph glyph-name="eth" unicode="&#xf0;" horiz-adv-x="610"
                d="M475 690q82 -68 121 -184t22 -256q-14 -109 -104 -184.5t-206 -75.5q-117 0 -188.5 75.5t-57.5 184.5q13 109 103 184.5t207 75.5q43 0 85 -13q-22 64 -67 99l-52 -57l-40 34l46 50q-43 20 -116 24l45 115q87 0 159 -42l49 53l40 -33zM323 118q55 0 98.5 38.5t50.5 93.5
t-27 94t-89 39t-98.5 -38.5t-50.5 -94.5q-5 -36 9 -66.5t42.5 -48t64.5 -17.5z"/>
         <glyph glyph-name="ntilde" unicode="&#xf1;" horiz-adv-x="605"
                d="M294 575h-85q-5 43 10 78.5t43.5 54.5t63.5 19q64 0 95 -58q8 -19 25 -19q18 0 25.5 19t0.5 49h85q7 -64 -27 -107.5t-91 -43.5q-60 0 -94 58q-10 19 -25 19q-17 0 -25 -19.5t-1 -49.5zM414 510q88 0 135.5 -53t36.5 -141l-39 -316h-146l37 298q4 38 -19 61.5t-64 23.5
q-43 0 -76 -27t-37 -66l-36 -290h-146l61 500h131l1 -58q70 68 161 68z"/>
         <glyph glyph-name="ograve" unicode="&#xf2;" horiz-adv-x="583"
                d="M303 583l-100 167h146l63 -167h-109zM291 -10q-113 0 -178 75t-51 185q13 110 96.5 185t196.5 75q112 0 177 -75t52 -185q-14 -110 -97.5 -185t-195.5 -75zM306 118q52 0 89.5 38t44.5 94t-21.5 94.5t-79.5 38.5q-52 0 -89 -38t-44 -95q-5 -37 5.5 -67t35.5 -47.5
t59 -17.5z"/>
         <glyph glyph-name="oacute" unicode="&#xf3;" horiz-adv-x="583"
                d="M310 583l103 167h146l-139 -167h-110zM291 -10q-113 0 -178 75t-51 185q13 110 96.5 185t196.5 75q112 0 177 -75t52 -185q-14 -110 -97.5 -185t-195.5 -75zM306 118q52 0 89.5 38t44.5 94t-21.5 94.5t-79.5 38.5q-52 0 -89 -38t-44 -95q-5 -37 5.5 -67t35.5 -47.5
t59 -17.5z"/>
         <glyph glyph-name="ocircumflex" unicode="&#xf4;" horiz-adv-x="583"
                d="M182 579l126 171h151l86 -171h-111l-58 108l-84 -108h-110zM291 -10q-113 0 -178 75t-51 185q13 110 96.5 185t196.5 75q112 0 177 -75t52 -185q-14 -110 -97.5 -185t-195.5 -75zM306 118q52 0 89.5 38t44.5 94t-21.5 94.5t-79.5 38.5q-52 0 -89 -38t-44 -95
q-5 -37 5.5 -67t35.5 -47.5t59 -17.5z"/>
         <glyph glyph-name="otilde" unicode="&#xf5;" horiz-adv-x="583"
                d="M427 567q-60 0 -94 58q-10 19 -25 19q-17 0 -25 -19.5t-1 -49.5h-85q-5 43 10 78.5t43.5 54.5t63.5 19q64 0 95 -58q8 -19 25 -19q18 0 25.5 19t0.5 49h85q7 -64 -27 -107.5t-91 -43.5zM291 -10q-113 0 -178 75t-51 185q13 110 96.5 185t196.5 75q112 0 177 -75t52 -185
q-14 -110 -97.5 -185t-195.5 -75zM306 118q52 0 89.5 38t44.5 94t-21.5 94.5t-79.5 38.5q-52 0 -89 -38t-44 -95q-5 -37 5.5 -67t35.5 -47.5t59 -17.5z"/>
         <glyph glyph-name="odieresis" unicode="&#xf6;" horiz-adv-x="583"
                d="M253.5 576q-33.5 0 -54.5 24t-17 58t31 58t61 24t55 -24t17 -58t-31.5 -58t-61 -24zM472 576q-33 0 -54.5 24t-17.5 58t31.5 58t60.5 24q34 0 55 -24t17 -58t-31.5 -58t-60.5 -24zM291 -10q-113 0 -178 75t-51 185q13 110 96.5 185t196.5 75q112 0 177 -75t52 -185
q-14 -110 -97.5 -185t-195.5 -75zM306 118q52 0 89.5 38t44.5 94t-21.5 94.5t-79.5 38.5q-52 0 -89 -38t-44 -95q-5 -37 5.5 -67t35.5 -47.5t59 -17.5z"/>
         <glyph glyph-name="divide" unicode="&#xf7;" horiz-adv-x="687"
                d="M389.5 372q-29.5 0 -48.5 21.5t-15 51.5q3 29 27.5 51t54.5 22q19 0 34.5 -10t23.5 -27t6 -36q-4 -30 -28.5 -51.5t-54 -21.5zM73 239l9 73h600l-9 -73h-600zM348 32q-30 0 -49 21.5t-15 51.5q3 29 28 51t54 22t48 -22t16 -51q-4 -30 -28 -51.5t-54 -21.5z"/>
         <glyph glyph-name="oslash" unicode="&#xf8;" horiz-adv-x="583"
                d="M514 454q20 -18 34.5 -40.5t24 -48.5t12 -55t-0.5 -60q-14 -110 -97.5 -185t-195.5 -75q-67 0 -120 28l-41 -52h-62l63 80q-41 36 -59 89t-10 115q13 110 96.5 185t196.5 75q66 0 118 -28l42 52h62zM206 250q-7 -54 16 -88l165 209q-21 12 -48 12q-52 0 -89 -38t-44 -95z
M306 118q52 0 89.5 38t44.5 94q6 50 -17 88l-165 -209q19 -11 48 -11z"/>
         <glyph glyph-name="ugrave" unicode="&#xf9;" horiz-adv-x="608"
                d="M425 583h-109l-100 167h146zM464 500h145l-61 -500h-130l-1 59q-69 -69 -159 -69q-83 0 -133.5 59t-39.5 144l37 307h146l-35 -289q-3 -26 6.5 -47t29.5 -33.5t46 -12.5q43 0 76 27t38 66z"/>
         <glyph glyph-name="uacute" unicode="&#xfa;" horiz-adv-x="608"
                d="M572 750l-139 -167h-110l103 167h146zM464 500h145l-61 -500h-130l-1 59q-69 -69 -159 -69q-83 0 -133.5 59t-39.5 144l37 307h146l-35 -289q-3 -26 6.5 -47t29.5 -33.5t46 -12.5q43 0 76 27t38 66z"/>
         <glyph glyph-name="ucircumflex" unicode="&#xfb;" horiz-adv-x="608"
                d="M389 687l-84 -108h-110l126 171h151l86 -171h-111zM464 500h145l-61 -500h-130l-1 59q-69 -69 -159 -69q-83 0 -133.5 59t-39.5 144l37 307h146l-35 -289q-3 -26 6.5 -47t29.5 -33.5t46 -12.5q43 0 76 27t38 66z"/>
         <glyph glyph-name="udieresis" unicode="&#xfc;" horiz-adv-x="608"
                d="M266.5 576q-33.5 0 -54.5 24t-17 58t31 58t61 24t55 -24t17 -58t-31.5 -58t-61 -24zM485 576q-33 0 -54.5 24t-17.5 58q2 22 16 41t34 30t42 11q34 0 55 -24t17 -58t-31.5 -58t-60.5 -24zM464 500h145l-61 -500h-130l-1 59q-69 -69 -159 -69q-83 0 -133.5 59t-39.5 144
l37 307h146l-35 -289q-3 -26 6.5 -47t29.5 -33.5t46 -12.5q43 0 76 27t38 66z"/>
         <glyph glyph-name="yacute" unicode="&#xfd;" horiz-adv-x="609"
                d="M572 750l-139 -167h-110l103 167h146zM609 500l-60 -500q-14 -114 -96 -183t-206 -69q-89 0 -155 31l17 139q63 -50 155 -50q54 0 92.5 34t46.5 98l6 51q-68 -61 -151 -61t-133.5 59t-39.5 144l37 307h146l-35 -289q-3 -26 6.5 -47t29.5 -33.5t46 -12.5q43 0 76 27t38 66
l35 289h145z"/>
         <glyph glyph-name="thorn" unicode="&#xfe;" horiz-adv-x="637"
                d="M423 510q104 0 166 -75t49 -185q-14 -109 -94.5 -184.5t-184.5 -75.5q-93 0 -146 64l-38 -304h-146l123 1000h146l-37 -304q68 64 162 64zM352 118q56 0 99 38.5t50 93.5q3 27 -4.5 52t-22.5 42.5t-38.5 28t-50.5 10.5q-55 0 -98 -39t-50 -94t27 -93.5t88 -38.5z"/>
         <glyph glyph-name="ydieresis" unicode="&#xff;" horiz-adv-x="609"
                d="M266.5 576q-33.5 0 -54.5 24t-17 58t31 58t61 24t55 -24t17 -58t-31.5 -58t-61 -24zM485 576q-33 0 -54.5 24t-17.5 58q2 22 16 41t34 30t42 11q34 0 55 -24t17 -58t-31.5 -58t-60.5 -24zM609 500l-60 -500q-14 -114 -96 -183t-206 -69q-89 0 -155 31l17 139
q63 -50 155 -50q54 0 92.5 34t46.5 98l6 51q-68 -61 -151 -61t-133.5 59t-39.5 144l37 307h146l-35 -289q-3 -26 6.5 -47t29.5 -33.5t46 -12.5q43 0 76 27t38 66l35 289h145z"/>
         <glyph glyph-name="Amacron" unicode="&#x100;" horiz-adv-x="774"
                d="M657 926l-12 -92h-310l12 92h310zM609 0l-36 142h-339l-70 -142h-163l393 750h169l209 -750h-163zM296 266h247l-83 331z"/>
         <glyph glyph-name="amacron" unicode="&#x101;" horiz-adv-x="559"
                d="M532 676l-11 -92h-310l11 92h310zM338 510q103 0 159 -48t44 -144l-39 -318h-123l-1 49q-83 -59 -172 -59q-72 0 -112 41.5t-31 111.5q9 75 79 118.5t182 25.5l70 -11l5 43q5 41 -21 61t-68 20q-73 0 -130 -60l-77 83q47 46 102 66.5t133 20.5zM216 151q-3 -25 12 -39.5
t42 -14.5q51 0 107 45l7 51l-39 8q-65 13 -95.5 -3t-33.5 -47z"/>
         <glyph glyph-name="Abreve" unicode="&#x102;" horiz-adv-x="774"
                d="M486 807q-81 0 -124 44.5t-33 127.5h83q-4 -35 19 -62t65 -27q43 0 73.5 26.5t34.5 62.5h83q-10 -83 -64 -127.5t-137 -44.5zM609 0l-36 142h-339l-70 -142h-163l393 750h169l209 -750h-163zM296 266h247l-83 331z"/>
         <glyph glyph-name="abreve" unicode="&#x103;" horiz-adv-x="559"
                d="M361 557q-81 0 -124 44.5t-32 127.5h83q-3 -17 2 -33t15.5 -28.5t28 -20t38.5 -7.5q43 0 73 26.5t35 62.5h83q-11 -83 -65 -127.5t-137 -44.5zM338 510q103 0 159 -48t44 -144l-39 -318h-123l-1 49q-83 -59 -172 -59q-72 0 -112 41.5t-31 111.5q9 75 79 118.5t182 25.5
l70 -11l5 43q5 41 -21 61t-68 20q-73 0 -130 -60l-77 83q47 46 102 66.5t133 20.5zM216 151q-3 -25 12 -39.5t42 -14.5q51 0 107 45l7 51l-39 8q-65 13 -95.5 -3t-33.5 -47z"/>
         <glyph glyph-name="Aogonek" unicode="&#x104;" horiz-adv-x="774"
                d="M755 -135l39 -64q-74 -67 -169 -60q-57 4 -89.5 32.5t-26.5 82.5q12 95 132 144h-32l-36 142h-339l-70 -142h-163l393 750h169l209 -750q-67 0 -112.5 -42.5t-51.5 -89.5q-3 -25 10.5 -40.5t40.5 -15.5q26 0 53 15t43 38zM296 266h247l-83 331z"/>
         <glyph glyph-name="aogonek" unicode="&#x105;" horiz-adv-x="559"
                d="M485 -135l39 -64q-74 -67 -169 -60q-57 4 -89.5 32.5t-26.5 82.5q4 31 20 57.5t46.5 50t73.5 39.5l-1 46q-83 -59 -172 -59q-72 0 -112 41.5t-31 111.5q9 75 79 118.5t182 25.5l70 -11l5 43q5 41 -21 61t-68 20q-73 0 -130 -60l-77 83q47 46 102 66.5t133 20.5
q103 0 159 -48t44 -144l-39 -318q-35 0 -65.5 -13t-50.5 -32.5t-33 -42.5t-15 -44q-3 -25 10.5 -40.5t40.5 -15.5q26 0 53 15t43 38zM216 151q-3 -25 12 -39.5t42 -14.5q51 0 107 45l7 51l-39 8q-65 13 -95.5 -3t-33.5 -47z"/>
         <glyph glyph-name="Cacute" unicode="&#x106;" horiz-adv-x="625"
                d="M452 833l104 167h146l-140 -167h-110zM403 -10q-107 0 -185 52t-112.5 139.5t-21.5 193.5t69.5 193.5t147 139.5t196.5 52q96 0 168 -49l-20 -168q-62 73 -165 73q-69 0 -124 -32.5t-88 -86.5t-41 -122t11 -122.5t66.5 -87t115.5 -32.5q106 0 183 74l-20 -168
q-87 -49 -180 -49z"/>
         <glyph glyph-name="cacute" unicode="&#x107;" horiz-adv-x="434"
                d="M285 583l103 167h146l-139 -167h-110zM274 -10q-110 0 -168 73t-44 187q7 56 30 104t59 82.5t84 54t103 19.5q72 0 120 -26l-16 -135q-14 18 -40 28.5t-56 10.5q-57 0 -95 -38.5t-45 -99.5q-8 -60 21 -99t85 -39q65 0 106 39l-17 -133q-49 -28 -127 -28z"/>
         <glyph glyph-name="Cdotaccent" unicode="&#x10a;" horiz-adv-x="625"
                d="M505.5 826q-33.5 0 -55 24t-17 58t31.5 58t60.5 24t55 -24t17 -58t-31.5 -58t-60.5 -24zM403 -10q-107 0 -185 52t-112.5 139.5t-21.5 193.5t69.5 193.5t147 139.5t196.5 52q96 0 168 -49l-20 -168q-62 73 -165 73q-69 0 -124 -32.5t-88 -86.5t-41 -122t11 -122.5
t66.5 -87t115.5 -32.5q106 0 183 74l-20 -168q-87 -49 -180 -49z"/>
         <glyph glyph-name="cdotaccent" unicode="&#x10b;" horiz-adv-x="434"
                d="M337.5 576q-33.5 0 -54.5 24t-17 58t31 58t61 24t55 -24t17 -58t-31.5 -58t-61 -24zM274 -10q-110 0 -168 73t-44 187q7 56 30 104t59 82.5t84 54t103 19.5q72 0 120 -26l-16 -135q-14 18 -40 28.5t-56 10.5q-57 0 -95 -38.5t-45 -99.5q-8 -60 21 -99t85 -39q65 0 106 39
l-17 -133q-49 -28 -127 -28z"/>
         <glyph glyph-name="Ccaron" unicode="&#x10c;" horiz-adv-x="625"
                d="M430 829l-84 171h106l62 -108l89 108h106l-128 -171h-151zM403 -10q-107 0 -185 52t-112.5 139.5t-21.5 193.5t69.5 193.5t147 139.5t196.5 52q96 0 168 -49l-20 -168q-62 73 -165 73q-69 0 -124 -32.5t-88 -86.5t-41 -122t11 -122.5t66.5 -87t115.5 -32.5q106 0 183 74
l-20 -168q-87 -49 -180 -49z"/>
         <glyph glyph-name="ccaron" unicode="&#x10d;" horiz-adv-x="434"
                d="M261 579l-84 171h106l62 -108l89 108h106l-128 -171h-151zM274 -10q-110 0 -168 73t-44 187q7 56 30 104t59 82.5t84 54t103 19.5q72 0 120 -26l-16 -135q-14 18 -40 28.5t-56 10.5q-57 0 -95 -38.5t-45 -99.5q-8 -60 21 -99t85 -39q65 0 106 39l-17 -133
q-49 -28 -127 -28z"/>
         <glyph glyph-name="Dcaron" unicode="&#x10e;" horiz-adv-x="712"
                d="M325 829l-84 171h106l62 -108l89 108h106l-128 -171h-151zM60 0l92 750h240q102 0 182 -50t120 -136.5t27.5 -188.5t-73.5 -188.5t-153.5 -136.5t-194.5 -50h-240zM226 132h89q95 0 169.5 70.5t86.5 172.5q13 103 -44 173.5t-152 70.5h-89z"/>
         <glyph glyph-name="dcaron" unicode="&#x10f;" horiz-adv-x="794"
                d="M808 759q30 0 48.5 -17t24 -43.5t1.5 -60.5q-6 -48 -29.5 -94.5t-64.5 -80t-88 -33.5l8 65q31 0 53 26.5t29 53.5q4 20 -3 20q-34 0 -54.5 24t-16.5 58q3 23 16 41.5t33.5 29.5t42.5 11zM455 456l36 294h144l-92 -750l-129 -1l-2 52q-65 -61 -150 -61q-102 0 -158 74.5
t-42.5 185.5t88 185.5t176.5 74.5q80 0 129 -54zM306 118q36 0 67.5 21.5t49.5 57.5l13 106q-9 36 -35.5 58t-61.5 22q-52 0 -89 -38t-44 -95q-5 -37 5.5 -67t35.5 -47.5t59 -17.5z"/>
         <glyph glyph-name="Dcroat" unicode="&#x110;" horiz-adv-x="712"
                d="M392 750q102 0 182 -50t120 -136.5t27.5 -188.5t-73.5 -188.5t-153.5 -136.5t-194.5 -50h-240l41 334h-73l10 82h73l41 334h240zM315 132q95 0 169.5 70.5t86.5 172.5q13 103 -44 173.5t-152 70.5h-89l-25 -203h117l-10 -82h-117l-25 -202h89z"/>
         <glyph glyph-name="dcroat" unicode="&#x111;" horiz-adv-x="603"
                d="M695 656l-11 -82h-71l-70 -574l-129 -1l-2 52q-65 -61 -150 -61q-102 0 -158 74.5t-42.5 185.5t88 185.5t176.5 74.5q80 0 129 -54l14 118h-124l11 82h124l11 94h144l-11 -94h71zM306 118q36 0 67.5 21.5t49.5 57.5l13 106q-9 36 -35.5 58t-61.5 22q-52 0 -89 -38
t-44 -95q-5 -37 5.5 -67t35.5 -47.5t59 -17.5z"/>
         <glyph glyph-name="Emacron" unicode="&#x112;" horiz-adv-x="540"
                d="M552 926l-12 -92h-310l12 92h310zM581 619h-294l-22 -178h252l-16 -132h-252l-22 -177h294l-16 -132h-445l92 750h445z"/>
         <glyph glyph-name="emacron" unicode="&#x113;" horiz-adv-x="548"
                d="M523 677l-11 -92h-310l11 92h310zM549 251q-3 -21 -8 -43h-339q-1 -106 97 -106q37 0 65 15.5t59 53.5l97 -51q-36 -61 -97 -95.5t-135 -34.5q-127 0 -184 71.5t-42 188.5q9 74 45.5 133t99 93.5t140.5 34.5q108 0 162 -70.5t40 -189.5zM331 397q-83 0 -114 -91h201
q-5 91 -87 91z"/>
         <glyph glyph-name="Edotaccent" unicode="&#x116;" horiz-adv-x="540"
                d="M384.5 826q-33.5 0 -55 24t-17.5 58q3 22 16.5 41t33.5 30t43 11q33 0 54.5 -24t17 -58t-31.5 -58t-60.5 -24zM581 619h-294l-22 -178h252l-16 -132h-252l-22 -177h294l-16 -132h-445l92 750h445z"/>
         <glyph glyph-name="edotaccent" unicode="&#x117;" horiz-adv-x="548"
                d="M356 577q-34 0 -55 24t-17 58t31 58t61 24t55 -24t17 -58t-31 -58t-61 -24zM549 251q-3 -20 -8 -43h-339q-1 -106 97 -106q37 0 65 15.5t59 53.5l97 -51q-36 -61 -97 -95.5t-135 -34.5q-127 0 -184 71.5t-42 188.5q9 74 45.5 133t99 93.5t140.5 34.5q108 0 162 -70.5
t40 -189.5zM331 397q-83 0 -114 -91h201q-5 91 -87 91z"/>
         <glyph glyph-name="Eogonek" unicode="&#x118;" horiz-adv-x="540"
                d="M488 -135l39 -64q-74 -67 -169 -60q-57 4 -89.5 32.5t-26.5 82.5q12 95 132 144h-314l92 750h445l-16 -131h-294l-22 -178h252l-16 -132h-252l-22 -177h294l-16 -132q-35 0 -65.5 -13t-50.5 -32.5t-33 -42.5t-15 -44q-3 -25 10.5 -40.5t40.5 -15.5q26 0 53 15t43 38z"/>
         <glyph glyph-name="eogonek" unicode="&#x119;" horiz-adv-x="548"
                d="M549 251q-3 -21 -8 -43h-339q-1 -106 97 -106q37 0 65 15.5t59 53.5l97 -51q-32 -53 -83.5 -87t-114.5 -41q-29 -34 -34 -71q-3 -25 11 -40.5t40 -15.5t53 15t44 38l38 -64q-73 -67 -168 -60q-58 4 -90.5 32.5t-25.5 82.5q6 48 40 85q-97 16 -139 84.5t-29 171.5
q9 74 45.5 133t99 93.5t140.5 34.5q108 0 162 -70.5t40 -189.5zM331 397q-83 0 -114 -91h201q-5 91 -87 91z"/>
         <glyph glyph-name="Ecaron" unicode="&#x11a;" horiz-adv-x="540"
                d="M459 829h-151l-84 171h106l62 -108l89 108h106zM581 619h-294l-22 -178h252l-16 -132h-252l-22 -177h294l-16 -132h-445l92 750h445z"/>
         <glyph glyph-name="ecaron" unicode="&#x11b;" horiz-adv-x="548"
                d="M430 580h-151l-84 171h106l62 -108l89 108h106zM549 251q-3 -20 -8 -43h-339q-1 -106 97 -106q37 0 65 15.5t59 53.5l97 -51q-36 -61 -97 -95.5t-135 -34.5q-127 0 -184 71.5t-42 188.5q9 74 45.5 133t99 93.5t140.5 34.5q108 0 162 -70.5t40 -189.5zM331 397
q-83 0 -114 -91h201q-5 91 -87 91z"/>
         <glyph glyph-name="Gbreve" unicode="&#x11e;" horiz-adv-x="737"
                d="M533 807q-81 0 -124 44.5t-33 127.5h83q-4 -35 19 -62t65 -27q43 0 73.5 26.5t34.5 62.5h83q-10 -83 -64 -127.5t-137 -44.5zM530 621q-114 0 -194 -67t-94 -183q-14 -112 48.5 -178.5t169.5 -66.5q50 0 98 14l19 157h-143l16 129h279l-46 -376q-121 -69 -234 -69
q-177 0 -274.5 107.5t-75.5 282.5q14 114 77 203.5t156.5 137.5t199.5 48q140 0 230 -69l-21 -172q-80 102 -211 102z"/>
         <glyph glyph-name="gbreve" unicode="&#x11f;" horiz-adv-x="604"
                d="M354 557q-81 0 -124 44.5t-32 127.5h83q-5 -35 18.5 -62t65.5 -27q43 0 73 26.5t35 62.5h83q-11 -83 -65 -127.5t-137 -44.5zM475 500h130l-61 -498q-14 -114 -93 -183t-195 -69q-78 0 -141 30l17 139q59 -49 140 -49q48 0 83.5 34t43.5 98l5 42q-62 -54 -142 -54
q-102 0 -158 74.5t-42.5 185.5t88 185.5t176.5 74.5q86 0 136 -62zM306 118q36 0 67.5 21.5t49.5 57.5l13 106q-9 36 -35.5 58t-61.5 22q-52 0 -89 -38t-44 -95q-5 -37 5.5 -67t35.5 -47.5t59 -17.5z"/>
         <glyph glyph-name="Gdotaccent" unicode="&#x120;" horiz-adv-x="737"
                d="M536.5 826q-33.5 0 -55 24t-17 58t31.5 58t60.5 24t55 -24t17 -58t-31.5 -58t-60.5 -24zM530 621q-114 0 -194 -67t-94 -183q-14 -112 48.5 -178.5t169.5 -66.5q50 0 98 14l19 157h-143l16 129h279l-46 -376q-121 -69 -234 -69q-177 0 -274.5 107.5t-75.5 282.5
q14 114 77 203.5t156.5 137.5t199.5 48q140 0 230 -69l-21 -172q-80 102 -211 102z"/>
         <glyph glyph-name="gdotaccent" unicode="&#x121;" horiz-adv-x="604"
                d="M357.5 576q-33.5 0 -54.5 24t-17 58t31 58t61 24t55 -24t17 -58t-31.5 -58t-61 -24zM475 500h130l-61 -498q-14 -114 -93 -183t-195 -69q-78 0 -141 30l17 139q59 -49 140 -49q48 0 83.5 34t43.5 98l5 42q-62 -54 -142 -54q-102 0 -158 74.5t-42.5 185.5t88 185.5
t176.5 74.5q86 0 136 -62zM306 118q36 0 67.5 21.5t49.5 57.5l13 106q-9 36 -35.5 58t-61.5 22q-52 0 -89 -38t-44 -95q-5 -37 5.5 -67t35.5 -47.5t59 -17.5z"/>
         <glyph glyph-name="Gcommaaccent" unicode="&#x122;" horiz-adv-x="737"
                d="M530 621q-114 0 -194 -67t-94 -183q-14 -112 48.5 -178.5t169.5 -66.5q50 0 98 14l19 157h-143l16 129h279l-46 -376q-121 -69 -234 -69q-177 0 -274.5 107.5t-75.5 282.5q14 114 77 203.5t156.5 137.5t199.5 48q140 0 230 -69l-21 -172q-80 102 -211 102zM416 -41
q36 0 56.5 -25.5t15.5 -65.5q-13 -95 -62 -155.5t-114 -56.5l6 49q29 0 51.5 23.5t25.5 43.5t0 23q-35 0 -55.5 23t-15.5 59q4 35 30 58.5t62 23.5z"/>
         <glyph glyph-name="gcommaaccent" unicode="&#x123;" horiz-adv-x="604"
                d="M355.5 556q-34.5 0 -55 27t-15.5 65q5 44 26 84.5t48.5 66.5t54.5 42t46 18l-5 -47q-46 -15 -74 -65q-13 -25 -5 -26q34 0 55 -24t16.5 -58.5t-31 -58.5t-61 -24zM475 500h130l-61 -498q-14 -114 -93 -183t-195 -69q-78 0 -141 30l17 139q59 -49 140 -49q48 0 83.5 34
t43.5 98l5 42q-62 -54 -142 -54q-102 0 -158 74.5t-42.5 185.5t88 185.5t176.5 74.5q86 0 136 -62zM306 118q36 0 67.5 21.5t49.5 57.5l13 106q-9 36 -35.5 58t-61.5 22q-52 0 -89 -38t-44 -95q-5 -37 5.5 -67t35.5 -47.5t59 -17.5z"/>
         <glyph glyph-name="Hbar" unicode="&#x126;" horiz-adv-x="744"
                d="M819 618l-7 -56h-59l-69 -562h-151l38 309h-322l-38 -309h-151l69 562h-59l7 56h59l16 132h151l-16 -132h322l16 132h151l-16 -132h59zM587 442l15 120h-322l-15 -120h322z"/>
         <glyph glyph-name="hbar" unicode="&#x127;" horiz-adv-x="605"
                d="M414 510q88 0 135.5 -53t36.5 -141l-39 -316h-146l37 298q4 38 -19 61.5t-64 23.5q-43 0 -76 -27t-37 -66l-36 -290h-146l71 580h-59l10 82h59l11 88h146l-11 -88h134l-10 -82h-134l-16 -131q67 61 153 61z"/>
         <glyph glyph-name="Itilde" unicode="&#x128;" horiz-adv-x="271"
                d="M300 817q-60 0 -94 58q-9 19 -24 19q-18 0 -25.5 -19.5t-1.5 -49.5h-86q-6 65 29.5 108.5t89.5 43.5q63 0 95 -58q8 -19 25 -19q18 0 25.5 19t0.5 49h85q4 -42 -10 -77t-42.5 -54.5t-66.5 -19.5zM60 0l92 750h151l-92 -750h-151z"/>
         <glyph glyph-name="itilde" unicode="&#x129;" horiz-adv-x="266"
                d="M268 567q-60 0 -94 58q-10 19 -25 19q-17 0 -25 -19.5t-1 -49.5h-86q-6 65 29 108.5t89 43.5q64 0 95 -58q8 -19 25 -19q18 0 25.5 19t0.5 49h85q5 -42 -9 -77t-43 -54.5t-66 -19.5zM60 0l61 500h146l-61 -500h-146z"/>
         <glyph glyph-name="Imacron" unicode="&#x12a;" horiz-adv-x="271"
                d="M81 834l12 92h311l-12 -92h-311zM60 0l92 750h151l-92 -750h-151z"/>
         <glyph glyph-name="imacron" unicode="&#x12b;" horiz-adv-x="266"
                d="M49 584l11 92h311l-11 -92h-311zM60 0l61 500h146l-61 -500h-146z"/>
         <glyph glyph-name="Iogonek" unicode="&#x12e;" horiz-adv-x="271"
                d="M177 -135l39 -64q-74 -67 -169 -60q-58 4 -90.5 32.5t-26.5 82.5q12 95 133 144h-3l92 750h151l-92 -750h-17q-67 0 -112.5 -42.5t-51.5 -89.5q-3 -25 10.5 -40.5t40.5 -15.5q26 0 53 15t43 38z"/>
         <glyph glyph-name="iogonek" unicode="&#x12f;" horiz-adv-x="266"
                d="M203.5 576q-33.5 0 -54.5 24t-17 58t31 58t61 24t55 -24t17 -58t-31.5 -58t-61 -24zM175 -135l39 -64q-74 -67 -169 -60q-58 4 -90.5 32.5t-26.5 82.5q12 95 133 144h-1l61 500h146l-61 -500h-14q-67 0 -112.5 -42.5t-51.5 -89.5q-3 -25 10.5 -40.5t40.5 -15.5
q26 0 53 15t43 38z"/>
         <glyph glyph-name="Idotaccent" unicode="&#x130;" horiz-adv-x="271"
                d="M236.5 826q-33.5 0 -55 24t-17 58t31.5 58t60.5 24t55 -24t17 -58t-31.5 -58t-60.5 -24zM60 0l92 750h151l-92 -750h-151z"/>
         <glyph glyph-name="dotlessi" unicode="&#x131;" horiz-adv-x="266"
                d="M60 0l61 500h146l-61 -500h-146z"/>
         <glyph glyph-name="IJ" unicode="&#x132;" horiz-adv-x="644"
                d="M60 0l92 750h151l-92 -750h-151zM386 -10q-52 0 -79 10l19 153q31 -12 68 -12q22 0 40 16t21 38l68 555h150l-70 -570q-10 -85 -71 -137.5t-146 -52.5z"/>
         <glyph glyph-name="ij" unicode="&#x133;" horiz-adv-x="565"
                d="M510 586q-34 0 -55.5 24t-17.5 58t31.5 58t61.5 24q33 0 54.5 -24t17.5 -58q-3 -22 -16.5 -41t-33.5 -30t-42 -11zM216 586q-33 0 -54.5 24t-17.5 58t31.5 58t60.5 24q34 0 55.5 -24t17.5 -58t-31.5 -58t-61.5 -24zM71 0l61 500h146l-61 -500h-146zM289 -260
q-50 0 -71 16l15 122q22 -19 53 -19q26 0 46.5 20t23.5 51l70 570h146l-71 -580q-9 -76 -70.5 -128t-141.5 -52z"/>
         <glyph glyph-name="Kcommaaccent" unicode="&#x136;" horiz-adv-x="702"
                d="M769 750l-351 -327l260 -271l-25 -202l-396 425l-46 -375h-151l92 750h151l-36 -293l309 293h193zM345 -41q36 0 56.5 -25.5t15.5 -65.5q-13 -95 -62 -155.5t-114 -56.5l6 49q29 0 51.5 23.5t25.5 43.5t0 23q-35 0 -55.5 23t-15.5 59q4 35 30 58.5t62 23.5z"/>
         <glyph glyph-name="kcommaaccent" unicode="&#x137;" horiz-adv-x="566"
                d="M613 500l-249 -215l192 -191l-23 -181l-300 310l-27 -223h-146l92 750h146l-51 -414l189 164h177zM282 -41q36 0 56.5 -25.5t15.5 -65.5q-13 -95 -62 -155.5t-114 -56.5l6 49q29 0 51.5 23.5t25.5 43.5t0 23q-35 0 -55.5 23t-15.5 59q4 35 30 58.5t62 23.5z"/>
         <glyph glyph-name="Lacute" unicode="&#x139;" horiz-adv-x="496"
                d="M184 833l104 167h146l-140 -167h-110zM60 0l92 750h151l-76 -618h253l-16 -132h-404z"/>
         <glyph glyph-name="lacute" unicode="&#x13a;" horiz-adv-x="363"
                d="M174 833l104 167h146l-140 -167h-110zM263 -10q-99 0 -143 49.5t-34 135.5l71 575h146l-71 -576q-3 -30 9 -45.5t36 -15.5q28 0 47 18l57 -104q-47 -37 -118 -37z"/>
         <glyph glyph-name="Lcommaaccent" unicode="&#x13b;" horiz-adv-x="496"
                d="M60 0l92 750h151l-76 -618h253l-16 -132h-404zM154 -344l6 49q29 0 51.5 23.5t25.5 43.5t0 23q-35 0 -55.5 23t-15.5 59q4 35 30 58.5t62 23.5t56.5 -25.5t15.5 -65.5q-13 -95 -62 -155.5t-114 -56.5z"/>
         <glyph glyph-name="lcommaaccent" unicode="&#x13c;" horiz-adv-x="363"
                d="M263 -10q-99 0 -143 49.5t-34 135.5l71 575h146l-71 -576q-3 -30 9 -45.5t36 -15.5q28 0 47 18l57 -104q-47 -37 -118 -37zM126 -344l6 49q29 0 51.5 23.5t25.5 43.5t0 23q-35 0 -55.5 23t-15.5 59q4 35 30 58.5t62 23.5t56.5 -25.5t15.5 -65.5q-13 -95 -62 -155.5
t-114 -56.5z"/>
         <glyph glyph-name="Lcaron" unicode="&#x13d;" horiz-adv-x="508"
                d="M380 430l8 65q31 0 53 26.5t29 53.5q4 20 -3 20q-34 0 -54.5 24t-16.5 58q3 23 16 41.5t33.5 29.5t42.5 11q44 0 62.5 -34.5t11.5 -86.5q-6 -48 -29.5 -94.5t-64.5 -80t-88 -33.5zM60 0l92 750h151l-76 -618h253l-16 -132h-404z"/>
         <glyph glyph-name="lcaron" unicode="&#x13e;" horiz-adv-x="432"
                d="M344 430l8 65q31 0 53 26.5t28 53.5q5 20 -3 20q-34 0 -54.5 24t-16.5 58t31 58t61 24q44 0 62.5 -34.5t11.5 -86.5q-6 -48 -29.5 -94.5t-64 -80t-87.5 -33.5zM263 -10q-99 0 -143 49.5t-34 135.5l71 575h146l-71 -576q-3 -30 9 -45.5t36 -15.5q28 0 47 18l57 -104
q-47 -37 -118 -37z"/>
         <glyph glyph-name="ldot" unicode="&#x140;" horiz-adv-x="363"
                d="M263 -10q-99 0 -143 49.5t-34 135.5l71 575h146l-71 -576q-3 -30 9 -45.5t36 -15.5q28 0 47 18l57 -104q-47 -37 -118 -37zM330.5 300q-24.5 0 -40 17.5t-12.5 42.5t23.5 43t44.5 18t40 -18t13 -43t-23.5 -42.5t-45 -17.5z"/>
         <glyph glyph-name="Lslash" unicode="&#x141;" horiz-adv-x="496"
                d="M227 132h253l-16 -132h-404l31 252l-43 -39h-87l141 131l50 406h151l-30 -248l37 35h90l-139 -128z"/>
         <glyph glyph-name="lslash" unicode="&#x142;" horiz-adv-x="363"
                d="M324 131l57 -104q-47 -37 -118 -37q-99 0 -143 49.5t-34 135.5l11 87l-46 -43h-87l144 134l49 397h146l-30 -244l40 37h90l-141 -130l-30 -239q-3 -30 9 -45.5t36 -15.5q28 0 47 18z"/>
         <glyph glyph-name="Nacute" unicode="&#x143;" horiz-adv-x="808"
                d="M705 1000l-140 -167h-110l104 167h146zM690 750h150l-92 -750h-154l-319 522l-64 -522h-151l92 750h154l320 -521z"/>
         <glyph glyph-name="nacute" unicode="&#x144;" horiz-adv-x="605"
                d="M571 750l-139 -167h-110l103 167h146zM414 510q88 0 135.5 -53t36.5 -141l-39 -316h-146l37 298q4 38 -19 61.5t-64 23.5q-43 0 -76 -27t-37 -66l-36 -290h-146l61 500h131l1 -58q70 68 161 68z"/>
         <glyph glyph-name="Ncommaaccent" unicode="&#x145;" horiz-adv-x="808"
                d="M690 750h150l-92 -750h-154l-319 522l-64 -522h-151l92 750h154l320 -521zM398 -41q36 0 56.5 -25.5t15.5 -65.5q-13 -95 -62 -155.5t-114 -56.5l6 49q29 0 51.5 23.5t25.5 43.5t0 23q-35 0 -55.5 23t-15.5 59q4 35 30 58.5t62 23.5z"/>
         <glyph glyph-name="ncommaaccent" unicode="&#x146;" horiz-adv-x="605"
                d="M414 510q88 0 135.5 -53t36.5 -141l-39 -316h-146l37 298q4 38 -19 61.5t-64 23.5q-43 0 -76 -27t-37 -66l-36 -290h-146l61 500h131l1 -58q70 68 161 68zM299 -41q36 0 56.5 -25.5t15.5 -65.5q-13 -95 -62 -155.5t-114 -56.5l6 49q29 0 51.5 23.5t25.5 43.5t0 23
q-35 0 -55.5 23t-15.5 59q4 35 30 58.5t62 23.5z"/>
         <glyph glyph-name="Ncaron" unicode="&#x147;" horiz-adv-x="808"
                d="M583 829h-151l-84 171h106l62 -108l89 108h106zM690 750h150l-92 -750h-154l-319 522l-64 -522h-151l92 750h154l320 -521z"/>
         <glyph glyph-name="ncaron" unicode="&#x148;" horiz-adv-x="605"
                d="M450 579h-151l-84 171h106l62 -108l89 108h106zM414 510q88 0 135.5 -53t36.5 -141l-39 -316h-146l37 298q4 38 -19 61.5t-64 23.5q-43 0 -76 -27t-37 -66l-36 -290h-146l61 500h131l1 -58q70 68 161 68z"/>
         <glyph glyph-name="Eng" unicode="&#x14a;" horiz-adv-x="830"
                d="M703 750h145l-98 -801q-12 -94 -79 -137.5t-170 -43.5l11 96q39 0 60 16t28 69l6 55l-324 510l-63 -514h-145l92 750h149l325 -513z"/>
         <glyph glyph-name="eng" unicode="&#x14b;" horiz-adv-x="624"
                d="M426 510q83 0 133 -58.5t40 -143.5l-45 -369q-12 -94 -80 -137.5t-171 -43.5l12 96q19 0 32 2.5t26.5 10.5t22 26t12.5 46l43 351q4 39 -19.5 66t-62.5 27q-43 0 -76.5 -27t-37.5 -66l-36 -290h-145l61 500h145l-6 -56q67 66 152 66z"/>
         <glyph glyph-name="Omacron" unicode="&#x14c;" horiz-adv-x="807"
                d="M351 834l12 92h310l-12 -92h-310zM403 -10q-107 0 -185 52t-112.5 139.5t-21.5 193.5t69.5 193.5t147 139.5t196.5 52t184 -52t113 -139.5t22 -193.5t-69.5 -193.5t-147 -139.5t-196.5 -52zM420.5 136q102.5 0 169.5 67.5t80 171.5q13 105 -37.5 172.5t-153 67.5
t-170.5 -67.5t-81 -172.5q-13 -104 38.5 -171.5t154 -67.5z"/>
         <glyph glyph-name="omacron" unicode="&#x14d;" horiz-adv-x="583"
                d="M209 584l11 92h310l-11 -92h-310zM291 -10q-113 0 -178 75t-51 185q13 110 96.5 185t196.5 75q112 0 177 -75t52 -185q-14 -110 -97.5 -185t-195.5 -75zM306 118q52 0 89.5 38t44.5 94t-21.5 94.5t-79.5 38.5q-52 0 -89 -38t-44 -95q-5 -37 5.5 -67t35.5 -47.5t59 -17.5z
"/>
         <glyph glyph-name="Ohungarumlaut" unicode="&#x150;" horiz-adv-x="807"
                d="M350 822l162 178h136l-197 -178h-101zM558 822l161 178h137l-197 -178h-101zM403 -10q-107 0 -185 52t-112.5 139.5t-21.5 193.5t69.5 193.5t147 139.5t196.5 52t184 -52t113 -139.5t22 -193.5t-69.5 -193.5t-147 -139.5t-196.5 -52zM420.5 136q102.5 0 169.5 67.5
t80 171.5q13 105 -37.5 172.5t-153 67.5t-170.5 -67.5t-81 -172.5q-13 -104 38.5 -171.5t154 -67.5z"/>
         <glyph glyph-name="ohungarumlaut" unicode="&#x151;" horiz-adv-x="583"
                d="M207 572l162 178h136l-197 -178h-101zM415 572l161 178h137l-197 -178h-101zM291 -10q-113 0 -178 75t-51 185q13 110 96.5 185t196.5 75q112 0 177 -75t52 -185q-14 -110 -97.5 -185t-195.5 -75zM306 118q52 0 89.5 38t44.5 94t-21.5 94.5t-79.5 38.5q-52 0 -89 -38
t-44 -95q-5 -37 5.5 -67t35.5 -47.5t59 -17.5z"/>
         <glyph glyph-name="OE" unicode="&#x152;" horiz-adv-x="1195"
                d="M1198 623h-298l-22 -184h255l-16 -128h-255l-22 -184h297l-16 -127h-419l12 94q-124 -104 -276 -104q-105 0 -187.5 51.5t-123 140t-27.5 193.5t75.5 193.5t157.5 140t199 51.5q153 0 251 -104l11 94h419zM456 135q100 0 178.5 69.5t90.5 170.5t-49 170.5t-161.5 69.5
t-179 -70t-90.5 -170q-8 -66 17 -121t76.5 -87t117.5 -32z"/>
         <glyph glyph-name="oe" unicode="&#x153;" horiz-adv-x="927"
                d="M928 251q-3 -21 -8 -43h-339q1 -106 97 -106q18 0 33.5 3.5t31 11.5t29.5 21t30 33l97 -51q-36 -61 -97 -95.5t-135 -34.5q-124 0 -184 72q-83 -72 -192 -72q-113 0 -178 75t-51 185q13 110 96.5 185t196.5 75q111 0 176 -74q77 75 195 75q108 0 162 -70.5t40 -189.5z
M710 397q-83 0 -114 -91h201q-5 91 -87 91zM306 118q52 0 89.5 38t44.5 94t-21.5 94.5t-79.5 38.5q-52 0 -89 -38t-44 -95q-5 -37 5.5 -67t35.5 -47.5t59 -17.5z"/>
         <glyph glyph-name="Racute" unicode="&#x154;" horiz-adv-x="613"
                d="M617 1000l-140 -167h-110l104 167h146zM476 328l142 -328h-169l-125 318h-74l-39 -318h-151l92 750h310q93 0 149.5 -65t45.5 -159q-9 -73 -59 -126.5t-122 -71.5zM417 435q39 0 68.5 26.5t34 65.5t-18.5 65.5t-61 26.5h-153l-23 -184h153z"/>
         <glyph glyph-name="racute" unicode="&#x155;" horiz-adv-x="443"
                d="M494 750l-139 -167h-110l103 167h146zM405 510q42 0 68.5 -10.5t46.5 -32.5l-74 -107q-29 23 -75 23q-47 0 -87 -36.5t-47 -96.5l-31 -250h-146l61 500h131l-1 -77q20 27 44.5 46t52.5 30t57 11z"/>
         <glyph glyph-name="Rcommaaccent" unicode="&#x156;" horiz-adv-x="613"
                d="M476 328l142 -328h-169l-125 318h-74l-39 -318h-151l92 750h310q93 0 149.5 -65t45.5 -159q-9 -73 -59 -126.5t-122 -71.5zM417 435q39 0 68.5 26.5t34 65.5t-18.5 65.5t-61 26.5h-153l-23 -184h153zM314 -41q36 0 56.5 -25.5t15.5 -65.5q-13 -95 -62 -155.5t-114 -56.5
l6 49q29 0 51.5 23.5t25.5 43.5t0 23q-35 0 -55.5 23t-15.5 59q4 35 30 58.5t62 23.5z"/>
         <glyph glyph-name="rcommaaccent" unicode="&#x157;" horiz-adv-x="443"
                d="M405 510q42 0 68.5 -10.5t46.5 -32.5l-74 -107q-29 23 -75 23q-47 0 -87 -36.5t-47 -96.5l-31 -250h-146l61 500h131l-1 -77q20 27 44.5 46t52.5 30t57 11zM129 -41q36 0 56.5 -25.5t15.5 -65.5q-13 -95 -62 -155.5t-114 -56.5l6 49q29 0 51.5 23.5t25.5 43.5t0 23
q-35 0 -55.5 23t-15.5 59q4 35 30 58.5t62 23.5z"/>
         <glyph glyph-name="Rcaron" unicode="&#x158;" horiz-adv-x="613"
                d="M496 829h-151l-84 171h106l62 -108l89 108h106zM476 328l142 -328h-169l-125 318h-74l-39 -318h-151l92 750h310q93 0 149.5 -65t45.5 -159q-9 -73 -59 -126.5t-122 -71.5zM417 435q39 0 68.5 26.5t34 65.5t-18.5 65.5t-61 26.5h-153l-23 -184h153z"/>
         <glyph glyph-name="rcaron" unicode="&#x159;" horiz-adv-x="443"
                d="M373 579h-151l-84 171h106l62 -108l89 108h106zM405 510q42 0 68.5 -10.5t46.5 -32.5l-74 -107q-29 23 -75 23q-47 0 -87 -36.5t-47 -96.5l-31 -250h-146l61 500h131l-1 -77q20 27 44.5 46t52.5 30t57 11z"/>
         <glyph glyph-name="Sacute" unicode="&#x15a;" horiz-adv-x="647"
                d="M384 833l104 167h146l-140 -167h-110zM331 -10q-90 0 -164.5 38t-114.5 101l116 103q27 -49 74.5 -75.5t110.5 -26.5q35 0 62 8t45.5 26.5t22.5 46.5q2 15 -2 28t-9.5 23t-20 21t-24 17.5t-31 16.5t-32 14.5t-36.5 14.5q-36 15 -58 25.5t-51.5 29.5t-45 38.5t-24.5 49
t-5 64.5q11 93 90 150t188 57q86 0 153.5 -29t108.5 -80l-110 -95q-59 78 -163 78q-46 0 -76.5 -20.5t-34.5 -54.5q-2 -15 4.5 -28t16 -22.5t30 -21t34.5 -17.5l42 -18q31 -13 46 -19.5t43 -21t43 -26t34.5 -30.5t28 -38.5t13.5 -46.5t1 -57q-9 -73 -53.5 -124.5t-108.5 -75
t-143 -23.5z"/>
         <glyph glyph-name="sacute" unicode="&#x15b;" horiz-adv-x="498"
                d="M266 583l103 167h146l-139 -167h-110zM268 -10q-71 0 -133.5 16t-98.5 46l77 103q22 -20 63.5 -35.5t79.5 -17.5q35 -2 59.5 8t26.5 31q2 10 -3 18.5t-12.5 14t-22.5 12t-26 10t-32 9.5q-29 9 -46 14.5t-41.5 18.5t-37.5 26.5t-21 35.5t-5 49q6 48 36 84.5t80 56.5
t113 20q52 0 105.5 -13.5t92.5 -40.5l-80 -94q-12 10 -30.5 19t-39.5 15t-39 8q-22 3 -41 0t-33 -12t-16 -23q0 -6 1 -10.5t4.5 -9t7 -8t11 -7.5t13 -6.5t15 -6t16 -5.5t18.5 -6l18 -6q26 -8 44 -15.5t39.5 -20.5t34 -28t19.5 -38.5t3 -51.5q-9 -74 -68 -117t-151 -43z"/>
         <glyph glyph-name="Scedilla" unicode="&#x15e;" horiz-adv-x="647"
                d="M636 213q-13 -103 -90 -159.5t-190 -62.5l-35 -51q50 9 81 -17.5t25 -73.5q-5 -46 -40.5 -77.5t-81.5 -31.5q-37 0 -68.5 21.5t-39.5 52.5l66 22q6 -13 20.5 -22t29.5 -9q12 0 22.5 6t17 16t7.5 22q4 28 -18.5 36.5t-59.5 -7.5l-48 30l56 84q-77 8 -140 44.5t-98 92.5
l116 103q27 -49 74.5 -75.5t110.5 -26.5q35 0 62 8t45.5 26.5t22.5 46.5q2 15 -2 28t-9.5 23t-20 21t-24 17.5t-31 16.5t-32 14.5t-36.5 14.5q-36 15 -58 25.5t-51.5 29.5t-45 38.5t-24.5 49t-5 64.5q11 93 90 150t188 57q86 0 153.5 -29t108.5 -80l-110 -95q-59 78 -163 78
q-46 0 -76.5 -20.5t-34.5 -54.5q-2 -15 4.5 -28t16 -22.5t30 -21t34.5 -17.5l42 -18q31 -13 46 -19.5t43 -21t43 -26t34.5 -30.5t28 -38.5t13.5 -46.5t1 -57z"/>
         <glyph glyph-name="scedilla" unicode="&#x15f;" horiz-adv-x="498"
                d="M487 150q-8 -69 -61 -111.5t-136 -47.5l-35 -51q50 9 81 -17.5t25 -73.5q-5 -46 -40.5 -77.5t-81.5 -31.5q-37 0 -68.5 21.5t-39.5 52.5l66 22q6 -13 20.5 -22t29.5 -9q18 0 31.5 13t15.5 31q4 28 -18.5 36.5t-59.5 -7.5l-48 30l55 84q-125 8 -187 60l77 103
q22 -20 63.5 -35.5t79.5 -17.5q35 -2 59.5 8t26.5 31q2 10 -3 18.5t-12.5 14t-22.5 12t-26 10t-32 9.5q-29 9 -46 14.5t-41.5 18.5t-37.5 26.5t-21 35.5t-5 49q6 48 36 84.5t80 56.5t113 20q52 0 105.5 -13.5t92.5 -40.5l-80 -94q-12 10 -30.5 19t-39.5 15t-39 8
q-22 3 -41 0t-33 -12t-16 -23q0 -6 1 -10.5t4.5 -9t7 -8t11 -7.5t13 -6.5t15 -6t16 -5.5t18.5 -6l18 -6q26 -8 44 -15.5t39.5 -20.5t34 -28t19.5 -38.5t3 -51.5z"/>
         <glyph glyph-name="Scaron" unicode="&#x160;" horiz-adv-x="647"
                d="M361 829l-84 171h106l62 -108l89 108h106l-128 -171h-151zM331 -10q-90 0 -164.5 38t-114.5 101l116 103q27 -49 74.5 -75.5t110.5 -26.5q35 0 62 8t45.5 26.5t22.5 46.5q2 15 -2 28t-9.5 23t-20 21t-24 17.5t-31 16.5t-32 14.5t-36.5 14.5q-36 15 -58 25.5t-51.5 29.5
t-45 38.5t-24.5 49t-5 64.5q11 93 90 150t188 57q86 0 153.5 -29t108.5 -80l-110 -95q-59 78 -163 78q-46 0 -76.5 -20.5t-34.5 -54.5q-2 -15 4.5 -28t16 -22.5t30 -21t34.5 -17.5l42 -18q31 -13 46 -19.5t43 -21t43 -26t34.5 -30.5t28 -38.5t13.5 -46.5t1 -57
q-9 -73 -53.5 -124.5t-108.5 -75t-143 -23.5z"/>
         <glyph glyph-name="scaron" unicode="&#x161;" horiz-adv-x="498"
                d="M243 579l-84 171h106l62 -108l89 108h106l-128 -171h-151zM268 -10q-71 0 -133.5 16t-98.5 46l77 103q22 -20 63.5 -35.5t79.5 -17.5q35 -2 59.5 8t26.5 31q2 10 -3 18.5t-12.5 14t-22.5 12t-26 10t-32 9.5q-29 9 -46 14.5t-41.5 18.5t-37.5 26.5t-21 35.5t-5 49
q6 48 36 84.5t80 56.5t113 20q52 0 105.5 -13.5t92.5 -40.5l-80 -94q-12 10 -30.5 19t-39.5 15t-39 8q-22 3 -41 0t-33 -12t-16 -23q0 -6 1 -10.5t4.5 -9t7 -8t11 -7.5t13 -6.5t15 -6t16 -5.5t18.5 -6l18 -6q26 -8 44 -15.5t39.5 -20.5t34 -28t19.5 -38.5t3 -51.5
q-9 -74 -68 -117t-151 -43z"/>
         <glyph glyph-name="uni0162" unicode="&#x162;" horiz-adv-x="580"
                d="M365 0h-41l-41 -60q50 9 81 -17.5t25 -73.5q-5 -46 -40.5 -77.5t-81.5 -31.5q-37 0 -68.5 21.5t-39.5 52.5l66 22q6 -13 20.5 -22t29.5 -9q12 0 22.5 6t17 16t7.5 22q4 28 -18.5 36.5t-59.5 -7.5l-48 30l61 92h-41l76 619h-193l16 131h534l-16 -131h-192z"/>
         <glyph glyph-name="uni0163" unicode="&#x163;" horiz-adv-x="389"
                d="M241 -60q50 9 81 -17.5t25 -73.5q-5 -46 -40.5 -77.5t-81.5 -31.5q-37 0 -68.5 21.5t-39.5 52.5l66 22q6 -13 20.5 -22t29.5 -9q12 0 22.5 6t17 16t7.5 22q4 28 -18.5 36.5t-59.5 -7.5l-48 30l59 89q-64 15 -91.5 61.5t-19.5 116.5l27 216h-60l13 109h60l21 170h146
l-21 -170h125l-13 -109h-125l-27 -217q-3 -30 9 -45.5t36 -15.5q28 0 47 18l57 -104q-47 -37 -118 -37h-4z"/>
         <glyph glyph-name="Tcaron" unicode="&#x164;" horiz-adv-x="580"
                d="M467 829h-151l-84 171h106l62 -108l89 108h106zM649 750l-16 -131h-192l-76 -619h-149l76 619h-193l16 131h534z"/>
         <glyph glyph-name="tcaron" unicode="&#x165;" horiz-adv-x="437"
                d="M447 691q-34 0 -54.5 24t-16.5 58t31 58t61 24q43 0 62 -34.5t12 -86.5q-6 -48 -29.5 -94.5t-64 -80t-87.5 -33.5l8 65q21 0 39.5 14.5t28 32t12.5 33.5q6 20 -2 20zM293 113q28 0 47 18l57 -104q-47 -37 -118 -37q-99 0 -143 49.5t-34 135.5l27 216h-60l13 109h60
l21 170h146l-21 -170h125l-13 -109h-125l-27 -217q-3 -30 9 -45.5t36 -15.5z"/>
         <glyph glyph-name="Tbar" unicode="&#x166;" horiz-adv-x="580"
                d="M633 619h-192l-25 -203h94l-10 -82h-94l-41 -334h-149l41 334h-96l10 82h96l25 203h-193l16 131h534z"/>
         <glyph glyph-name="tbar" unicode="&#x167;" horiz-adv-x="389"
                d="M340 131l57 -104q-47 -37 -118 -37q-99 0 -143 49.5t-34 135.5l5 34h-58l10 82h58l12 100h-60l13 109h60l21 170h146l-21 -170h125l-13 -109h-125l-12 -100h135l-10 -82h-135l-5 -35q-3 -30 9 -45.5t36 -15.5q28 0 47 18z"/>
         <glyph glyph-name="Utilde" unicode="&#x168;" horiz-adv-x="738"
                d="M534 817q-60 0 -94 58q-9 19 -24 19q-18 0 -25.5 -19.5t-1.5 -49.5h-85q-6 65 28.5 108.5t89.5 43.5q63 0 95 -58q8 -19 25 -19q18 0 25.5 19t0.5 49h85q7 -64 -27.5 -107.5t-91.5 -43.5zM368 -10q-129 0 -209 73t-67 179l62 508h151l-59 -481q-8 -61 32.5 -104
t105.5 -43t115.5 43t58.5 104l59 481h151l-62 -508q-13 -106 -111 -179t-227 -73z"/>
         <glyph glyph-name="Umacron" unicode="&#x16a;" horiz-adv-x="738"
                d="M316 834l12 92h310l-12 -92h-310zM368 -10q-129 0 -209 73t-67 179l62 508h151l-59 -481q-8 -61 32.5 -104t105.5 -43t115.5 43t58.5 104l59 481h151l-62 -508q-13 -106 -111 -179t-227 -73z"/>
         <glyph glyph-name="umacron" unicode="&#x16b;" horiz-adv-x="608"
                d="M543 676l-11 -92h-310l11 92h310zM464 500h145l-61 -500h-130l-1 59q-69 -69 -159 -69q-83 0 -133.5 59t-39.5 144l37 307h146l-35 -289q-3 -26 6.5 -47t29.5 -33.5t46 -12.5q43 0 76 27t38 66z"/>
         <glyph glyph-name="Uring" unicode="&#x16e;" horiz-adv-x="738"
                d="M467 802q-48 0 -78.5 34.5t-24.5 83.5q6 47 45 81.5t87 34.5t78 -34.5t24 -81.5q-6 -49 -44.5 -83.5t-86.5 -34.5zM475 862q24 0 42.5 16t21.5 42q3 24 -11.5 41t-38.5 17q-16 0 -29.5 -8t-22.5 -21.5t-11 -28.5q-3 -26 11 -42t38 -16zM368 -10q-129 0 -209 73t-67 179
l62 508h151l-59 -481q-8 -61 32.5 -104t105.5 -43t115.5 43t58.5 104l59 481h151l-62 -508q-13 -106 -111 -179t-227 -73z"/>
         <glyph glyph-name="uring" unicode="&#x16f;" horiz-adv-x="608"
                d="M373 552q-49 0 -79.5 34.5t-24.5 83.5q4 31 23 57.5t48.5 42.5t61.5 16q47 0 77 -34.5t24 -81.5q-6 -49 -44 -83.5t-86 -34.5zM394.5 728q-23.5 0 -42 -17t-21.5 -41q-3 -26 11 -42t38.5 -16t42.5 16t21 42q3 24 -11.5 41t-38 17zM464 500h145l-61 -500h-130l-1 59
q-69 -69 -159 -69q-83 0 -133.5 59t-39.5 144l37 307h146l-35 -289q-3 -26 6.5 -47t29.5 -33.5t46 -12.5q43 0 76 27t38 66z"/>
         <glyph glyph-name="Uhungarumlaut" unicode="&#x170;" horiz-adv-x="738"
                d="M315 822l162 178h136l-197 -178h-101zM523 822l161 178h137l-197 -178h-101zM368 -10q-129 0 -209 73t-67 179l62 508h151l-59 -481q-8 -61 32.5 -104t105.5 -43t115.5 43t58.5 104l59 481h151l-62 -508q-13 -106 -111 -179t-227 -73z"/>
         <glyph glyph-name="uhungarumlaut" unicode="&#x171;" horiz-adv-x="608"
                d="M518 750l-197 -178h-101l162 178h136zM529 572h-101l161 178h137zM429 211l35 289h145l-61 -500h-130l-1 59q-69 -69 -159 -69q-83 0 -133.5 59t-39.5 144l37 307h146l-35 -289q-3 -26 6.5 -47t29.5 -33.5t46 -12.5q43 0 76 27t38 66z"/>
         <glyph glyph-name="Uogonek" unicode="&#x172;" horiz-adv-x="738"
                d="M617 750h151l-62 -508q-13 -100 -101.5 -171.5t-209.5 -79.5q-29 -11 -52 -32t-35.5 -44t-15.5 -45q-3 -25 10.5 -40.5t40.5 -15.5q26 0 53 15t44 38l38 -64q-74 -67 -169 -60q-57 4 -89.5 32.5t-25.5 82.5q10 88 114 137q-105 17 -166.5 85.5t-49.5 161.5l62 508h151
l-59 -481q-8 -61 32.5 -104t105.5 -43t115.5 43t58.5 104z"/>
         <glyph glyph-name="uogonek" unicode="&#x173;" horiz-adv-x="608"
                d="M531 -135l39 -64q-74 -67 -169 -60q-57 4 -89.5 32.5t-26.5 82.5q6 45 39 82.5t93 61.5v59q-69 -69 -159 -69q-83 0 -133.5 59t-39.5 144l37 307h146l-35 -289q-3 -26 6.5 -47t29.5 -33.5t46 -12.5q43 0 76 27t38 66l35 289h145l-61 -500q-67 0 -112.5 -42.5t-51.5 -89.5
q-3 -25 10.5 -40.5t40.5 -15.5q26 0 53 15t43 38z"/>
         <glyph glyph-name="Wcircumflex" unicode="&#x174;" horiz-adv-x="1170"
                d="M700 937l-84 -108h-110l126 171h151l86 -171h-111zM1111 750h162l-409 -750h-164l-81 274l-149 -274h-163l-227 750h163l171 -585l153 281l-90 304h149l170 -586z"/>
         <glyph glyph-name="wcircumflex" unicode="&#x175;" horiz-adv-x="787"
                d="M438 687l-84 -108h-110l126 171h151l86 -171h-111zM677 500h163l-232 -500h-154l-38 181l-82 -181h-154l-111 500h165l52 -339l92 207l-27 132h132l59 -340z"/>
         <glyph glyph-name="Ycircumflex" unicode="&#x176;" horiz-adv-x="678"
                d="M455 937l-84 -108h-110l126 171h151l86 -171h-111zM769 750l-310 -395l-44 -355h-150l43 352l-215 398h168l137 -269l205 269h166z"/>
         <glyph glyph-name="ycircumflex" unicode="&#x177;" horiz-adv-x="609"
                d="M389 687l-84 -108h-110l126 171h151l86 -171h-111zM609 500l-60 -500q-14 -114 -96 -183t-206 -69q-89 0 -155 31l17 139q63 -50 155 -50q54 0 92.5 34t46.5 98l6 51q-68 -61 -151 -61t-133.5 59t-39.5 144l37 307h146l-35 -289q-3 -26 6.5 -47t29.5 -33.5t46 -12.5
q43 0 76 27t38 66l35 289h145z"/>
         <glyph glyph-name="Ydieresis" unicode="&#x178;" horiz-adv-x="678"
                d="M332.5 826q-33.5 0 -55 24t-17.5 58q3 22 16.5 41t33.5 30t43 11q33 0 54.5 -24t17 -58t-31.5 -58t-60.5 -24zM550 826q-33 0 -54.5 24t-17 58t31.5 58t61 24q33 0 54.5 -24t17 -58t-31.5 -58t-61 -24zM769 750l-310 -395l-44 -355h-150l43 352l-215 398h168l137 -269
l205 269h166z"/>
         <glyph glyph-name="Zacute" unicode="&#x179;" horiz-adv-x="639"
                d="M631 1000l-140 -167h-110l104 167h146zM249 132h372l-16 -132h-573l10 81l435 538h-359l16 131h561l-10 -81z"/>
         <glyph glyph-name="zacute" unicode="&#x17a;" horiz-adv-x="523"
                d="M286 583l103 167h146l-139 -167h-110zM43 0l13 107l285 274h-250l14 119h434l-13 -105l-285 -276h254l-15 -119h-437z"/>
         <glyph glyph-name="Zdotaccent" unicode="&#x17b;" horiz-adv-x="639"
                d="M434.5 826q-33.5 0 -55 24t-17 58t31.5 58t60.5 24t55 -24t17 -58t-31.5 -58t-60.5 -24zM249 132h372l-16 -132h-573l10 81l435 538h-359l16 131h561l-10 -81z"/>
         <glyph glyph-name="zdotaccent" unicode="&#x17c;" horiz-adv-x="523"
                d="M338.5 576q-33.5 0 -54.5 24t-17 58t31 58t61 24t55 -24t17 -58t-31.5 -58t-61 -24zM43 0l13 107l285 274h-250l14 119h434l-13 -105l-285 -276h254l-15 -119h-437z"/>
         <glyph glyph-name="Zcaron" unicode="&#x17d;" horiz-adv-x="639"
                d="M509 829h-151l-84 171h106l62 -108l89 108h106zM249 132h372l-16 -132h-573l10 81l435 538h-359l16 131h561l-10 -81z"/>
         <glyph glyph-name="zcaron" unicode="&#x17e;" horiz-adv-x="523"
                d="M263 579l-84 171h106l62 -108l89 108h106l-128 -171h-151zM43 0l13 107l285 274h-250l14 119h434l-13 -105l-285 -276h254l-15 -119h-437z"/>
         <glyph glyph-name="florin" unicode="&#x192;" horiz-adv-x="479"
                d="M478 657q-38 0 -66.5 -24.5t-40.5 -67.5l-19 -65h135l-30 -109h-135l-181 -641h-130l180 641h-83l30 109h84l24 85q21 75 88 125t142 50q25 0 45.5 -5.5t28.5 -12.5l-24 -101q-16 16 -48 16z"/>
         <glyph glyph-name="uni01CD" unicode="&#x1cd;" horiz-adv-x="774"
                d="M564 829h-151l-84 171h106l62 -108l89 108h106zM609 0l-36 142h-339l-70 -142h-163l393 750h169l209 -750h-163zM296 266h247l-83 331z"/>
         <glyph glyph-name="uni01CE" unicode="&#x1ce;" horiz-adv-x="559"
                d="M440 579h-151l-84 171h106l62 -108l89 108h106zM338 510q103 0 159 -48t44 -144l-39 -318h-123l-1 49q-83 -59 -172 -59q-72 0 -112 41.5t-31 111.5q9 75 79 118.5t182 25.5l70 -11l5 43q5 41 -21 61t-68 20q-73 0 -130 -60l-77 83q47 46 102 66.5t133 20.5zM216 151
q-3 -25 12 -39.5t42 -14.5q51 0 107 45l7 51l-39 8q-65 13 -95.5 -3t-33.5 -47z"/>
         <glyph glyph-name="uni01CF" unicode="&#x1cf;" horiz-adv-x="271"
                d="M160 829l-85 171h107l62 -108l89 108h106l-128 -171h-151zM60 0l92 750h151l-92 -750h-151z"/>
         <glyph glyph-name="uni01D0" unicode="&#x1d0;" horiz-adv-x="266"
                d="M128 579l-85 171h107l62 -108l89 108h106l-128 -171h-151zM60 0l61 500h146l-61 -500h-146z"/>
         <glyph glyph-name="uni01D1" unicode="&#x1d1;" horiz-adv-x="807"
                d="M430 829l-84 171h106l62 -108l89 108h106l-128 -171h-151zM403 -10q-107 0 -185 52t-112.5 139.5t-21.5 193.5t69.5 193.5t147 139.5t196.5 52t184 -52t113 -139.5t22 -193.5t-69.5 -193.5t-147 -139.5t-196.5 -52zM420.5 136q102.5 0 169.5 67.5t80 171.5
q13 105 -37.5 172.5t-153 67.5t-170.5 -67.5t-81 -172.5q-13 -104 38.5 -171.5t154 -67.5z"/>
         <glyph glyph-name="uni01D2" unicode="&#x1d2;" horiz-adv-x="583"
                d="M287 579l-84 171h106l62 -108l89 108h106l-128 -171h-151zM291 -10q-113 0 -178 75t-51 185q13 110 96.5 185t196.5 75q112 0 177 -75t52 -185q-14 -110 -97.5 -185t-195.5 -75zM306 118q52 0 89.5 38t44.5 94t-21.5 94.5t-79.5 38.5q-52 0 -89 -38t-44 -95
q-5 -37 5.5 -67t35.5 -47.5t59 -17.5z"/>
         <glyph glyph-name="uni01D3" unicode="&#x1d3;" horiz-adv-x="738"
                d="M395 829l-84 171h106l62 -108l89 108h106l-128 -171h-151zM368 -10q-129 0 -209 73t-67 179l62 508h151l-59 -481q-8 -61 32.5 -104t105.5 -43t115.5 43t58.5 104l59 481h151l-62 -508q-13 -106 -111 -179t-227 -73z"/>
         <glyph glyph-name="uni01D4" unicode="&#x1d4;" horiz-adv-x="608"
                d="M451 579h-151l-84 171h106l62 -108l89 108h106zM464 500h145l-61 -500h-130l-1 59q-69 -69 -159 -69q-83 0 -133.5 59t-39.5 144l37 307h146l-35 -289q-3 -26 6.5 -47t29.5 -33.5t46 -12.5q43 0 76 27t38 66z"/>
         <glyph glyph-name="Gcaron" unicode="&#x1e6;" horiz-adv-x="737"
                d="M612 829h-151l-84 171h106l62 -108l89 108h106zM530 621q-114 0 -194 -67t-94 -183q-14 -112 48.5 -178.5t169.5 -66.5q50 0 98 14l19 157h-143l16 129h279l-46 -376q-121 -69 -234 -69q-177 0 -274.5 107.5t-75.5 282.5q14 114 77 203.5t156.5 137.5t199.5 48
q140 0 230 -69l-21 -172q-80 102 -211 102z"/>
         <glyph glyph-name="gcaron" unicode="&#x1e7;" horiz-adv-x="604"
                d="M433 579h-151l-84 171h106l62 -108l89 108h106zM475 500h130l-61 -498q-14 -114 -93 -183t-195 -69q-78 0 -141 30l17 139q59 -49 140 -49q48 0 83.5 34t43.5 98l5 42q-62 -54 -142 -54q-102 0 -158 74.5t-42.5 185.5t88 185.5t176.5 74.5q86 0 136 -62zM306 118
q36 0 67.5 21.5t49.5 57.5l13 106q-9 36 -35.5 58t-61.5 22q-52 0 -89 -38t-44 -95q-5 -37 5.5 -67t35.5 -47.5t59 -17.5z"/>
         <glyph glyph-name="Oslashacute" unicode="&#x1fe;" horiz-adv-x="807"
                d="M702 1000l-140 -167h-110l104 167h146zM726 671q54 -54 77.5 -131t12.5 -165q-13 -106 -69.5 -193.5t-147 -139.5t-196.5 -52q-101 0 -176 46l-53 -69h-89l88 112q-53 53 -76.5 130t-12.5 166q13 106 69.5 193.5t147 139.5t196.5 52q98 0 175 -46l53 68h89zM228 375
q-13 -107 41 -174l308 392q-43 22 -97 22q-103 0 -171 -67.5t-81 -172.5zM421 136q102 0 169 67.5t80 171.5q13 108 -39 174l-308 -392q40 -21 98 -21z"/>
         <glyph glyph-name="oslashacute" unicode="&#x1ff;" horiz-adv-x="583"
                d="M559 750l-139 -167h-110l103 167h146zM514 454q20 -18 34.5 -40.5t24 -48.5t12 -55t-0.5 -60q-14 -110 -97.5 -185t-195.5 -75q-67 0 -120 28l-41 -52h-62l63 80q-41 36 -59 89t-10 115q13 110 96.5 185t196.5 75q66 0 118 -28l42 52h62zM206 250q-7 -54 16 -88l165 209
q-21 12 -48 12q-52 0 -89 -38t-44 -95zM306 118q52 0 89.5 38t44.5 94q6 50 -17 88l-165 -209q19 -11 48 -11z"/>
         <glyph glyph-name="Scommaaccent" unicode="&#x218;" horiz-adv-x="647"
                d="M331 -10q-90 0 -164.5 38t-114.5 101l116 103q27 -49 74.5 -75.5t110.5 -26.5q35 0 62 8t45.5 26.5t22.5 46.5q2 15 -2 28t-9.5 23t-20 21t-24 17.5t-31 16.5t-32 14.5t-36.5 14.5q-36 15 -58 25.5t-51.5 29.5t-45 38.5t-24.5 49t-5 64.5q11 93 90 150t188 57
q86 0 153.5 -29t108.5 -80l-110 -95q-59 78 -163 78q-46 0 -76.5 -20.5t-34.5 -54.5q-2 -15 4.5 -28t16 -22.5t30 -21t34.5 -17.5l42 -18q31 -13 46 -19.5t43 -21t43 -26t34.5 -30.5t28 -38.5t13.5 -46.5t1 -57q-9 -73 -53.5 -124.5t-108.5 -75t-143 -23.5zM219 -344l6 49
q29 0 51.5 23.5t25.5 43.5t0 23q-35 0 -55.5 23t-15.5 59q4 35 30 58.5t62 23.5t56.5 -25.5t15.5 -65.5q-13 -95 -62 -155.5t-114 -56.5z"/>
         <glyph glyph-name="scommaaccent" unicode="&#x219;" horiz-adv-x="498"
                d="M268 -10q-71 0 -133.5 16t-98.5 46l77 103q22 -20 63.5 -35.5t79.5 -17.5q35 -2 59.5 8t26.5 31q2 10 -3 18.5t-12.5 14t-22.5 12t-26 10t-32 9.5q-29 9 -46 14.5t-41.5 18.5t-37.5 26.5t-21 35.5t-5 49q6 48 36 84.5t80 56.5t113 20q52 0 105.5 -13.5t92.5 -40.5
l-80 -94q-18 15 -49.5 27t-59.5 15q-22 3 -41 0t-33 -12t-16 -23q0 -6 1 -10.5t4.5 -9t7 -8t11 -7.5t13 -6.5t15 -6t16 -5.5t18.5 -6l18 -6q26 -8 44 -15.5t39.5 -20.5t34 -28t19.5 -38.5t3 -51.5q-9 -74 -68 -117t-151 -43zM154 -344l6 49q29 0 51.5 23.5t25.5 43.5t0 23
q-35 0 -55.5 23t-15.5 59q4 35 30 58.5t62 23.5t56.5 -25.5t15.5 -65.5q-13 -95 -62 -155.5t-114 -56.5z"/>
         <glyph glyph-name="uni021A" unicode="&#x21a;" horiz-adv-x="580"
                d="M115 750h534l-16 -131h-192l-76 -619h-149l76 619h-193zM285 -41q36 0 56.5 -25.5t15.5 -65.5q-13 -95 -62 -155.5t-114 -56.5l6 49q29 0 51.5 23.5t25.5 43.5t0 23q-35 0 -55.5 23t-15.5 59q4 35 30 58.5t62 23.5z"/>
         <glyph glyph-name="uni021B" unicode="&#x21b;" horiz-adv-x="389"
                d="M397 27q-47 -37 -118 -37q-99 0 -143 49.5t-34 135.5l27 216h-60l13 109h60l21 170h146l-21 -170h125l-13 -109h-125l-27 -217q-3 -30 9 -45.5t36 -15.5q28 0 47 18zM243 -41q36 0 56.5 -25.5t15.5 -65.5q-13 -95 -62 -155.5t-114 -56.5l6 49q29 0 51.5 23.5t25.5 43.5
t0 23q-35 0 -55.5 23t-15.5 59q4 35 30 58.5t62 23.5z"/>
         <glyph glyph-name="uni0228" unicode="&#x228;" horiz-adv-x="540"
                d="M581 619h-294l-22 -178h252l-16 -132h-252l-22 -177h294l-16 -132h-189l-41 -60q50 9 81 -17.5t25 -73.5q-5 -46 -40.5 -77.5t-81.5 -31.5q-25 0 -48 10t-39 27t-21 37l66 22q6 -13 20.5 -22t29.5 -9q12 0 22.5 6t17 16t7.5 22q4 28 -18.5 36.5t-59.5 -7.5l-48 30l61 92
h-189l92 750h445z"/>
         <glyph glyph-name="uni0229" unicode="&#x229;" horiz-adv-x="548"
                d="M549 251q-3 -21 -8 -43h-339q-1 -106 97 -106q37 0 65 15.5t59 53.5l97 -51q-32 -54 -84.5 -87.5t-116.5 -40.5l-36 -53q50 9 81 -17.5t25 -73.5q-5 -46 -40.5 -77.5t-81.5 -31.5q-25 0 -48 10t-39 27t-21 37l66 22q6 -13 20.5 -22t29.5 -9q12 0 22.5 6t17 16t7.5 22
q4 28 -19 36.5t-59 -7.5l-48 30l56 85q-108 10 -156 79.5t-34 178.5q9 74 45.5 133t99 93.5t140.5 34.5q108 0 162 -70.5t40 -189.5zM331 397q-83 0 -114 -91h201q-5 91 -87 91z"/>
         <glyph glyph-name="uni0237" unicode="&#x237;" horiz-adv-x="302"
                d="M4 -260q-51 0 -72 16l15 122q22 -19 54 -19q26 0 46.5 20t23.5 51l70 570h146l-71 -580q-9 -76 -70.5 -128t-141.5 -52z"/>
         <glyph glyph-name="circumflex" unicode="&#x2c6;" horiz-adv-x="23"
                d="M85 579l126 171h151l86 -171h-111l-58 108l-84 -108h-110z"/>
         <glyph glyph-name="caron" unicode="&#x2c7;" horiz-adv-x="23"
                d="M190 579l-84 171h106l62 -108l89 108h106l-128 -171h-151z"/>
         <glyph glyph-name="breve" unicode="&#x2d8;" horiz-adv-x="23"
                d="M354 557q-81 0 -124 44.5t-32 127.5h83q-5 -35 18.5 -62t65.5 -27q43 0 73 26.5t35 62.5h83q-11 -83 -65 -127.5t-137 -44.5z"/>
         <glyph glyph-name="dotaccent" unicode="&#x2d9;" horiz-adv-x="23"
                d="M226.5 576q-33.5 0 -54.5 24t-17 58t31 58t61 24t55 -24t17 -58t-31.5 -58t-61 -24z"/>
         <glyph glyph-name="ring" unicode="&#x2da;" horiz-adv-x="23"
                d="M158 552q-49 0 -79.5 34.5t-24.5 83.5q6 47 45 81.5t88 34.5q47 0 77 -34.5t24 -81.5q-6 -49 -44 -83.5t-86 -34.5zM165 612q16 0 30 7t23 20.5t11 30.5q2 15 -4 28.5t-18 21.5t-28 8q-23 0 -41.5 -17t-21.5 -41q-3 -26 11 -42t38 -16z"/>
         <glyph glyph-name="ogonek" unicode="&#x2db;" horiz-adv-x="23"
                d="M90 -259q-58 4 -90.5 32.5t-26.5 82.5q7 56 57 99.5t143 65.5l64 -21q-67 0 -112.5 -42.5t-51.5 -89.5q-3 -25 10.5 -40.5t40.5 -15.5q26 0 53 15t43 38l39 -64q-74 -67 -169 -60z"/>
         <glyph glyph-name="tilde" unicode="&#x2dc;" horiz-adv-x="24"
                d="M321 597q-60 0 -94 58q-9 19 -24 19q-18 0 -25.5 -19.5t-1.5 -49.5h-85q-6 65 28.5 108.5t89.5 43.5q63 0 95 -58q8 -19 24 -19q19 0 26.5 19t0.5 49h85q7 -64 -27.5 -107.5t-91.5 -43.5z"/>
         <glyph glyph-name="hungarumlaut" unicode="&#x2dd;" horiz-adv-x="23"
                d="M84 572l162 178h136l-197 -178h-101zM292 572l161 178h137l-197 -178h-101z"/>
         <glyph glyph-name="gravecomb" unicode="&#x300;"
                d="M-51 583l-100 167h146l63 -167h-109z"/>
         <glyph glyph-name="acutecomb" unicode="&#x301;"
                d="M-171 583l103 167h146l-139 -167h-110z"/>
         <glyph glyph-name="uni0302" unicode="&#x302;"
                d="M-305 579l126 171h151l86 -171h-111l-58 108l-84 -108h-110z"/>
         <glyph glyph-name="tildecomb" unicode="&#x303;"
                d="M-45 597q-60 0 -94 58q-9 19 -24 19q-18 0 -25.5 -19.5t-1.5 -49.5h-85q-6 65 28.5 108.5t89.5 43.5q63 0 95 -58q8 -19 24 -19q19 0 26.5 19t0.5 49h85q7 -64 -27.5 -107.5t-91.5 -43.5z"/>
         <glyph glyph-name="uni0304" unicode="&#x304;"
                d="M-251 584l11 92h310l-11 -92h-310z"/>
         <glyph glyph-name="uni0306" unicode="&#x306;"
                d="M-268 557q-81 0 -124 44.5t-32 127.5h83q-5 -35 18.5 -62t65.5 -27q43 0 73 26.5t35 62.5h83q-11 -83 -65 -127.5t-137 -44.5z"/>
         <glyph glyph-name="uni0307" unicode="&#x307;"
                d="M-85.5 576q-33.5 0 -54.5 24t-17 58t31 58t61 24t55 -24t17 -58t-31.5 -58t-61 -24z"/>
         <glyph glyph-name="uni0308" unicode="&#x308;"
                d="M-274.5 576q-33.5 0 -54.5 24t-17 58t31 58t61 24t55 -24t17 -58t-31.5 -58t-61 -24zM-56 576q-33 0 -54.5 24t-17.5 58t31.5 58t60.5 24q34 0 55 -24t17 -58t-31.5 -58t-60.5 -24z"/>
         <glyph glyph-name="uni030A" unicode="&#x30a;"
                d="M-20 552q-49 0 -79.5 34.5t-24.5 83.5q4 31 23 57.5t48.5 42.5t61.5 16q47 0 77 -34.5t24 -81.5q-4 -32 -22.5 -59t-47.5 -43t-60 -16zM-12.5 612q24.5 0 42.5 16t21 42q3 24 -11.5 41t-38 17t-42 -17t-21.5 -41q-3 -26 11 -42t38.5 -16z"/>
         <glyph glyph-name="uni030B" unicode="&#x30b;"
                d="M-428 572l162 178h136l-197 -178h-101zM-220 572l161 178h137l-197 -178h-101z"/>
         <glyph glyph-name="uni030C" unicode="&#x30c;"
                d="M-200 579l-84 171h106l62 -108l89 108h106l-128 -171h-151z"/>
         <glyph glyph-name="uni0312" unicode="&#x312;"
                d="M-39.5 461q-34.5 0 -55 27t-15.5 65q5 44 26.5 84.5t49 66.5t54.5 42t46 18l-6 -47q-26 -9 -47.5 -31.5t-30 -41t-1.5 -18.5q34 0 55 -24t17 -58.5t-31 -58.5t-61.5 -24z"/>
         <glyph glyph-name="dotbelowcomb" unicode="&#x323;"
                d="M-126.5 -250q-33.5 0 -55 24t-17 58t31.5 58t60.5 24t55 -24t17 -58t-31.5 -58t-60.5 -24z"/>
         <glyph glyph-name="uni0326" unicode="&#x326;"
                d="M-181 -149l6 49q29 0 51.5 23.5t25.5 43.5t0 23q-36 0 -56 23t-15.5 59t30.5 59.5t62 23.5t56.5 -26t15.5 -66q-13 -95 -62 -155.5t-114 -56.5z"/>
         <glyph glyph-name="uni0327" unicode="&#x327;"
                d="M-154 -260q-37 0 -68.5 21.5t-39.5 52.5l66 22q6 -13 20.5 -22t29.5 -9q18 0 31.5 13t15.5 31q4 28 -18.5 36.5t-59.5 -7.5l-48 30l61 92h67l-41 -60q50 9 81 -17.5t25 -73.5q-5 -46 -40.5 -77.5t-81.5 -31.5z"/>
         <glyph glyph-name="uni0328" unicode="&#x328;"
                d="M-206 -259q-58 4 -90.5 32.5t-26.5 82.5q7 56 57 99.5t143 65.5l64 -21q-67 0 -112.5 -42.5t-51.5 -89.5q-3 -25 10.5 -40.5t40.5 -15.5q26 0 53 15t43 38l39 -64q-74 -67 -169 -60z"/>
         <glyph glyph-name="uni0335" unicode="&#x335;"
                d="M-467 211l10 82h339l-10 -82h-339z"/>
         <glyph glyph-name="uni0336" unicode="&#x336;"
                d="M-728 232l7 56h742l-7 -56h-742z"/>
         <glyph glyph-name="uni0337" unicode="&#x337;"
                d="M-476 92l348 324h90l-352 -324h-86z"/>
         <glyph glyph-name="uni0338" unicode="&#x338;"
                d="M-636 -32l641 815h89l-640 -815h-90z"/>
         <glyph glyph-name="uni0394" unicode="&#x394;" horiz-adv-x="772"
                d="M27 0l9 76l364 682h164l190 -681l-9 -77h-718zM191 120h412l-94 324q-3 11 -22 87t-23 102h-7q-8 -19 -41 -86t-42 -86z"/>
         <glyph glyph-name="Lambda" unicode="&#x39b;" horiz-adv-x="774"
                d="M772 0h-163l-151 582l-294 -582h-163l393 750h169z"/>
         <glyph glyph-name="Xi" unicode="&#x39e;" horiz-adv-x="590"
                d="M143 619l16 131h448l-16 -131h-448zM165 309l16 132h328l-16 -132h-328zM67 0l16 132h448l-16 -132h-448z"/>
         <glyph glyph-name="uni03A9" unicode="&#x3a9;" horiz-adv-x="853"
                d="M45 0l13 105h136v4q-43 47 -69 125t-15 168q12 98 68 178t146 126.5t197 46.5q84 0 150 -29t105 -78t56.5 -111.5t8.5 -131.5q-10 -87 -55.5 -167t-103.5 -127v-4h139l-13 -105h-315l10 78q74 39 129.5 117t67.5 183q10 74 -8.5 134.5t-65.5 97.5t-117 37
q-102 0 -175.5 -75.5t-88.5 -193.5q-12 -104 25 -185t101 -115l-10 -78h-316z"/>
         <glyph glyph-name="uni03BC" unicode="&#x3bc;" horiz-adv-x="635"
                d="M466 500h146l-61 -500h-146l7 56q-68 -66 -153 -66q-48 0 -88 22l-32 -262h-106l92 750h145l-35 -289q-5 -39 19 -66t63 -27q29 0 53.5 12.5t41 33.5t19.5 47z"/>
         <glyph glyph-name="pi" unicode="&#x3c0;" horiz-adv-x="700"
                d="M65 0q39 87 77.5 219t52.5 227q-83 0 -125 -12l-4 85q51 34 192 34h496l-24 -107h-87l-34 -279q-14 -109 -6 -167h-132q-15 30 0 157l36 289h-178q-17 -103 -56 -240t-76 -206h-132z"/>
         <glyph glyph-name="uni1E04" unicode="&#x1e04;" horiz-adv-x="654"
                d="M526 387q62 -20 94 -66t23 -117q-12 -94 -81 -149t-164 -55h-338l92 750h280q96 0 152 -56t45 -151q-14 -108 -103 -156zM477 528q2 18 -3 35t-15.5 29t-26.5 19.5t-34 7.5h-112l-22 -183h112q37 0 66.5 27.5t34.5 64.5zM392 132q38 0 68 27t34 64q3 24 -6 45t-28.5 33.5
t-44.5 12.5h-166l-23 -182h166zM318 -49q34 0 55 -24t17 -58t-31 -58t-61 -24q-13 0 -25 4t-21.5 12t-15.5 18t-9 22.5t-1 25.5q4 34 31 58t61 24z"/>
         <glyph glyph-name="uni1E05" unicode="&#x1e05;" horiz-adv-x="603"
                d="M404 510q101 0 157 -74.5t42.5 -185.5t-88 -185.5t-175.5 -74.5q-88 0 -138 63l-13 -54l-129 1l92 750h144l-36 -294q62 54 144 54zM326 118q52 0 89.5 38t44.5 94t-21 94.5t-80 38.5q-24 0 -47 -10t-41.5 -28.5t-29.5 -42.5l-13 -104q6 -24 19.5 -42t34 -28t44.5 -10z
M314 -49q34 0 55 -24t17 -58t-31 -58t-61 -24q-13 0 -25 4t-21.5 12t-15.5 18t-9 22.5t-1 25.5q4 34 31 58t61 24z"/>
         <glyph glyph-name="uni1E24" unicode="&#x1e24;" horiz-adv-x="744"
                d="M625 750h151l-92 -750h-151l38 309h-322l-38 -309h-151l92 750h151l-38 -308h322zM367 -49q34 0 55 -24t17 -58t-31 -58t-61 -24q-13 0 -25 4t-21.5 12t-15.5 18t-9 22.5t-1 25.5q4 34 31 58t61 24z"/>
         <glyph glyph-name="uni1E25" unicode="&#x1e25;" horiz-adv-x="605"
                d="M414 510q88 0 135.5 -53t36.5 -141l-39 -316h-146l37 298q4 38 -19 61.5t-64 23.5q-43 0 -76 -27t-37 -66l-36 -290h-146l92 750h146l-37 -301q67 61 153 61zM293 -49q34 0 55 -24t17 -58t-31 -58t-61 -24q-13 0 -25 4t-21.5 12t-15.5 18t-9 22.5t-1 25.5q4 34 31 58
t61 24z"/>
         <glyph glyph-name="uni1E36" unicode="&#x1e36;" horiz-adv-x="496"
                d="M60 0l92 750h151l-76 -618h253l-16 -132h-404zM237 -213q-13 0 -25 4t-21.5 12t-15.5 18t-9 22.5t-1 25.5q4 34 31 58t61 24t55 -24t17 -58t-31 -58t-61 -24z"/>
         <glyph glyph-name="uni1E37" unicode="&#x1e37;" horiz-adv-x="363"
                d="M263 -10q-99 0 -143 49.5t-34 135.5l71 575h146l-71 -576q-3 -30 9 -45.5t36 -15.5q28 0 47 18l57 -104q-47 -37 -118 -37zM209 -213q-13 0 -25 4t-21.5 12t-15.5 18t-9 22.5t-1 25.5q4 34 31 58t61 24t55 -24t17 -58t-31 -58t-61 -24z"/>
         <glyph glyph-name="uni1E44" unicode="&#x1e44;" horiz-adv-x="808"
                d="M508.5 826q-33.5 0 -55 24t-17 58t31.5 58t60.5 24t55 -24t17 -58t-31.5 -58t-60.5 -24zM690 750h150l-92 -750h-154l-319 522l-64 -522h-151l92 750h154l320 -521z"/>
         <glyph glyph-name="uni1E45" unicode="&#x1e45;" horiz-adv-x="605"
                d="M374.5 576q-33.5 0 -54.5 24t-17 58t31 58t61 24t55 -24t17 -58t-31.5 -58t-61 -24zM414 510q88 0 135.5 -53t36.5 -141l-39 -316h-146l37 298q4 38 -19 61.5t-64 23.5q-28 0 -53 -12.5t-41 -33.5t-19 -47l-36 -290h-146l61 500h131l1 -58q70 68 161 68z"/>
         <glyph glyph-name="uni1E46" unicode="&#x1e46;" horiz-adv-x="808"
                d="M690 750h150l-92 -750h-154l-319 522l-64 -522h-151l92 750h154l320 -521zM397 -49q34 0 55 -24t17 -58t-31 -58t-61 -24q-13 0 -25 4t-21.5 12t-15.5 18t-9 22.5t-1 25.5q4 34 31 58t61 24z"/>
         <glyph glyph-name="uni1E47" unicode="&#x1e47;" horiz-adv-x="605"
                d="M414 510q88 0 135.5 -53t36.5 -141l-39 -316h-146l37 298q4 38 -19 61.5t-64 23.5q-43 0 -76 -27t-37 -66l-36 -290h-146l61 500h131l1 -58q70 68 161 68zM298 -49q34 0 55 -24t17 -58t-31 -58t-61 -24q-13 0 -25 4t-21.5 12t-15.5 18t-9 22.5t-1 25.5q4 34 31 58t61 24z
"/>
         <glyph glyph-name="uni1E62" unicode="&#x1e62;" horiz-adv-x="647"
                d="M331 -10q-90 0 -164.5 38t-114.5 101l116 103q27 -49 74.5 -75.5t110.5 -26.5q35 0 62 8t45.5 26.5t22.5 46.5q2 15 -2 28t-9.5 23t-20 21t-24 17.5t-31 16.5t-32 14.5t-36.5 14.5q-36 15 -58 25.5t-51.5 29.5t-45 38.5t-24.5 49t-5 64.5q11 93 90 150t188 57
q86 0 153.5 -29t108.5 -80l-110 -95q-59 78 -163 78q-46 0 -76.5 -20.5t-34.5 -54.5q-2 -15 4.5 -28t16 -22.5t30 -21t34.5 -17.5l42 -18q31 -13 46 -19.5t43 -21t43 -26t34.5 -30.5t28 -38.5t13.5 -46.5t1 -57q-9 -73 -53.5 -124.5t-108.5 -75t-143 -23.5zM302 -213
q-13 0 -25 4t-21.5 12t-15.5 18t-9 22.5t-1 25.5q4 34 31 58t61 24t55 -24t17 -58t-31 -58t-61 -24z"/>
         <glyph glyph-name="uni1E63" unicode="&#x1e63;" horiz-adv-x="498"
                d="M268 -10q-71 0 -133.5 16t-98.5 46l77 103q22 -20 63.5 -35.5t79.5 -17.5q35 -2 59.5 8t26.5 31q2 10 -3 18.5t-12.5 14t-22.5 12t-26 10t-32 9.5q-29 9 -46 14.5t-41.5 18.5t-37.5 26.5t-21 35.5t-5 49q6 48 36 84.5t80 56.5t113 20q52 0 105.5 -13.5t92.5 -40.5
l-80 -94q-18 15 -49.5 27t-59.5 15q-22 3 -41 0t-33 -12t-16 -23q0 -6 1 -10.5t4.5 -9t7 -8t11 -7.5t13 -6.5t15 -6t16 -5.5t18.5 -6l18 -6q26 -8 44 -15.5t39.5 -20.5t34 -28t19.5 -38.5t3 -51.5q-9 -74 -68 -117t-151 -43zM237 -213q-13 0 -25 4t-21.5 12t-15.5 18
t-9 22.5t-1 25.5q4 34 31 58t61 24t55 -24t17 -58t-31 -58t-61 -24z"/>
         <glyph glyph-name="uni1E6C" unicode="&#x1e6c;" horiz-adv-x="580"
                d="M115 750h534l-16 -131h-192l-76 -619h-149l76 619h-193zM284 -49q34 0 55 -24t17 -58t-31 -58t-61 -24q-13 0 -25 4t-21.5 12t-15.5 18t-9 22.5t-1 25.5q4 34 31 58t61 24z"/>
         <glyph glyph-name="uni1E6D" unicode="&#x1e6d;" horiz-adv-x="389"
                d="M397 27q-47 -37 -118 -37q-99 0 -143 49.5t-34 135.5l27 216h-60l13 109h60l21 170h146l-21 -170h125l-13 -109h-125l-27 -217q-3 -30 9 -45.5t36 -15.5q28 0 47 18zM242 -49q34 0 55 -24t17 -58t-31 -58t-61 -24q-13 0 -25 4t-21.5 12t-15.5 18t-9 22.5t-1 25.5
q4 34 31 58t61 24z"/>
         <glyph glyph-name="Wgrave" unicode="&#x1e80;" horiz-adv-x="1170"
                d="M736 833h-109l-99 167h146zM1111 750h162l-409 -750h-164l-81 274l-149 -274h-163l-227 750h163l171 -585l153 281l-90 304h149l170 -586z"/>
         <glyph glyph-name="wgrave" unicode="&#x1e81;" horiz-adv-x="787"
                d="M475 583h-109l-100 167h146zM677 500h163l-232 -500h-154l-38 181l-82 -181h-154l-111 500h165l52 -339l92 207l-27 132h132l59 -340z"/>
         <glyph glyph-name="Wacute" unicode="&#x1e82;" horiz-adv-x="1170"
                d="M884 1000l-140 -167h-110l104 167h146zM1111 750h162l-409 -750h-164l-81 274l-149 -274h-163l-227 750h163l171 -585l153 281l-90 304h149l170 -586z"/>
         <glyph glyph-name="wacute" unicode="&#x1e83;" horiz-adv-x="787"
                d="M622 750l-139 -167h-110l103 167h146zM677 500h163l-232 -500h-154l-38 181l-82 -181h-154l-111 500h165l52 -339l92 207l-27 132h132l59 -340z"/>
         <glyph glyph-name="Wdieresis" unicode="&#x1e84;" horiz-adv-x="1170"
                d="M577.5 826q-33.5 0 -55 24t-17 58t31.5 58t60.5 24t55 -24t17 -58t-31.5 -58t-60.5 -24zM795 826q-33 0 -54.5 24t-17 58t31.5 58t61 24q33 0 54.5 -24t17 -58t-31.5 -58t-61 -24zM1111 750h162l-409 -750h-164l-81 274l-149 -274h-163l-227 750h163l171 -585l153 281
l-90 304h149l170 -586z"/>
         <glyph glyph-name="wdieresis" unicode="&#x1e85;" horiz-adv-x="787"
                d="M315.5 576q-33.5 0 -54.5 24t-17 58t31 58t61 24t55 -24t17 -58t-31.5 -58t-61 -24zM534 576q-33 0 -54.5 24t-17.5 58t31.5 58t60.5 24q34 0 55 -24t17 -58t-31.5 -58t-60.5 -24zM677 500h163l-232 -500h-154l-38 181l-82 -181h-154l-111 500h165l52 -339l92 207
l-27 132h132l59 -340z"/>
         <glyph glyph-name="uni1E92" unicode="&#x1e92;" horiz-adv-x="639"
                d="M249 132h372l-16 -132h-573l10 81l435 538h-359l16 131h561l-10 -81zM312 -49q34 0 55 -24t17 -58t-31 -58t-61 -24q-13 0 -25 4t-21.5 12t-15.5 18t-9 22.5t-1 25.5q4 34 31 58t61 24z"/>
         <glyph glyph-name="uni1E93" unicode="&#x1e93;" horiz-adv-x="523"
                d="M43 0l13 107l285 274h-250l14 119h434l-13 -105l-285 -276h254l-15 -119h-437zM236 -213q-13 0 -25 4t-21.5 12t-15.5 18t-9 22.5t-1 25.5q4 34 31 58t61 24t55 -24t17 -58t-31 -58t-61 -24z"/>
         <glyph glyph-name="uni1EA0" unicode="&#x1ea0;" horiz-adv-x="774"
                d="M772 0h-163l-36 142h-339l-70 -142h-163l393 750h169zM296 266h247l-83 331zM382 -49q34 0 55 -24t17 -58t-31 -58t-61 -24q-13 0 -25 4t-21.5 12t-15.5 18t-9 22.5t-1 25.5q4 34 31 58t61 24z"/>
         <glyph glyph-name="uni1EA1" unicode="&#x1ea1;" horiz-adv-x="559"
                d="M338 510q103 0 159 -48t44 -144l-39 -318h-123l-1 49q-83 -59 -172 -59q-72 0 -112 41.5t-31 111.5q9 75 79 118.5t182 25.5l70 -11l5 43q5 41 -21 61t-68 20q-73 0 -130 -60l-77 83q47 46 102 66.5t133 20.5zM216 151q-3 -25 12 -39.5t42 -14.5q51 0 107 45l7 51l-39 8
q-65 13 -95.5 -3t-33.5 -47zM268 -49q34 0 55 -24t17 -58t-31 -58t-61 -24q-13 0 -25 4t-21.5 12t-15.5 18t-9 22.5t-1 25.5q4 34 31 58t61 24z"/>
         <glyph glyph-name="uni1EB8" unicode="&#x1eb8;" horiz-adv-x="540"
                d="M581 619h-294l-22 -178h252l-16 -132h-252l-22 -177h294l-16 -132h-445l92 750h445zM277 -49q34 0 55 -24t17 -58t-31 -58t-61 -24q-13 0 -25 4t-21.5 12t-15.5 18t-9 22.5t-1 25.5q4 34 31 58t61 24z"/>
         <glyph glyph-name="uni1EB9" unicode="&#x1eb9;" horiz-adv-x="548"
                d="M549 251q-3 -21 -8 -43h-339q-1 -106 97 -106q37 0 65 15.5t59 53.5l97 -51q-36 -61 -97 -95.5t-135 -34.5q-127 0 -184 71.5t-42 188.5q9 74 45.5 133t99 93.5t140.5 34.5q108 0 162 -70.5t40 -189.5zM331 397q-83 0 -114 -91h201q-5 91 -87 91zM285 -49q34 0 55 -24
t17 -58t-31 -58t-61 -24q-13 0 -25 4t-21.5 12t-15.5 18t-9 22.5t-1 25.5q4 34 31 58t61 24z"/>
         <glyph glyph-name="uni1EBC" unicode="&#x1ebc;" horiz-adv-x="540"
                d="M303 825h-85q-6 65 28.5 108.5t89.5 43.5q63 0 95 -58q8 -19 25 -19q18 0 25.5 19t0.5 49h85q7 -64 -27.5 -107.5t-91.5 -43.5q-60 0 -94 58q-9 19 -24 19q-18 0 -25.5 -19.5t-1.5 -49.5zM581 619h-294l-22 -178h252l-16 -132h-252l-22 -177h294l-16 -132h-445l92 750
h445z"/>
         <glyph glyph-name="uni1EBD" unicode="&#x1ebd;" horiz-adv-x="548"
                d="M275 575h-85q-5 43 10 78.5t43.5 54.5t63.5 19q64 0 95 -58q8 -19 25 -19q18 0 25.5 19t0.5 49h85q5 -42 -9 -77t-43 -54.5t-66 -19.5q-60 0 -94 58q-10 19 -25 19q-17 0 -25 -19.5t-1 -49.5zM549 251q-3 -21 -8 -43h-339q-1 -106 97 -106q37 0 65 15.5t59 53.5l97 -51
q-36 -61 -97 -95.5t-135 -34.5q-127 0 -184 71.5t-42 188.5q9 74 45.5 133t99 93.5t140.5 34.5q108 0 162 -70.5t40 -189.5zM331 397q-83 0 -114 -91h201q-5 91 -87 91z"/>
         <glyph glyph-name="uni1ECA" unicode="&#x1eca;" horiz-adv-x="271"
                d="M60 0l92 750h151l-92 -750h-151zM109 -213q-22 0 -39.5 11t-26.5 30t-6 41q4 34 31 58t61 24t55 -24t17 -58t-31 -58t-61 -24z"/>
         <glyph glyph-name="uni1ECB" unicode="&#x1ecb;" horiz-adv-x="289"
                d="M216 586q-33 0 -54.5 24t-17.5 58t31.5 58t60.5 24q34 0 55.5 -24t17.5 -58t-31.5 -58t-61.5 -24zM71 0l61 500h146l-61 -500h-146zM122 -230q-34 0 -55 24t-17 58t31 58t61 24t55 -24t17 -58q-3 -22 -16.5 -41t-33.5 -30t-42 -11z"/>
         <glyph glyph-name="uni1ECC" unicode="&#x1ecc;" horiz-adv-x="807"
                d="M403 -10q-107 0 -185 52t-112.5 139.5t-21.5 193.5t69.5 193.5t147 139.5t196.5 52t184 -52t113 -139.5t22 -193.5t-69.5 -193.5t-147 -139.5t-196.5 -52zM420.5 136q102.5 0 169.5 67.5t80 171.5q13 105 -37.5 172.5t-153 67.5t-170.5 -67.5t-81 -172.5
q-13 -104 38.5 -171.5t154 -67.5zM378 -213q-13 0 -25 4t-21.5 12t-15.5 18t-9 22.5t-1 25.5q4 34 31 58t61 24t55 -24t17 -58t-31 -58t-61 -24z"/>
         <glyph glyph-name="uni1ECD" unicode="&#x1ecd;" horiz-adv-x="583"
                d="M291 -10q-113 0 -178 75t-51 185q13 110 96.5 185t196.5 75q112 0 177 -75t52 -185q-14 -110 -97.5 -185t-195.5 -75zM306 118q52 0 89.5 38t44.5 94t-21.5 94.5t-79.5 38.5q-52 0 -89 -38t-44 -95q-5 -37 5.5 -67t35.5 -47.5t59 -17.5zM266 -213q-13 0 -25 4t-21.5 12
t-15.5 18t-9 22.5t-1 25.5q4 34 31 58t61 24t55 -24t17 -58t-31 -58t-61 -24z"/>
         <glyph glyph-name="uni1EE4" unicode="&#x1ee4;" horiz-adv-x="738"
                d="M368 -10q-129 0 -209 73t-67 179l62 508h151l-59 -481q-8 -61 32.5 -104t105.5 -43t115.5 43t58.5 104l59 481h151l-62 -508q-13 -106 -111 -179t-227 -73zM343 -213q-13 0 -25 4t-21.5 12t-15.5 18t-9 22.5t-1 25.5q4 34 31 58t61 24t55 -24t17 -58t-31 -58t-61 -24z
"/>
         <glyph glyph-name="Ygrave" unicode="&#x1ef2;" horiz-adv-x="678"
                d="M491 833h-109l-99 167h146zM769 750l-310 -395l-44 -355h-150l43 352l-215 398h168l137 -269l205 269h166z"/>
         <glyph glyph-name="ygrave" unicode="&#x1ef3;" horiz-adv-x="609"
                d="M425 583h-109l-100 167h146zM609 500l-60 -500q-14 -114 -96 -183t-206 -69q-89 0 -155 31l17 139q63 -50 155 -50q54 0 92.5 34t46.5 98l6 51q-68 -61 -151 -61t-133.5 59t-39.5 144l37 307h146l-35 -289q-3 -26 6.5 -47t29.5 -33.5t46 -12.5q43 0 76 27t38 66l35 289
h145z"/>
         <glyph glyph-name="uni1EF4" unicode="&#x1ef4;" horiz-adv-x="678"
                d="M265 0l43 352l-215 398h168l137 -269l205 269h166l-310 -395l-44 -355h-150zM335 -49q34 0 55 -24t17 -58t-31 -58t-61 -24q-13 0 -25 4t-21.5 12t-15.5 18t-9 22.5t-1 25.5q4 34 31 58t61 24z"/>
         <glyph glyph-name="uni1EF8" unicode="&#x1ef8;" horiz-adv-x="678"
                d="M361 825h-85q-6 65 28.5 108.5t89.5 43.5q63 0 95 -58q8 -19 25 -19q18 0 25.5 19t0.5 49h85q7 -64 -27.5 -107.5t-91.5 -43.5q-60 0 -94 58q-9 19 -24 19q-18 0 -25.5 -19.5t-1.5 -49.5zM769 750l-310 -395l-44 -355h-150l43 352l-215 398h168l137 -269l205 269h166z
"/>
         <glyph glyph-name="endash" unicode="&#x2013;" horiz-adv-x="647"
                d="M100 212l12 97h500l-12 -97h-500z"/>
         <glyph glyph-name="emdash" unicode="&#x2014;" horiz-adv-x="999"
                d="M25 212l12 97h1001l-12 -97h-1001z"/>
         <glyph glyph-name="quoteleft" unicode="&#x2018;" horiz-adv-x="258"
                d="M156 430q-62 0 -74 68q-13 70 31 152q48 88 122 105q14 3 28 3l-8 -64q-45 -1 -72 -55q-17 -34 -9 -45q1 -1 3 -1q34 0 54.5 -24t16.5 -58q-2 -17 -10.5 -32t-21 -26t-28.5 -17t-32 -6z"/>
         <glyph glyph-name="quoteright" unicode="&#x2019;" horiz-adv-x="210"
                d="M93 430l8 65q31 0 53 26.5t29 53.5q4 20 -3 20q-34 0 -54.5 24t-16.5 58q3 23 16 41.5t33.5 29.5t42.5 11q44 0 62.5 -34.5t11.5 -86.5q-6 -48 -29.5 -94.5t-64.5 -80t-88 -33.5z"/>
         <glyph glyph-name="quotesinglbase" unicode="&#x201a;" horiz-adv-x="249"
                d="M24 -174l7 64q31 0 53 23.5t30 50.5q6 27 -3 27q-34 0 -54.5 24t-16.5 58q4 35 31 58.5t61 23.5q44 0 63.5 -34.5t12.5 -87.5q-6 -49 -29.5 -95.5t-65 -79t-89.5 -32.5z"/>
         <glyph glyph-name="quotedblleft" unicode="&#x201c;" horiz-adv-x="476"
                d="M340 771l-8 -64q-31 -1 -53.5 -27.5t-28.5 -53.5q-4 -20 2 -20q34 0 55 -24t16.5 -58t-31 -57.5t-61.5 -23.5q-29 0 -47.5 16.5t-24.5 43t-2 60.5q6 49 29.5 95.5t64.5 79.5t89 33zM536 771l-8 -64q-31 -1 -53.5 -27.5t-28.5 -53.5q-4 -20 2 -20q34 0 55 -24t16 -58
q-2 -23 -15.5 -41.5t-33.5 -29t-43 -10.5q-29 0 -47.5 16.5t-24.5 43t-2 60.5q6 49 29.5 95.5t64.5 79.5t89 33z"/>
         <glyph glyph-name="quotedblright" unicode="&#x201d;" horiz-adv-x="432"
                d="M95 430l8 65q31 0 53 26.5t29 53.5q4 20 -3 20q-34 0 -54.5 24t-16.5 58q3 23 16 41.5t33.5 29.5t42.5 11q44 0 62.5 -34.5t11.5 -86.5q-6 -48 -29.5 -94.5t-64.5 -80t-88 -33.5zM291 430l8 65q31 0 53 26.5t29 53.5q4 20 -3 20q-34 0 -54.5 24t-16.5 58q3 23 16 41.5
t33.5 29.5t42.5 11q44 0 62.5 -34.5t11.5 -86.5q-6 -48 -29.5 -94.5t-64.5 -80t-88 -33.5z"/>
         <glyph glyph-name="quotedblbase" unicode="&#x201e;" horiz-adv-x="457"
                d="M246 -174l7 64q31 0 53 23.5t30 50.5q6 27 -3 27q-34 0 -54.5 24t-16.5 58q3 23 16 41.5t33 29.5t43 11q44 0 63.5 -34.5t12.5 -87.5q-6 -49 -29.5 -95.5t-65 -79t-89.5 -32.5zM24 -174l7 64q21 0 39.5 13t28.5 29t15 32q6 27 -3 27q-34 0 -54.5 24t-16.5 58
q4 35 31 58.5t61 23.5q44 0 63.5 -34.5t12.5 -87.5q-6 -49 -29.5 -95.5t-65 -79t-89.5 -32.5z"/>
         <glyph glyph-name="dagger" unicode="&#x2020;" horiz-adv-x="648"
                d="M595 495l-11 -91h-166l-71 -574h-92l71 574h-162l11 91h162l21 175h92l-21 -175h166z"/>
         <glyph glyph-name="daggerdbl" unicode="&#x2021;" horiz-adv-x="648"
                d="M584 404h-166l-37 -299h166l-11 -92h-166l-23 -183h-92l23 183h-162l11 92h162l37 299h-162l11 91h162l21 175h92l-21 -175h166z"/>
         <glyph glyph-name="bullet" unicode="&#x2022;" horiz-adv-x="506"
                d="M275 170q-65 0 -107 46t-34 113q8 65 62 112.5t118 47.5t105.5 -48t33.5 -112q-8 -67 -61 -113t-117 -46z"/>
         <glyph glyph-name="ellipsis" unicode="&#x2026;" horiz-adv-x="801"
                d="M359 -10q-33 0 -54.5 24.5t-17.5 57.5q4 34 31.5 58.5t60.5 24.5q34 0 55.5 -24.5t17.5 -58.5q-4 -33 -32 -57.5t-61 -24.5zM600 -10q-33 0 -54.5 24.5t-17.5 57.5q4 34 31.5 58.5t60.5 24.5q34 0 55.5 -24.5t17.5 -58.5q-4 -33 -32 -57.5t-61 -24.5zM111 -10
q-33 0 -54.5 24.5t-17.5 57.5q4 34 31.5 58.5t60.5 24.5q34 0 55.5 -24.5t17.5 -58.5q-4 -33 -32 -57.5t-61 -24.5z"/>
         <glyph glyph-name="perthousand" unicode="&#x2030;" horiz-adv-x="1172"
                d="M244 401q-43 0 -77 24t-50 65t-10 90t32 90.5t66 65.5t83 24q66 0 105.5 -52.5t30.5 -127.5q-9 -74 -61.5 -126.5t-118.5 -52.5zM75 0l597 750h150l-597 -750h-150zM258 510q19 0 36.5 20.5t20.5 49.5q3 19 -2 35.5t-15.5 26t-22.5 9.5q-20 0 -37 -20.5t-21 -50.5
q-3 -29 9 -49.5t32 -20.5zM611 -10q-67 0 -106.5 52.5t-30.5 127.5t61.5 127.5t119.5 52.5q66 0 105.5 -53t30.5 -127q-6 -49 -32 -90.5t-65.5 -65.5t-82.5 -24zM978 -10q-66 0 -106 53t-31 127t62 127t119 53t106 -53t31 -127q-6 -49 -32.5 -90.5t-66 -65.5t-82.5 -24z
M623 100q20 0 37 20t21 50q2 19 -2.5 35.5t-15 25.5t-23 9t-25 -9t-21.5 -25.5t-11 -35.5q-4 -30 8 -50t32 -20zM991 100q20 0 37 20.5t20.5 49.5t-8.5 49.5t-32 20.5q-19 0 -36.5 -20t-21 -50t8.5 -50t32 -20z"/>
         <glyph glyph-name="guilsinglleft" unicode="&#x2039;" horiz-adv-x="355"
                d="M198 95l-130 184l175 184h116l-175 -184l130 -184h-116z"/>
         <glyph glyph-name="guilsinglright" unicode="&#x203a;" horiz-adv-x="355"
                d="M66 95l174 184l-129 184h115l129 -184l-174 -184h-115z"/>
         <glyph glyph-name="fraction" unicode="&#x2044;" horiz-adv-x="614"
                d="M-35 0l616 750h145l-615 -750h-146z"/>
         <glyph glyph-name="Euro" unicode="&#x20ac;" horiz-adv-x="676"
                d="M378 100q52 0 95.5 36.5t50.5 88.5l100 -46q-26 -80 -101.5 -134.5t-157.5 -54.5q-107 0 -167 70.5t-47 179.5l1 6h-98l58 92h52l7 64h-98l58 92h52l2 16q9 73 47 130t97.5 88.5t129.5 31.5q83 0 145 -54t68 -135l-111 -45q6 52 -29 88.5t-86 36.5q-62 0 -102.5 -38
t-48.5 -103l-2 -16h214l-57 -92h-169l-7 -64h214l-57 -92h-169l-1 -6q-7 -64 24.5 -102t92.5 -38z"/>
         <glyph glyph-name="uni2113" unicode="&#x2113;" horiz-adv-x="595"
                d="M332 -7q-93 0 -138.5 48.5t-48.5 126.5v10q-10 -6 -32 -21t-34 -22l-29 71q18 13 53 36.5t52 35.5l33 264q17 140 83 208.5t157 68.5q82 0 117.5 -53.5t25.5 -134.5q-11 -94 -83 -185t-203 -193l-3 -33q-5 -56 22.5 -87t73.5 -31t91 30t78 74l51 -58q-54 -80 -123 -117.5
t-143 -37.5zM300 373q164 149 177 258q12 96 -55 96q-32 0 -60 -39.5t-39 -128.5z"/>
         <glyph glyph-name="trademark" unicode="&#x2122;" horiz-adv-x="749"
                d="M95 690l7 60h250l-7 -60h-91l-36 -290h-69l36 290h-90zM708 750h73l-43 -350h-68l30 242l-143 -179l-99 179l-30 -242h-69l43 350h75l93 -172z"/>
         <glyph glyph-name="estimated" unicode="&#x212e;" horiz-adv-x="918"
                d="M457 -9q-116 0 -208 51.5t-138.5 139.5t-33.5 192q13 105 81 194t172.5 140.5t220.5 51.5q117 0 209 -51.5t138.5 -140.5t33.5 -194l-1 -10h-692q-6 0 -7 -4l-26 -210q-1 -11 6 -24q46 -53 110 -83.5t138 -30.5q82 0 157.5 34t134.5 94h61q-66 -69 -160 -109t-196 -40z
M241 385h531q4 0 5 7l26 210q2 16 -7 25q-46 51 -109 80.5t-138 29.5q-73 0 -144 -30t-130 -83q-12 -12 -14 -26l-25 -206q-1 -7 5 -7z"/>
         <glyph glyph-name="arrowleft" unicode="&#x2190;" horiz-adv-x="840"
                d="M806 413l-15 -121h-537l14 -127l-220 188l266 188l-45 -128h537z"/>
         <glyph glyph-name="arrowup" unicode="&#x2191;" horiz-adv-x="495"
                d="M183 0l66 537l-132 -30l218 243l158 -243l-123 30l-66 -537h-121z"/>
         <glyph glyph-name="arrowright" unicode="&#x2192;" horiz-adv-x="840"
                d="M136 413h537l-15 128l220 -188l-266 -188l46 127h-537z"/>
         <glyph glyph-name="arrowdown" unicode="&#x2193;" horiz-adv-x="486"
                d="M275 750h121l-66 -537l131 30l-218 -243l-158 243l124 -30z"/>
         <glyph glyph-name="arrowboth" unicode="&#x2194;" horiz-adv-x="856"
                d="M194 144l-218 189l266 188l-47 -127l561 -1l-14 127l220 -188l-265 -188l45 128l-561 1z"/>
         <glyph glyph-name="arrowupdn" unicode="&#x2195;" horiz-adv-x="486"
                d="M234 -71l-158 242l124 -30l48 390l-131 -30l217 242l158 -243l-123 30l-48 -388l131 30z"/>
         <glyph glyph-name="uni2196" unicode="&#x2196;" horiz-adv-x="535"
                d="M619 152l-96 -85l-333 379l-83 -111l-1 305l300 -39l-121 -69z"/>
         <glyph glyph-name="uni2197" unicode="&#x2197;" horiz-adv-x="535"
                d="M-46 152l426 380l-103 69l310 39l-77 -305l-55 111l-427 -379z"/>
         <glyph glyph-name="uni2198" unicode="&#x2198;" horiz-adv-x="536"
                d="M9 598l96 85l333 -379l83 111l2 -305l-301 39l121 69z"/>
         <glyph glyph-name="uni2199" unicode="&#x2199;" horiz-adv-x="536"
                d="M673 598l-426 -380l103 -69l-309 -39l76 305l55 -111l427 379z"/>
         <glyph glyph-name="partialdiff" unicode="&#x2202;" horiz-adv-x="551"
                d="M240 711q77 17 142.5 -5t107.5 -73.5t61 -131t6 -173.5q-18 -139 -105.5 -233t-199.5 -94q-86 0 -137 40.5t-55 108.5t38 158q55 110 146 159t181 22q-20 85 -73 119t-124 2zM429 328q3 20 5 56q-60 37 -119 8.5t-103 -116.5q-36 -72 -20 -127t72 -55q54 0 103.5 69.5
t61.5 164.5z"/>
         <glyph glyph-name="emptyset" unicode="&#x2205;" horiz-adv-x="785"
                d="M681 482q60 -83 47 -191q-15 -124 -113.5 -211.5t-222.5 -87.5q-109 0 -183 69l-49 -43l-34 39l49 43q-59 82 -45 191q10 81 58.5 150t122 109t154.5 40q109 0 182 -69l49 44l35 -39zM245 291q-8 -61 21 -109l290 257q-44 36 -105 36q-77 0 -137 -53.5t-69 -130.5z
M406 107q77 0 137 53.5t70 130.5q7 60 -23 109l-289 -257q44 -36 105 -36z"/>
         <glyph glyph-name="product" unicode="&#x220f;" horiz-adv-x="743"
                d="M795 703l-12 -101h-60l-89 -722h-100l89 722h-354l-89 -722h-101l89 722h-60l12 101h675z"/>
         <glyph glyph-name="summation" unicode="&#x2211;" horiz-adv-x="735"
                d="M60 -118l10 87l381 323l-301 323l10 88h587l-13 -109h-411l274 -302l-348 -302h411l-14 -109z"/>
         <glyph glyph-name="minus" unicode="&#x2212;" horiz-adv-x="687"
                d="M76 261l12 94h600l-12 -94h-600z"/>
         <glyph glyph-name="radical" unicode="&#x221a;" horiz-adv-x="729"
                d="M224 -78l-67 336h-71l11 92h137l58 -284l422 703l81 -36l-489 -811h-82z"/>
         <glyph glyph-name="infinity" unicode="&#x221e;" horiz-adv-x="765"
                d="M216 128q-67 0 -105 45.5t-31 117.5q11 72 60 117.5t116 45.5q89 0 171 -95q105 95 195 95q70 0 106 -43.5t29 -119.5q-12 -76 -59 -119.5t-116 -43.5q-88 0 -172 95q-106 -95 -194 -95zM227 220q53 0 130 71q-59 71 -113 71q-26 0 -47.5 -20t-25.5 -51q-3 -30 13 -50.5
t43 -20.5zM593 220q18 0 33.5 8.5t26 24.5t13.5 38q3 32 -12.5 51.5t-43.5 19.5q-54 0 -130 -71q60 -71 113 -71z"/>
         <glyph glyph-name="integral" unicode="&#x222b;" horiz-adv-x="446"
                d="M145 -189q-48 0 -71 35.5t-5 87.5h70q-4 -28 -1.5 -38.5t16.5 -10.5q18 0 20 21l91 740q4 27 19 49t38 34t50 12q46 0 68.5 -36t5.5 -87h-71q4 28 2 38.5t-15 10.5q-9 0 -15.5 -5.5t-7.5 -15.5l-91 -740q-5 -41 -34.5 -68t-68.5 -27z"/>
         <glyph glyph-name="approxequal" unicode="&#x2248;" horiz-adv-x="575"
                d="M432 317q-66 0 -117 63q-2 3 -7 8l-4 5q-29 38 -61 38q-36 0 -60 -30.5t-23 -73.5h-74q0 78 48 128t119 50q40 0 66 -17.5t52 -54.5q14 -21 28 -32t36 -11q34 0 58 28.5t23 74.5h73q2 -74 -44 -125t-113 -51zM407 110q-24 0 -44 6.5t-36 19.5t-24 21.5t-20 23.5
q-3 3 -4 5q-29 38 -61 38q-37 0 -60.5 -30.5t-22.5 -73.5h-74q0 79 48 129t119 50q39 0 65 -17.5t53 -55.5q13 -21 27 -32t36 -11q35 0 59 28.5t22 74.5h73q2 -49 -19 -89.5t-57.5 -63.5t-79.5 -23z"/>
         <glyph glyph-name="notequal" unicode="&#x2260;" horiz-adv-x="687"
                d="M683 319h-209l-105 -107h301l-11 -92h-379l-109 -111h-81l109 111h-140l11 92h219l104 107h-310l11 91h389l96 99h81l-97 -99h131z"/>
         <glyph glyph-name="lessequal" unicode="&#x2264;" horiz-adv-x="759"
                d="M746 734l-15 -120l-454 -186l409 -187l-15 -121l-522 243l16 130zM104 0l10 83h552l-10 -83h-552z"/>
         <glyph glyph-name="greaterequal" unicode="&#x2265;" horiz-adv-x="759"
                d="M194 734l523 -241l-16 -130l-582 -243l15 121l454 187l-409 186zM104 0l10 83h552l-10 -83h-552z"/>
         <glyph glyph-name="lozenge" unicode="&#x25ca;" horiz-adv-x="751"
                d="M382 52l-265 301l339 302l264 -301zM402 211l159 143l-124 142l-161 -143z"/>
         <glyph glyph-name="uniF8FF" unicode="&#xf8ff;" horiz-adv-x="970"
                d="M485 0q-103 0 -184 51t-121.5 138.5t-27.5 190.5q12 103 74 190.5t155.5 138.5t196.5 51q104 0 185 -51t121 -138.5t28 -190.5q-10 -77 -48.5 -147.5t-95.5 -121.5t-131.5 -81t-151.5 -30zM489 36q94 0 179 46.5t140.5 125.5t67.5 172q11 93 -25 172.5t-110 125.5
t-167 46t-178 -46t-141 -125.5t-67 -172.5q-12 -93 24.5 -172.5t110 -125.5t166.5 -46zM711 217q-8 0 -12 6l-127 144q-10 14 3 26l163 145q6 5 13 5t12 -5t4 -13t-7 -13l-148 -132l115 -132q10 -11 -3 -25q-5 -6 -13 -6zM312.5 217q-7.5 0 -12 5t-3.5 13l35 290q1 7 7 12.5
t13.5 5.5t12 -5t3.5 -13l-35 -290q-1 -7 -7 -12.5t-13.5 -5.5zM511.5 217q-7.5 0 -12 5t-3.5 13l35 290q1 7 7 12.5t13.5 5.5t12 -5t3.5 -13l-35 -290q-1 -7 -7 -12.5t-13.5 -5.5zM384 362q-7 0 -11.5 5t-3.5 12.5t6.5 13t13.5 5.5h91q7 0 12 -5t4 -12.5t-7 -13t-14 -5.5
h-91z"/>
         <glyph glyph-name="i.loclTRK" horiz-adv-x="266"
                d="M203.5 576q-33.5 0 -54.5 24t-17 58t31 58t61 24t55 -24t17 -58t-31.5 -58t-61 -24zM60 0l61 500h146l-61 -500h-146z"/>
         <glyph glyph-name="arrow" horiz-adv-x="486"
                d="M183 0l66 537l-132 -30l218 243l158 -243l-123 30l-66 -537h-121z"/>
         </font>
</defs>
</svg>
