<?xml version="1.0" standalone="no"?>
<!DOCTYPE svg PUBLIC "-//W3C//DTD SVG 1.1//EN" "http://www.w3.org/Graphics/SVG/1.1/DTD/svg11.dtd" >
<svg xmlns="http://www.w3.org/2000/svg" version="1.1">
   <metadata>
      Created by FontForge 20170731 at Wed Mar 9 17:12:33 2016
      By Aleksey,,,
      (c)2013-2015 Orkney is a trademark of Samuel Oakes and Alfredo Marco Pradil. All rights reserved.
   </metadata>
   <defs>
      <font id="Orkney-Medium" horiz-adv-x="0">
         <font-face
                 font-family="Orkney Medium"
                 font-weight="500"
                 font-stretch="normal"
                 units-per-em="1000"
                 panose-1="0 0 6 0 0 0 0 0 0 0"
                 ascent="750"
                 descent="-250"
                 x-height="500"
                 cap-height="750"
                 bbox="-755 -353 1152 1022"
                 underline-thickness="43"
                 underline-position="-226"
                 unicode-range="U+0020-FB02"
         />
         <missing-glyph horiz-adv-x="605"
                        d="M87 0v750h431v-750h-431zM172 85h261v580h-261v-580z"/>
         <glyph glyph-name="fi" unicode="fi" horiz-adv-x="616"
                d="M370 668q-62 0 -100 -34t-38 -92v-42h308v-500h-111v415h-197v-415h-111v415h-84v85h84v48q0 96 65.5 154t171.5 58q96 0 184 -42v-101q-91 51 -172 51z"/>
         <glyph glyph-name="fl" unicode="fl" horiz-adv-x="719"
                d="M678 109l61 -75q-42 -44 -119 -44q-80 0 -127 47t-47 123v497q-39 11 -77 11q-61 0 -99 -34t-38 -92v-42h127v-85h-127v-415h-111v415h-84v85h84v48q0 95 65.5 153.5t169.5 58.5q45 0 95 -10h106v-41l1 -1v-104q-1 0 -1 1l1 -445q0 -75 65 -75q34 0 55 24z"/>
         <glyph glyph-name=".notdef" horiz-adv-x="605"
                d="M87 0v750h431v-750h-431zM172 85h261v580h-261v-580z"/>
         <glyph glyph-name=".null"
         />
         <glyph glyph-name="nonmarkingreturn" horiz-adv-x="333"
         />
         <glyph glyph-name="space" unicode=" " horiz-adv-x="260"
         />
         <glyph glyph-name="exclam" unicode="!" horiz-adv-x="310"
                d="M112 232l-13 518h111l-13 -518h-85zM155 -10q-28 0 -48 20t-20 48t20 48t48 20t48 -20t20 -48t-20 -48t-48 -20z"/>
         <glyph glyph-name="quotedbl" unicode="&#x22;" horiz-adv-x="465"
                d="M100 464l-13 286h105l-13 -286h-79zM286 464l-13 286h105l-13 -286h-79z"/>
         <glyph glyph-name="numbersign" unicode="#" horiz-adv-x="802"
                d="M180 0l24 170h-141l11 81h141l32 214h-142l13 80h139l25 172h79l-23 -172h179l24 172h80l-24 -172h142l-13 -80h-140l-30 -214h140l-11 -81h-140l-26 -170h-79l24 170h-181l-23 -170h-80zM296 251h179l31 214h-180z"/>
         <glyph glyph-name="dollar" unicode="$" horiz-adv-x="662"
                d="M584 213q0 -89 -60.5 -144.5t-146.5 -68.5v-84h-98v84q-69 12 -125 51.5t-84 93.5l81 49q23 -47 71 -76.5t110 -29.5q66 0 110 32.5t44 86.5q0 35 -21.5 60t-55.5 41t-75.5 29.5t-82.5 30.5t-75 38.5t-55.5 59t-21.5 87.5q0 82 52 133.5t128 63.5v86h98v-87
q96 -20 158 -87l-65 -56q-55 62 -139 62q-55 0 -94 -29.5t-39 -79.5q0 -46 40 -76.5t96.5 -49t113 -41t96.5 -67.5t40 -112z"/>
         <glyph glyph-name="percent" unicode="%" horiz-adv-x="780"
                d="M198 425q-61 0 -104 49t-43 118q0 70 43 119t104 49t103.5 -49t42.5 -119q0 -69 -42.5 -118t-103.5 -49zM77 0l510 750h115l-509 -750h-116zM198 510q25 0 43.5 24t18.5 58q0 35 -18.5 59t-43.5 24t-43 -24t-18 -59q0 -34 18 -58t43 -24zM583 -10q-61 0 -104 49t-43 119
q0 69 43 118t104 49t103.5 -49t42.5 -118q0 -70 -42.5 -119t-103.5 -49zM582 75q25 0 43 24t18 59q0 34 -18 58t-43 24t-43 -24t-18 -58q0 -35 18 -59t43 -24z"/>
         <glyph glyph-name="ampersand" unicode="&#x26;" horiz-adv-x="728"
                d="M691 62l-71 -71l-98 98l-34 -34q-67 -66 -162 -65.5t-161 65.5q-67 67 -66.5 161.5t66.5 160.5l34 34l-19 19q-56 56 -56 137q0 79 56.5 135t136.5 56t136.5 -56t56.5 -135h-99q0 38 -28 65.5t-66 27.5q-39 0 -67 -27.5t-28 -67.5q0 -36 28 -66l272 -270l98 97l70 -70
l-97 -97zM418 126l33 33l-182 182l-34 -34q-38 -38 -38 -91t38 -90q39 -38 92 -38t91 38z"/>
         <glyph glyph-name="quotesingle" unicode="'" horiz-adv-x="279"
                d="M100 464l-13 286h105l-13 -286h-79z"/>
         <glyph glyph-name="parenleft" unicode="(" horiz-adv-x="409"
                d="M349 -335q-124 5 -203 157.5t-79 425.5q0 274 79 428t203 159v-80q-80 -7 -132 -140.5t-52 -366.5q0 -231 51.5 -363.5t132.5 -139.5v-80z"/>
         <glyph glyph-name="parenright" unicode=")" horiz-adv-x="409"
                d="M60 -335v80q81 7 132.5 139.5t51.5 363.5q0 233 -52 366.5t-132 140.5v80q124 -5 203 -159t79 -428q0 -273 -79 -425.5t-203 -157.5z"/>
         <glyph glyph-name="asterisk" unicode="*" horiz-adv-x="350"
                d="M136 498l-50 30l55 76l-94 -10v59l94 -10l-55 76l50 30l39 -86l39 86l51 -30l-56 -76l94 10v-59l-94 10l56 -76l-51 -30l-39 86z"/>
         <glyph glyph-name="plus" unicode="+" horiz-adv-x="794"
                d="M355 0v267h-268v86h268v267h85v-267h267v-86h-267v-267h-85z"/>
         <glyph glyph-name="comma" unicode="," horiz-adv-x="224"
                d="M48 -181v52q31 0 51 32t20 63q0 25 -14 25q-28 0 -47.5 19.5t-19.5 47.5t20 48t48 20q39 0 59.5 -32t20.5 -82q0 -72 -38.5 -132.5t-99.5 -60.5z"/>
         <glyph glyph-name="hyphen" unicode="-" horiz-adv-x="524"
                d="M87 222v76h350v-76h-350z"/>
         <glyph glyph-name="period" unicode="." horiz-adv-x="196"
                d="M98 -10q-28 0 -48 20t-20 48t20 48t48 20t48 -20t20 -48t-20 -48t-48 -20z"/>
         <glyph glyph-name="slash" unicode="/" horiz-adv-x="607"
                d="M-21 -250l530 1000h105l-529 -1000h-106z"/>
         <glyph glyph-name="zero" unicode="0" horiz-adv-x="682"
                d="M341 -10q-119 0 -196.5 109t-77.5 276t77.5 276t196.5 109t196 -109t77 -276t-77 -276t-196 -109zM342 88q69 0 115 81.5t46 205.5t-46 205.5t-115 81.5q-70 0 -116.5 -81.5t-46.5 -205.5t46.5 -205.5t116.5 -81.5z"/>
         <glyph glyph-name="one" unicode="1" horiz-adv-x="420"
                d="M191 0v617l-151 -120v133l160 120h102v-750h-111z"/>
         <glyph glyph-name="two" unicode="2" horiz-adv-x="587"
                d="M45 0v79l1 1l1 1l1 1l1 1l1 1l1 1l1 2q257 267 306 328q51 64 55 108q1 7 1 16q0 60 -35 91t-87 32q-55 1 -90 -34t-34 -94l-107 1q-4 99 65 162.5t171 63.5q95 -1 158.5 -58.5t65.5 -150.5q2 -83 -49.5 -153t-254.5 -278q-14 -15 -22 -23h347v-98h-497z"/>
         <glyph glyph-name="three" unicode="3" horiz-adv-x="603"
                d="M408 423q58 -28 92.5 -80t34.5 -116q0 -99 -69.5 -168t-169.5 -69t-169.5 63.5t-69.5 154.5l110 1q0 -48 37.5 -81.5t91.5 -33.5q55 0 92.5 39t37.5 95t-37.5 94.5t-92.5 38.5h-59l-1 89h53h1q44 0 74.5 31t30.5 76q0 43 -30.5 71.5t-74.5 28.5q-41 0 -70 -26.5
t-29 -64.5l-107 2q0 80 59.5 136t146.5 56q86 0 145.5 -56t59.5 -136q0 -95 -87 -145z"/>
         <glyph glyph-name="four" unicode="4" horiz-adv-x="620"
                d="M563 256v-98h-73v-158h-111v158h-359v71l331 521h139v-494h73zM148 256h231v381z"/>
         <glyph glyph-name="five" unicode="5" horiz-adv-x="620"
                d="M304 -10q-70 0 -132 28t-102 77l71 77q27 -37 69 -58.5t88 -21.5q67 0 110 43.5t43 110.5t-44 112t-110 45q-78 0 -132 -57l-92 42l40 360h403v-98h-316l-25 -199q58 50 151 50q103 0 169.5 -70.5t66.5 -180.5q0 -115 -72 -187.5t-186 -72.5z"/>
         <glyph glyph-name="six" unicode="6" horiz-adv-x="653"
                d="M596 256q2 -108 -75 -184.5t-187 -80.5q-112 -3 -192.5 70t-83.5 181q-3 91 63 175l254 333h129l-194 -245q12 1 40 1q101 -5 172 -77.5t74 -172.5zM333 86q69 3 113 52t41 117q-3 69 -50.5 114t-116.5 42q-68 -2 -111.5 -51.5t-40.5 -117.5q2 -68 49.5 -113.5
t115.5 -42.5z"/>
         <glyph glyph-name="seven" unicode="7" horiz-adv-x="566"
                d="M53 0l369 652h-382v98h506v-78l-370 -672h-123z"/>
         <glyph glyph-name="eight" unicode="8" horiz-adv-x="585"
                d="M420 417q56 -29 89 -80.5t33 -115.5q0 -98 -71.5 -164.5t-178.5 -66.5q-106 0 -177.5 66.5t-71.5 164.5q0 64 33 115.5t89 80.5q-78 55 -78 151q0 81 59 136.5t147 55.5q87 0 146 -55.5t59 -136.5q0 -96 -78 -151zM293 671q-47 0 -79.5 -32t-32.5 -79t32.5 -79.5
t79.5 -32.5t79 32.5t32 79.5t-32 79t-79 32zM292 88q58 0 98 41t40 100q0 58 -39.5 97.5t-98.5 39.5q-58 0 -97.5 -39.5t-39.5 -97.5q0 -59 39.5 -100t97.5 -41z"/>
         <glyph glyph-name="nine" unicode="9" horiz-adv-x="653"
                d="M596 508q3 -90 -62 -175l-255 -333h-129l198 248q-15 -6 -44 -4q-101 5 -172 77.5t-74 172.5q-3 108 74 184.5t188 80.5q112 3 192.5 -70t83.5 -181zM333 339q68 2 112 51.5t41 117.5t-50.5 113.5t-115.5 42.5q-69 -3 -113 -52t-41 -117q3 -69 50.5 -114t116.5 -42z"/>
         <glyph glyph-name="colon" unicode=":" horiz-adv-x="310"
                d="M155 374q-28 0 -48 20t-20 48t20 48t48 20t48 -20t20 -48t-20 -48t-48 -20zM155 -10q-28 0 -48 20t-20 48t20 48t48 20t48 -20t20 -48t-20 -48t-48 -20z"/>
         <glyph glyph-name="semicolon" unicode=";" horiz-adv-x="316"
                d="M156 374q-28 0 -48 20t-20 48t20 48t48 20t48 -20t20 -48t-20 -48t-48 -20zM98 -181v52q37 1 58 55q17 43 6 61q-3 4 -7 4q-28 0 -47.5 19.5t-19.5 47.5t20 48t48 20q61 0 74.5 -76.5t-26 -153t-106.5 -77.5z"/>
         <glyph glyph-name="less" unicode="&#x3c;" horiz-adv-x="726"
                d="M639 682v-93l-465 -234l465 -235v-94l-552 279v100z"/>
         <glyph glyph-name="equal" unicode="=" horiz-adv-x="714"
                d="M57 326v72h600v-72h-600zM57 132v72h600v-72h-600z"/>
         <glyph glyph-name="greater" unicode="&#x3e;" horiz-adv-x="726"
                d="M87 682l552 -277v-100l-552 -279v94l465 235l-465 234v93z"/>
         <glyph glyph-name="question" unicode="?" horiz-adv-x="573"
                d="M236 216v55q0 46 13.5 77t33.5 44.5t43.5 27t43.5 24t33.5 35t13.5 61.5q0 52 -37.5 85.5t-93.5 33.5q-58 0 -95 -38t-35 -94h-99q-4 97 62 163t167 66q98 0 163.5 -62t65.5 -154q0 -55 -18.5 -92.5t-44.5 -55.5t-52 -31.5t-44.5 -32.5t-18.5 -48v-64h-101zM290 -10
q-28 0 -48 20t-20 48t20 48t48 20t48 -20t20 -48t-20 -48t-48 -20z"/>
         <glyph glyph-name="at" unicode="@" horiz-adv-x="608"
                d="M521 149h-67v29q-38 -40 -94 -40q-53 0 -89.5 36.5t-36.5 89.5q0 52 36.5 88.5t88.5 36.5q57 0 95 -43v20q0 48 -39 81.5t-95 33.5q-82 0 -139 -59.5t-57 -145.5q0 -88 63.5 -148.5t154.5 -60.5h179v-67h-179q-120 0 -202.5 80t-82.5 196q0 114 76.5 193.5t186.5 79.5
q85 0 143 -53t58 -130v-217zM386 195q50 0 68 43v52q-18 42 -68 42q-32 0 -53 -19.5t-21 -48.5q0 -30 21 -49.5t53 -19.5z"/>
         <glyph glyph-name="A" unicode="A" horiz-adv-x="762"
                d="M621 0l-57 151h-366l-58 -151h-125l301 750h129l301 -750h-125zM234 247h293l-146 385z"/>
         <glyph glyph-name="B" unicode="B" horiz-adv-x="648"
                d="M454 386q66 -18 106 -65.5t40 -119.5q0 -90 -60.5 -145.5t-151.5 -55.5h-318v750h261q91 0 152.5 -56.5t61.5 -146.5q0 -110 -91 -161zM430 536q0 47 -33 80t-79 33h-134v-227h134q46 0 79 33.5t33 80.5zM372 101q47 0 80 33.5t33 80.5q0 46 -33 79.5t-80 33.5h-188v-227
h188z"/>
         <glyph glyph-name="C" unicode="C" horiz-adv-x="654"
                d="M415 -10q-158 0 -262 111.5t-104 273.5t104 273.5t262 111.5q106 0 192 -62v-137q-79 90 -192 90q-114 0 -186 -79t-72 -197t72 -197t186 -79t192 90v-137q-86 -62 -192 -62z"/>
         <glyph glyph-name="D" unicode="D" horiz-adv-x="716"
                d="M70 0v750h222q155 0 265 -110t110 -265t-110 -265t-265 -110h-222zM184 101h107q109 0 185 79.5t76 194.5t-76 194.5t-185 79.5h-107v-548z"/>
         <glyph glyph-name="E" unicode="E" horiz-adv-x="542"
                d="M497 649h-312v-223h270v-102h-270v-223h312v-101h-427v750h427v-101z"/>
         <glyph glyph-name="F" unicode="F" horiz-adv-x="540"
                d="M497 649h-312v-223h270v-102h-270v-324h-115v750h427v-101z"/>
         <glyph glyph-name="G" unicode="G" horiz-adv-x="744"
                d="M455 651q-120 0 -199.5 -75.5t-79.5 -204.5t79.5 -204.5t199.5 -75.5q61 0 117 25v196h-154v102h256v-367q-105 -65 -220 -65q-163 0 -274 107t-111 282t110.5 282t271.5 107q118 0 223 -65v-145q-38 47 -96.5 74t-122.5 27z"/>
         <glyph glyph-name="H" unicode="H" horiz-adv-x="738"
                d="M553 750h115v-750h-115v324h-368v-324h-115v750h115v-324h368v324z"/>
         <glyph glyph-name="I" unicode="I" horiz-adv-x="255"
                d="M70 0v750h115v-750h-115z"/>
         <glyph glyph-name="J" unicode="J" horiz-adv-x="382"
                d="M119 -10q-44 0 -72 10v117q34 -12 72 -12q29 0 50.5 21t21.5 51v573h115v-573q0 -78 -55 -132.5t-132 -54.5z"/>
         <glyph glyph-name="K" unicode="K" horiz-adv-x="660"
                d="M627 750l-325 -334l325 -306v-150l-442 421v-381h-115v750h115v-307l294 307h148z"/>
         <glyph glyph-name="L" unicode="L" horiz-adv-x="497"
                d="M70 0v750h115v-649h266v-101h-381z"/>
         <glyph glyph-name="M" unicode="M" horiz-adv-x="920"
                d="M728 750h122v-750h-114v586l-277 -418l-274 418v-586h-115v750h123l267 -397z"/>
         <glyph glyph-name="N" unicode="N" horiz-adv-x="792"
                d="M608 750h114v-750h-114l-423 571v-571h-115v750h114l424 -571v571z"/>
         <glyph glyph-name="O" unicode="O" horiz-adv-x="830"
                d="M415 -10q-158 0 -262 111.5t-104 273.5t104 273.5t262 111.5q157 0 261.5 -111.5t104.5 -273.5t-104.5 -273.5t-261.5 -111.5zM415 99q114 0 185.5 79t71.5 197t-71.5 197t-185.5 79t-186 -79t-72 -197t72 -197t186 -79z"/>
         <glyph glyph-name="P" unicode="P" horiz-adv-x="601"
                d="M359 750q90 0 152.5 -63t62.5 -153t-62.5 -151.5t-152.5 -61.5h-174v-321h-115v750h289zM352 416q49 0 83 32t34 85q0 51 -34.5 83.5t-82.5 32.5h-167v-233h167z"/>
         <glyph glyph-name="Q" unicode="Q" horiz-adv-x="824"
                d="M774 108h28v-108h-36q-56 0 -106 52l-17 18q-98 -80 -228 -80q-158 0 -262 111.5t-104 273.5t104 273.5t262 111.5q157 0 261.5 -111.5t104.5 -273.5q0 -127 -68 -228l21 -22q16 -17 40 -17zM415 99q88 0 153 49l-110 116l72 73l106 -110q36 67 36 148q0 118 -71.5 197
t-185.5 79t-186 -79t-72 -197t72 -197t186 -79z"/>
         <glyph glyph-name="R" unicode="R" horiz-adv-x="606"
                d="M410 335l186 -335h-129l-173 328h-109v-328h-115v750h289q89 0 152 -63t63 -154q0 -74 -46.5 -129t-117.5 -69zM185 422h171q47 0 80 33.5t33 80.5t-33 80t-80 33h-171v-227z"/>
         <glyph glyph-name="S" unicode="S" horiz-adv-x="637"
                d="M328 -10q-91 0 -169.5 40t-121.5 106l83 83q23 -55 81.5 -87.5t130.5 -32.5q65 0 103.5 25t39.5 76q0 32 -13 57t-42 44.5t-53.5 30.5t-68.5 28q-32 12 -45.5 17.5t-42 18.5t-42 22.5t-33.5 26t-29 32.5t-16.5 38.5t-7.5 47.5q0 91 67.5 144t171.5 53q179 0 273 -109
l-77 -77q-58 88 -193 88q-56 0 -90.5 -23.5t-34.5 -66.5q0 -18 9 -34.5t21 -27.5t35.5 -24t40.5 -20t48 -20q45 -18 68.5 -28.5t61.5 -33t57.5 -44.5t35 -57t15.5 -77q0 -108 -72.5 -162t-190.5 -54z"/>
         <glyph glyph-name="T" unicode="T" horiz-adv-x="587"
                d="M551 750v-101h-200v-649h-114v649h-200v101h514z"/>
         <glyph glyph-name="U" unicode="U" horiz-adv-x="740"
                d="M370 -10q-123 0 -208.5 74t-85.5 180v506h115v-486q0 -72 52 -122.5t127 -50.5t127 50.5t52 122.5v486h115v-506q0 -106 -85.5 -180t-208.5 -74z"/>
         <glyph glyph-name="V" unicode="V" horiz-adv-x="762"
                d="M617 750h129l-301 -750h-129l-301 750h129l237 -617z"/>
         <glyph glyph-name="W" unicode="W" horiz-adv-x="1121"
                d="M1007 750h124l-317 -750h-125l-129 305l-128 -305h-124l-318 750h124l260 -614l129 305l-130 309h118l257 -615z"/>
         <glyph glyph-name="X" unicode="X" horiz-adv-x="670"
                d="M654 0h-132l-188 289l-187 -289h-132l257 383l-247 367h131l178 -273l179 273h131l-248 -367z"/>
         <glyph glyph-name="Y" unicode="Y" horiz-adv-x="670"
                d="M654 750l-261 -394v-356h-115v353l-263 397h129l191 -298l192 298h127z"/>
         <glyph glyph-name="Z" unicode="Z" horiz-adv-x="658"
                d="M199 101h414v-101h-570v61l406 588h-395v101h551v-61z"/>
         <glyph glyph-name="bracketleft" unicode="[" horiz-adv-x="281"
                d="M75 -353v1206h226v-83h-129v-1040h129v-83h-226z"/>
         <glyph glyph-name="backslash" unicode="\" horiz-adv-x="607"
                d="M509 -250l-530 1000h106l529 -1000h-105z"/>
         <glyph glyph-name="bracketright" unicode="]" horiz-adv-x="281"
                d="M75 -353v83h129v1040h-129v83h226v-1206h-226z"/>
         <glyph glyph-name="asciicircum" unicode="^" horiz-adv-x="711"
                d="M683 198h-94l-234 465l-234 -465h-94l278 552h100z"/>
         <glyph glyph-name="underscore" unicode="_" horiz-adv-x="674"
                d="M87 -75v75h500v-75h-500z"/>
         <glyph glyph-name="grave" unicode="`" horiz-adv-x="46"
                d="M141 590l-114 160h113l87 -160h-86z"/>
         <glyph glyph-name="a" unicode="a" horiz-adv-x="539"
                d="M260 510q93 0 153.5 -50.5t60.5 -145.5v-314h-98l-5 62q-86 -72 -172 -72q-67 0 -110.5 43t-43.5 110q0 74 59.5 117t177.5 27l83 -11v45q0 48 -31 71.5t-79 23.5q-73 0 -120 -60l-76 69q69 85 201 85zM158 149q0 -28 18.5 -44.5t48.5 -16.5q64 0 140 62v45l-66 10
q-141 21 -141 -56z"/>
         <glyph glyph-name="b" unicode="b" horiz-adv-x="592"
                d="M325 510q104 0 166.5 -74t62.5 -186t-62.5 -186t-166.5 -74q-91 0 -151 66l-5 -56h-99v750h109v-301q59 61 146 61zM307 88q64 0 101.5 46t37.5 116t-37.5 116t-101.5 46q-44 0 -78.5 -28.5t-49.5 -75.5v-116q15 -47 49.5 -75.5t78.5 -28.5z"/>
         <glyph glyph-name="c" unicode="c" horiz-adv-x="434"
                d="M275 -10q-110 0 -173.5 72t-63.5 188t63.5 188t173.5 72q75 0 124 -35v-110q-44 51 -112 51q-65 0 -102.5 -46t-37.5 -120t37.5 -120.5t102.5 -46.5q68 0 112 51v-109q-47 -35 -124 -35z"/>
         <glyph glyph-name="d" unicode="d" horiz-adv-x="592"
                d="M414 750h108v-750h-98l-6 56q-60 -66 -151 -66q-104 0 -166.5 74t-62.5 186t62.5 186t166.5 74q88 0 147 -62v302zM285 88q44 0 79 29t50 75v116q-15 46 -50 75t-79 29q-63 0 -100.5 -46t-37.5 -116t37.5 -116t100.5 -46z"/>
         <glyph glyph-name="e" unicode="e" horiz-adv-x="541"
                d="M503 246q0 -21 -2 -31h-354q15 -129 135 -129q42 0 70 17t58 64l77 -54q-65 -123 -209 -123q-111 0 -175.5 72t-64.5 187t65 188t175 73q106 0 165.5 -72.5t59.5 -191.5zM280 415q-109 0 -130 -115h253q-16 115 -123 115z"/>
         <glyph glyph-name="f" unicode="f" horiz-adv-x="387"
                d="M232 592v-92h127v-85h-127v-415h-111v415h-84v85h84v99q0 67 49 114t119 47q77 0 123 -54l-62 -68q-22 30 -59 30q-26 0 -42.5 -21.5t-16.5 -54.5z"/>
         <glyph glyph-name="g" unicode="g" horiz-adv-x="593"
                d="M424 500h99v-496q0 -112 -63 -183t-173 -71q-85 0 -152 39v119q71 -60 159 -60q56 0 88 40.5t32 115.5v48q-59 -62 -147 -62q-104 0 -166.5 74t-62.5 186t62.5 186t166.5 74q91 0 152 -67zM285 88q44 0 79 29t50 75v116q-15 46 -50 75t-79 29q-63 0 -100.5 -46
t-37.5 -116t37.5 -116t100.5 -46z"/>
         <glyph glyph-name="h" unicode="h" horiz-adv-x="595"
                d="M335 510q85 0 140 -54t55 -140v-316h-112v303q0 47 -32.5 78t-82.5 31q-51 0 -86.5 -33.5t-35.5 -81.5v-297h-111v750h111v-305q62 65 154 65z"/>
         <glyph glyph-name="i" unicode="i" horiz-adv-x="284"
                d="M142 590q-28 0 -48 19.5t-20 47.5t20 48t48 20t48 -20t20 -48t-20 -47.5t-48 -19.5zM86 0v500h111v-500h-111z"/>
         <glyph glyph-name="j" unicode="j" horiz-adv-x="270"
                d="M152 590q-28 0 -48 19.5t-20 47.5t20 48t48 20t48 -20t20 -48t-20 -47.5t-48 -19.5zM40 -260q-45 0 -68 16v95q24 -19 55 -19q29 0 49.5 22t20.5 54v592h111v-599q0 -68 -49 -114.5t-119 -46.5z"/>
         <glyph glyph-name="k" unicode="k" horiz-adv-x="535"
                d="M519 500l-234 -220l231 -203v-134l-335 297v-240h-111v750h111v-437l199 187h139z"/>
         <glyph glyph-name="l" unicode="l" horiz-adv-x="348"
                d="M249 -10q-80 0 -127 47t-47 123v590h111l1 -590q0 -75 65 -75q34 0 55 24l61 -75q-42 -44 -119 -44z"/>
         <glyph glyph-name="m" unicode="m" horiz-adv-x="903"
                d="M651 510q83 0 135 -53t52 -137v-320h-112v307q0 45 -29.5 75t-74.5 30q-48 0 -80 -32.5t-32 -79.5v-300h-112v307q0 45 -29.5 75t-74.5 30q-47 0 -80 -32.5t-33 -79.5v-300h-111v500h101l5 -54q59 64 148 64q106 0 157 -83q62 83 170 83z"/>
         <glyph glyph-name="n" unicode="n" horiz-adv-x="595"
                d="M335 510q85 0 140 -54t55 -140v-316h-112v303q0 47 -32.5 78t-82.5 31q-51 0 -86.5 -33.5t-35.5 -81.5v-297h-111v500h101l6 -59q61 69 158 69z"/>
         <glyph glyph-name="o" unicode="o" horiz-adv-x="570"
                d="M285 -10q-109 0 -178 74.5t-69 185.5t69 185.5t178 74.5t178 -74.5t69 -185.5t-69 -185.5t-178 -74.5zM285 88q63 0 100.5 46.5t37.5 115.5t-37.5 115.5t-100.5 46.5t-100.5 -46t-37.5 -116t37.5 -116t100.5 -46z"/>
         <glyph glyph-name="p" unicode="p" horiz-adv-x="592"
                d="M325 510q104 0 166.5 -74t62.5 -186t-62.5 -186t-166.5 -74q-87 0 -146 61v-301h-109v750h109v-51q59 61 146 61zM307 88q64 0 101.5 46t37.5 116t-37.5 116t-101.5 46q-44 0 -78.5 -28.5t-49.5 -75.5v-116q15 -47 49.5 -75.5t78.5 -28.5z"/>
         <glyph glyph-name="q" unicode="q" horiz-adv-x="592"
                d="M414 500h108v-750h-108v302q-59 -62 -147 -62q-104 0 -166.5 74t-62.5 186t62.5 186t166.5 74q88 0 147 -62v52zM285 88q44 0 79 29t50 75v116q-15 46 -50 75t-79 29q-63 0 -100.5 -46t-37.5 -116t37.5 -116t100.5 -46z"/>
         <glyph glyph-name="r" unicode="r" horiz-adv-x="420"
                d="M319 510q78 0 121 -37l-53 -79q-30 18 -74 18q-53 0 -92.5 -40.5t-39.5 -103.5v-268h-111v500h101l6 -70q60 80 142 80z"/>
         <glyph glyph-name="s" unicode="s" horiz-adv-x="480"
                d="M244 -10q-59 0 -118 20t-91 51l55 77q20 -23 63.5 -39.5t84.5 -18.5q42 -2 68.5 13.5t26.5 42.5q0 28 -26 43.5t-80 32.5q-25 8 -34 11t-32 12t-33 15.5t-26.5 18t-23.5 23.5t-13 29t-6 36q0 66 55.5 109.5t135.5 43.5q49 0 99.5 -15.5t84.5 -39.5l-60 -77
q-42 37 -104 44q-37 4 -67.5 -10.5t-30.5 -40.5q0 -10 3.5 -18t13 -15.5t16 -12t23.5 -10.5t25 -8.5t29 -9.5q38 -11 59.5 -20t49 -26t41 -42.5t13.5 -60.5q0 -69 -57 -113.5t-144 -44.5z"/>
         <glyph glyph-name="t" unicode="t" horiz-adv-x="376"
                d="M315 109l61 -75q-42 -44 -119 -44q-80 0 -127 47t-47 123v255h-61v85h61v170h111v-170h142v-85h-141v-255q0 -75 65 -75q34 0 55 24z"/>
         <glyph glyph-name="u" unicode="u" horiz-adv-x="602"
                d="M421 500h111v-500h-101l-6 60q-60 -70 -154 -70q-84 0 -141.5 58t-57.5 142v310h111v-297q0 -48 34 -81.5t83 -33.5q50 0 85.5 33.5t35.5 81.5v297z"/>
         <glyph glyph-name="v" unicode="v" horiz-adv-x="517"
                d="M393 500h119l-201 -500h-106l-200 500h119l135 -368z"/>
         <glyph glyph-name="w" unicode="w" horiz-adv-x="732"
                d="M603 500h124l-171 -500h-120l-72 203l-68 -203h-119l-172 500h126l113 -367l70 214l-54 153h108l121 -369z"/>
         <glyph glyph-name="x" unicode="x" horiz-adv-x="533"
                d="M543 500l-209 -251l209 -249h-135l-141 169l-142 -169h-135l209 250l-209 250h133l143 -170l143 170h134z"/>
         <glyph glyph-name="y" unicode="y" horiz-adv-x="603"
                d="M532 500l1 -500q0 -113 -68.5 -183.5t-189.5 -70.5q-100 0 -173 39v119q78 -60 182 -60q66 0 101.5 40.5t35.5 115.5v55q-62 -65 -150 -65q-84 0 -141.5 58t-57.5 142v310h111v-297q0 -48 34 -81.5t83 -33.5q50 0 85.5 33.5t35.5 81.5v297h111z"/>
         <glyph glyph-name="z" unicode="z" horiz-adv-x="542"
                d="M54 0v80l285 328h-281v92h425v-78l-286 -330h291v-92h-434z"/>
         <glyph glyph-name="braceleft" unicode="{" horiz-adv-x="340"
                d="M235 -336q-49 0 -81 41.5t-32 102.5v247q0 75 -14 106t-61 53v70q48 23 61.5 53.5t13.5 105.5v242q0 61 32 102.5t81 41.5h55v-76q-50 0 -66 -13t-16 -60v-252q0 -64 -13 -106.5t-50 -72.5q37 -30 50 -72.5t13 -106.5v-257q0 -38 16.5 -52.5t65.5 -14.5v-82h-55z"/>
         <glyph glyph-name="bar" unicode="|" horiz-adv-x="294"
                d="M111 -150v900h71v-900h-71z"/>
         <glyph glyph-name="braceright" unicode="}" horiz-adv-x="340"
                d="M50 -336v82q49 0 65.5 14.5t16.5 52.5v257q0 64 13 106.5t50 72.5q-37 30 -50 72.5t-13 106.5v252q0 47 -16 60t-66 13v81h56q48 0 80 -41.5t32 -102.5v-247q0 -75 13.5 -105.5t61.5 -53.5v-70q-48 -22 -61.5 -52.5t-13.5 -106.5v-247q0 -61 -32 -102.5t-80 -41.5h-56z
"/>
         <glyph glyph-name="asciitilde" unicode="~" horiz-adv-x="561"
                d="M387 174q-31 0 -59.5 14.5t-40 26t-32.5 34.5q-39 46 -76 46q-39 0 -61.5 -32t-18.5 -78h-59q-7 74 33 121.5t106 47.5q68 0 126 -73q38 -49 77 -49q38 0 61 30.5t18 78.5h59q8 -71 -31 -119t-102 -48z"/>
         <glyph glyph-name="exclamdown" unicode="&#xa1;" horiz-adv-x="310"
                d="M155 364q-28 0 -48 20t-20 48t20 48t48 20t48 -20t20 -48t-20 -48t-48 -20zM99 -250l13 518h85l13 -518h-111z"/>
         <glyph glyph-name="cent" unicode="&#xa2;" horiz-adv-x="513"
                d="M322 512q-68 0 -115 -47t-47 -115t47 -115t115 -47q78 0 124 42v-109q-51 -28 -113 -31v-91h-67v96q-95 19 -156 90t-61 165t61 165t156 90v96h67v-91q60 -3 113 -31v-109q-46 42 -124 42z"/>
         <glyph glyph-name="sterling" unicode="&#xa3;" horiz-adv-x="619"
                d="M198 79h380v-79h-465v329h-80v74h80v119q0 104 65 171t167 67q75 0 138.5 -48.5t82.5 -121.5l-82 -36q-6 51 -47 85.5t-92 34.5q-67 0 -107 -41.5t-40 -110.5v-119h186v-74h-186v-250z"/>
         <glyph glyph-name="currency" unicode="&#xa4;" horiz-adv-x="621"
                d="M130 121l-60 63l52 51q-40 57 -40 128t40 128l-51 50l60 63l52 -53q57 41 128 41t128 -41l52 52l60 -60l-51 -51q40 -58 40 -129t-40 -129l51 -50l-59 -63l-53 53q-57 -40 -128.5 -40t-128.5 40zM207 261q44 -43 103.5 -43t102.5 43q42 42 42 102t-42 102
q-43 42 -102.5 42t-102.5 -43q-41 -42 -41.5 -102t40.5 -101z"/>
         <glyph glyph-name="yen" unicode="&#xa5;" horiz-adv-x="684"
                d="M646 750l-255 -386h192v-72h-192v-88h192v-67h-192v-137h-98v137h-190v67h190v88h-190v72h190l-256 386h105l200 -310l200 310h104z"/>
         <glyph glyph-name="brokenbar" unicode="&#xa6;" horiz-adv-x="294"
                d="M111 390v360h71v-360h-71zM111 -150v360h71v-360h-71z"/>
         <glyph glyph-name="section" unicode="&#xa7;" horiz-adv-x="628"
                d="M529 254q39 -37 39 -90q0 -71 -73.5 -116.5t-175.5 -45.5q-86 0 -156 33t-100 84l70 42q20 -36 70.5 -59t119.5 -23q68 0 115 23t47 63q0 29 -29 49t-72 30.5t-93.5 25t-93.5 30.5t-72 48.5t-29 78.5q0 54 40 91q-39 36 -39 87q0 72 65 113.5t154 41.5q61 0 117.5 -20.5
t90.5 -53.5l-57 -47q-52 49 -146 49q-58 0 -99.5 -21t-41.5 -58q0 -33 40 -55t97 -35.5t114.5 -30.5t97.5 -53t40 -91q0 -50 -40 -90zM180 430q0 -37 41.5 -58t121.5 -41t117 -36q25 21 25 50q0 28 -29.5 48t-66.5 30t-94 25t-91 29q-24 -19 -24 -47z"/>
         <glyph glyph-name="dieresis" unicode="&#xa8;" horiz-adv-x="46"
                d="M127 590q-28 0 -48 19.5t-20 47.5t20 48t48 20t48 -20t20 -48t-20 -47.5t-48 -19.5zM327 590q-28 0 -48 19.5t-20 47.5t20 48t48 20t47.5 -20t19.5 -48t-19.5 -47.5t-47.5 -19.5z"/>
         <glyph glyph-name="copyright" unicode="&#xa9;" horiz-adv-x="868"
                d="M434 -10q-159 0 -272 113t-113 272t113 272t272 113t272 -113t113 -272t-113 -272t-272 -113zM434 52q136 0 230 94t94 229t-94 229t-230 94q-135 0 -229 -94t-94 -229t94 -229t229 -94zM451 180q-83 0 -141.5 55.5t-58.5 135.5t58.5 136t141.5 56q52 0 95 -25v-70l-4 -1
q-38 31 -88 31q-55 0 -92.5 -35t-37.5 -92q0 -56 37.5 -91t92.5 -35q52 0 87 29h5v-69q-44 -25 -95 -25z"/>
         <glyph glyph-name="ordfeminine" unicode="&#xaa;" horiz-adv-x="412"
                d="M301 750h56v-300h-56v58q-41 -64 -118 -64q-62 0 -106.5 45.5t-44.5 110.5q0 64 44.5 110t106.5 46q76 0 118 -65v59zM194 493q44 0 75.5 31.5t31.5 75.5t-31.5 75t-75.5 31t-75 -31t-31 -75t31 -75.5t75 -31.5z"/>
         <glyph glyph-name="guillemotleft" unicode="&#xab;" horiz-adv-x="664"
                d="M260 95l-152 184l152 184h91l-152 -184l152 -184h-91zM465 95l-152 184l152 184h92l-152 -184l152 -184h-92z"/>
         <glyph glyph-name="logicalnot" unicode="&#xac;" horiz-adv-x="789"
                d="M630 110v256h-543v72h615v-328h-72z"/>
         <glyph glyph-name="uni00AD" unicode="&#xad;" horiz-adv-x="600"
                d="M87 222v76h350v-76h-350z"/>
         <glyph glyph-name="registered" unicode="&#xae;" horiz-adv-x="868"
                d="M434 760q159 0 272 -113t113 -272t-113 -272t-272 -113t-272 113t-113 272t113 272t272 113zM434 52q136 0 230 94t94 229t-94 229t-230 94q-135 0 -229 -94t-94 -229t94 -229t229 -94zM574 456q0 -35 -20 -64t-52 -42l92 -169h-64l-90 161h-53v-161h-57v388h129
q48 0 81.5 -33t33.5 -80zM387 512v-113h72q24 0 40.5 16.5t16.5 40.5q0 23 -16.5 39.5t-40.5 16.5h-72z"/>
         <glyph glyph-name="macron" unicode="&#xaf;" horiz-adv-x="54"
                d="M27 594v72h310v-72h-310z"/>
         <glyph glyph-name="degree" unicode="&#xb0;" horiz-adv-x="482"
                d="M241 492q-55 0 -94.5 39t-39.5 95t39.5 95t94.5 39t94.5 -39t39.5 -95t-39.5 -95t-94.5 -39zM241 548q33 0 55.5 22.5t22.5 55.5t-22.5 55.5t-55.5 22.5t-55.5 -22.5t-22.5 -55.5t22.5 -55.5t55.5 -22.5z"/>
         <glyph glyph-name="plusminus" unicode="&#xb1;" horiz-adv-x="787"
                d="M430 439h310v-72h-310v-180h-72v180h-311v72h311v180h72v-180zM47 0v66h693v-66h-693z"/>
         <glyph glyph-name="uni00B2" unicode="&#xb2;" horiz-adv-x="339"
                d="M45 380v40q129 134 156.5 168t27.5 61q0 30 -17.5 45.5t-43.5 16.5q-28 0 -45.5 -17.5t-16.5 -46.5h-54q-1 50 33.5 81.5t85.5 31.5q47 0 79 -28.5t33 -74.5q1 -43 -26.5 -80t-136.5 -148h174v-49h-249z"/>
         <glyph glyph-name="uni00B3" unicode="&#xb3;" horiz-adv-x="364"
                d="M233 592q63 -32 63 -98q0 -50 -34.5 -84.5t-84.5 -34.5t-85 31.5t-35 77.5l55 1q0 -24 19 -41t46 -17t45.5 19.5t18.5 47.5t-18.5 47t-45.5 19h-30v45h26q22 0 37 15.5t15 38.5q0 21 -15 35t-37 14q-20 0 -34.5 -13t-14.5 -32l-54 1q0 40 30 68t73 28t73 -28t30 -68
q0 -48 -43 -72z"/>
         <glyph glyph-name="acute" unicode="&#xb4;" horiz-adv-x="46"
                d="M27 590l87 160h113l-113 -160h-87z"/>
         <glyph glyph-name="uni00B5" unicode="&#xb5;" horiz-adv-x="600"
                d="M426 500h111v-500h-111v66q-60 -76 -153 -76q-63 0 -113 36v-276h-83v750h111v-297q0 -48 34 -81.5t82 -33.5q51 0 86.5 33.5t35.5 81.5v297z"/>
         <glyph glyph-name="paragraph" unicode="&#xb6;" horiz-adv-x="629"
                d="M301 -150v565h-26q-84 0 -131 43.5t-47 124.5t47 124t131 43h84v-900h-58zM453 -150v900h59v-900h-59z"/>
         <glyph glyph-name="periodcentered" unicode="&#xb7;" horiz-adv-x="279"
                d="M139 308q-21 0 -36.5 15t-15.5 37q0 21 15.5 36.5t36.5 15.5t37 -15.5t16 -36.5q0 -22 -16 -37t-37 -15z"/>
         <glyph glyph-name="cedilla" unicode="&#xb8;" horiz-adv-x="46"
                d="M143 -260q-35 0 -68.5 19.5t-47.5 48.5l50 19q10 -14 29 -24t37 -10q22 0 36.5 15t14.5 37q0 32 -27 43.5t-66 -4.5l-43 27l47 89h54l-33 -64q51 10 86.5 -17t35.5 -74q0 -44 -30.5 -74.5t-74.5 -30.5z"/>
         <glyph glyph-name="uni00B9" unicode="&#xb9;" horiz-adv-x="269"
                d="M95 375v326h-55v49h111v-375h-56z"/>
         <glyph glyph-name="ordmasculine" unicode="&#xba;" horiz-adv-x="389"
                d="M194 444q-68 0 -115 45.5t-47 110.5t47.5 110.5t114.5 45.5q68 0 115.5 -45.5t47.5 -110.5t-47.5 -110.5t-115.5 -45.5zM194 493q44 0 75.5 31.5t31.5 75.5t-31.5 75t-75.5 31t-75 -31t-31 -75t31 -75.5t75 -31.5z"/>
         <glyph glyph-name="guillemotright" unicode="&#xbb;" horiz-adv-x="664"
                d="M107 95l152 184l-152 184h91l152 -184l-152 -184h-91zM312 95l152 184l-152 184h92l152 -184l-152 -184h-92z"/>
         <glyph glyph-name="questiondown" unicode="&#xbf;" horiz-adv-x="568"
                d="M280 517q28 0 48 -20t20 -48t-20 -48t-48 -20t-48 20t-20 48t20 48t48 20zM334 291v-55q0 -46 -13.5 -77t-33.5 -44.5t-43.5 -27t-43.5 -24t-33.5 -35t-13.5 -61.5q0 -52 37.5 -85.5t93.5 -33.5q58 0 95 38t35 94h99q4 -97 -62 -163t-167 -66q-98 0 -163.5 62t-65.5 154
q0 55 18.5 92.5t44.5 55.5t52 31.5t44.5 32.5t18.5 48v64h101z"/>
         <glyph glyph-name="Agrave" unicode="&#xc0;" horiz-adv-x="762"
                d="M419 840h-86l-114 160h113zM621 0l-57 151h-366l-58 -151h-125l301 750h129l301 -750h-125zM234 247h293l-146 385z"/>
         <glyph glyph-name="Aacute" unicode="&#xc1;" horiz-adv-x="762"
                d="M539 1000l-113 -160h-87l87 160h113zM621 0l-57 151h-366l-58 -151h-125l301 750h129l301 -750h-125zM234 247h293l-146 385z"/>
         <glyph glyph-name="Acircumflex" unicode="&#xc2;" horiz-adv-x="762"
                d="M381 949l-75 -120h-87l103 171h117l104 -171h-88zM621 0l-57 151h-366l-58 -151h-125l301 750h129l301 -750h-125zM234 247h293l-146 385z"/>
         <glyph glyph-name="Atilde" unicode="&#xc3;" horiz-adv-x="762"
                d="M284 837h-68q-10 60 18 99t78 39q60 0 97 -56q15 -25 38 -25q21 0 29.5 20t1.5 52h67q11 -59 -16.5 -98.5t-79.5 -39.5q-59 0 -96 56q-16 25 -38 25q-21 0 -30 -20.5t-1 -51.5zM621 0l-57 151h-366l-58 -151h-125l301 750h129l301 -750h-125zM234 247h293l-146 385z"/>
         <glyph glyph-name="Adieresis" unicode="&#xc4;" horiz-adv-x="762"
                d="M281 840q-28 0 -48 19.5t-20 47.5t20 48t48 20t48 -20t20 -48t-20 -47.5t-48 -19.5zM481 840q-28 0 -48 19.5t-20 47.5t20 48t48 20t47.5 -20t19.5 -48t-19.5 -47.5t-47.5 -19.5zM621 0l-57 151h-366l-58 -151h-125l301 750h129l301 -750h-125zM234 247h293l-146 385z
"/>
         <glyph glyph-name="Aring" unicode="&#xc5;" horiz-adv-x="762"
                d="M621 0l-57 151h-366l-58 -151h-125l294 732q-36 33 -36 80q0 44 32 76t77 32q44 0 75.5 -32t31.5 -76q0 -48 -36 -81l293 -731h-125zM382 873q-25 0 -42 -18t-17 -43q0 -26 17 -43t42 -17t42 17t17 43q0 25 -17 43t-42 18zM234 247h293l-146 385z"/>
         <glyph glyph-name="AE" unicode="&#xc6;" horiz-adv-x="915"
                d="M15 0l301 750h554v-98h-314v-233h272v-88h-272v-233h314v-98h-426v161h-242l-58 -161h-129zM240 249h205v403h-49z"/>
         <glyph glyph-name="Ccedilla" unicode="&#xc7;" horiz-adv-x="654"
                d="M415 651q-114 0 -186 -79t-72 -197t72 -197t186 -79t192 90v-137q-75 -55 -170 -61l-28 -55q51 10 86.5 -17t35.5 -74q0 -44 -30.5 -74.5t-74.5 -30.5q-35 0 -68.5 19.5t-47.5 48.5l50 19q10 -14 29 -24t37 -10q22 0 36.5 15t14.5 37q0 32 -27 43.5t-66 -4.5l-43 27
l42 80q-146 12 -240 121.5t-94 262.5q0 162 104 273.5t262 111.5q106 0 192 -62v-137q-79 90 -192 90z"/>
         <glyph glyph-name="Egrave" unicode="&#xc8;" horiz-adv-x="542"
                d="M321 840h-86l-114 160h113zM497 649h-312v-223h270v-102h-270v-223h312v-101h-427v750h427v-101z"/>
         <glyph glyph-name="Eacute" unicode="&#xc9;" horiz-adv-x="542"
                d="M441 1000l-113 -160h-87l87 160h113zM497 649h-312v-223h270v-102h-270v-223h312v-101h-427v750h427v-101z"/>
         <glyph glyph-name="Ecircumflex" unicode="&#xca;" horiz-adv-x="542"
                d="M283 949l-75 -120h-87l103 171h117l104 -171h-88zM497 649h-312v-223h270v-102h-270v-223h312v-101h-427v750h427v-101z"/>
         <glyph glyph-name="Edieresis" unicode="&#xcb;" horiz-adv-x="542"
                d="M183 840q-28 0 -48 19.5t-20 47.5t20 48t48 20t48 -20t20 -48t-20 -47.5t-48 -19.5zM383 840q-28 0 -48 19.5t-20 47.5t20 48t48 20t47.5 -20t19.5 -48t-19.5 -47.5t-47.5 -19.5zM497 649h-312v-223h270v-102h-270v-223h312v-101h-427v750h427v-101z"/>
         <glyph glyph-name="Igrave" unicode="&#xcc;" horiz-adv-x="255"
                d="M79 840l-114 160h113l87 -160h-86zM70 0v750h115v-750h-115z"/>
         <glyph glyph-name="Iacute" unicode="&#xcd;" horiz-adv-x="255"
                d="M85 840l87 160h113l-113 -160h-87zM70 0v750h115v-750h-115z"/>
         <glyph glyph-name="Icircumflex" unicode="&#xce;" horiz-adv-x="255"
                d="M-35 829l103 171h117l104 -171h-88l-74 120l-75 -120h-87zM70 0v750h115v-750h-115z"/>
         <glyph glyph-name="Idieresis" unicode="&#xcf;" horiz-adv-x="255"
                d="M27 840q-28 0 -48 19.5t-20 47.5t20 48t48 20t48 -20t20 -48t-20 -47.5t-48 -19.5zM227 840q-28 0 -48 19.5t-20 47.5t20 48t48 20t47.5 -20t19.5 -48t-19.5 -47.5t-47.5 -19.5zM70 0v750h115v-750h-115z"/>
         <glyph glyph-name="Eth" unicode="&#xd0;" horiz-adv-x="716"
                d="M292 750q155 0 265 -110t110 -265t-110 -265t-265 -110h-222v336h-75v78h75v336h222zM291 101q109 0 185 79.5t76 194.5t-76 194.5t-185 79.5h-107v-235h126v-78h-126v-235h107z"/>
         <glyph glyph-name="Ntilde" unicode="&#xd1;" horiz-adv-x="792"
                d="M299 837h-68q-10 60 18 99t78 39q60 0 97 -56q15 -25 38 -25q21 0 29.5 20t1.5 52h67q11 -59 -16.5 -98.5t-79.5 -39.5q-59 0 -96 56q-16 25 -38 25q-21 0 -30 -20.5t-1 -51.5zM608 750h114v-750h-114l-423 571v-571h-115v750h114l424 -571v571z"/>
         <glyph glyph-name="Ograve" unicode="&#xd2;" horiz-adv-x="830"
                d="M367 840l-114 160h113l87 -160h-86zM415 -10q-158 0 -262 111.5t-104 273.5t104 273.5t262 111.5q157 0 261.5 -111.5t104.5 -273.5t-104.5 -273.5t-261.5 -111.5zM415 99q114 0 185.5 79t71.5 197t-71.5 197t-185.5 79t-186 -79t-72 -197t72 -197t186 -79z"/>
         <glyph glyph-name="Oacute" unicode="&#xd3;" horiz-adv-x="830"
                d="M373 840l87 160h113l-113 -160h-87zM415 -10q-158 0 -262 111.5t-104 273.5t104 273.5t262 111.5q157 0 261.5 -111.5t104.5 -273.5t-104.5 -273.5t-261.5 -111.5zM415 99q114 0 185.5 79t71.5 197t-71.5 197t-185.5 79t-186 -79t-72 -197t72 -197t186 -79z"/>
         <glyph glyph-name="Ocircumflex" unicode="&#xd4;" horiz-adv-x="830"
                d="M253 829l103 171h117l104 -171h-88l-74 120l-75 -120h-87zM415 -10q-158 0 -262 111.5t-104 273.5t104 273.5t262 111.5q157 0 261.5 -111.5t104.5 -273.5t-104.5 -273.5t-261.5 -111.5zM415 99q114 0 185.5 79t71.5 197t-71.5 197t-185.5 79t-186 -79t-72 -197t72 -197
t186 -79z"/>
         <glyph glyph-name="Otilde" unicode="&#xd5;" horiz-adv-x="830"
                d="M483 828q-59 0 -96 56q-16 25 -38 25q-21 0 -30 -20.5t-1 -51.5h-68q-10 60 18 99t78 39q60 0 97 -56q15 -25 38 -25q21 0 29.5 20t1.5 52h67q11 -59 -16.5 -98.5t-79.5 -39.5zM415 -10q-158 0 -262 111.5t-104 273.5t104 273.5t262 111.5q157 0 261.5 -111.5
t104.5 -273.5t-104.5 -273.5t-261.5 -111.5zM415 99q114 0 185.5 79t71.5 197t-71.5 197t-185.5 79t-186 -79t-72 -197t72 -197t186 -79z"/>
         <glyph glyph-name="Odieresis" unicode="&#xd6;" horiz-adv-x="830"
                d="M315 840q-28 0 -48 19.5t-20 47.5t20 48t48 20t48 -20t20 -48t-20 -47.5t-48 -19.5zM515 840q-28 0 -48 19.5t-20 47.5t20 48t48 20t47.5 -20t19.5 -48t-19.5 -47.5t-47.5 -19.5zM415 -10q-158 0 -262 111.5t-104 273.5t104 273.5t262 111.5q157 0 261.5 -111.5
t104.5 -273.5t-104.5 -273.5t-261.5 -111.5zM415 99q114 0 185.5 79t71.5 197t-71.5 197t-185.5 79t-186 -79t-72 -197t72 -197t186 -79z"/>
         <glyph glyph-name="multiply" unicode="&#xd7;" horiz-adv-x="741"
                d="M634 499l-189 -189l189 -189l-60 -60l-189 189l-190 -189l-60 60l189 189l-189 189l60 60l190 -189l189 189z"/>
         <glyph glyph-name="Oslash" unicode="&#xd8;" horiz-adv-x="830"
                d="M652 673q61 -54 95 -131.5t34 -166.5q0 -162 -104.5 -273.5t-261.5 -111.5q-100 0 -184 49l-41 -61h-77l66 99q-61 53 -95.5 131t-34.5 167q0 162 104 273.5t262 111.5q101 0 185 -50l40 61h77zM157 375q0 -128 82 -207l301 452q-56 31 -125 31q-114 0 -186 -79t-72 -197
zM415 99q114 0 185.5 79t71.5 197q0 129 -81 207l-300 -452q56 -31 124 -31z"/>
         <glyph glyph-name="Ugrave" unicode="&#xd9;" horiz-adv-x="740"
                d="M322 840l-114 160h113l87 -160h-86zM370 -10q-123 0 -208.5 74t-85.5 180v506h115v-486q0 -72 52 -122.5t127 -50.5t127 50.5t52 122.5v486h115v-506q0 -106 -85.5 -180t-208.5 -74z"/>
         <glyph glyph-name="Uacute" unicode="&#xda;" horiz-adv-x="740"
                d="M328 840l87 160h113l-113 -160h-87zM370 -10q-123 0 -208.5 74t-85.5 180v506h115v-486q0 -72 52 -122.5t127 -50.5t127 50.5t52 122.5v486h115v-506q0 -106 -85.5 -180t-208.5 -74z"/>
         <glyph glyph-name="Ucircumflex" unicode="&#xdb;" horiz-adv-x="740"
                d="M208 829l103 171h117l104 -171h-88l-74 120l-75 -120h-87zM370 -10q-123 0 -208.5 74t-85.5 180v506h115v-486q0 -72 52 -122.5t127 -50.5t127 50.5t52 122.5v486h115v-506q0 -106 -85.5 -180t-208.5 -74z"/>
         <glyph glyph-name="Udieresis" unicode="&#xdc;" horiz-adv-x="740"
                d="M270 840q-28 0 -48 19.5t-20 47.5t20 48t48 20t48 -20t20 -48t-20 -47.5t-48 -19.5zM470 840q-28 0 -48 19.5t-20 47.5t20 48t48 20t47.5 -20t19.5 -48t-19.5 -47.5t-47.5 -19.5zM370 -10q-123 0 -208.5 74t-85.5 180v506h115v-486q0 -72 52 -122.5t127 -50.5t127 50.5
t52 122.5v486h115v-506q0 -106 -85.5 -180t-208.5 -74z"/>
         <glyph glyph-name="Yacute" unicode="&#xdd;" horiz-adv-x="670"
                d="M494 1000l-113 -160h-87l87 160h113zM654 750l-261 -394v-356h-115v353l-263 397h129l191 -298l192 298h127z"/>
         <glyph glyph-name="Thorn" unicode="&#xde;" horiz-adv-x="600"
                d="M357 644q89 0 151.5 -63t62.5 -154q0 -88 -62.5 -149.5t-151.5 -61.5h-176v-216h-111v644v104h111v-104h176zM353 314q49 0 83 34t34 82t-34 81.5t-83 33.5h-172v-231h172z"/>
         <glyph glyph-name="germandbls" unicode="&#xdf;" horiz-adv-x="683"
                d="M505 388q51 -30 81 -79t30 -109q0 -88 -58.5 -149t-141.5 -61q-42 0 -90.5 15.5t-76.5 40.5l45 85q44 -38 101 -38q44 2 76.5 34t32.5 79q0 51 -37.5 87t-90.5 36h-49v92h20q50 0 85.5 35t35.5 84t-36.5 80.5t-93.5 31.5q-60 0 -100 -35.5t-40 -89.5v-527h-111v527
q0 96 71.5 159.5t178.5 63.5q102 0 169 -59t67 -149q0 -92 -68 -154z"/>
         <glyph glyph-name="agrave" unicode="&#xe0;" horiz-adv-x="539"
                d="M314 590h-86l-114 160h113zM260 510q93 0 153.5 -50.5t60.5 -145.5v-314h-98l-5 62q-86 -72 -172 -72q-67 0 -110.5 43t-43.5 110q0 74 59.5 117t177.5 27l83 -11v45q0 48 -31 71.5t-79 23.5q-73 0 -120 -60l-76 69q69 85 201 85zM158 149q0 -28 18.5 -44.5t48.5 -16.5
q64 0 140 62v45l-66 10q-141 21 -141 -56z"/>
         <glyph glyph-name="aacute" unicode="&#xe1;" horiz-adv-x="539"
                d="M434 750l-113 -160h-87l87 160h113zM260 510q93 0 153.5 -50.5t60.5 -145.5v-314h-98l-5 62q-86 -72 -172 -72q-67 0 -110.5 43t-43.5 110q0 74 59.5 117t177.5 27l83 -11v45q0 48 -31 71.5t-79 23.5q-73 0 -120 -60l-76 69q69 85 201 85zM158 149q0 -28 18.5 -44.5
t48.5 -16.5q64 0 140 62v45l-66 10q-141 21 -141 -56z"/>
         <glyph glyph-name="acircumflex" unicode="&#xe2;" horiz-adv-x="539"
                d="M276 699l-75 -120h-87l103 171h117l104 -171h-88zM260 510q93 0 153.5 -50.5t60.5 -145.5v-314h-98l-5 62q-86 -72 -172 -72q-67 0 -110.5 43t-43.5 110q0 74 59.5 117t177.5 27l83 -11v45q0 48 -31 71.5t-79 23.5q-73 0 -120 -60l-76 69q69 85 201 85zM158 149
q0 -28 18.5 -44.5t48.5 -16.5q64 0 140 62v45l-66 10q-141 21 -141 -56z"/>
         <glyph glyph-name="atilde" unicode="&#xe3;" horiz-adv-x="539"
                d="M179 587h-68q-10 60 18 99t78 39q60 0 97 -56q15 -25 38 -25q21 0 29.5 20t1.5 52h67q11 -59 -16.5 -98.5t-79.5 -39.5q-59 0 -96 56q-16 25 -38 25q-21 0 -30 -20.5t-1 -51.5zM260 510q93 0 153.5 -50.5t60.5 -145.5v-314h-98l-5 62q-86 -72 -172 -72q-67 0 -110.5 43
t-43.5 110q0 74 59.5 117t177.5 27l83 -11v45q0 48 -31 71.5t-79 23.5q-73 0 -120 -60l-76 69q69 85 201 85zM158 149q0 -28 18.5 -44.5t48.5 -16.5q64 0 140 62v45l-66 10q-141 21 -141 -56z"/>
         <glyph glyph-name="adieresis" unicode="&#xe4;" horiz-adv-x="539"
                d="M176 590q-28 0 -48 19.5t-20 47.5t20 48t48 20t48 -20t20 -48t-20 -47.5t-48 -19.5zM376 590q-28 0 -48 19.5t-20 47.5t20 48t48 20t47.5 -20t19.5 -48t-19.5 -47.5t-47.5 -19.5zM260 510q93 0 153.5 -50.5t60.5 -145.5v-314h-98l-5 62q-86 -72 -172 -72q-67 0 -110.5 43
t-43.5 110q0 74 59.5 117t177.5 27l83 -11v45q0 48 -31 71.5t-79 23.5q-73 0 -120 -60l-76 69q69 85 201 85zM158 149q0 -28 18.5 -44.5t48.5 -16.5q64 0 140 62v45l-66 10q-141 21 -141 -56z"/>
         <glyph glyph-name="aring" unicode="&#xe5;" horiz-adv-x="539"
                d="M276 556q-45 0 -77 32t-32 76t32 76t77 32q44 0 75.5 -32t31.5 -76t-31.5 -76t-75.5 -32zM276 725q-25 0 -42 -18t-17 -43q0 -26 17 -43t42 -17t42 17t17 43q0 25 -17 43t-42 18zM260 510q93 0 153.5 -50.5t60.5 -145.5v-314h-98l-5 62q-86 -72 -172 -72q-67 0 -110.5 43
t-43.5 110q0 74 59.5 117t177.5 27l83 -11v45q0 48 -31 71.5t-79 23.5q-73 0 -120 -60l-76 69q69 85 201 85zM158 149q0 -28 18.5 -44.5t48.5 -16.5q64 0 140 62v45l-66 10q-141 21 -141 -56z"/>
         <glyph glyph-name="ae" unicode="&#xe6;" horiz-adv-x="839"
                d="M801 246q0 -21 -2 -31h-354q15 -129 135 -129q42 0 70 17t58 64l77 -54q-65 -123 -209 -123q-125 0 -191 90q-94 -90 -193 -90q-67 0 -110.5 43t-43.5 110q0 74 59.5 117t177.5 27l62 -8q3 36 16 76q-10 30 -38.5 45.5t-66.5 15.5q-73 0 -120 -60l-76 69q69 85 201 85
q120 0 165 -56q64 56 158 56q106 0 165.5 -72.5t59.5 -191.5zM578 415q-109 0 -130 -115h253q-16 115 -123 115zM151 149q0 -28 18.5 -44.5t48.5 -16.5q62 0 134 57q-9 26 -12 53l-48 7q-141 21 -141 -56z"/>
         <glyph glyph-name="ccedilla" unicode="&#xe7;" horiz-adv-x="434"
                d="M287 416q-65 0 -102.5 -46t-37.5 -120t37.5 -120.5t102.5 -46.5q68 0 112 51v-109q-42 -31 -111 -35l-28 -54q51 10 86.5 -17t35.5 -74q0 -44 -30.5 -74.5t-74.5 -30.5q-35 0 -68.5 19.5t-47.5 48.5l50 19q10 -14 29 -24t37 -10q22 0 36.5 15t14.5 37q0 32 -27 43.5
t-66 -4.5l-43 27l43 82q-92 13 -144.5 83t-52.5 174q0 116 63.5 188t173.5 72q75 0 124 -35v-110q-44 51 -112 51z"/>
         <glyph glyph-name="egrave" unicode="&#xe8;" horiz-adv-x="541"
                d="M317 591h-86l-114 160h113zM503 246q0 -21 -2 -31h-354q15 -129 135 -129q42 0 70 17t58 64l77 -54q-65 -123 -209 -123q-111 0 -175.5 72t-64.5 187t65 188t175 73q106 0 165.5 -72.5t59.5 -191.5zM280 415q-109 0 -130 -115h253q-16 115 -123 115z"/>
         <glyph glyph-name="eacute" unicode="&#xe9;" horiz-adv-x="541"
                d="M437 751l-113 -160h-87l87 160h113zM503 246q0 -21 -2 -31h-354q15 -129 135 -129q42 0 70 17t58 64l77 -54q-65 -123 -209 -123q-111 0 -175.5 72t-64.5 187t65 188t175 73q106 0 165.5 -72.5t59.5 -191.5zM280 415q-109 0 -130 -115h253q-16 115 -123 115z"/>
         <glyph glyph-name="ecircumflex" unicode="&#xea;" horiz-adv-x="541"
                d="M279 700l-75 -120h-87l103 171h117l104 -171h-88zM503 246q0 -21 -2 -31h-354q15 -129 135 -129q42 0 70 17t58 64l77 -54q-65 -123 -209 -123q-111 0 -175.5 72t-64.5 187t65 188t175 73q106 0 165.5 -72.5t59.5 -191.5zM280 415q-109 0 -130 -115h253q-16 115 -123 115
z"/>
         <glyph glyph-name="edieresis" unicode="&#xeb;" horiz-adv-x="541"
                d="M179 591q-28 0 -48 19.5t-20 47.5t20 48t48 20t48 -20t20 -48t-20 -47.5t-48 -19.5zM379 591q-28 0 -48 19.5t-20 47.5t20 48t48 20t47.5 -20t19.5 -48t-19.5 -47.5t-47.5 -19.5zM503 246q0 -21 -2 -31h-354q15 -129 135 -129q42 0 70 17t58 64l77 -54
q-65 -123 -209 -123q-111 0 -175.5 72t-64.5 187t65 188t175 73q106 0 165.5 -72.5t59.5 -191.5zM280 415q-109 0 -130 -115h253q-16 115 -123 115z"/>
         <glyph glyph-name="igrave" unicode="&#xec;" horiz-adv-x="251"
                d="M78 590l-114 160h113l87 -160h-86zM70 0v500h111v-500h-111z"/>
         <glyph glyph-name="iacute" unicode="&#xed;" horiz-adv-x="251"
                d="M84 590l87 160h113l-113 -160h-87zM70 0v500h111v-500h-111z"/>
         <glyph glyph-name="icircumflex" unicode="&#xee;" horiz-adv-x="251"
                d="M-36 579l103 171h117l104 -171h-88l-74 120l-75 -120h-87zM70 0v500h111v-500h-111z"/>
         <glyph glyph-name="idieresis" unicode="&#xef;" horiz-adv-x="251"
                d="M26 590q-28 0 -48 19.5t-20 47.5t20 48t48 20t48 -20t20 -48t-20 -47.5t-48 -19.5zM226 590q-28 0 -48 19.5t-20 47.5t20 48t48 20t47.5 -20t19.5 -48t-19.5 -47.5t-47.5 -19.5zM70 0v500h111v-500h-111z"/>
         <glyph glyph-name="eth" unicode="&#xf0;" horiz-adv-x="621"
                d="M395 686q87 -68 138 -183t51 -253q0 -109 -79.5 -184.5t-193.5 -75.5t-193.5 75.5t-79.5 184.5t79.5 184.5t193.5 75.5q63 0 122 -27q-34 82 -96 130l-49 -63l-36 28l47 60q-64 33 -140 35l22 89q94 0 177 -50l43 55l36 -27zM311 88q67 0 114 47.5t47 114.5t-47 114.5
t-114 47.5t-114.5 -47t-47.5 -115t47.5 -115t114.5 -47z"/>
         <glyph glyph-name="ntilde" unicode="&#xf1;" horiz-adv-x="595"
                d="M203 587h-68q-10 60 18 99t78 39q60 0 97 -56q15 -25 38 -25q21 0 29.5 20t1.5 52h67q11 -59 -16.5 -98.5t-79.5 -39.5q-59 0 -96 56q-16 25 -38 25q-21 0 -30 -20.5t-1 -51.5zM335 510q85 0 140 -54t55 -140v-316h-112v303q0 47 -32.5 78t-82.5 31q-51 0 -86.5 -33.5
t-35.5 -81.5v-297h-111v500h101l6 -59q61 69 158 69z"/>
         <glyph glyph-name="ograve" unicode="&#xf2;" horiz-adv-x="570"
                d="M237 590l-114 160h113l87 -160h-86zM285 -10q-109 0 -178 74.5t-69 185.5t69 185.5t178 74.5t178 -74.5t69 -185.5t-69 -185.5t-178 -74.5zM285 88q63 0 100.5 46.5t37.5 115.5t-37.5 115.5t-100.5 46.5t-100.5 -46t-37.5 -116t37.5 -116t100.5 -46z"/>
         <glyph glyph-name="oacute" unicode="&#xf3;" horiz-adv-x="570"
                d="M243 590l87 160h113l-113 -160h-87zM285 -10q-109 0 -178 74.5t-69 185.5t69 185.5t178 74.5t178 -74.5t69 -185.5t-69 -185.5t-178 -74.5zM285 88q63 0 100.5 46.5t37.5 115.5t-37.5 115.5t-100.5 46.5t-100.5 -46t-37.5 -116t37.5 -116t100.5 -46z"/>
         <glyph glyph-name="ocircumflex" unicode="&#xf4;" horiz-adv-x="570"
                d="M123 579l103 171h117l104 -171h-88l-74 120l-75 -120h-87zM285 -10q-109 0 -178 74.5t-69 185.5t69 185.5t178 74.5t178 -74.5t69 -185.5t-69 -185.5t-178 -74.5zM285 88q63 0 100.5 46.5t37.5 115.5t-37.5 115.5t-100.5 46.5t-100.5 -46t-37.5 -116t37.5 -116t100.5 -46
z"/>
         <glyph glyph-name="otilde" unicode="&#xf5;" horiz-adv-x="570"
                d="M353 578q-59 0 -96 56q-16 25 -38 25q-21 0 -30 -20.5t-1 -51.5h-68q-10 60 18 99t78 39q60 0 97 -56q15 -25 38 -25q21 0 29.5 20t1.5 52h67q11 -59 -16.5 -98.5t-79.5 -39.5zM285 -10q-109 0 -178 74.5t-69 185.5t69 185.5t178 74.5t178 -74.5t69 -185.5t-69 -185.5
t-178 -74.5zM285 88q63 0 100.5 46.5t37.5 115.5t-37.5 115.5t-100.5 46.5t-100.5 -46t-37.5 -116t37.5 -116t100.5 -46z"/>
         <glyph glyph-name="odieresis" unicode="&#xf6;" horiz-adv-x="570"
                d="M185 590q-28 0 -48 19.5t-20 47.5t20 48t48 20t48 -20t20 -48t-20 -47.5t-48 -19.5zM385 590q-28 0 -48 19.5t-20 47.5t20 48t48 20t47.5 -20t19.5 -48t-19.5 -47.5t-47.5 -19.5zM285 -10q-109 0 -178 74.5t-69 185.5t69 185.5t178 74.5t178 -74.5t69 -185.5t-69 -185.5
t-178 -74.5zM285 88q63 0 100.5 46.5t37.5 115.5t-37.5 115.5t-100.5 46.5t-100.5 -46t-37.5 -116t37.5 -116t100.5 -46z"/>
         <glyph glyph-name="divide" unicode="&#xf7;" horiz-adv-x="714"
                d="M357 384q-25 0 -43 17.5t-18 43.5q0 25 18.5 43t42.5 18q25 0 43.5 -18t18.5 -43q0 -26 -18.5 -43.5t-43.5 -17.5zM57 246v58h600v-58h-600zM357 44q-25 0 -43 17.5t-18 43.5q0 25 18.5 43t42.5 18q25 0 43.5 -18t18.5 -43q0 -26 -18.5 -43.5t-43.5 -17.5z"/>
         <glyph glyph-name="oslash" unicode="&#xf8;" horiz-adv-x="570"
                d="M447 451q85 -74 85 -201q0 -111 -69 -185.5t-178 -74.5q-69 0 -124 32l-36 -55h-55l54 81q-86 76 -86 202q0 111 69 185.5t178 74.5q67 0 125 -32l36 54h54zM147 250q0 -70 36 -114l171 257q-32 19 -69 19q-63 0 -100.5 -46t-37.5 -116zM285 88q63 0 100.5 46.5
t37.5 115.5t-35 113l-171 -257q29 -18 68 -18z"/>
         <glyph glyph-name="ugrave" unicode="&#xf9;" horiz-adv-x="602"
                d="M340 590h-86l-114 160h113zM421 500h111v-500h-101l-6 60q-60 -70 -154 -70q-84 0 -141.5 58t-57.5 142v310h111v-297q0 -48 34 -81.5t83 -33.5q50 0 85.5 33.5t35.5 81.5v297z"/>
         <glyph glyph-name="uacute" unicode="&#xfa;" horiz-adv-x="602"
                d="M460 750l-113 -160h-87l87 160h113zM421 500h111v-500h-101l-6 60q-60 -70 -154 -70q-84 0 -141.5 58t-57.5 142v310h111v-297q0 -48 34 -81.5t83 -33.5q50 0 85.5 33.5t35.5 81.5v297z"/>
         <glyph glyph-name="ucircumflex" unicode="&#xfb;" horiz-adv-x="602"
                d="M302 699l-75 -120h-87l103 171h117l104 -171h-88zM421 500h111v-500h-101l-6 60q-60 -70 -154 -70q-84 0 -141.5 58t-57.5 142v310h111v-297q0 -48 34 -81.5t83 -33.5q50 0 85.5 33.5t35.5 81.5v297z"/>
         <glyph glyph-name="udieresis" unicode="&#xfc;" horiz-adv-x="602"
                d="M202 590q-28 0 -48 19.5t-20 47.5t20 48t48 20t48 -20t20 -48t-20 -47.5t-48 -19.5zM402 590q-28 0 -48 19.5t-20 47.5t20 48t48 20t47.5 -20t19.5 -48t-19.5 -47.5t-47.5 -19.5zM421 500h111v-500h-101l-6 60q-60 -70 -154 -70q-84 0 -141.5 58t-57.5 142v310h111v-297
q0 -48 34 -81.5t83 -33.5q50 0 85.5 33.5t35.5 81.5v297z"/>
         <glyph glyph-name="yacute" unicode="&#xfd;" horiz-adv-x="603"
                d="M460 750l-113 -160h-87l87 160h113zM532 500l1 -500q0 -113 -68.5 -183.5t-189.5 -70.5q-100 0 -173 39v119q78 -60 182 -60q66 0 101.5 40.5t35.5 115.5v55q-62 -65 -150 -65q-84 0 -141.5 58t-57.5 142v310h111v-297q0 -48 34 -81.5t83 -33.5q50 0 85.5 33.5t35.5 81.5
v297h111z"/>
         <glyph glyph-name="thorn" unicode="&#xfe;" horiz-adv-x="647"
                d="M359 510q105 0 177.5 -75.5t72.5 -184.5t-72.5 -184.5t-177.5 -75.5q-110 0 -178 86v-325h-111v999h111v-326q68 86 178 86zM343 88q67 0 114.5 47t47.5 115t-47.5 115t-114.5 47t-114 -47.5t-47 -114.5t47 -114.5t114 -47.5z"/>
         <glyph glyph-name="ydieresis" unicode="&#xff;" horiz-adv-x="603"
                d="M202 590q-28 0 -48 19.5t-20 47.5t20 48t48 20t48 -20t20 -48t-20 -47.5t-48 -19.5zM402 590q-28 0 -48 19.5t-20 47.5t20 48t48 20t47.5 -20t19.5 -48t-19.5 -47.5t-47.5 -19.5zM532 500l1 -500q0 -113 -68.5 -183.5t-189.5 -70.5q-100 0 -173 39v119q78 -60 182 -60
q66 0 101.5 40.5t35.5 115.5v55q-62 -65 -150 -65q-84 0 -141.5 58t-57.5 142v310h111v-297q0 -48 34 -81.5t83 -33.5q50 0 85.5 33.5t35.5 81.5v297h111z"/>
         <glyph glyph-name="Amacron" unicode="&#x100;" horiz-adv-x="762"
                d="M536 916v-72h-310v72h310zM621 0l-57 151h-366l-58 -151h-125l301 750h129l301 -750h-125zM234 247h293l-146 385z"/>
         <glyph glyph-name="amacron" unicode="&#x101;" horiz-adv-x="539"
                d="M431 666v-72h-310v72h310zM260 510q93 0 153.5 -50.5t60.5 -145.5v-314h-98l-5 62q-86 -72 -172 -72q-67 0 -110.5 43t-43.5 110q0 74 59.5 117t177.5 27l83 -11v45q0 48 -31 71.5t-79 23.5q-73 0 -120 -60l-76 69q69 85 201 85zM158 149q0 -28 18.5 -44.5t48.5 -16.5
q64 0 140 62v45l-66 10q-141 21 -141 -56z"/>
         <glyph glyph-name="Abreve" unicode="&#x102;" horiz-adv-x="762"
                d="M380 812q-76 0 -123.5 43t-47.5 119h66q0 -39 30 -67.5t75 -28.5q47 0 77 28.5t30 67.5h65q0 -76 -47.5 -119t-124.5 -43zM621 0l-57 151h-366l-58 -151h-125l301 750h129l301 -750h-125zM234 247h293l-146 385z"/>
         <glyph glyph-name="abreve" unicode="&#x103;" horiz-adv-x="539"
                d="M275 562q-76 0 -123.5 43t-47.5 119h66q0 -39 30 -67.5t75 -28.5q47 0 77 28.5t30 67.5h65q0 -76 -47.5 -119t-124.5 -43zM260 510q93 0 153.5 -50.5t60.5 -145.5v-314h-98l-5 62q-86 -72 -172 -72q-67 0 -110.5 43t-43.5 110q0 74 59.5 117t177.5 27l83 -11v45
q0 48 -31 71.5t-79 23.5q-73 0 -120 -60l-76 69q69 85 201 85zM158 149q0 -28 18.5 -44.5t48.5 -16.5q64 0 140 62v45l-66 10q-141 21 -141 -56z"/>
         <glyph glyph-name="Aogonek" unicode="&#x104;" horiz-adv-x="762"
                d="M763 -153l36 -51q-60 -60 -147 -55q-54 3 -87 31t-33 77q0 96 117 151h-28l-57 151h-366l-58 -151h-125l301 750h129l301 -750q-52 0 -95 -45t-43 -97q0 -26 16.5 -43t46.5 -17q58 0 92 49zM234 247h293l-146 385z"/>
         <glyph glyph-name="aogonek" unicode="&#x105;" horiz-adv-x="539"
                d="M491 -153l36 -51q-60 -60 -147 -55q-54 3 -87 31t-33 77q0 96 117 151h-1l-5 62q-86 -72 -172 -72q-67 0 -110.5 43t-43.5 110q0 74 59.5 117t177.5 27l83 -11v45q0 48 -31 71.5t-79 23.5q-73 0 -120 -60l-76 69q69 85 201 85q93 0 153.5 -50.5t60.5 -145.5v-314
q-52 0 -95 -45t-43 -97q0 -26 16.5 -43t46.5 -17q58 0 92 49zM158 149q0 -28 18.5 -44.5t48.5 -16.5q64 0 140 62v45l-66 10q-141 21 -141 -56z"/>
         <glyph glyph-name="Cacute" unicode="&#x106;" horiz-adv-x="654"
                d="M373 840l87 160h113l-113 -160h-87zM415 -10q-158 0 -262 111.5t-104 273.5t104 273.5t262 111.5q106 0 192 -62v-137q-79 90 -192 90q-114 0 -186 -79t-72 -197t72 -197t186 -79t192 90v-137q-86 -62 -192 -62z"/>
         <glyph glyph-name="cacute" unicode="&#x107;" horiz-adv-x="434"
                d="M224 590l87 160h113l-113 -160h-87zM275 -10q-110 0 -173.5 72t-63.5 188t63.5 188t173.5 72q75 0 124 -35v-110q-44 51 -112 51q-65 0 -102.5 -46t-37.5 -120t37.5 -120.5t102.5 -46.5q68 0 112 51v-109q-47 -35 -124 -35z"/>
         <glyph glyph-name="Cdotaccent" unicode="&#x10a;" horiz-adv-x="654"
                d="M415 840q-28 0 -48 19.5t-20 47.5t20 48t48 20t48 -20t20 -48t-20 -47.5t-48 -19.5zM415 -10q-158 0 -262 111.5t-104 273.5t104 273.5t262 111.5q106 0 192 -62v-137q-79 90 -192 90q-114 0 -186 -79t-72 -197t72 -197t186 -79t192 90v-137q-86 -62 -192 -62z"/>
         <glyph glyph-name="cdotaccent" unicode="&#x10b;" horiz-adv-x="434"
                d="M266 590q-28 0 -48 19.5t-20 47.5t20 48t48 20t48 -20t20 -48t-20 -47.5t-48 -19.5zM275 -10q-110 0 -173.5 72t-63.5 188t63.5 188t173.5 72q75 0 124 -35v-110q-44 51 -112 51q-65 0 -102.5 -46t-37.5 -120t37.5 -120.5t102.5 -46.5q68 0 112 51v-109q-47 -35 -124 -35
z"/>
         <glyph glyph-name="Ccaron" unicode="&#x10c;" horiz-adv-x="654"
                d="M356 829l-103 171h84l78 -119l78 119h84l-104 -171h-117zM415 -10q-158 0 -262 111.5t-104 273.5t104 273.5t262 111.5q106 0 192 -62v-137q-79 90 -192 90q-114 0 -186 -79t-72 -197t72 -197t186 -79t192 90v-137q-86 -62 -192 -62z"/>
         <glyph glyph-name="ccaron" unicode="&#x10d;" horiz-adv-x="434"
                d="M207 579l-103 171h84l78 -119l78 119h84l-104 -171h-117zM275 -10q-110 0 -173.5 72t-63.5 188t63.5 188t173.5 72q75 0 124 -35v-110q-44 51 -112 51q-65 0 -102.5 -46t-37.5 -120t37.5 -120.5t102.5 -46.5q68 0 112 51v-109q-47 -35 -124 -35z"/>
         <glyph glyph-name="Dcaron" unicode="&#x10e;" horiz-adv-x="716"
                d="M232 829l-103 171h84l78 -119l78 119h84l-104 -171h-117zM70 0v750h222q155 0 265 -110t110 -265t-110 -265t-265 -110h-222zM184 101h107q109 0 185 79.5t76 194.5t-76 194.5t-185 79.5h-107v-548z"/>
         <glyph glyph-name="dcaron" unicode="&#x10f;" horiz-adv-x="787"
                d="M711 756q37 0 56.5 -31.5t19.5 -79.5q0 -72 -37 -133.5t-97 -62.5v52q29 1 48 35t19 64q0 21 -10 21q-28 0 -47.5 20t-19.5 48t19.5 47.5t48.5 19.5zM414 448v302h108v-750h-98l-6 56q-60 -66 -151 -66q-104 0 -166.5 74t-62.5 186t62.5 186t166.5 74q88 0 147 -62z
M285 88q44 0 79 29t50 75v116q-15 46 -50 75t-79 29q-63 0 -100.5 -46t-37.5 -116t37.5 -116t100.5 -46z"/>
         <glyph glyph-name="Dcroat" unicode="&#x110;" horiz-adv-x="716"
                d="M292 750q155 0 265 -110t110 -265t-110 -265t-265 -110h-222v336h-75v78h75v336h222zM291 101q109 0 185 79.5t76 194.5t-76 194.5t-185 79.5h-107v-235h126v-78h-126v-235h107z"/>
         <glyph glyph-name="dcroat" unicode="&#x111;" horiz-adv-x="592"
                d="M601 655v-78h-79v-577h-98l-6 56q-60 -66 -151 -66q-104 0 -166.5 74t-62.5 186t62.5 186t166.5 74q88 0 147 -62v129h-128v78h128v95h108v-95h79zM285 88q44 0 79 29t50 75v116q-15 46 -50 75t-79 29q-63 0 -100.5 -46t-37.5 -116t37.5 -116t100.5 -46z"/>
         <glyph glyph-name="Emacron" unicode="&#x112;" horiz-adv-x="542"
                d="M438 916v-72h-310v72h310zM497 649h-312v-223h270v-102h-270v-223h312v-101h-427v750h427v-101z"/>
         <glyph glyph-name="emacron" unicode="&#x113;" horiz-adv-x="541"
                d="M434 667v-72h-310v72h310zM503 246q0 -21 -2 -31h-354q15 -129 135 -129q42 0 70 17t58 64l77 -54q-65 -123 -209 -123q-111 0 -175.5 72t-64.5 187t65 188t175 73q106 0 165.5 -72.5t59.5 -191.5zM280 415q-109 0 -130 -115h253q-16 115 -123 115z"/>
         <glyph glyph-name="Edotaccent" unicode="&#x116;" horiz-adv-x="542"
                d="M283 840q-28 0 -48 19.5t-20 47.5t20 48t48 20t48 -20t20 -48t-20 -47.5t-48 -19.5zM497 649h-312v-223h270v-102h-270v-223h312v-101h-427v750h427v-101z"/>
         <glyph glyph-name="edotaccent" unicode="&#x117;" horiz-adv-x="541"
                d="M279 591q-28 0 -48 19.5t-20 47.5t20 48t48 20t48 -20t20 -48t-20 -47.5t-48 -19.5zM503 246q0 -21 -2 -31h-354q15 -129 135 -129q42 0 70 17t58 64l77 -54q-65 -123 -209 -123q-111 0 -175.5 72t-64.5 187t65 188t175 73q106 0 165.5 -72.5t59.5 -191.5zM280 415
q-109 0 -130 -115h253q-16 115 -123 115z"/>
         <glyph glyph-name="Eogonek" unicode="&#x118;" horiz-adv-x="542"
                d="M514 -153l36 -51q-60 -60 -147 -55q-54 3 -87 31t-33 77q0 96 117 151h-330v750h427v-101h-312v-223h270v-102h-270v-223h312v-101q-52 0 -95 -45t-43 -97q0 -26 16.5 -43t46.5 -17q58 0 92 49z"/>
         <glyph glyph-name="eogonek" unicode="&#x119;" horiz-adv-x="541"
                d="M503 246q0 -21 -2 -31h-354q15 -129 135 -129q42 0 70 17t58 64l77 -54q-52 -99 -158 -118q-26 -39 -26 -77q0 -26 16.5 -43t46.5 -17q58 0 92 49l36 -51q-60 -60 -147 -55q-54 3 -87 31t-33 77q0 43 28 82q-101 7 -159 78t-58 180q0 115 65 188t175 73
q106 0 165.5 -72.5t59.5 -191.5zM280 415q-109 0 -130 -115h253q-16 115 -123 115z"/>
         <glyph glyph-name="Ecaron" unicode="&#x11a;" horiz-adv-x="542"
                d="M341 829h-117l-103 171h84l78 -119l78 119h84zM497 649h-312v-223h270v-102h-270v-223h312v-101h-427v750h427v-101z"/>
         <glyph glyph-name="ecaron" unicode="&#x11b;" horiz-adv-x="541"
                d="M337 580h-117l-103 171h84l78 -119l78 119h84zM503 246q0 -21 -2 -31h-354q15 -129 135 -129q42 0 70 17t58 64l77 -54q-65 -123 -209 -123q-111 0 -175.5 72t-64.5 187t65 188t175 73q106 0 165.5 -72.5t59.5 -191.5zM280 415q-109 0 -130 -115h253q-16 115 -123 115z
"/>
         <glyph glyph-name="Gbreve" unicode="&#x11e;" horiz-adv-x="744"
                d="M457 812q-76 0 -123.5 43t-47.5 119h66q0 -39 30 -67.5t75 -28.5q47 0 77 28.5t30 67.5h65q0 -76 -47.5 -119t-124.5 -43zM455 651q-120 0 -199.5 -75.5t-79.5 -204.5t79.5 -204.5t199.5 -75.5q61 0 117 25v196h-154v102h256v-367q-105 -65 -220 -65q-163 0 -274 107
t-111 282t110.5 282t271.5 107q118 0 223 -65v-145q-38 47 -96.5 74t-122.5 27z"/>
         <glyph glyph-name="gbreve" unicode="&#x11f;" horiz-adv-x="593"
                d="M279 562q-76 0 -123.5 43t-47.5 119h66q0 -39 30 -67.5t75 -28.5q47 0 77 28.5t30 67.5h65q0 -76 -47.5 -119t-124.5 -43zM424 500h99v-496q0 -112 -63 -183t-173 -71q-85 0 -152 39v119q71 -60 159 -60q56 0 88 40.5t32 115.5v48q-59 -62 -147 -62q-104 0 -166.5 74
t-62.5 186t62.5 186t166.5 74q91 0 152 -67zM285 88q44 0 79 29t50 75v116q-15 46 -50 75t-79 29q-63 0 -100.5 -46t-37.5 -116t37.5 -116t100.5 -46z"/>
         <glyph glyph-name="Gdotaccent" unicode="&#x120;" horiz-adv-x="744"
                d="M458 840q-28 0 -48 19.5t-20 47.5t20 48t48 20t48 -20t20 -48t-20 -47.5t-48 -19.5zM455 651q-120 0 -199.5 -75.5t-79.5 -204.5t79.5 -204.5t199.5 -75.5q61 0 117 25v196h-154v102h256v-367q-105 -65 -220 -65q-163 0 -274 107t-111 282t110.5 282t271.5 107
q118 0 223 -65v-145q-38 47 -96.5 74t-122.5 27z"/>
         <glyph glyph-name="gdotaccent" unicode="&#x121;" horiz-adv-x="593"
                d="M280 590q-28 0 -48 19.5t-20 47.5t20 48t48 20t48 -20t20 -48t-20 -47.5t-48 -19.5zM424 500h99v-496q0 -112 -63 -183t-173 -71q-85 0 -152 39v119q71 -60 159 -60q56 0 88 40.5t32 115.5v48q-59 -62 -147 -62q-104 0 -166.5 74t-62.5 186t62.5 186t166.5 74
q91 0 152 -67zM285 88q44 0 79 29t50 75v116q-15 46 -50 75t-79 29q-63 0 -100.5 -46t-37.5 -116t37.5 -116t100.5 -46z"/>
         <glyph glyph-name="Gcommaaccent" unicode="&#x122;" horiz-adv-x="744"
                d="M455 651q-120 0 -199.5 -75.5t-79.5 -204.5t79.5 -204.5t199.5 -75.5q61 0 117 25v196h-154v102h256v-367q-105 -65 -220 -65q-163 0 -274 107t-111 282t110.5 282t271.5 107q118 0 223 -65v-145q-38 47 -96.5 74t-122.5 27zM449 -40q29 0 48.5 -21t19.5 -54
q0 -80 -34.5 -134.5t-91.5 -51.5v40q26 0 43.5 22.5t17.5 41t-4 21.5q-29 0 -48 19t-19 49q0 29 19 48.5t49 19.5z"/>
         <glyph glyph-name="gcommaaccent" unicode="&#x123;" horiz-adv-x="593"
                d="M280 567q-29 0 -48.5 22t-19.5 53q-1 71 44 128.5t82 57.5v-39q-22 -9 -39 -31t-20 -37t1 -18q29 0 48.5 -19.5t19.5 -47.5q0 -29 -20 -49t-48 -20zM424 500h99v-496q0 -112 -63 -183t-173 -71q-85 0 -152 39v119q71 -60 159 -60q56 0 88 40.5t32 115.5v48
q-59 -62 -147 -62q-104 0 -166.5 74t-62.5 186t62.5 186t166.5 74q91 0 152 -67zM285 88q44 0 79 29t50 75v116q-15 46 -50 75t-79 29q-63 0 -100.5 -46t-37.5 -116t37.5 -116t100.5 -46z"/>
         <glyph glyph-name="Hbar" unicode="&#x126;" horiz-adv-x="738"
                d="M732 610v-46h-64v-564h-115v324h-368v-324h-115v564h-65v46h65v140h115v-140h368v140h115v-140h64zM553 426v138h-368v-138h368z"/>
         <glyph glyph-name="hbar" unicode="&#x127;" horiz-adv-x="595"
                d="M335 510q85 0 140 -54t55 -140v-316h-112v303q0 47 -32.5 78t-82.5 31q-51 0 -86.5 -33.5t-35.5 -81.5v-297h-111v583h-57v78h57v89h111v-89h147v-78h-147v-138q62 65 154 65z"/>
         <glyph glyph-name="Itilde" unicode="&#x128;" horiz-adv-x="255"
                d="M195 828q-59 0 -96 56q-16 25 -38 25q-21 0 -30 -20.5t-1 -51.5h-68q-10 60 18 99t78 39q60 0 97 -56q15 -25 38 -25q21 0 29.5 20t1.5 52h67q11 -59 -16.5 -98.5t-79.5 -39.5zM70 0v750h115v-750h-115z"/>
         <glyph glyph-name="itilde" unicode="&#x129;" horiz-adv-x="251"
                d="M194 578q-59 0 -96 56q-16 25 -38 25q-21 0 -30 -20.5t-1 -51.5h-68q-10 60 18 99t78 39q60 0 97 -56q15 -25 38 -25q21 0 29.5 20t1.5 52h67q11 -59 -16.5 -98.5t-79.5 -39.5zM70 0v500h111v-500h-111z"/>
         <glyph glyph-name="Imacron" unicode="&#x12a;" horiz-adv-x="255"
                d="M-28 844v72h310v-72h-310zM70 0v750h115v-750h-115z"/>
         <glyph glyph-name="imacron" unicode="&#x12b;" horiz-adv-x="251"
                d="M-29 594v72h310v-72h-310zM70 0v500h111v-500h-111z"/>
         <glyph glyph-name="Iogonek" unicode="&#x12e;" horiz-adv-x="255"
                d="M190 -153l36 -51q-60 -60 -147 -55q-54 3 -87 31t-33 77q0 96 117 151h-6v750h115v-750h-12q-52 0 -95 -45t-43 -97q0 -26 16.5 -43t46.5 -17q58 0 92 49z"/>
         <glyph glyph-name="iogonek" unicode="&#x12f;" horiz-adv-x="251"
                d="M126 590q-28 0 -48 19.5t-20 47.5t20 48t48 20t48 -20t20 -48t-20 -47.5t-48 -19.5zM189 -153l36 -51q-60 -60 -147 -55q-54 3 -87 31t-33 77q0 96 117 151h-5v500h111v-500h-9q-52 0 -95 -45t-43 -97q0 -26 16.5 -43t46.5 -17q58 0 92 49z"/>
         <glyph glyph-name="Idotaccent" unicode="&#x130;" horiz-adv-x="255"
                d="M127 840q-28 0 -48 19.5t-20 47.5t20 48t48 20t48 -20t20 -48t-20 -47.5t-48 -19.5zM70 0v750h115v-750h-115z"/>
         <glyph glyph-name="dotlessi" unicode="&#x131;" horiz-adv-x="251"
                d="M70 0v500h111v-500h-111z"/>
         <glyph glyph-name="IJ" unicode="&#x132;" horiz-adv-x="637"
                d="M70 0v750h115v-750h-115zM374 -10q-44 0 -72 10v117q34 -12 72 -12q29 0 50.5 21t21.5 51v573h115v-573q0 -78 -55 -132.5t-132 -54.5z"/>
         <glyph glyph-name="ij" unicode="&#x133;" horiz-adv-x="554"
                d="M142 590q-28 0 -48 19.5t-20 47.5t20 48t48 20t48 -20t20 -48t-20 -47.5t-48 -19.5zM436 590q-28 0 -48 19.5t-20 47.5t20 48t48 20t48 -20t20 -48t-20 -47.5t-48 -19.5zM86 0v500h111v-500h-111zM324 -260q-45 0 -68 16v95q24 -19 55 -19q29 0 49.5 22t20.5 54v592h111
v-599q0 -68 -49 -114.5t-119 -46.5z"/>
         <glyph glyph-name="Kcommaaccent" unicode="&#x136;" horiz-adv-x="660"
                d="M627 750l-325 -334l325 -306v-150l-442 421v-381h-115v750h115v-307l294 307h148zM331 -40q29 0 48.5 -21t19.5 -54q0 -80 -34.5 -134.5t-91.5 -51.5v40q26 0 43.5 22.5t17.5 41t-4 21.5q-29 0 -48 19t-19 49q0 29 19 48.5t49 19.5z"/>
         <glyph glyph-name="kcommaaccent" unicode="&#x137;" horiz-adv-x="535"
                d="M519 500l-234 -220l231 -203v-134l-335 297v-240h-111v750h111v-437l199 187h139zM270 -40q29 0 48.5 -21t19.5 -54q0 -80 -34.5 -134.5t-91.5 -51.5v40q26 0 43.5 22.5t17.5 41t-4 21.5q-29 0 -48 19t-19 49q0 29 19 48.5t49 19.5z"/>
         <glyph glyph-name="Lacute" unicode="&#x139;" horiz-adv-x="497"
                d="M85 840l87 160h113l-113 -160h-87zM70 0v750h115v-649h266v-101h-381z"/>
         <glyph glyph-name="lacute" unicode="&#x13a;" horiz-adv-x="348"
                d="M83 840l87 160h113l-113 -160h-87zM249 -10q-80 0 -127 47t-47 123v590h111l1 -590q0 -75 65 -75q34 0 55 24l61 -75q-42 -44 -119 -44z"/>
         <glyph glyph-name="Lcommaaccent" unicode="&#x13b;" horiz-adv-x="497"
                d="M70 0v750h115v-649h266v-101h-381zM204 -301v40q26 0 43.5 22.5t17.5 41t-4 21.5q-29 0 -48 19t-19 49q0 29 19 48.5t49 19.5q29 0 48.5 -21t19.5 -54q0 -80 -34.5 -134.5t-91.5 -51.5z"/>
         <glyph glyph-name="lcommaaccent" unicode="&#x13c;" horiz-adv-x="348"
                d="M249 -10q-80 0 -127 47t-47 123v590h111l1 -590q0 -75 65 -75q34 0 55 24l61 -75q-42 -44 -119 -44zM170 -301v40q26 0 43.5 22.5t17.5 41t-4 21.5q-29 0 -48 19t-19 49q0 29 19 48.5t49 19.5q29 0 48.5 -21t19.5 -54q0 -80 -34.5 -134.5t-91.5 -51.5z"/>
         <glyph glyph-name="Lcaron" unicode="&#x13d;" horiz-adv-x="513"
                d="M333 449v52q29 1 48 35t19 64q0 21 -10 21q-28 0 -47.5 20t-19.5 48t19.5 47.5t48.5 19.5q37 0 56.5 -31.5t19.5 -79.5q0 -72 -37 -133.5t-97 -62.5zM70 0v750h115v-649h266v-101h-381z"/>
         <glyph glyph-name="lcaron" unicode="&#x13e;" horiz-adv-x="384"
                d="M260 449v52q29 1 48 35t19 64q0 21 -10 21q-28 0 -47.5 20t-19.5 48t19.5 47.5t48.5 19.5q37 0 56.5 -31.5t19.5 -79.5q0 -72 -37 -133.5t-97 -62.5zM249 -10q-80 0 -127 47t-47 123v590h111l1 -590q0 -75 65 -75q34 0 55 24l61 -75q-42 -44 -119 -44z"/>
         <glyph glyph-name="ldot" unicode="&#x140;" horiz-adv-x="348"
                d="M249 -10q-80 0 -127 47t-47 123v590h111l1 -590q0 -75 65 -75q34 0 55 24l61 -75q-42 -44 -119 -44zM269 308q-21 0 -36.5 15t-15.5 37q0 21 15.5 36.5t36.5 15.5t37 -15.5t16 -36.5q0 -22 -16 -37t-37 -15z"/>
         <glyph glyph-name="Lslash" unicode="&#x141;" horiz-adv-x="497"
                d="M185 101h266v-101h-381v276l-45 -47h-78l123 131v390h115v-268l37 39h85l-122 -126v-294z"/>
         <glyph glyph-name="lslash" unicode="&#x142;" horiz-adv-x="348"
                d="M307 109l61 -75q-42 -44 -119 -44q-80 0 -127 47t-47 123v115l-52 -54h-78l130 138v391h111v-273l34 36h85l-118 -123v-230q0 -75 65 -75q34 0 55 24z"/>
         <glyph glyph-name="Nacute" unicode="&#x143;" horiz-adv-x="792"
                d="M554 1000l-113 -160h-87l87 160h113zM608 750h114v-750h-114l-423 571v-571h-115v750h114l424 -571v571z"/>
         <glyph glyph-name="nacute" unicode="&#x144;" horiz-adv-x="595"
                d="M458 750l-113 -160h-87l87 160h113zM335 510q85 0 140 -54t55 -140v-316h-112v303q0 47 -32.5 78t-82.5 31q-51 0 -86.5 -33.5t-35.5 -81.5v-297h-111v500h101l6 -59q61 69 158 69z"/>
         <glyph glyph-name="Ncommaaccent" unicode="&#x145;" horiz-adv-x="792"
                d="M608 750h114v-750h-114l-423 571v-571h-115v750h114l424 -571v571zM398 -40q29 0 48.5 -21t19.5 -54q0 -80 -34.5 -134.5t-91.5 -51.5v40q26 0 43.5 22.5t17.5 41t-4 21.5q-29 0 -48 19t-19 49q0 29 19 48.5t49 19.5z"/>
         <glyph glyph-name="ncommaaccent" unicode="&#x146;" horiz-adv-x="595"
                d="M335 510q85 0 140 -54t55 -140v-316h-112v303q0 47 -32.5 78t-82.5 31q-51 0 -86.5 -33.5t-35.5 -81.5v-297h-111v500h101l6 -59q61 69 158 69zM301 -40q29 0 48.5 -21t19.5 -54q0 -80 -34.5 -134.5t-91.5 -51.5v40q26 0 43.5 22.5t17.5 41t-4 21.5q-29 0 -48 19t-19 49
q0 29 19 48.5t49 19.5z"/>
         <glyph glyph-name="Ncaron" unicode="&#x147;" horiz-adv-x="792"
                d="M454 829h-117l-103 171h84l78 -119l78 119h84zM608 750h114v-750h-114l-423 571v-571h-115v750h114l424 -571v571z"/>
         <glyph glyph-name="ncaron" unicode="&#x148;" horiz-adv-x="595"
                d="M358 579h-117l-103 171h84l78 -119l78 119h84zM335 510q85 0 140 -54t55 -140v-316h-112v303q0 47 -32.5 78t-82.5 31q-51 0 -86.5 -33.5t-35.5 -81.5v-297h-111v500h101l6 -59q61 69 158 69z"/>
         <glyph glyph-name="Eng" unicode="&#x14a;" horiz-adv-x="823"
                d="M624 750h111v-815q0 -77 -51.5 -113.5t-134.5 -35.5v75q34 -1 53 14t19 60v72l-423 558v-565h-111v750h110l427 -564v564z"/>
         <glyph glyph-name="eng" unicode="&#x14b;" horiz-adv-x="624"
                d="M350 510q82 0 139.5 -58.5t57.5 -141.5v-382q0 -76 -52 -113t-135 -36v75q35 -1 55 14t20 60v369q0 48 -33.5 81.5t-81.5 33.5q-51 0 -86.5 -33.5t-35.5 -81.5v-297h-111v500h111v-65q60 75 152 75z"/>
         <glyph glyph-name="Omacron" unicode="&#x14c;" horiz-adv-x="830"
                d="M260 844v72h310v-72h-310zM415 -10q-158 0 -262 111.5t-104 273.5t104 273.5t262 111.5q157 0 261.5 -111.5t104.5 -273.5t-104.5 -273.5t-261.5 -111.5zM415 99q114 0 185.5 79t71.5 197t-71.5 197t-185.5 79t-186 -79t-72 -197t72 -197t186 -79z"/>
         <glyph glyph-name="omacron" unicode="&#x14d;" horiz-adv-x="570"
                d="M130 594v72h310v-72h-310zM285 -10q-109 0 -178 74.5t-69 185.5t69 185.5t178 74.5t178 -74.5t69 -185.5t-69 -185.5t-178 -74.5zM285 88q63 0 100.5 46.5t37.5 115.5t-37.5 115.5t-100.5 46.5t-100.5 -46t-37.5 -116t37.5 -116t100.5 -46z"/>
         <glyph glyph-name="Ohungarumlaut" unicode="&#x150;" horiz-adv-x="830"
                d="M282 824l144 176h106l-170 -176h-80zM468 824l144 176h106l-170 -176h-80zM415 -10q-158 0 -262 111.5t-104 273.5t104 273.5t262 111.5q157 0 261.5 -111.5t104.5 -273.5t-104.5 -273.5t-261.5 -111.5zM415 99q114 0 185.5 79t71.5 197t-71.5 197t-185.5 79t-186 -79
t-72 -197t72 -197t186 -79z"/>
         <glyph glyph-name="ohungarumlaut" unicode="&#x151;" horiz-adv-x="570"
                d="M152 574l144 176h106l-170 -176h-80zM338 574l144 176h106l-170 -176h-80zM285 -10q-109 0 -178 74.5t-69 185.5t69 185.5t178 74.5t178 -74.5t69 -185.5t-69 -185.5t-178 -74.5zM285 88q63 0 100.5 46.5t37.5 115.5t-37.5 115.5t-100.5 46.5t-100.5 -46t-37.5 -116
t37.5 -116t100.5 -46z"/>
         <glyph glyph-name="OE" unicode="&#x152;" horiz-adv-x="1239"
                d="M1152 653h-315v-229h272v-98h-272v-229h315v-97h-408v124q-54 -63 -130 -98.5t-162 -35.5q-160 0 -272.5 112.5t-112.5 272.5t112.5 272.5t272.5 112.5q86 0 162 -35.5t130 -98.5v124h408v-97zM453 100q114 0 194 80t80 195t-80 195t-194 80q-115 0 -195 -80t-80 -195
t80 -195t195 -80z"/>
         <glyph glyph-name="oe" unicode="&#x153;" horiz-adv-x="927"
                d="M889 246q0 -21 -2 -31h-354q15 -129 135 -129q42 0 70 17t58 64l77 -54q-65 -123 -209 -123q-123 0 -189 88q-72 -88 -190 -88q-109 0 -178 74.5t-69 185.5t69 185.5t178 74.5q120 0 191 -89q66 89 188 89q106 0 165.5 -72.5t59.5 -191.5zM666 415q-109 0 -130 -115h253
q-16 115 -123 115zM285 88q63 0 100.5 46.5t37.5 115.5t-37.5 115.5t-100.5 46.5t-100.5 -46t-37.5 -116t37.5 -116t100.5 -46z"/>
         <glyph glyph-name="Racute" unicode="&#x154;" horiz-adv-x="606"
                d="M468 1000l-113 -160h-87l87 160h113zM410 335l186 -335h-129l-173 328h-109v-328h-115v750h289q89 0 152 -63t63 -154q0 -74 -46.5 -129t-117.5 -69zM185 422h171q47 0 80 33.5t33 80.5t-33 80t-80 33h-171v-227z"/>
         <glyph glyph-name="racute" unicode="&#x155;" horiz-adv-x="420"
                d="M382 750l-113 -160h-87l87 160h113zM319 510q78 0 121 -37l-53 -79q-30 18 -74 18q-53 0 -92.5 -40.5t-39.5 -103.5v-268h-111v500h101l6 -70q60 80 142 80z"/>
         <glyph glyph-name="Rcommaaccent" unicode="&#x156;" horiz-adv-x="606"
                d="M410 335l186 -335h-129l-173 328h-109v-328h-115v750h289q89 0 152 -63t63 -154q0 -74 -46.5 -129t-117.5 -69zM185 422h171q47 0 80 33.5t33 80.5t-33 80t-80 33h-171v-227zM311 -40q29 0 48.5 -21t19.5 -54q0 -80 -34.5 -134.5t-91.5 -51.5v40q26 0 43.5 22.5t17.5 41
t-4 21.5q-29 0 -48 19t-19 49q0 29 19 48.5t49 19.5z"/>
         <glyph glyph-name="rcommaaccent" unicode="&#x157;" horiz-adv-x="420"
                d="M319 510q78 0 121 -37l-53 -79q-30 18 -74 18q-53 0 -92.5 -40.5t-39.5 -103.5v-268h-111v500h101l6 -70q60 80 142 80zM127 -40q29 0 48.5 -21t19.5 -54q0 -80 -34.5 -134.5t-91.5 -51.5v40q26 0 43.5 22.5t17.5 41t-4 21.5q-29 0 -48 19t-19 49q0 29 19 48.5t49 19.5z
"/>
         <glyph glyph-name="Rcaron" unicode="&#x158;" horiz-adv-x="606"
                d="M368 829h-117l-103 171h84l78 -119l78 119h84zM410 335l186 -335h-129l-173 328h-109v-328h-115v750h289q89 0 152 -63t63 -154q0 -74 -46.5 -129t-117.5 -69zM185 422h171q47 0 80 33.5t33 80.5t-33 80t-80 33h-171v-227z"/>
         <glyph glyph-name="rcaron" unicode="&#x159;" horiz-adv-x="420"
                d="M282 579h-117l-103 171h84l78 -119l78 119h84zM319 510q78 0 121 -37l-53 -79q-30 18 -74 18q-53 0 -92.5 -40.5t-39.5 -103.5v-268h-111v500h101l6 -70q60 80 142 80z"/>
         <glyph glyph-name="Sacute" unicode="&#x15a;" horiz-adv-x="637"
                d="M299 840l87 160h113l-113 -160h-87zM328 -10q-91 0 -169.5 40t-121.5 106l83 83q23 -55 81.5 -87.5t130.5 -32.5q65 0 103.5 25t39.5 76q0 32 -13 57t-42 44.5t-53.5 30.5t-68.5 28q-32 12 -45.5 17.5t-42 18.5t-42 22.5t-33.5 26t-29 32.5t-16.5 38.5t-7.5 47.5
q0 91 67.5 144t171.5 53q179 0 273 -109l-77 -77q-58 88 -193 88q-56 0 -90.5 -23.5t-34.5 -66.5q0 -18 9 -34.5t21 -27.5t35.5 -24t40.5 -20t48 -20q45 -18 68.5 -28.5t61.5 -33t57.5 -44.5t35 -57t15.5 -77q0 -108 -72.5 -162t-190.5 -54z"/>
         <glyph glyph-name="sacute" unicode="&#x15b;" horiz-adv-x="480"
                d="M200 590l87 160h113l-113 -160h-87zM244 -10q-59 0 -118 20t-91 51l55 77q20 -23 63.5 -39.5t84.5 -18.5q42 -2 68.5 13.5t26.5 42.5q0 28 -26 43.5t-80 32.5q-25 8 -34 11t-32 12t-33 15.5t-26.5 18t-23.5 23.5t-13 29t-6 36q0 66 55.5 109.5t135.5 43.5
q49 0 99.5 -15.5t84.5 -39.5l-60 -77q-42 37 -104 44q-37 4 -67.5 -10.5t-30.5 -40.5q0 -10 3.5 -18t13 -15.5t16 -12t23.5 -10.5t25 -8.5t29 -9.5q38 -11 59.5 -20t49 -26t41 -42.5t13.5 -60.5q0 -69 -57 -113.5t-144 -44.5z"/>
         <glyph glyph-name="Scedilla" unicode="&#x15e;" horiz-adv-x="637"
                d="M353 446q45 -18 68.5 -28.5t61.5 -33t57.5 -44.5t35 -57t15.5 -77q0 -103 -67 -157t-177 -59l-28 -54q51 10 86.5 -17t35.5 -74q0 -44 -30.5 -74.5t-74.5 -30.5q-35 0 -68.5 19.5t-47.5 48.5l50 19q10 -14 29 -24t37 -10q22 0 36.5 15t14.5 37q0 32 -27 43.5t-66 -4.5
l-43 27l43 81q-81 7 -149.5 45.5t-107.5 98.5l83 83q23 -55 81.5 -87.5t130.5 -32.5q65 0 103.5 25t39.5 76q0 32 -13 57t-42 44.5t-53.5 30.5t-68.5 28q-32 12 -45.5 17.5t-42 18.5t-42 22.5t-33.5 26t-29 32.5t-16.5 38.5t-7.5 47.5q0 91 67.5 144t171.5 53
q179 0 273 -109l-77 -77q-58 88 -193 88q-56 0 -90.5 -23.5t-34.5 -66.5q0 -18 9 -34.5t21 -27.5t35.5 -24t40.5 -20t48 -20z"/>
         <glyph glyph-name="scedilla" unicode="&#x15f;" horiz-adv-x="480"
                d="M445 148q0 -62 -47.5 -105.5t-123.5 -51.5l-29 -55q51 10 86.5 -17t35.5 -74q0 -44 -30.5 -74.5t-74.5 -30.5q-35 0 -68.5 19.5t-47.5 48.5l50 19q10 -14 29 -24t37 -10q22 0 36.5 15t14.5 37q0 32 -27 43.5t-66 -4.5l-43 27l42 80q-54 4 -105 23t-79 47l55 77
q20 -23 63.5 -39.5t84.5 -18.5q42 -2 68.5 13.5t26.5 42.5q0 28 -26 43.5t-80 32.5q-25 8 -34 11t-32 12t-33 15.5t-26.5 18t-23.5 23.5t-13 29t-6 36q0 66 55.5 109.5t135.5 43.5q49 0 99.5 -15.5t84.5 -39.5l-60 -77q-42 37 -104 44q-37 4 -67.5 -10.5t-30.5 -40.5
q0 -10 3.5 -18t13 -15.5t16 -12t23.5 -10.5t25 -8.5t29 -9.5q38 -11 59.5 -20t49 -26t41 -42.5t13.5 -60.5z"/>
         <glyph glyph-name="Scaron" unicode="&#x160;" horiz-adv-x="637"
                d="M282 829l-103 171h84l78 -119l78 119h84l-104 -171h-117zM328 -10q-91 0 -169.5 40t-121.5 106l83 83q23 -55 81.5 -87.5t130.5 -32.5q65 0 103.5 25t39.5 76q0 32 -13 57t-42 44.5t-53.5 30.5t-68.5 28q-32 12 -45.5 17.5t-42 18.5t-42 22.5t-33.5 26t-29 32.5
t-16.5 38.5t-7.5 47.5q0 91 67.5 144t171.5 53q179 0 273 -109l-77 -77q-58 88 -193 88q-56 0 -90.5 -23.5t-34.5 -66.5q0 -18 9 -34.5t21 -27.5t35.5 -24t40.5 -20t48 -20q45 -18 68.5 -28.5t61.5 -33t57.5 -44.5t35 -57t15.5 -77q0 -108 -72.5 -162t-190.5 -54z"/>
         <glyph glyph-name="scaron" unicode="&#x161;" horiz-adv-x="480"
                d="M183 579l-103 171h84l78 -119l78 119h84l-104 -171h-117zM244 -10q-59 0 -118 20t-91 51l55 77q20 -23 63.5 -39.5t84.5 -18.5q42 -2 68.5 13.5t26.5 42.5q0 28 -26 43.5t-80 32.5q-25 8 -34 11t-32 12t-33 15.5t-26.5 18t-23.5 23.5t-13 29t-6 36q0 66 55.5 109.5
t135.5 43.5q49 0 99.5 -15.5t84.5 -39.5l-60 -77q-42 37 -104 44q-37 4 -67.5 -10.5t-30.5 -40.5q0 -10 3.5 -18t13 -15.5t16 -12t23.5 -10.5t25 -8.5t29 -9.5q38 -11 59.5 -20t49 -26t41 -42.5t13.5 -60.5q0 -69 -57 -113.5t-144 -44.5z"/>
         <glyph glyph-name="uni0162" unicode="&#x162;" horiz-adv-x="587"
                d="M351 0h-31l-33 -64q51 10 86.5 -17t35.5 -74q0 -44 -30.5 -74.5t-74.5 -30.5q-35 0 -68.5 19.5t-47.5 48.5l50 19q10 -14 29 -24t37 -10q22 0 36.5 15t14.5 37q0 32 -27 43.5t-66 -4.5l-43 27l47 89h-29v649h-200v101h514v-101h-200v-649z"/>
         <glyph glyph-name="uni0163" unicode="&#x163;" horiz-adv-x="376"
                d="M257 -10l-28 -54q51 10 86.5 -17t35.5 -74q0 -44 -30.5 -74.5t-74.5 -30.5q-35 0 -68.5 19.5t-47.5 48.5l50 19q10 -14 29 -24t37 -10q22 0 36.5 15t14.5 37q0 32 -27 43.5t-66 -4.5l-43 27l45 85q-58 14 -90.5 57.5t-32.5 106.5v255h-61v85h61v170h111v-170h142v-85
h-141v-255q0 -75 65 -75q34 0 55 24l61 -75q-42 -44 -119 -44z"/>
         <glyph glyph-name="Tcaron" unicode="&#x164;" horiz-adv-x="587"
                d="M351 829h-117l-103 171h84l78 -119l78 119h84zM551 750v-101h-200v-649h-114v649h-200v101h514z"/>
         <glyph glyph-name="tcaron" unicode="&#x165;" horiz-adv-x="402"
                d="M335 697q-28 0 -47.5 20t-19.5 48t19.5 47.5t48.5 19.5q37 0 56.5 -31.5t19.5 -79.5q0 -72 -37 -133.5t-97 -62.5v52q29 1 48 35t19 64q0 21 -10 21zM260 85q34 0 55 24l61 -75q-42 -44 -119 -44q-80 0 -127 47t-47 123v255h-61v85h61v170h111v-170h142v-85h-141v-255
q0 -75 65 -75z"/>
         <glyph glyph-name="Tbar" unicode="&#x166;" horiz-adv-x="587"
                d="M551 649h-200v-235h99v-78h-99v-336h-114v336h-102v78h102v235h-200v101h514v-101z"/>
         <glyph glyph-name="tbar" unicode="&#x167;" horiz-adv-x="376"
                d="M315 109l61 -75q-42 -44 -119 -44q-80 0 -127 47t-47 123v51h-60v78h60v126h-61v85h61v170h111v-170h142v-85h-141v-126h143v-78h-143v-51q0 -75 65 -75q34 0 55 24z"/>
         <glyph glyph-name="Utilde" unicode="&#x168;" horiz-adv-x="740"
                d="M438 828q-59 0 -96 56q-16 25 -38 25q-21 0 -30 -20.5t-1 -51.5h-68q-10 60 18 99t78 39q60 0 97 -56q15 -25 38 -25q21 0 29.5 20t1.5 52h67q11 -59 -16.5 -98.5t-79.5 -39.5zM370 -10q-123 0 -208.5 74t-85.5 180v506h115v-486q0 -72 52 -122.5t127 -50.5t127 50.5
t52 122.5v486h115v-506q0 -106 -85.5 -180t-208.5 -74z"/>
         <glyph glyph-name="Umacron" unicode="&#x16a;" horiz-adv-x="740"
                d="M215 844v72h310v-72h-310zM370 -10q-123 0 -208.5 74t-85.5 180v506h115v-486q0 -72 52 -122.5t127 -50.5t127 50.5t52 122.5v486h115v-506q0 -106 -85.5 -180t-208.5 -74z"/>
         <glyph glyph-name="umacron" unicode="&#x16b;" horiz-adv-x="602"
                d="M457 666v-72h-310v72h310zM421 500h111v-500h-101l-6 60q-60 -70 -154 -70q-84 0 -141.5 58t-57.5 142v310h111v-297q0 -48 34 -81.5t83 -33.5q50 0 85.5 33.5t35.5 81.5v297z"/>
         <glyph glyph-name="Uring" unicode="&#x16e;" horiz-adv-x="740"
                d="M370 806q-45 0 -77 32t-32 76t32 76t77 32q44 0 75.5 -32t31.5 -76t-31.5 -76t-75.5 -32zM370 854q25 0 42 17t17 43q0 25 -17 43t-42 18t-42 -18t-17 -43q0 -26 17 -43t42 -17zM370 -10q-123 0 -208.5 74t-85.5 180v506h115v-486q0 -72 52 -122.5t127 -50.5t127 50.5
t52 122.5v486h115v-506q0 -106 -85.5 -180t-208.5 -74z"/>
         <glyph glyph-name="uring" unicode="&#x16f;" horiz-adv-x="602"
                d="M302 556q-45 0 -77 32t-32 76t32 76t77 32q44 0 75.5 -32t31.5 -76t-31.5 -76t-75.5 -32zM302 725q-25 0 -42 -18t-17 -43q0 -26 17 -43t42 -17t42 17t17 43q0 25 -17 43t-42 18zM421 500h111v-500h-101l-6 60q-60 -70 -154 -70q-84 0 -141.5 58t-57.5 142v310h111v-297
q0 -48 34 -81.5t83 -33.5q50 0 85.5 33.5t35.5 81.5v297z"/>
         <glyph glyph-name="Uhungarumlaut" unicode="&#x170;" horiz-adv-x="740"
                d="M237 824l144 176h106l-170 -176h-80zM423 824l144 176h106l-170 -176h-80zM370 -10q-123 0 -208.5 74t-85.5 180v506h115v-486q0 -72 52 -122.5t127 -50.5t127 50.5t52 122.5v486h115v-506q0 -106 -85.5 -180t-208.5 -74z"/>
         <glyph glyph-name="uhungarumlaut" unicode="&#x171;" horiz-adv-x="602"
                d="M419 750l-170 -176h-80l144 176h106zM435 574h-80l144 176h106zM421 203v297h111v-500h-101l-6 60q-60 -70 -154 -70q-84 0 -141.5 58t-57.5 142v310h111v-297q0 -48 34 -81.5t83 -33.5q50 0 85.5 33.5t35.5 81.5z"/>
         <glyph glyph-name="Uogonek" unicode="&#x172;" horiz-adv-x="740"
                d="M549 750h115v-506q0 -98 -73 -169t-183 -83q-37 -17 -62.5 -54t-25.5 -76q0 -26 16.5 -43t46.5 -17q58 0 92 49l36 -51q-60 -60 -147 -55q-54 3 -87 31t-33 77q0 85 94 138q-112 11 -187 82.5t-75 170.5v506h115v-486q0 -72 52 -122.5t127 -50.5t127 50.5t52 122.5v486z
"/>
         <glyph glyph-name="uogonek" unicode="&#x173;" horiz-adv-x="602"
                d="M549 -153l36 -51q-60 -60 -147 -55q-54 3 -87 31t-33 77q0 96 117 151h-4l-6 60q-60 -70 -154 -70q-84 0 -141.5 58t-57.5 142v310h111v-297q0 -48 34 -81.5t83 -33.5q50 0 85.5 33.5t35.5 81.5v297h111v-500q-52 0 -95 -45t-43 -97q0 -26 16.5 -43t46.5 -17q58 0 92 49z
"/>
         <glyph glyph-name="Wcircumflex" unicode="&#x174;" horiz-adv-x="1121"
                d="M561 949l-75 -120h-87l103 171h117l104 -171h-88zM1007 750h124l-317 -750h-125l-129 305l-128 -305h-124l-318 750h124l260 -614l129 305l-130 309h118l257 -615z"/>
         <glyph glyph-name="wcircumflex" unicode="&#x175;" horiz-adv-x="732"
                d="M320 699l-75 -120h-87l103 171h117l104 -171h-88zM603 500h124l-171 -500h-120l-72 203l-68 -203h-119l-172 500h126l113 -367l70 214l-54 153h108l121 -369z"/>
         <glyph glyph-name="Ycircumflex" unicode="&#x176;" horiz-adv-x="670"
                d="M336 949l-75 -120h-87l103 171h117l104 -171h-88zM654 750l-261 -394v-356h-115v353l-263 397h129l191 -298l192 298h127z"/>
         <glyph glyph-name="ycircumflex" unicode="&#x177;" horiz-adv-x="603"
                d="M302 699l-75 -120h-87l103 171h117l104 -171h-88zM532 500l1 -500q0 -113 -68.5 -183.5t-189.5 -70.5q-100 0 -173 39v119q78 -60 182 -60q66 0 101.5 40.5t35.5 115.5v55q-62 -65 -150 -65q-84 0 -141.5 58t-57.5 142v310h111v-297q0 -48 34 -81.5t83 -33.5
q50 0 85.5 33.5t35.5 81.5v297h111z"/>
         <glyph glyph-name="Ydieresis" unicode="&#x178;" horiz-adv-x="670"
                d="M236 840q-28 0 -48 19.5t-20 47.5t20 48t48 20t48 -20t20 -48t-20 -47.5t-48 -19.5zM436 840q-28 0 -48 19.5t-20 47.5t20 48t48 20t47.5 -20t19.5 -48t-19.5 -47.5t-47.5 -19.5zM654 750l-261 -394v-356h-115v353l-263 397h129l191 -298l192 298h127z"/>
         <glyph glyph-name="Zacute" unicode="&#x179;" horiz-adv-x="658"
                d="M495 1000l-113 -160h-87l87 160h113zM199 101h414v-101h-570v61l406 588h-395v101h551v-61z"/>
         <glyph glyph-name="zacute" unicode="&#x17a;" horiz-adv-x="542"
                d="M242 590l87 160h113l-113 -160h-87zM54 0v80l285 328h-281v92h425v-78l-286 -330h291v-92h-434z"/>
         <glyph glyph-name="Zdotaccent" unicode="&#x17b;" horiz-adv-x="658"
                d="M337 840q-28 0 -48 19.5t-20 47.5t20 48t48 20t48 -20t20 -48t-20 -47.5t-48 -19.5zM199 101h414v-101h-570v61l406 588h-395v101h551v-61z"/>
         <glyph glyph-name="zdotaccent" unicode="&#x17c;" horiz-adv-x="542"
                d="M284 590q-28 0 -48 19.5t-20 47.5t20 48t48 20t48 -20t20 -48t-20 -47.5t-48 -19.5zM54 0v80l285 328h-281v92h425v-78l-286 -330h291v-92h-434z"/>
         <glyph glyph-name="Zcaron" unicode="&#x17d;" horiz-adv-x="658"
                d="M395 829h-117l-103 171h84l78 -119l78 119h84zM199 101h414v-101h-570v61l406 588h-395v101h551v-61z"/>
         <glyph glyph-name="zcaron" unicode="&#x17e;" horiz-adv-x="542"
                d="M225 579l-103 171h84l78 -119l78 119h84l-104 -171h-117zM54 0v80l285 328h-281v92h425v-78l-286 -330h291v-92h-434z"/>
         <glyph glyph-name="florin" unicode="&#x192;" horiz-adv-x="463"
                d="M378 679q-38 0 -64.5 -25t-33.5 -66l-14 -88h138l-13 -85h-138l-106 -665h-100l105 665h-83l13 85h84l16 103q10 67 64.5 112t121.5 45q46 0 70 -18l-10 -79q-17 16 -50 16z"/>
         <glyph glyph-name="uni01CD" unicode="&#x1cd;" horiz-adv-x="762"
                d="M439 829h-117l-103 171h84l78 -119l78 119h84zM621 0l-57 151h-366l-58 -151h-125l301 750h129l301 -750h-125zM234 247h293l-146 385z"/>
         <glyph glyph-name="uni01CE" unicode="&#x1ce;" horiz-adv-x="539"
                d="M334 579h-117l-103 171h84l78 -119l78 119h84zM260 510q93 0 153.5 -50.5t60.5 -145.5v-314h-98l-5 62q-86 -72 -172 -72q-67 0 -110.5 43t-43.5 110q0 74 59.5 117t177.5 27l83 -11v45q0 48 -31 71.5t-79 23.5q-73 0 -120 -60l-76 69q69 85 201 85zM158 149
q0 -28 18.5 -44.5t48.5 -16.5q64 0 140 62v45l-66 10q-141 21 -141 -56z"/>
         <glyph glyph-name="uni01CF" unicode="&#x1cf;" horiz-adv-x="255"
                d="M68 829l-103 171h84l78 -119l78 119h84l-104 -171h-117zM70 0v750h115v-750h-115z"/>
         <glyph glyph-name="uni01D0" unicode="&#x1d0;" horiz-adv-x="251"
                d="M67 579l-103 171h84l78 -119l78 119h84l-104 -171h-117zM70 0v500h111v-500h-111z"/>
         <glyph glyph-name="uni01D1" unicode="&#x1d1;" horiz-adv-x="830"
                d="M356 829l-103 171h84l78 -119l78 119h84l-104 -171h-117zM415 -10q-158 0 -262 111.5t-104 273.5t104 273.5t262 111.5q157 0 261.5 -111.5t104.5 -273.5t-104.5 -273.5t-261.5 -111.5zM415 99q114 0 185.5 79t71.5 197t-71.5 197t-185.5 79t-186 -79t-72 -197t72 -197
t186 -79z"/>
         <glyph glyph-name="uni01D2" unicode="&#x1d2;" horiz-adv-x="570"
                d="M226 579l-103 171h84l78 -119l78 119h84l-104 -171h-117zM285 -10q-109 0 -178 74.5t-69 185.5t69 185.5t178 74.5t178 -74.5t69 -185.5t-69 -185.5t-178 -74.5zM285 88q63 0 100.5 46.5t37.5 115.5t-37.5 115.5t-100.5 46.5t-100.5 -46t-37.5 -116t37.5 -116t100.5 -46z
"/>
         <glyph glyph-name="uni01D3" unicode="&#x1d3;" horiz-adv-x="740"
                d="M311 829l-103 171h84l78 -119l78 119h84l-104 -171h-117zM370 -10q-123 0 -208.5 74t-85.5 180v506h115v-486q0 -72 52 -122.5t127 -50.5t127 50.5t52 122.5v486h115v-506q0 -106 -85.5 -180t-208.5 -74z"/>
         <glyph glyph-name="uni01D4" unicode="&#x1d4;" horiz-adv-x="602"
                d="M360 579h-117l-103 171h84l78 -119l78 119h84zM421 500h111v-500h-101l-6 60q-60 -70 -154 -70q-84 0 -141.5 58t-57.5 142v310h111v-297q0 -48 34 -81.5t83 -33.5q50 0 85.5 33.5t35.5 81.5v297z"/>
         <glyph glyph-name="Gcaron" unicode="&#x1e6;" horiz-adv-x="744"
                d="M516 829h-117l-103 171h84l78 -119l78 119h84zM455 651q-120 0 -199.5 -75.5t-79.5 -204.5t79.5 -204.5t199.5 -75.5q61 0 117 25v196h-154v102h256v-367q-105 -65 -220 -65q-163 0 -274 107t-111 282t110.5 282t271.5 107q118 0 223 -65v-145q-38 47 -96.5 74t-122.5 27
z"/>
         <glyph glyph-name="gcaron" unicode="&#x1e7;" horiz-adv-x="593"
                d="M338 579h-117l-103 171h84l78 -119l78 119h84zM424 500h99v-496q0 -112 -63 -183t-173 -71q-85 0 -152 39v119q71 -60 159 -60q56 0 88 40.5t32 115.5v48q-59 -62 -147 -62q-104 0 -166.5 74t-62.5 186t62.5 186t166.5 74q91 0 152 -67zM285 88q44 0 79 29t50 75v116
q-15 46 -50 75t-79 29q-63 0 -100.5 -46t-37.5 -116t37.5 -116t100.5 -46z"/>
         <glyph glyph-name="Oslashacute" unicode="&#x1fe;" horiz-adv-x="830"
                d="M573 1000l-113 -160h-87l87 160h113zM652 673q61 -54 95 -131.5t34 -166.5q0 -162 -104.5 -273.5t-261.5 -111.5q-100 0 -184 49l-41 -61h-77l66 99q-61 53 -95.5 131t-34.5 167q0 162 104 273.5t262 111.5q101 0 185 -50l40 61h77zM157 375q0 -128 82 -207l301 452
q-56 31 -125 31q-114 0 -186 -79t-72 -197zM415 99q114 0 185.5 79t71.5 197q0 129 -81 207l-300 -452q56 -31 124 -31z"/>
         <glyph glyph-name="oslashacute" unicode="&#x1ff;" horiz-adv-x="570"
                d="M443 750l-113 -160h-87l87 160h113zM447 451q85 -74 85 -201q0 -111 -69 -185.5t-178 -74.5q-69 0 -124 32l-36 -55h-55l54 81q-86 76 -86 202q0 111 69 185.5t178 74.5q67 0 125 -32l36 54h54zM147 250q0 -70 36 -114l171 257q-32 19 -69 19q-63 0 -100.5 -46
t-37.5 -116zM285 88q63 0 100.5 46.5t37.5 115.5t-35 113l-171 -257q29 -18 68 -18z"/>
         <glyph glyph-name="Scommaaccent" unicode="&#x218;" horiz-adv-x="637"
                d="M328 -10q-91 0 -169.5 40t-121.5 106l83 83q23 -55 81.5 -87.5t130.5 -32.5q65 0 103.5 25t39.5 76q0 32 -13 57t-42 44.5t-53.5 30.5t-68.5 28q-32 12 -45.5 17.5t-42 18.5t-42 22.5t-33.5 26t-29 32.5t-16.5 38.5t-7.5 47.5q0 91 67.5 144t171.5 53q179 0 273 -109
l-77 -77q-58 88 -193 88q-56 0 -90.5 -23.5t-34.5 -66.5q0 -18 9 -34.5t21 -27.5t35.5 -24t40.5 -20t48 -20q45 -18 68.5 -28.5t61.5 -33t57.5 -44.5t35 -57t15.5 -77q0 -108 -72.5 -162t-190.5 -54zM268 -301v40q26 0 43.5 22.5t17.5 41t-4 21.5q-29 0 -48 19t-19 49
q0 29 19 48.5t49 19.5q29 0 48.5 -21t19.5 -54q0 -80 -34.5 -134.5t-91.5 -51.5z"/>
         <glyph glyph-name="scommaaccent" unicode="&#x219;" horiz-adv-x="480"
                d="M244 -10q-59 0 -118 20t-91 51l55 77q20 -23 63.5 -39.5t84.5 -18.5q42 -2 68.5 13.5t26.5 42.5q0 28 -26 43.5t-80 32.5q-25 8 -34 11t-32 12t-33 15.5t-26.5 18t-23.5 23.5t-13 29t-6 36q0 66 55.5 109.5t135.5 43.5q49 0 99.5 -15.5t84.5 -39.5l-60 -77
q-42 37 -104 44q-37 4 -67.5 -10.5t-30.5 -40.5q0 -10 3.5 -18t13 -15.5t16 -12t23.5 -10.5t25 -8.5t29 -9.5q38 -11 59.5 -20t49 -26t41 -42.5t13.5 -60.5q0 -69 -57 -113.5t-144 -44.5zM194 -301v40q26 0 43.5 22.5t17.5 41t-4 21.5q-29 0 -48 19t-19 49q0 29 19 48.5
t49 19.5q29 0 48.5 -21t19.5 -54q0 -80 -34.5 -134.5t-91.5 -51.5z"/>
         <glyph glyph-name="uni021A" unicode="&#x21a;" horiz-adv-x="587"
                d="M37 750h514v-101h-200v-649h-114v649h-200v101zM294 -40q29 0 48.5 -21t19.5 -54q0 -80 -34.5 -134.5t-91.5 -51.5v40q26 0 43.5 22.5t17.5 41t-4 21.5q-29 0 -48 19t-19 49q0 29 19 48.5t49 19.5z"/>
         <glyph glyph-name="uni021B" unicode="&#x21b;" horiz-adv-x="376"
                d="M315 109l61 -75q-42 -44 -119 -44q-80 0 -127 47t-47 123v255h-61v85h61v170h111v-170h142v-85h-141v-255q0 -75 65 -75q34 0 55 24zM236 -40q29 0 48.5 -21t19.5 -54q0 -80 -34.5 -134.5t-91.5 -51.5v40q26 0 43.5 22.5t17.5 41t-4 21.5q-29 0 -48 19t-19 49
q0 29 19 48.5t49 19.5z"/>
         <glyph glyph-name="uni0228" unicode="&#x228;" horiz-adv-x="542"
                d="M497 649h-312v-223h270v-102h-270v-223h312v-101h-187l-33 -64q51 10 86.5 -17t35.5 -74q0 -44 -30.5 -74.5t-74.5 -30.5q-35 0 -68.5 19.5t-47.5 48.5l50 19q10 -14 29 -24t37 -10q22 0 36.5 15t14.5 37q0 32 -27 43.5t-66 -4.5l-43 27l47 89h-186v750h427v-101z"/>
         <glyph glyph-name="uni0229" unicode="&#x229;" horiz-adv-x="541"
                d="M503 246q0 -21 -2 -31h-354q15 -129 135 -129q42 0 70 17t58 64l77 -54q-59 -112 -184 -122l-28 -55q51 10 86.5 -17t35.5 -74q0 -44 -30.5 -74.5t-74.5 -30.5q-35 0 -68.5 19.5t-47.5 48.5l50 19q10 -14 29 -24t37 -10q22 0 36.5 15t14.5 37q0 32 -27 43.5t-66 -4.5
l-43 27l42 80q-98 10 -154.5 80.5t-56.5 177.5q0 115 65 188t175 73q106 0 165.5 -72.5t59.5 -191.5zM280 415q-109 0 -130 -115h253q-16 115 -123 115z"/>
         <glyph glyph-name="uni0237" unicode="&#x237;" horiz-adv-x="302"
                d="M44 -260q-45 0 -68 16v95q24 -19 55 -19q29 0 49.5 22t20.5 54v592h111v-599q0 -68 -49 -114.5t-119 -46.5z"/>
         <glyph glyph-name="circumflex" unicode="&#x2c6;" horiz-adv-x="46"
                d="M27 579l103 171h117l104 -171h-88l-74 120l-75 -120h-87z"/>
         <glyph glyph-name="caron" unicode="&#x2c7;" horiz-adv-x="46"
                d="M130 579l-103 171h84l78 -119l78 119h84l-104 -171h-117z"/>
         <glyph glyph-name="breve" unicode="&#x2d8;" horiz-adv-x="46"
                d="M292 562q-76 0 -123.5 43t-47.5 119h66q0 -39 30 -67.5t75 -28.5q47 0 77 28.5t30 67.5h65q0 -76 -47.5 -119t-124.5 -43z"/>
         <glyph glyph-name="dotaccent" unicode="&#x2d9;" horiz-adv-x="46"
                d="M155 590q-28 0 -48 19.5t-20 47.5t20 48t48 20t48 -20t20 -48t-20 -47.5t-48 -19.5z"/>
         <glyph glyph-name="ring" unicode="&#x2da;" horiz-adv-x="46"
                d="M94 556q-45 0 -77 32t-32 76t32 76t77 32q44 0 75.5 -32t31.5 -76t-31.5 -76t-75.5 -32zM94 604q25 0 42 17t17 43q0 25 -17 43t-42 18t-42 -18t-17 -43q0 -26 17 -43t42 -17z"/>
         <glyph glyph-name="ogonek" unicode="&#x2db;" horiz-adv-x="46"
                d="M131 -259q-54 3 -87 31t-33 77q0 55 42 98.5t118 69.5l54 -17q-52 0 -95 -45t-43 -97q0 -26 16.5 -43t46.5 -17q58 0 92 49l36 -51q-60 -60 -147 -55z"/>
         <glyph glyph-name="tilde" unicode="&#x2dc;" horiz-adv-x="47"
                d="M262 608q-59 0 -96 56q-16 25 -38 25q-21 0 -30 -20.5t-1 -51.5h-68q-10 60 18 99t78 39q60 0 97 -56q15 -25 38 -25q21 0 29.5 20t1.5 52h67q11 -59 -16.5 -98.5t-79.5 -39.5z"/>
         <glyph glyph-name="hungarumlaut" unicode="&#x2dd;" horiz-adv-x="46"
                d="M27 574l144 176h106l-170 -176h-80zM213 574l144 176h106l-170 -176h-80z"/>
         <glyph glyph-name="gravecomb" unicode="&#x300;"
                d="M-114 590l-114 160h113l87 -160h-86z"/>
         <glyph glyph-name="acutecomb" unicode="&#x301;"
                d="M-228 590l87 160h113l-113 -160h-87z"/>
         <glyph glyph-name="uni0302" unicode="&#x302;"
                d="M-351 579l103 171h117l104 -171h-88l-74 120l-75 -120h-87z"/>
         <glyph glyph-name="tildecomb" unicode="&#x303;"
                d="M-127 608q-59 0 -96 56q-16 25 -38 25q-21 0 -30 -20.5t-1 -51.5h-68q-10 60 18 99t78 39q60 0 97 -56q15 -25 38 -25q21 0 29.5 20t1.5 52h67q11 -59 -16.5 -98.5t-79.5 -39.5z"/>
         <glyph glyph-name="uni0304" unicode="&#x304;"
                d="M-337 594v72h310v-72h-310z"/>
         <glyph glyph-name="uni0306" unicode="&#x306;"
                d="M-342 562q-76 0 -123.5 43t-47.5 119h66q0 -39 30 -67.5t75 -28.5q47 0 77 28.5t30 67.5h65q0 -76 -47.5 -119t-124.5 -43z"/>
         <glyph glyph-name="uni0307" unicode="&#x307;"
                d="M-155 590q-28 0 -48 19.5t-20 47.5t20 48t48 20t48 -20t20 -48t-20 -47.5t-48 -19.5z"/>
         <glyph glyph-name="uni0308" unicode="&#x308;"
                d="M-326 590q-28 0 -48 19.5t-20 47.5t20 48t48 20t48 -20t20 -48t-20 -47.5t-48 -19.5zM-126 590q-28 0 -48 19.5t-20 47.5t20 48t48 20t47.5 -20t19.5 -48t-19.5 -47.5t-47.5 -19.5z"/>
         <glyph glyph-name="uni030A" unicode="&#x30a;"
                d="M-92 556q-45 0 -77 32t-32 76t32 76t77 32q44 0 75.5 -32t31.5 -76t-31.5 -76t-75.5 -32zM-92 604q25 0 42 17t17 43q0 25 -17 43t-42 18t-42 -18t-17 -43q0 -26 17 -43t42 -17z"/>
         <glyph glyph-name="uni030B" unicode="&#x30b;"
                d="M-463 574l144 176h106l-170 -176h-80zM-277 574l144 176h106l-170 -176h-80z"/>
         <glyph glyph-name="uni030C" unicode="&#x30c;"
                d="M-248 579l-103 171h84l78 -119l78 119h84l-104 -171h-117z"/>
         <glyph glyph-name="uni0312" unicode="&#x312;"
                d="M-96 498q-29 0 -48.5 22t-19.5 53q-1 71 44 128.5t82 57.5v-39q-22 -9 -39 -31t-20 -37t1 -18q29 0 48.5 -19.5t19.5 -47.5q0 -29 -20 -49t-48 -20z"/>
         <glyph glyph-name="dotbelowcomb" unicode="&#x323;"
                d="M-95 -250q-28 0 -48 20t-20 48t20 48t48 20t48 -20t20 -48t-20 -48t-48 -20z"/>
         <glyph glyph-name="uni0326" unicode="&#x326;"
                d="M-153 -135v40q26 0 43.5 22.5t17.5 41t-4 21.5q-29 0 -48 19t-19 49q0 29 19 48.5t49 19.5q29 0 48.5 -21t19.5 -54q0 -80 -34.5 -134.5t-91.5 -51.5z"/>
         <glyph glyph-name="uni0327" unicode="&#x327;"
                d="M-132 -260q-35 0 -68.5 19.5t-47.5 48.5l50 19q10 -14 29 -24t37 -10q22 0 36.5 15t14.5 37q0 32 -27 43.5t-66 -4.5l-43 27l47 89h54l-33 -64q51 10 86.5 -17t35.5 -74q0 -44 -30.5 -74.5t-74.5 -30.5z"/>
         <glyph glyph-name="uni0328" unicode="&#x328;"
                d="M-174 -259q-54 3 -87 31t-33 77q0 55 42 98.5t118 69.5l54 -17q-52 0 -95 -45t-43 -97q0 -26 16.5 -43t46.5 -17q58 0 92 49l36 -51q-60 -60 -147 -55z"/>
         <glyph glyph-name="uni0335" unicode="&#x335;"
                d="M-482 218v78h315v-78h-315z"/>
         <glyph glyph-name="uni0336" unicode="&#x336;"
                d="M-755 237v46h727v-46h-727z"/>
         <glyph glyph-name="uni0337" unicode="&#x337;"
                d="M-458 108l275 292h85l-282 -292h-78z"/>
         <glyph glyph-name="uni0338" unicode="&#x338;"
                d="M-621 -21l527 793h77l-527 -793h-77z"/>
         <glyph glyph-name="uni0394" unicode="&#x394;" horiz-adv-x="789"
                d="M36 0v63l297 695h127l292 -694v-64h-716zM149 91h484l-160 372q-3 9 -36 90t-41 108h-9q-4 -14 -16 -45.5t-29 -73t-24 -60.5z"/>
         <glyph glyph-name="Lambda" unicode="&#x39b;" horiz-adv-x="762"
                d="M746 0h-125l-240 621l-241 -621h-125l301 750h129z"/>
         <glyph glyph-name="Xi" unicode="&#x39e;" horiz-adv-x="600"
                d="M74 649v101h437v-101h-437zM129 324v102h328v-102h-328zM74 0v101h437v-101h-437z"/>
         <glyph glyph-name="uni03A9" unicode="&#x3a9;" horiz-adv-x="881"
                d="M57 0v81h155v6q-58 48 -98 130t-40 179q0 152 104 254t265 102q163 0 263 -105t100 -249q0 -95 -41 -179.5t-99 -131.5v-6h157v-81h-302v60q76 40 127 124t51 196q0 118 -69 204t-186 86t-190 -83t-73 -208q0 -110 52.5 -196t125.5 -123v-60h-302z"/>
         <glyph glyph-name="uni03BC" unicode="&#x3bc;" horiz-adv-x="633"
                d="M426 500h111v-500h-111v66q-60 -76 -153 -76q-63 0 -113 36v-276h-83v750h111v-297q0 -48 34 -81.5t82 -33.5q51 0 86.5 33.5t35.5 81.5v297z"/>
         <glyph glyph-name="pi" unicode="&#x3c0;" horiz-adv-x="702"
                d="M75 0q30 84 54 220.5t28 244.5q-95 0 -134 -13l-12 65q50 31 177 31h491l-9 -83h-95v-301q0 -110 16 -164h-102q-19 30 -19 154v311l-209 1q-5 -109 -29.5 -253t-54.5 -213h-102z"/>
         <glyph glyph-name="uni1E04" unicode="&#x1e04;" horiz-adv-x="648"
                d="M454 386q66 -18 106 -65.5t40 -119.5q0 -90 -60.5 -145.5t-151.5 -55.5h-318v750h261q91 0 152.5 -56.5t61.5 -146.5q0 -110 -91 -161zM430 536q0 47 -33 80t-79 33h-134v-227h134q46 0 79 33.5t33 80.5zM372 101q47 0 80 33.5t33 80.5q0 46 -33 79.5t-80 33.5h-188v-227
h188zM317 -60q28 0 48 -20t20 -48t-20 -48t-48 -20t-48 20t-20 48t20 48t48 20z"/>
         <glyph glyph-name="uni1E05" unicode="&#x1e05;" horiz-adv-x="592"
                d="M325 510q104 0 166.5 -74t62.5 -186t-62.5 -186t-166.5 -74q-91 0 -151 66l-5 -56h-99v750h109v-301q59 61 146 61zM307 88q64 0 101.5 46t37.5 116t-37.5 116t-101.5 46q-44 0 -78.5 -28.5t-49.5 -75.5v-116q15 -47 49.5 -75.5t78.5 -28.5zM319 -60q28 0 48 -20t20 -48
t-20 -48t-48 -20t-48 20t-20 48t20 48t48 20z"/>
         <glyph glyph-name="uni1E24" unicode="&#x1e24;" horiz-adv-x="738"
                d="M553 750h115v-750h-115v324h-368v-324h-115v750h115v-324h368v324zM371 -60q28 0 48 -20t20 -48t-20 -48t-48 -20t-48 20t-20 48t20 48t48 20z"/>
         <glyph glyph-name="uni1E25" unicode="&#x1e25;" horiz-adv-x="595"
                d="M335 510q85 0 140 -54t55 -140v-316h-112v303q0 47 -32.5 78t-82.5 31q-51 0 -86.5 -33.5t-35.5 -81.5v-297h-111v750h111v-305q62 65 154 65zM294 -60q28 0 48 -20t20 -48t-20 -48t-48 -20t-48 20t-20 48t20 48t48 20z"/>
         <glyph glyph-name="uni1E36" unicode="&#x1e36;" horiz-adv-x="497"
                d="M70 0v750h115v-649h266v-101h-381zM261 -196q-28 0 -48 20t-20 48t20 48t48 20t48 -20t20 -48t-20 -48t-48 -20z"/>
         <glyph glyph-name="uni1E37" unicode="&#x1e37;" horiz-adv-x="348"
                d="M249 -10q-80 0 -127 47t-47 123v590h111l1 -590q0 -75 65 -75q34 0 55 24l61 -75q-42 -44 -119 -44zM227 -196q-28 0 -48 20t-20 48t20 48t48 20t48 -20t20 -48t-20 -48t-48 -20z"/>
         <glyph glyph-name="uni1E44" unicode="&#x1e44;" horiz-adv-x="792"
                d="M396 840q-28 0 -48 19.5t-20 47.5t20 48t48 20t48 -20t20 -48t-20 -47.5t-48 -19.5zM608 750h114v-750h-114l-423 571v-571h-115v750h114l424 -571v571z"/>
         <glyph glyph-name="uni1E45" unicode="&#x1e45;" horiz-adv-x="595"
                d="M300 590q-28 0 -48 19.5t-20 47.5t20 48t48 20t48 -20t20 -48t-20 -47.5t-48 -19.5zM335 510q85 0 140 -54t55 -140v-316h-112v303q0 47 -32.5 78t-82.5 31q-51 0 -86.5 -33.5t-35.5 -81.5v-297h-111v500h101l6 -59q61 69 158 69z"/>
         <glyph glyph-name="uni1E46" unicode="&#x1e46;" horiz-adv-x="792"
                d="M608 750h114v-750h-114l-423 571v-571h-115v750h114l424 -571v571zM397 -60q28 0 48 -20t20 -48t-20 -48t-48 -20t-48 20t-20 48t20 48t48 20z"/>
         <glyph glyph-name="uni1E47" unicode="&#x1e47;" horiz-adv-x="595"
                d="M335 510q85 0 140 -54t55 -140v-316h-112v303q0 47 -32.5 78t-82.5 31q-51 0 -86.5 -33.5t-35.5 -81.5v-297h-111v500h101l6 -59q61 69 158 69zM300 -60q28 0 48 -20t20 -48t-20 -48t-48 -20t-48 20t-20 48t20 48t48 20z"/>
         <glyph glyph-name="uni1E62" unicode="&#x1e62;" horiz-adv-x="637"
                d="M328 -10q-91 0 -169.5 40t-121.5 106l83 83q23 -55 81.5 -87.5t130.5 -32.5q65 0 103.5 25t39.5 76q0 32 -13 57t-42 44.5t-53.5 30.5t-68.5 28q-32 12 -45.5 17.5t-42 18.5t-42 22.5t-33.5 26t-29 32.5t-16.5 38.5t-7.5 47.5q0 91 67.5 144t171.5 53q179 0 273 -109
l-77 -77q-58 88 -193 88q-56 0 -90.5 -23.5t-34.5 -66.5q0 -18 9 -34.5t21 -27.5t35.5 -24t40.5 -20t48 -20q45 -18 68.5 -28.5t61.5 -33t57.5 -44.5t35 -57t15.5 -77q0 -108 -72.5 -162t-190.5 -54zM325 -196q-28 0 -48 20t-20 48t20 48t48 20t48 -20t20 -48t-20 -48
t-48 -20z"/>
         <glyph glyph-name="uni1E63" unicode="&#x1e63;" horiz-adv-x="480"
                d="M244 -10q-59 0 -118 20t-91 51l55 77q20 -23 63.5 -39.5t84.5 -18.5q42 -2 68.5 13.5t26.5 42.5q0 28 -26 43.5t-80 32.5q-25 8 -34 11t-32 12t-33 15.5t-26.5 18t-23.5 23.5t-13 29t-6 36q0 66 55.5 109.5t135.5 43.5q49 0 99.5 -15.5t84.5 -39.5l-60 -77
q-42 37 -104 44q-37 4 -67.5 -10.5t-30.5 -40.5q0 -10 3.5 -18t13 -15.5t16 -12t23.5 -10.5t25 -8.5t29 -9.5q38 -11 59.5 -20t49 -26t41 -42.5t13.5 -60.5q0 -69 -57 -113.5t-144 -44.5zM251 -196q-28 0 -48 20t-20 48t20 48t48 20t48 -20t20 -48t-20 -48t-48 -20z"/>
         <glyph glyph-name="uni1E6C" unicode="&#x1e6c;" horiz-adv-x="587"
                d="M37 750h514v-101h-200v-649h-114v649h-200v101zM293 -60q28 0 48 -20t20 -48t-20 -48t-48 -20t-48 20t-20 48t20 48t48 20z"/>
         <glyph glyph-name="uni1E6D" unicode="&#x1e6d;" horiz-adv-x="376"
                d="M315 109l61 -75q-42 -44 -119 -44q-80 0 -127 47t-47 123v255h-61v85h61v170h111v-170h142v-85h-141v-255q0 -75 65 -75q34 0 55 24zM235 -60q28 0 48 -20t20 -48t-20 -48t-48 -20t-48 20t-20 48t20 48t48 20z"/>
         <glyph glyph-name="Wgrave" unicode="&#x1e80;" horiz-adv-x="1121"
                d="M599 840h-86l-114 160h113zM1007 750h124l-317 -750h-125l-129 305l-128 -305h-124l-318 750h124l260 -614l129 305l-130 309h118l257 -615z"/>
         <glyph glyph-name="wgrave" unicode="&#x1e81;" horiz-adv-x="732"
                d="M358 590h-86l-114 160h113zM603 500h124l-171 -500h-120l-72 203l-68 -203h-119l-172 500h126l113 -367l70 214l-54 153h108l121 -369z"/>
         <glyph glyph-name="Wacute" unicode="&#x1e82;" horiz-adv-x="1121"
                d="M719 1000l-113 -160h-87l87 160h113zM1007 750h124l-317 -750h-125l-129 305l-128 -305h-124l-318 750h124l260 -614l129 305l-130 309h118l257 -615z"/>
         <glyph glyph-name="wacute" unicode="&#x1e83;" horiz-adv-x="732"
                d="M478 750l-113 -160h-87l87 160h113zM603 500h124l-171 -500h-120l-72 203l-68 -203h-119l-172 500h126l113 -367l70 214l-54 153h108l121 -369z"/>
         <glyph glyph-name="Wdieresis" unicode="&#x1e84;" horiz-adv-x="1121"
                d="M461 840q-28 0 -48 19.5t-20 47.5t20 48t48 20t48 -20t20 -48t-20 -47.5t-48 -19.5zM661 840q-28 0 -48 19.5t-20 47.5t20 48t48 20t47.5 -20t19.5 -48t-19.5 -47.5t-47.5 -19.5zM1007 750h124l-317 -750h-125l-129 305l-128 -305h-124l-318 750h124l260 -614l129 305
l-130 309h118l257 -615z"/>
         <glyph glyph-name="wdieresis" unicode="&#x1e85;" horiz-adv-x="732"
                d="M220 590q-28 0 -48 19.5t-20 47.5t20 48t48 20t48 -20t20 -48t-20 -47.5t-48 -19.5zM420 590q-28 0 -48 19.5t-20 47.5t20 48t48 20t47.5 -20t19.5 -48t-19.5 -47.5t-47.5 -19.5zM603 500h124l-171 -500h-120l-72 203l-68 -203h-119l-172 500h126l113 -367l70 214
l-54 153h108l121 -369z"/>
         <glyph glyph-name="uni1E92" unicode="&#x1e92;" horiz-adv-x="658"
                d="M199 101h414v-101h-570v61l406 588h-395v101h551v-61zM326 -60q28 0 48 -20t20 -48t-20 -48t-48 -20t-48 20t-20 48t20 48t48 20z"/>
         <glyph glyph-name="uni1E93" unicode="&#x1e93;" horiz-adv-x="542"
                d="M54 0v80l285 328h-281v92h425v-78l-286 -330h291v-92h-434zM271 -196q-28 0 -48 20t-20 48t20 48t48 20t48 -20t20 -48t-20 -48t-48 -20z"/>
         <glyph glyph-name="uni1EA0" unicode="&#x1ea0;" horiz-adv-x="762"
                d="M746 0h-125l-57 151h-366l-58 -151h-125l301 750h129zM234 247h293l-146 385zM381 -60q28 0 48 -20t20 -48t-20 -48t-48 -20t-48 20t-20 48t20 48t48 20z"/>
         <glyph glyph-name="uni1EA1" unicode="&#x1ea1;" horiz-adv-x="539"
                d="M260 510q93 0 153.5 -50.5t60.5 -145.5v-314h-98l-5 62q-86 -72 -172 -72q-67 0 -110.5 43t-43.5 110q0 74 59.5 117t177.5 27l83 -11v45q0 48 -31 71.5t-79 23.5q-73 0 -120 -60l-76 69q69 85 201 85zM158 149q0 -28 18.5 -44.5t48.5 -16.5q64 0 140 62v45l-66 10
q-141 21 -141 -56zM260 -60q28 0 48 -20t20 -48t-20 -48t-48 -20t-48 20t-20 48t20 48t48 20z"/>
         <glyph glyph-name="uni1EB8" unicode="&#x1eb8;" horiz-adv-x="542"
                d="M497 649h-312v-223h270v-102h-270v-223h312v-101h-427v750h427v-101zM283 -60q28 0 48 -20t20 -48t-20 -48t-48 -20t-48 20t-20 48t20 48t48 20z"/>
         <glyph glyph-name="uni1EB9" unicode="&#x1eb9;" horiz-adv-x="541"
                d="M503 246q0 -21 -2 -31h-354q15 -129 135 -129q42 0 70 17t58 64l77 -54q-65 -123 -209 -123q-111 0 -175.5 72t-64.5 187t65 188t175 73q106 0 165.5 -72.5t59.5 -191.5zM280 415q-109 0 -130 -115h253q-16 115 -123 115zM281 -60q28 0 48 -20t20 -48t-20 -48t-48 -20
t-48 20t-20 48t20 48t48 20z"/>
         <glyph glyph-name="uni1EBC" unicode="&#x1ebc;" horiz-adv-x="542"
                d="M186 837h-68q-10 60 18 99t78 39q60 0 97 -56q15 -25 38 -25q21 0 29.5 20t1.5 52h67q11 -59 -16.5 -98.5t-79.5 -39.5q-59 0 -96 56q-16 25 -38 25q-21 0 -30 -20.5t-1 -51.5zM497 649h-312v-223h270v-102h-270v-223h312v-101h-427v750h427v-101z"/>
         <glyph glyph-name="uni1EBD" unicode="&#x1ebd;" horiz-adv-x="541"
                d="M182 588h-68q-10 60 18 99t78 39q60 0 97 -56q15 -25 38 -25q21 0 29.5 20t1.5 52h67q11 -59 -16.5 -98.5t-79.5 -39.5q-59 0 -96 56q-16 25 -38 25q-21 0 -30 -20.5t-1 -51.5zM503 246q0 -21 -2 -31h-354q15 -129 135 -129q42 0 70 17t58 64l77 -54q-65 -123 -209 -123
q-111 0 -175.5 72t-64.5 187t65 188t175 73q106 0 165.5 -72.5t59.5 -191.5zM280 415q-109 0 -130 -115h253q-16 115 -123 115z"/>
         <glyph glyph-name="uni1ECA" unicode="&#x1eca;" horiz-adv-x="255"
                d="M70 0v750h115v-750h-115zM127 -196q-28 0 -48 20t-20 48t20 48t48 20t48 -20t20 -48t-20 -48t-48 -20z"/>
         <glyph glyph-name="uni1ECB" unicode="&#x1ecb;" horiz-adv-x="284"
                d="M142 590q-28 0 -48 19.5t-20 47.5t20 48t48 20t48 -20t20 -48t-20 -47.5t-48 -19.5zM86 0v500h111v-500h-111zM148 -211q-28 0 -48 20t-20 48t20 48t48 20t48 -20t20 -48t-20 -48t-48 -20z"/>
         <glyph glyph-name="uni1ECC" unicode="&#x1ecc;" horiz-adv-x="830"
                d="M415 -10q-158 0 -262 111.5t-104 273.5t104 273.5t262 111.5q157 0 261.5 -111.5t104.5 -273.5t-104.5 -273.5t-261.5 -111.5zM415 99q114 0 185.5 79t71.5 197t-71.5 197t-185.5 79t-186 -79t-72 -197t72 -197t186 -79zM415 -196q-28 0 -48 20t-20 48t20 48t48 20
t48 -20t20 -48t-20 -48t-48 -20z"/>
         <glyph glyph-name="uni1ECD" unicode="&#x1ecd;" horiz-adv-x="570"
                d="M285 -10q-109 0 -178 74.5t-69 185.5t69 185.5t178 74.5t178 -74.5t69 -185.5t-69 -185.5t-178 -74.5zM285 88q63 0 100.5 46.5t37.5 115.5t-37.5 115.5t-100.5 46.5t-100.5 -46t-37.5 -116t37.5 -116t100.5 -46zM285 -196q-28 0 -48 20t-20 48t20 48t48 20t48 -20
t20 -48t-20 -48t-48 -20z"/>
         <glyph glyph-name="uni1EE4" unicode="&#x1ee4;" horiz-adv-x="740"
                d="M370 -10q-123 0 -208.5 74t-85.5 180v506h115v-486q0 -72 52 -122.5t127 -50.5t127 50.5t52 122.5v486h115v-506q0 -106 -85.5 -180t-208.5 -74zM370 -196q-28 0 -48 20t-20 48t20 48t48 20t48 -20t20 -48t-20 -48t-48 -20z"/>
         <glyph glyph-name="Ygrave" unicode="&#x1ef2;" horiz-adv-x="670"
                d="M374 840h-86l-114 160h113zM654 750l-261 -394v-356h-115v353l-263 397h129l191 -298l192 298h127z"/>
         <glyph glyph-name="ygrave" unicode="&#x1ef3;" horiz-adv-x="603"
                d="M340 590h-86l-114 160h113zM532 500l1 -500q0 -113 -68.5 -183.5t-189.5 -70.5q-100 0 -173 39v119q78 -60 182 -60q66 0 101.5 40.5t35.5 115.5v55q-62 -65 -150 -65q-84 0 -141.5 58t-57.5 142v310h111v-297q0 -48 34 -81.5t83 -33.5q50 0 85.5 33.5t35.5 81.5v297h111
z"/>
         <glyph glyph-name="uni1EF4" unicode="&#x1ef4;" horiz-adv-x="670"
                d="M278 0v353l-263 397h129l191 -298l192 298h127l-261 -394v-356h-115zM336 -60q28 0 48 -20t20 -48t-20 -48t-48 -20t-48 20t-20 48t20 48t48 20z"/>
         <glyph glyph-name="uni1EF8" unicode="&#x1ef8;" horiz-adv-x="670"
                d="M239 837h-68q-10 60 18 99t78 39q60 0 97 -56q15 -25 38 -25q21 0 29.5 20t1.5 52h67q11 -59 -16.5 -98.5t-79.5 -39.5q-59 0 -96 56q-16 25 -38 25q-21 0 -30 -20.5t-1 -51.5zM654 750l-261 -394v-356h-115v353l-263 397h129l191 -298l192 298h127z"/>
         <glyph glyph-name="endash" unicode="&#x2013;" horiz-adv-x="674"
                d="M87 222v76h500v-76h-500z"/>
         <glyph glyph-name="emdash" unicode="&#x2014;" horiz-adv-x="1017"
                d="M9 222v76h1000v-76h-1000z"/>
         <glyph glyph-name="quoteleft" unicode="&#x2018;" horiz-adv-x="259"
                d="M103 449q-61 0 -74.5 76.5t25.5 153t107 77.5v-52q-37 -1 -58 -55q-17 -43 -6 -61q3 -4 7 -4q28 0 47.5 -20t19.5 -48t-19.5 -47.5t-48.5 -19.5z"/>
         <glyph glyph-name="quoteright" unicode="&#x2019;" horiz-adv-x="207"
                d="M46 449v52q29 1 48 35t19 64q0 21 -10 21q-28 0 -47.5 20t-19.5 48t19.5 47.5t48.5 19.5q37 0 56.5 -31.5t19.5 -79.5q0 -72 -37 -133.5t-97 -62.5z"/>
         <glyph glyph-name="quotesinglbase" unicode="&#x201a;" horiz-adv-x="254"
                d="M48 -181v52q31 0 51 32t20 63q0 25 -14 25q-28 0 -47.5 19.5t-19.5 47.5t20 48t48 20q39 0 59.5 -32t20.5 -82q0 -72 -38.5 -132.5t-99.5 -60.5z"/>
         <glyph glyph-name="quotedblleft" unicode="&#x201c;" horiz-adv-x="453"
                d="M249 766v-52q-29 -1 -48 -35t-19 -64q0 -21 10 -21q28 0 47.5 -20t19.5 -48t-19.5 -47.5t-48.5 -19.5q-37 0 -56.5 31.5t-19.5 79.5q0 72 37 133.5t97 62.5zM419 766v-52q-29 -1 -48 -35t-19 -64q0 -21 10 -21q28 0 47.5 -20t19.5 -48t-19.5 -47.5t-48.5 -19.5
q-37 0 -56.5 31.5t-19.5 79.5q0 72 37 133.5t97 62.5z"/>
         <glyph glyph-name="quotedblright" unicode="&#x201d;" horiz-adv-x="422"
                d="M48 449v52q29 1 48 35t19 64q0 21 -10 21q-28 0 -47.5 20t-19.5 48t19.5 47.5t48.5 19.5q37 0 56.5 -31.5t19.5 -79.5q0 -72 -37 -133.5t-97 -62.5zM218 449v52q29 1 48 35t19 64q0 21 -10 21q-28 0 -47.5 20t-19.5 48t19.5 47.5t48.5 19.5q37 0 56.5 -31.5t19.5 -79.5
q0 -72 -37 -133.5t-97 -62.5z"/>
         <glyph glyph-name="quotedblbase" unicode="&#x201e;" horiz-adv-x="437"
                d="M48 -181v52q31 0 51 32t20 63q0 25 -14 25q-28 0 -47.5 19.5t-19.5 47.5t20 48t48 20q39 0 59.5 -32t20.5 -82q0 -72 -38.5 -132.5t-99.5 -60.5zM241 -181v52q31 0 51 32t20 63q0 25 -14 25q-28 0 -47.5 19.5t-19.5 47.5t19.5 48t48.5 20q39 0 59.5 -32t20.5 -82
q0 -72 -38.5 -132.5t-99.5 -60.5z"/>
         <glyph glyph-name="dagger" unicode="&#x2020;" horiz-adv-x="665"
                d="M537 483v-72h-170v-581h-73v581h-167v72h167v187h73v-187h170z"/>
         <glyph glyph-name="daggerdbl" unicode="&#x2021;" horiz-adv-x="665"
                d="M537 411h-170v-316h170v-72h-170v-193h-73v193h-167v72h167v316h-167v72h167v187h73v-187h170v-72z"/>
         <glyph glyph-name="bullet" unicode="&#x2022;" horiz-adv-x="493"
                d="M247 187q-57 0 -98.5 40.5t-41.5 98.5q0 56 42 98t98 42t97.5 -42t41.5 -98q0 -58 -41.5 -98.5t-97.5 -40.5z"/>
         <glyph glyph-name="ellipsis" unicode="&#x2026;" horiz-adv-x="723"
                d="M98 -10q-28 0 -48 20t-20 48t20 48t48 20t48 -20t20 -48t-20 -48t-48 -20zM311 -10q-28 0 -48 20t-20 48t20 48t48 20t48 -20t20 -48t-20 -48t-48 -20zM511 -10q-28 0 -48 20t-20 48t20 48t48 20t48 -20t20 -48t-20 -48t-48 -20z"/>
         <glyph glyph-name="perthousand" unicode="&#x2030;" horiz-adv-x="1119"
                d="M198 425q-61 0 -104 49t-43 118q0 70 43 119t104 49t103.5 -49t42.5 -119q0 -69 -42.5 -118t-103.5 -49zM77 0l510 750h115l-509 -750h-116zM198 510q25 0 43.5 24t18.5 58q0 35 -18.5 59t-43.5 24t-43 -24t-18 -59q0 -34 18 -58t43 -24zM583 -10q-61 0 -104 49t-43 119
q0 69 43 118t104 49t103.5 -49t42.5 -118q0 -70 -42.5 -119t-103.5 -49zM926 -10q-61 0 -104 49t-43 119q0 69 43 118t104 49t103.5 -49t42.5 -118q0 -70 -42.5 -119t-103.5 -49zM582 75q25 0 43 24t18 59q0 34 -18 58t-43 24t-43 -24t-18 -58q0 -35 18 -59t43 -24zM925 75
q25 0 43 24t18 59q0 34 -18 58t-43 24t-43 -24t-18 -58q0 -35 18 -59t43 -24z"/>
         <glyph glyph-name="guilsinglleft" unicode="&#x2039;" horiz-adv-x="358"
                d="M200 95l-152 184l152 184h91l-152 -184l152 -184h-91z"/>
         <glyph glyph-name="guilsinglright" unicode="&#x203a;" horiz-adv-x="358"
                d="M67 95l152 184l-152 184h91l152 -184l-152 -184h-91z"/>
         <glyph glyph-name="fraction" unicode="&#x2044;" horiz-adv-x="608"
                d="M-21 0l523 750h113l-523 -750h-113z"/>
         <glyph glyph-name="Euro" unicode="&#x20ac;" horiz-adv-x="672"
                d="M364 75q51 0 92 35t46 85l83 -35q-19 -73 -82.5 -121.5t-138.5 -48.5q-102 0 -167 66.5t-65 171.5v28h-95l36 72h59v86h-95l36 72h59v36q0 105 65 171.5t167 66.5q75 0 138.5 -48.5t82.5 -121.5l-83 -35q-5 50 -46 85t-92 35q-67 0 -107 -41.5t-40 -111.5v-36h211
l-36 -72h-175v-86h211l-36 -72h-175v-28q0 -70 40 -111.5t107 -41.5z"/>
         <glyph glyph-name="uni2113" unicode="&#x2113;" horiz-adv-x="609"
                d="M334 -6q-93 0 -143.5 52t-60.5 132v11q-11 -8 -33.5 -24.5t-32.5 -23.5l-31 59q11 9 44.5 34t50.5 39v279q0 138 55.5 203t139.5 65q78 0 118 -52t40 -130q0 -95 -63 -188.5t-185 -199.5l1 -31q1 -67 37 -103t87 -36t94.5 32.5t69.5 77.5l49 -47q-85 -149 -237 -149z
M233 347q171 171 171 289q0 109 -79 109q-37 0 -64.5 -42.5t-27.5 -136.5v-219z"/>
         <glyph glyph-name="trademark" unicode="&#x2122;" horiz-adv-x="725"
                d="M10 701v49h243v-49h-94v-302h-56v302h-93zM606 750h59v-351h-55v263l-128 -189l-127 189v-263h-56v351h60l123 -184z"/>
         <glyph glyph-name="estimated" unicode="&#x212e;" horiz-adv-x="928"
                d="M463 -9q-177 0 -302 112.5t-125 270.5q0 160 125 273t302 113q178 0 303 -113t125 -273v-10h-692q-6 0 -6 -4v-210q0 -11 9 -24q111 -114 262 -114q81 0 153 34t123 94h61q-58 -69 -147 -109t-191 -40zM199 385h531q4 0 4 7v210q0 16 -10 25q-112 110 -260 110t-261 -113
q-10 -12 -10 -26v-206q0 -7 6 -7z"/>
         <glyph glyph-name="arrowleft" unicode="&#x2190;" horiz-adv-x="850"
                d="M760 413v-121h-537l30 -127l-243 188l243 188l-30 -128h537z"/>
         <glyph glyph-name="arrowup" unicode="&#x2191;" horiz-adv-x="513"
                d="M188 0v537l-128 -30l188 243l188 -243l-127 30v-537h-121z"/>
         <glyph glyph-name="arrowright" unicode="&#x2192;" horiz-adv-x="850"
                d="M90 413h537l-30 128l243 -188l-243 -188l30 127h-537v121z"/>
         <glyph glyph-name="arrowdown" unicode="&#x2193;" horiz-adv-x="496"
                d="M188 750h121v-537l127 30l-188 -243l-188 243l128 -30v537z"/>
         <glyph glyph-name="arrowboth" unicode="&#x2194;" horiz-adv-x="866"
                d="M181 144l-241 189l243 188l-31 -127l561 -1l-30 127l243 -188l-242 -188l30 128l-562 1z"/>
         <glyph glyph-name="arrowupdn" unicode="&#x2195;" horiz-adv-x="496"
                d="M248 -71l-188 242l128 -30v390l-128 -30l188 242l188 -243l-127 30v-388l127 30z"/>
         <glyph glyph-name="uni2196" unicode="&#x2196;" horiz-adv-x="545"
                d="M605 152l-85 -85l-380 379l-69 -111l-39 305l305 -39l-112 -69z"/>
         <glyph glyph-name="uni2197" unicode="&#x2197;" horiz-adv-x="545"
                d="M-60 152l380 380l-112 69l305 39l-39 -305l-69 111l-380 -379z"/>
         <glyph glyph-name="uni2198" unicode="&#x2198;" horiz-adv-x="546"
                d="M-59 598l85 85l380 -379l69 111l39 -305l-305 39l112 69z"/>
         <glyph glyph-name="uni2199" unicode="&#x2199;" horiz-adv-x="546"
                d="M605 598l-380 -380l112 -69l-305 -39l39 305l69 -111l380 379z"/>
         <glyph glyph-name="partialdiff" unicode="&#x2202;" horiz-adv-x="549"
                d="M167 708q92 17 169.5 -28.5t122 -138.5t43.5 -213q-1 -137 -73 -230.5t-178 -93.5q-124 0 -175 86t-3 214q42 112 129.5 158t181.5 11q-28 93 -86.5 137t-130.5 19v79zM403 328q0 21 -2 59q-73 45 -137 16t-100 -124q-31 -82 -4.5 -142t91.5 -60q62 0 106.5 74t45.5 177z
"/>
         <glyph glyph-name="emptyset" unicode="&#x2205;" horiz-adv-x="812"
                d="M633 486q72 -85 72 -195q0 -124 -87.5 -211.5t-211.5 -87.5q-110 0 -195 72l-43 -43l-32 32l43 43q-72 85 -72 195q0 124 87.5 211.5t211.5 87.5q110 0 195 -72l43 43l32 -32zM196 291q0 -75 46 -132l296 296q-57 46 -132 46q-88 0 -149 -61t-61 -149zM406 81
q88 0 149 61t61 149q0 75 -46 132l-296 -296q57 -46 132 -46z"/>
         <glyph glyph-name="product" unicode="&#x220f;" horiz-adv-x="750"
                d="M703 703v-79h-60v-744h-78v744h-379v-744h-79v744h-60v79h656z"/>
         <glyph glyph-name="summation" unicode="&#x2211;" horiz-adv-x="753"
                d="M87 -118v65l356 345l-356 345v66h579v-85h-439l330 -326l-330 -326h439v-85z"/>
         <glyph glyph-name="minus" unicode="&#x2212;" horiz-adv-x="714"
                d="M57 262v74h600v-74h-600z"/>
         <glyph glyph-name="radical" unicode="&#x221a;" horiz-adv-x="737"
                d="M248 -78l-113 346h-68v72h120l99 -300l347 725l66 -28l-390 -815h-61z"/>
         <glyph glyph-name="infinity" unicode="&#x221e;" horiz-adv-x="772"
                d="M203 138q-61 0 -102.5 43t-43.5 110q2 67 43.5 110t102.5 43q89 0 183 -99q94 99 184 99q64 0 103.5 -41.5t41.5 -111.5q-2 -70 -41.5 -111.5t-103.5 -41.5q-90 0 -184 99q-94 -99 -183 -99zM203 210q60 0 135 81q-75 81 -135 81q-30 0 -51.5 -23.5t-22.5 -57.5
q1 -34 22.5 -57.5t51.5 -23.5zM569 210q31 0 52 22.5t22 58.5q-1 36 -22 58.5t-52 22.5q-60 0 -135 -81q75 -81 135 -81z"/>
         <glyph glyph-name="integral" unicode="&#x222b;" horiz-adv-x="459"
                d="M174 -189q-42 0 -67 31t-17 77h56q0 -49 28 -49q11 0 18.5 8t7.5 21v754q0 38 25 63t62 25q41 0 66 -31t17 -77h-57q0 27 -6 38t-21 11q-11 0 -19 -8t-8 -21v-754q0 -38 -24.5 -63t-60.5 -25z"/>
         <glyph glyph-name="approxequal" unicode="&#x2248;" horiz-adv-x="584"
                d="M399 318q-31 0 -59.5 15t-39.5 25.5t-33 35.5q-40 45 -76 45q-38 0 -61 -31.5t-19 -77.5h-59q-7 74 33.5 121t106.5 47q39 0 66.5 -18t58.5 -55q38 -48 77 -48q38 0 61 30t18 78h59q8 -71 -31 -119t-102 -48zM399 119q-31 0 -59 14.5t-40 25.5t-33 35q-40 45 -76 45
q-39 0 -61.5 -31.5t-18.5 -77.5h-59q-7 75 33.5 122t106.5 47q38 0 66 -18t59 -55q38 -49 77 -49q38 0 61 30.5t18 78.5h59q8 -71 -31 -119t-102 -48z"/>
         <glyph glyph-name="notequal" unicode="&#x2260;" horiz-adv-x="714"
                d="M657 326h-207l-105 -122h312v-72h-373l-108 -126h-66l108 126h-161v72h222l105 122h-327v72h389l92 108h66l-92 -108h145v-72z"/>
         <glyph glyph-name="lessequal" unicode="&#x2264;" horiz-adv-x="786"
                d="M669 709v-93l-461 -208l461 -209v-94l-552 253v100zM117 0v66h552v-66h-552z"/>
         <glyph glyph-name="greaterequal" unicode="&#x2265;" horiz-adv-x="786"
                d="M117 709l552 -251v-100l-552 -253v94l461 209l-461 208v93zM117 0v66h552v-66h-552z"/>
         <glyph glyph-name="lozenge" unicode="&#x25ca;" horiz-adv-x="778"
                d="M389 52l-302 301l302 302l301 -301zM390 175l177 179l-177 178l-179 -179z"/>
         <glyph glyph-name="uniF8FF" unicode="&#xf8ff;" horiz-adv-x="980"
                d="M490 0q-157 0 -268.5 111.5t-111.5 268.5t111.5 268.5t268.5 111.5q158 0 269 -111t111 -269q0 -157 -111.5 -268.5t-268.5 -111.5zM490 36q142 0 243 101t101 243t-101 243t-243 101t-243 -101t-101 -243t101 -243t243 -101zM689 217q-7 0 -12 6l-145 144q-12 14 0 26
l145 145q13 12 25 0q13 -13 0 -26l-132 -132l132 -132q11 -11 0 -25q-4 -6 -13 -6zM291 217q-7 0 -12.5 5.5t-5.5 12.5v290q0 7 5.5 12.5t12.5 5.5t12.5 -5.5t5.5 -12.5v-290q0 -7 -5.5 -12.5t-12.5 -5.5zM490 217q-8 0 -13 5.5t-5 12.5v290q0 7 5 12.5t13 5.5t13 -5.5
t5 -12.5v-290q0 -7 -5 -12.5t-13 -5.5zM345 362q-7 0 -12.5 5t-5.5 13t5.5 13t12.5 5h91q8 0 13 -5t5 -13t-5 -13t-13 -5h-91z"/>
         <glyph glyph-name="i.loclTRK" horiz-adv-x="251"
                d="M126 590q-28 0 -48 19.5t-20 47.5t20 48t48 20t48 -20t20 -48t-20 -47.5t-48 -19.5zM70 0v500h111v-500h-111z"/>
         <glyph glyph-name="arrow" horiz-adv-x="496"
                d="M188 0v537l-128 -30l188 243l188 -243l-127 30v-537h-121z"/>
         </font>
</defs>
</svg>
